<?xml version="1.0" encoding="UTF-8" standalone="no"?>
<svg
   xmlns:dc="http://purl.org/dc/elements/1.1/"
   xmlns:cc="http://creativecommons.org/ns#"
   xmlns:rdf="http://www.w3.org/1999/02/22-rdf-syntax-ns#"
   xmlns:svg="http://www.w3.org/2000/svg"
   xmlns="http://www.w3.org/2000/svg"
   viewBox="0 0 488.86496 391.8353"
   height="391.8353"
   width="488.86496"
   xml:space="preserve"
   version="1.1"
   id="svg2"><metadata
     id="metadata8"><rdf:RDF><cc:Work
         rdf:about=""><dc:format>image/svg+xml</dc:format><dc:type
           rdf:resource="http://purl.org/dc/dcmitype/StillImage" /><dc:title></dc:title></cc:Work></rdf:RDF></metadata><defs
     id="defs6" /><g
     transform="matrix(1.25,0,0,-1.25,0,391.83529)"
     id="g10"><g
       id="g12"><path
         id="path14"
         style="fill:#9f6ef1;fill-opacity:0.15224903;fill-rule:nonzero;stroke:none"
         d="m 70.578,290.828 260.691,0 0,-260.781 -260.691,0 0,260.781 z" /><g
         transform="matrix(1,0,0,-1,0,313.46823)"
         id="g16"><path
           id="path18"
           style="fill:none;stroke:#000000;stroke-width:1.75999999;stroke-linecap:butt;stroke-linejoin:miter;stroke-miterlimit:4;stroke-dasharray:none;stroke-opacity:1"
           d="m 70.578,22.641 260.691,0 0,260.781 -260.691,0 0,-260.781 z" /></g><g
         transform="matrix(1,0,0,-1,0,313.46823)"
         id="g20"><path
           id="path22"
           style="fill:#d3d3d3;fill-opacity:1;fill-rule:nonzero;stroke:#000000;stroke-width:1.75999999;stroke-linecap:butt;stroke-linejoin:miter;stroke-miterlimit:4;stroke-dasharray:none;stroke-opacity:1"
           d="m 100.234,52.746 201.309,0 0,200.402 -201.309,0 0,-200.402 z" /></g><g
         transform="matrix(1,0,0,-1,0,313.46823)"
         id="g24"><path
           id="path26"
           style="fill:none;stroke:#000000;stroke-width:0.80000001;stroke-linecap:butt;stroke-linejoin:miter;stroke-miterlimit:4;stroke-dasharray:none;stroke-opacity:1"
           d="m 73.289,291.074 255.277,0" /></g><g
         transform="matrix(1,0,0,-1,0,313.46823)"
         id="g28"><path
           id="path30"
           style="fill:#000000;fill-opacity:1;fill-rule:evenodd;stroke:#000000;stroke-width:0.30000001;stroke-linecap:butt;stroke-linejoin:round;stroke-miterlimit:4;stroke-dasharray:none;stroke-opacity:1"
           d="m 77.473,293.008 -5.246,-1.93 5.246,-1.926 c -0.84,1.137 -0.832,2.696 0,3.856 z" /></g><g
         transform="matrix(-1,0,0,1,0,313.46823)"
         id="g32"><path
           id="path34"
           style="fill:#000000;fill-opacity:1;fill-rule:evenodd;stroke:#000000;stroke-width:0.40000001;stroke-linecap:butt;stroke-linejoin:miter;stroke-miterlimit:4;stroke-dasharray:none;stroke-opacity:1"
           d="m -325.367,-291.074 1.601,-1.598 -5.601,1.598 5.601,1.601 -1.601,-1.601 z" /></g><g
         transform="matrix(1,0,0,-1,0,313.46823)"
         id="g36"><path
           id="path38"
           style="fill:none;stroke:#000000;stroke-width:0.80000001;stroke-linecap:butt;stroke-linejoin:miter;stroke-miterlimit:4;stroke-dasharray:none;stroke-opacity:1"
           d="m 335.738,23.004 0.051,28.367" /></g><g
         transform="matrix(0.00183022,-1,-1,-0.00183022,0,313.46823)"
         id="g40"><path
           id="path42"
           style="fill:#000000;fill-opacity:1;fill-rule:evenodd;stroke:#000000;stroke-width:0.299999;stroke-linecap:butt;stroke-linejoin:round;stroke-miterlimit:4;stroke-dasharray:none;stroke-opacity:1"
           d="m 27.802,-333.758 -5.242,-1.927 5.245,-1.928 c -0.838,1.139 -0.833,2.694 -0.003,3.855 z" /></g><g
         transform="matrix(-0.00183022,1,1,0.00183022,0,313.46823)"
         id="g44"><path
           id="path46"
           style="fill:#000000;fill-opacity:1;fill-rule:evenodd;stroke:#000000;stroke-width:0.39999899;stroke-linecap:butt;stroke-linejoin:miter;stroke-miterlimit:4;stroke-dasharray:none;stroke-opacity:1"
           d="m -48.786,335.692 1.6,-1.599 -5.6,1.599 5.598,1.601 -1.598,-1.601 z" /></g><g
         transform="matrix(1,0,0,-1,0,313.46823)"
         id="g48"><path
           id="path50"
           style="fill:none;stroke:#000000;stroke-width:0.80000001;stroke-linecap:butt;stroke-linejoin:miter;stroke-miterlimit:4;stroke-dasharray:none;stroke-opacity:1"
           d="m 55.988,23.695 0.93,258.282" /></g><g
         transform="matrix(0.00359046,-1,-1,-0.00359046,0,313.46823)"
         id="g52"><path
           id="path54"
           style="fill:#000000;fill-opacity:1;fill-rule:evenodd;stroke:#000000;stroke-width:0.29999799;stroke-linecap:butt;stroke-linejoin:round;stroke-miterlimit:4;stroke-dasharray:none;stroke-opacity:1"
           d="m 28.08,-53.966 -5.247,-1.929 5.246,-1.93 c -0.836,1.138 -0.834,2.696 10e-4,3.859 z" /></g><g
         transform="matrix(-0.00359046,1,1,0.00359046,0,313.46823)"
         id="g56"><path
           id="path58"
           style="fill:#000000;fill-opacity:1;fill-rule:evenodd;stroke:#000000;stroke-width:0.399997;stroke-linecap:butt;stroke-linejoin:miter;stroke-miterlimit:4;stroke-dasharray:none;stroke-opacity:1"
           d="m -278.978,55.905 1.599,-1.6 -5.599,1.597 5.6,1.602 -1.6,-1.599 z" /></g><g
         transform="matrix(1,0,0,-1,0,313.46823)"
         id="g60"><path
           id="path62"
           style="fill:#58c160;fill-opacity:1;fill-rule:nonzero;stroke:#000000;stroke-width:1.75999999;stroke-linecap:butt;stroke-linejoin:miter;stroke-miterlimit:4;stroke-dasharray:none;stroke-opacity:1"
           d="m 301.543,22.645 29.699,0 0,30.113 -29.699,0 0,-30.113 z" /></g><g
         transform="matrix(1,0,0,-1,0,313.46823)"
         id="g64"><path
           id="path66"
           style="fill:#ff0000;fill-opacity:1;fill-rule:nonzero;stroke:#ff0000;stroke-width:1.75999999;stroke-linecap:butt;stroke-linejoin:miter;stroke-miterlimit:4;stroke-dasharray:none;stroke-opacity:1"
           d="m 86.848,267.82 c 0.789,0 1.422,0.387 1.422,0.871 l 0,0.875 c 0,0.481 -0.633,0.872 -1.422,0.872 -0.789,0 -1.426,-0.391 -1.426,-0.872 l 0,-0.875 c 0,-0.484 0.637,-0.871 1.426,-0.871 z" /></g><path
         id="path68"
         style="fill:#ff0000;fill-opacity:1;fill-rule:evenodd;stroke:none"
         d="m 103.738,44.062 0.043,-0.008 0.051,-0.012 0.055,-0.011 0.062,-0.012 0.067,-0.02 0.07,-0.019 0.066,-0.023 0.078,-0.02 0.082,-0.027 0.083,-0.032 0.082,-0.035 0.171,-0.078 0.086,-0.043 0.172,-0.101 0.086,-0.059 0.082,-0.059 0.074,-0.066 0.079,-0.07 0.074,-0.078 0.07,-0.082 0.067,-0.086 0.062,-0.09 0.055,-0.098 0.027,-0.051 0.023,-0.05 0.024,-0.059 0.019,-0.051 0.02,-0.055 0.02,-0.062 0.015,-0.059 0.012,-0.062 0.012,-0.067 0.011,-0.062 0.008,-0.066 0.004,-0.071 0.004,-0.066 0,-0.074 c 0,-1.102 -0.676,-1.965 -2.192,-1.965 -1.624,0 -2.328,1.23 -2.691,3.066 -0.059,0.281 -0.078,0.367 -0.273,0.367 -0.254,0 -0.254,-0.152 -0.254,-0.543 l 0,-2.847 c 0,-0.367 0,-0.52 0.215,-0.52 0.097,0 0.117,0.024 0.488,0.434 0.035,0.043 0.035,0.086 0.383,0.496 0.851,-0.906 1.726,-0.93 2.132,-0.93 2.231,0 3.122,1.449 3.122,3.004 0,1.145 -0.582,1.789 -0.813,2.051 -0.641,0.687 -1.398,0.863 -2.211,1.035 -1.086,0.238 -2.383,0.52 -2.383,1.773 0,0.754 0.504,1.637 2.168,1.637 2.133,0 2.231,-1.941 2.27,-2.613 0.019,-0.195 0.195,-0.195 0.234,-0.195 0.25,0 0.25,0.109 0.25,0.519 l 0,2.18 c 0,0.371 0,0.519 -0.211,0.519 -0.097,0 -0.136,0 -0.39,-0.257 -0.059,-0.086 -0.25,-0.282 -0.328,-0.348 -0.739,0.605 -1.532,0.605 -1.825,0.605 -2.363,0 -3.101,-1.445 -3.101,-2.656 0,-0.754 0.312,-1.359 0.836,-1.832 0.621,-0.562 1.16,-0.691 2.558,-0.996 z" /><path
         id="path70"
         style="fill:#ff0000;fill-opacity:1;fill-rule:evenodd;stroke:none"
         d="m 116.227,44.496 -0.004,0.253 -0.02,0.258 -0.027,0.25 -0.031,0.246 -0.051,0.243 -0.059,0.238 -0.066,0.234 -0.078,0.231 -0.086,0.226 -0.098,0.215 -0.102,0.215 -0.113,0.203 -0.121,0.199 -0.129,0.192 -0.133,0.179 -0.14,0.18 -0.153,0.168 -0.156,0.156 -0.16,0.153 -0.172,0.14 -0.172,0.133 -0.176,0.125 -0.187,0.113 -0.188,0.098 -0.195,0.094 -0.199,0.082 -0.199,0.066 -0.207,0.059 -0.211,0.043 -0.215,0.035 -0.219,0.016 -0.215,0.007 -0.019,-0.476 c 0.851,0 1.687,-0.477 2.191,-1.403 0.504,-0.925 0.504,-2.179 0.504,-3 0,-0.773 0,-1.945 -0.43,-2.894 -0.421,-0.969 -1.273,-1.594 -2.246,-1.594 -0.832,0 -1.687,0.449 -2.211,1.445 -0.484,0.95 -0.484,2.27 -0.484,3.043 0,0.84 0,2.008 0.469,2.957 0.519,0.997 1.429,1.446 2.207,1.446 l 0.019,0.476 c -2.422,0 -4.304,-2.351 -4.304,-5.05 0,-2.786 2.015,-4.86 4.285,-4.86 2.344,0 4.301,2.117 4.301,4.86 z" /><path
         id="path72"
         style="fill:#ff0000;fill-opacity:1;fill-rule:evenodd;stroke:none"
         d="m 124.406,41.578 0,-1.942 2.793,0.238 0,0.668 c -1.359,0 -1.511,0.153 -1.511,1.211 l 0,7.664 -2.852,-0.238 0,-0.668 c 1.355,0 1.512,-0.152 1.512,-1.207 l 0,-3.844 c 0,-1.882 -0.93,-3.347 -2.344,-3.347 -1.629,0 -1.707,1.015 -1.707,2.136 l 0,7.168 -2.852,-0.238 0,-0.668 c 1.516,0 1.516,-0.062 1.516,-1.988 l 0,-3.238 c 0,-1.684 0,-3.649 2.945,-3.649 1.086,0 1.938,0.61 2.5,1.942 z" /><path
         id="path74"
         style="fill:#ff0000;fill-opacity:1;fill-rule:evenodd;stroke:none"
         d="m 130.961,47.042 0,2.375 -2.695,-0.238 0,-0.668 c 1.355,0 1.511,-0.152 1.511,-1.207 l 0,-5.785 c 0,-0.977 -0.215,-0.977 -1.511,-0.977 l 0,-0.668 4.672,0 0,0.668 -0.411,0 c -1.429,0 -1.468,0.239 -1.468,1.02 l 0,3.32 c 0,2.141 0.812,4.059 2.285,4.059 0.133,0 0.176,0 0.211,-0.02 -0.059,-0.023 -0.442,-0.285 -0.442,-0.843 0,-0.602 0.407,-0.926 0.832,-0.926 0.348,0 0.832,0.254 0.832,0.949 0,0.688 -0.597,1.316 -1.433,1.316 -1.414,0 -2.114,-1.445 -2.383,-2.375 z" /><path
         id="path76"
         style="fill:#ff0000;fill-opacity:1;fill-rule:evenodd;stroke:none"
         d="m 137.383,44.582 0,0.164 0.008,0.312 0.007,0.152 0.012,0.149 0.012,0.144 0.016,0.141 0.015,0.137 0.02,0.136 0.019,0.129 0.02,0.125 0.023,0.125 0.055,0.235 0.058,0.226 0.063,0.211 0.074,0.199 0.074,0.188 0.082,0.172 0.086,0.16 0.09,0.152 0.094,0.145 0.094,0.129 0.101,0.121 0.102,0.109 0.105,0.098 0.11,0.094 0.105,0.082 0.11,0.074 0.113,0.062 0.109,0.059 0.106,0.047 0.109,0.039 0.109,0.035 0.11,0.027 0.105,0.02 0.203,0.023 0.098,0.004 c 0.176,0 1.395,-0.023 2.074,-0.797 -0.797,-0.066 -0.91,-0.711 -0.91,-0.992 0,-0.566 0.348,-1 0.891,-1 0.504,0 0.89,0.371 0.89,1.016 0,1.473 -1.472,2.312 -2.965,2.312 -2.421,0 -4.203,-2.328 -4.203,-5.007 0,-2.766 1.914,-4.903 4.164,-4.903 2.598,0 3.219,2.594 3.219,2.809 0,0.219 -0.191,0.219 -0.254,0.219 -0.172,0 -0.211,-0.09 -0.25,-0.219 -0.562,-2.008 -1.82,-2.266 -2.539,-2.266 -1.027,0 -2.734,0.926 -2.734,4.403 z" /><path
         id="path78"
         style="fill:#ff0000;fill-opacity:1;fill-rule:evenodd;stroke:none"
         d="m 146.219,44.863 0.019,0.453 c 0.114,3.219 1.742,3.754 2.403,3.754 1.996,0 2.191,-2.91 2.191,-3.754 l -4.594,0 -0.019,-0.453 5.406,0 c 0.426,0 0.484,0 0.484,0.453 0,2.133 -1.047,4.23 -3.468,4.23 -2.25,0 -4.032,-2.226 -4.032,-4.922 0,-2.89 2.032,-4.988 4.262,-4.988 2.367,0 3.238,2.399 3.238,2.809 0,0.219 -0.156,0.262 -0.254,0.262 -0.171,0 -0.21,-0.133 -0.25,-0.305 -0.679,-2.223 -2.421,-2.223 -2.617,-2.223 -0.968,0 -1.742,0.645 -2.191,1.445 -0.578,1.04 -0.578,2.458 -0.578,3.239 z" /><path
         id="path80"
         style="fill:#000000;fill-opacity:1;fill-rule:evenodd;stroke:none"
         d="m 161.414,162.515 0,0.184 0.008,0.175 0.004,0.176 0.008,0.168 0.011,0.164 0.016,0.168 0.016,0.153 0.019,0.156 0.02,0.152 0.023,0.145 0.02,0.14 0.027,0.141 0.062,0.262 0.063,0.25 0.07,0.238 0.086,0.223 0.082,0.211 0.09,0.191 0.098,0.18 0.101,0.172 0.102,0.16 0.109,0.144 0.113,0.137 0.114,0.121 0.121,0.109 0.121,0.106 0.117,0.09 0.121,0.082 0.129,0.074 0.121,0.062 0.121,0.055 0.125,0.043 0.121,0.039 0.122,0.028 0.117,0.023 0.117,0.016 0.113,0.011 0.11,0.004 c 0.195,0 1.566,-0.023 2.324,-0.894 -0.891,-0.071 -1.02,-0.793 -1.02,-1.11 0,-0.629 0.391,-1.117 1,-1.117 0.567,0 1,0.414 1,1.137 0,1.648 -1.652,2.59 -3.328,2.59 -2.715,0 -4.715,-2.61 -4.715,-5.606 0,-3.097 2.149,-5.488 4.672,-5.488 2.914,0 3.61,2.902 3.61,3.144 0,0.243 -0.215,0.243 -0.286,0.243 -0.191,0 -0.234,-0.098 -0.277,-0.243 -0.633,-2.246 -2.043,-2.535 -2.852,-2.535 -1.152,0 -3.066,1.035 -3.066,4.926 z" /><path
         id="path82"
         style="fill:#000000;fill-opacity:1;fill-rule:evenodd;stroke:none"
         d="m 178.719,162.417 -0.004,0.29 -0.024,0.285 -0.031,0.281 -0.039,0.277 -0.055,0.27 -0.066,0.265 -0.074,0.262 -0.09,0.258 -0.094,0.254 -0.109,0.242 -0.113,0.238 -0.129,0.227 -0.133,0.223 -0.145,0.214 -0.152,0.204 -0.156,0.199 -0.172,0.187 -0.176,0.176 -0.18,0.172 -0.191,0.16 -0.191,0.145 -0.2,0.14 -0.211,0.125 -0.211,0.113 -0.214,0.102 -0.223,0.09 -0.231,0.078 -0.23,0.063 -0.234,0.05 -0.243,0.039 -0.242,0.02 -0.246,0.008 -0.019,-0.532 c 0.953,0 1.894,-0.535 2.457,-1.574 0.566,-1.039 0.566,-2.437 0.566,-3.355 0,-0.867 0,-2.18 -0.48,-3.242 -0.477,-1.086 -1.43,-1.782 -2.524,-1.782 -0.933,0 -1.89,0.504 -2.48,1.618 -0.539,1.062 -0.539,2.539 -0.539,3.406 0,0.941 0,2.246 0.523,3.308 0.586,1.114 1.606,1.621 2.477,1.621 l 0.019,0.532 c -2.715,0 -4.828,-2.633 -4.828,-5.657 0,-3.117 2.262,-5.437 4.809,-5.437 2.632,0 4.828,2.367 4.828,5.437 z" /><path
         id="path84"
         style="fill:#000000;fill-opacity:1;fill-rule:evenodd;stroke:none"
         d="m 181.781,165.562 0,-6.477 c 0,-1.089 -0.238,-1.089 -1.695,-1.089 l 0,-0.747 4.891,0 0,0.747 c -1.454,0 -1.692,0 -1.692,1.089 l 0,4.446 c 0,2.511 1.539,3.863 2.934,3.863 1.371,0 1.609,-1.305 1.609,-2.68 l 0,-5.629 c 0,-1.089 -0.238,-1.089 -1.695,-1.089 l 0,-0.747 4.89,0 0,0.747 c -1.128,0 -1.675,0 -1.691,0.726 l 0,4.613 c 0,2.082 0,2.829 -0.676,3.7 -0.308,0.41 -1.023,0.894 -2.285,0.894 -1.59,0 -2.609,-1.039 -3.219,-2.539 l 0,2.539 -3.066,-0.265 0,-0.75 c 1.523,0 1.695,-0.168 1.695,-1.352 z" /><path
         id="path86"
         style="fill:#000000;fill-opacity:1;fill-rule:evenodd;stroke:none"
         d="m 193.723,162.515 0,0.184 0.007,0.351 0.012,0.168 0.012,0.164 0.012,0.168 0.019,0.153 0.016,0.156 0.023,0.152 0.02,0.145 0.023,0.14 0.028,0.141 0.058,0.262 0.067,0.25 0.07,0.238 0.082,0.223 0.082,0.211 0.094,0.191 0.097,0.18 0.098,0.172 0.105,0.16 0.11,0.144 0.113,0.137 0.113,0.121 0.118,0.109 0.125,0.106 0.117,0.09 0.121,0.082 0.125,0.074 0.125,0.062 0.121,0.055 0.121,0.043 0.125,0.039 0.121,0.028 0.117,0.023 0.114,0.016 0.113,0.011 0.109,0.004 c 0.196,0 1.567,-0.023 2.328,-0.894 -0.89,-0.071 -1.023,-0.793 -1.023,-1.11 0,-0.629 0.394,-1.117 1,-1.117 0.57,0 1,0.414 1,1.137 0,1.648 -1.649,2.59 -3.324,2.59 -2.719,0 -4.715,-2.61 -4.715,-5.606 0,-3.097 2.144,-5.488 4.668,-5.488 2.918,0 3.613,2.902 3.613,3.144 0,0.243 -0.215,0.243 -0.285,0.243 -0.191,0 -0.234,-0.098 -0.277,-0.243 -0.637,-2.246 -2.047,-2.535 -2.852,-2.535 -1.152,0 -3.066,1.035 -3.066,4.926 z" /><path
         id="path88"
         style="fill:#000000;fill-opacity:1;fill-rule:evenodd;stroke:none"
         d="m 204.414,165.269 0,2.66 -3.019,-0.265 0,-0.75 c 1.519,0 1.695,-0.168 1.695,-1.352 l 0,-6.477 c 0,-1.089 -0.242,-1.089 -1.695,-1.089 l 0,-0.747 5.238,0 0,0.747 -0.457,0 c -1.61,0 -1.653,0.265 -1.653,1.14 l 0,3.715 c 0,2.395 0.915,4.543 2.567,4.543 0.148,0 0.199,0 0.238,-0.023 -0.066,-0.024 -0.5,-0.317 -0.5,-0.942 0,-0.672 0.461,-1.039 0.938,-1.039 0.39,0 0.933,0.289 0.933,1.063 0,0.773 -0.672,1.476 -1.609,1.476 -1.586,0 -2.367,-1.621 -2.676,-2.66 z" /><path
         id="path90"
         style="fill:#000000;fill-opacity:1;fill-rule:evenodd;stroke:none"
         d="m 211.93,162.832 0.019,0.503 c 0.133,3.606 1.957,4.207 2.699,4.207 2.239,0 2.457,-3.261 2.457,-4.207 l -5.156,0 -0.019,-0.503 6.066,0 c 0.477,0 0.543,0 0.543,0.503 0,2.391 -1.176,4.739 -3.891,4.739 -2.523,0 -4.523,-2.492 -4.523,-5.508 0,-3.238 2.281,-5.586 4.781,-5.586 2.656,0 3.633,2.684 3.633,3.144 0,0.243 -0.176,0.29 -0.285,0.29 -0.192,0 -0.234,-0.145 -0.277,-0.336 -0.766,-2.489 -2.723,-2.489 -2.938,-2.489 -1.09,0 -1.957,0.723 -2.461,1.618 -0.648,1.16 -0.648,2.75 -0.648,3.625 z" /><path
         id="path92"
         style="fill:#000000;fill-opacity:1;fill-rule:evenodd;stroke:none"
         d="m 222.883,166.914 3.109,0 0,0.75 -3.109,0 0,4.445 -0.547,0 c -0.02,-1.985 -0.672,-4.567 -2.801,-4.664 l 0,-0.531 1.844,0 0,-6.668 c 0,-2.973 2.023,-3.266 2.805,-3.266 1.55,0 2.156,1.719 2.156,3.266 l 0,1.378 -0.547,0 0,-1.332 c 0,-1.789 -0.648,-2.703 -1.453,-2.703 -1.457,0 -1.457,2.196 -1.457,2.61 l 0,6.715 z" /><path
         id="path94"
         style="fill:#000000;fill-opacity:1;fill-rule:evenodd;stroke:none"
         d="m 229.828,162.832 0.024,0.503 c 0.128,3.606 1.953,4.207 2.695,4.207 2.242,0 2.461,-3.261 2.461,-4.207 l -5.156,0 -0.024,-0.503 6.07,0 c 0.477,0 0.54,0 0.54,0.503 0,2.391 -1.172,4.739 -3.891,4.739 -2.524,0 -4.52,-2.492 -4.52,-5.508 0,-3.238 2.278,-5.586 4.778,-5.586 2.656,0 3.633,2.684 3.633,3.144 0,0.243 -0.172,0.29 -0.282,0.29 -0.195,0 -0.238,-0.145 -0.281,-0.336 -0.762,-2.489 -2.719,-2.489 -2.937,-2.489 -1.086,0 -1.958,0.723 -2.458,1.618 -0.652,1.16 -0.652,2.75 -0.652,3.625 z" /><path
         id="path96"
         style="fill:#000000;fill-opacity:1;fill-rule:evenodd;stroke:none"
         d="m 217.113,41.445 0,-0.098 -0.008,-0.09 -0.003,-0.086 -0.004,-0.082 -0.008,-0.07 -0.012,-0.066 -0.012,-0.063 -0.019,-0.058 -0.039,-0.102 -0.031,-0.043 -0.028,-0.043 -0.031,-0.039 -0.035,-0.031 -0.043,-0.028 -0.043,-0.031 -0.051,-0.023 -0.055,-0.02 -0.125,-0.031 -0.07,-0.016 -0.156,-0.015 -0.086,-0.008 -0.047,-0.004 -0.043,0 -0.051,-0.004 -0.051,0 -0.05,-0.004 -0.227,0 -0.058,-0.004 -0.399,0 0,-0.726 5.141,0 0,0.726 c -1.531,0 -1.781,0 -1.781,1.059 l 0,4.316 c 0,2.442 1.621,3.758 3.082,3.758 1.441,0 1.691,-1.27 1.691,-2.609 l 0,-5.465 c 0,-1.059 -0.25,-1.059 -1.781,-1.059 l 0,-0.726 5.14,0 0,0.726 c -1.187,0 -1.761,0 -1.781,0.703 l 0,4.485 c 0,2.019 0,2.746 -0.711,3.593 -0.32,0.399 -1.07,0.868 -2.398,0.868 -1.922,0 -2.926,-1.407 -3.309,-2.297 l 0,8.211 -3.293,-0.258 0,-0.727 c 1.602,0 1.785,-0.164 1.785,-1.312 l 0,-12.207 z" /><path
         id="path98"
         style="fill:#000000;fill-opacity:1;fill-rule:evenodd;stroke:none"
         d="m 229.516,45.082 0.023,0.492 c 0.137,3.5 2.055,4.086 2.832,4.086 2.352,0 2.582,-3.168 2.582,-4.086 l -5.414,0 -0.023,-0.492 6.375,0 c 0.5,0 0.566,0 0.566,0.492 0,2.324 -1.234,4.601 -4.086,4.601 -2.648,0 -4.754,-2.422 -4.754,-5.351 0,-3.145 2.399,-5.426 5.031,-5.426 2.782,0 3.809,2.609 3.809,3.055 0,0.234 -0.184,0.285 -0.297,0.285 -0.203,0 -0.25,-0.145 -0.293,-0.332 -0.805,-2.418 -2.859,-2.418 -3.086,-2.418 -1.144,0 -2.054,0.703 -2.582,1.574 -0.683,1.125 -0.683,2.672 -0.683,3.52 z" /><path
         id="path100"
         style="fill:#000000;fill-opacity:1;fill-rule:evenodd;stroke:none"
         d="m 241.113,55.949 -3.293,-0.258 0,-0.727 c 1.598,0 1.782,-0.164 1.782,-1.312 l 0,-12.207 c 0,-1.059 -0.25,-1.059 -1.782,-1.059 l 0,-0.726 5.071,0 0,0.726 c -1.532,0 -1.778,0 -1.778,1.059 l 0,14.504 z" /><path
         id="path102"
         style="fill:#000000;fill-opacity:1;fill-rule:evenodd;stroke:none"
         d="m 247.531,50.035 -3.199,-0.258 0,-0.727 c 1.484,0 1.691,-0.144 1.691,-1.297 l 0,-6.308 c 0,-1.059 -0.253,-1.059 -1.781,-1.059 l 0,-0.726 4.887,0 0,0.726 c -1.504,0 -1.598,0.117 -1.598,1.031 l 0,8.618 z" /><path
         id="path104"
         style="fill:#000000;fill-opacity:1;fill-rule:evenodd;stroke:none"
         d="m 247.625,54.117 -0.008,0.07 -0.004,0.07 -0.008,0.067 -0.011,0.062 -0.012,0.067 -0.02,0.058 -0.015,0.063 -0.024,0.058 -0.027,0.055 -0.027,0.051 -0.028,0.054 -0.035,0.051 -0.07,0.094 -0.078,0.086 -0.043,0.043 -0.047,0.031 -0.043,0.039 -0.051,0.031 -0.047,0.028 -0.05,0.031 -0.055,0.027 -0.051,0.024 -0.055,0.019 -0.054,0.016 -0.117,0.031 -0.059,0.008 -0.059,0.004 -0.054,0.008 -0.059,0 c -0.711,0 -1.215,-0.633 -1.215,-1.246 0,-0.633 0.504,-1.243 1.215,-1.243 0.637,0 1.211,0.493 1.211,1.243 z" /><path
         id="path106"
         style="fill:#000000;fill-opacity:1;fill-rule:evenodd;stroke:none"
         d="m 258.84,41.511 0,-2.113 3.289,0.262 0,0.726 c -1.602,0 -1.781,0.164 -1.781,1.313 l 0,8.336 -3.36,-0.258 0,-0.727 c 1.598,0 1.782,-0.164 1.782,-1.312 l 0,-4.184 c 0,-2.043 -1.094,-3.637 -2.766,-3.637 -1.914,0 -2.008,1.102 -2.008,2.325 l 0,7.793 -3.359,-0.258 0,-0.727 c 1.781,0 1.781,-0.07 1.781,-2.164 l 0,-3.519 c 0,-1.832 0,-3.969 3.473,-3.969 1.281,0 2.285,0.66 2.949,2.113 z" /><path
         id="path108"
         style="fill:#000000;fill-opacity:1;fill-rule:evenodd;stroke:none"
         d="m 265.258,47.738 0,-6.293 c 0,-1.059 -0.25,-1.059 -1.781,-1.059 l 0,-0.726 5.14,0 0,0.726 c -1.527,0 -1.781,0 -1.781,1.059 l 0,4.316 c 0,2.442 1.617,3.758 3.082,3.758 1.441,0 1.691,-1.27 1.691,-2.609 l 0,-5.465 c 0,-1.059 -0.25,-1.059 -1.785,-1.059 l 0,-0.726 5.141,0 0,0.726 c -1.531,0 -1.777,0 -1.777,1.059 l 0,4.316 c 0,2.442 1.617,3.758 3.082,3.758 1.437,0 1.691,-1.27 1.691,-2.609 l 0,-5.465 c 0,-1.059 -0.254,-1.059 -1.785,-1.059 l 0,-0.726 5.14,0 0,0.726 c -1.187,0 -1.761,0 -1.781,0.703 l 0,4.485 c 0,2.019 0,2.746 -0.707,3.593 -0.32,0.399 -1.074,0.868 -2.398,0.868 -1.922,0 -2.926,-1.407 -3.317,-2.297 -0.316,2.039 -2.008,2.297 -3.035,2.297 -1.668,0 -2.742,-1.008 -3.379,-2.465 l 0,2.465 -3.222,-0.258 0,-0.727 c 1.597,0 1.781,-0.164 1.781,-1.312 z" /><path
         id="path110"
         style="fill:#58c160;fill-opacity:1;fill-rule:evenodd;stroke:none"
         d="m 232.219,270.066 0,-1.426 2.851,0.238 0,0.668 c -1.355,0 -1.511,0.153 -1.511,1.211 l 0,13.106 -2.793,-0.239 0,-0.667 c 1.359,0 1.511,-0.153 1.511,-1.211 l 0,-4.664 c -0.562,0.777 -1.394,1.339 -2.441,1.339 l 0.078,-0.476 c 0.68,0 1.492,-0.321 2.094,-1.293 0.211,-0.367 0.211,-0.414 0.211,-0.801 l 0,-4.422 c 0,-0.39 0,-0.433 -0.211,-0.797 -0.582,-1.043 -1.457,-1.515 -2.289,-1.515 -0.871,0 -1.571,0.562 -2.035,1.379 -0.504,0.89 -0.559,2.121 -0.559,3.003 0,0.797 0.035,2.094 0.598,3.063 0.41,0.672 1.144,1.383 2.191,1.383 l -0.078,0.476 c -2.285,0 -4.32,-2.113 -4.32,-4.898 0,-2.746 1.894,-4.883 4.105,-4.883 1.242,0 2.113,0.734 2.598,1.426 z" /><path
         id="path112"
         style="fill:#58c160;fill-opacity:1;fill-rule:evenodd;stroke:none"
         d="m 237.512,273.867 0.019,0.453 c 0.117,3.219 1.742,3.758 2.407,3.758 1.996,0 2.191,-2.914 2.191,-3.758 l -4.598,0 -0.019,-0.453 5.41,0 c 0.422,0 0.48,0 0.48,0.453 0,2.137 -1.047,4.234 -3.464,4.234 -2.25,0 -4.036,-2.23 -4.036,-4.926 0,-2.89 2.036,-4.988 4.27,-4.988 2.359,0 3.23,2.399 3.23,2.809 0,0.218 -0.156,0.261 -0.25,0.261 -0.172,0 -0.211,-0.128 -0.25,-0.304 -0.683,-2.223 -2.425,-2.223 -2.621,-2.223 -0.969,0 -1.742,0.645 -2.187,1.449 -0.582,1.035 -0.582,2.457 -0.582,3.235 z" /><path
         id="path114"
         style="fill:#58c160;fill-opacity:1;fill-rule:evenodd;stroke:none"
         d="m 247.273,277.515 2.774,0 0,0.668 -2.774,0 0,3.977 -0.484,0 c -0.019,-1.774 -0.598,-4.082 -2.5,-4.172 l 0,-0.473 1.649,0 0,-5.957 c 0,-2.656 1.8,-2.918 2.496,-2.918 1.382,0 1.921,1.535 1.921,2.918 l 0,1.231 -0.484,0 0,-1.188 c 0,-1.598 -0.582,-2.418 -1.297,-2.418 -1.301,0 -1.301,1.965 -1.301,2.332 l 0,6 z" /><path
         id="path116"
         style="fill:#58c160;fill-opacity:1;fill-rule:evenodd;stroke:none"
         d="m 253.855,273.867 0.02,0.453 c 0.117,3.219 1.742,3.758 2.406,3.758 1.996,0 2.188,-2.914 2.188,-3.758 l -4.594,0 -0.02,-0.453 5.411,0 c 0.422,0 0.48,0 0.48,0.453 0,2.137 -1.047,4.234 -3.465,4.234 -2.25,0 -4.031,-2.23 -4.031,-4.926 0,-2.89 2.027,-4.988 4.258,-4.988 2.367,0 3.238,2.399 3.238,2.809 0,0.218 -0.156,0.261 -0.254,0.261 -0.172,0 -0.207,-0.128 -0.246,-0.304 -0.684,-2.223 -2.426,-2.223 -2.621,-2.223 -0.969,0 -1.742,0.645 -2.191,1.449 -0.579,1.035 -0.579,2.457 -0.579,3.235 z" /><path
         id="path118"
         style="fill:#58c160;fill-opacity:1;fill-rule:evenodd;stroke:none"
         d="m 262.531,273.585 0,0.164 0.008,0.313 0.008,0.152 0.012,0.149 0.011,0.144 0.032,0.282 0.019,0.132 0.02,0.129 0.019,0.125 0.024,0.129 0.054,0.231 0.059,0.226 0.062,0.211 0.075,0.203 0.074,0.184 0.082,0.176 0.086,0.16 0.09,0.148 0.089,0.145 0.098,0.129 0.102,0.121 0.101,0.109 0.106,0.102 0.109,0.09 0.106,0.082 0.109,0.074 0.113,0.066 0.11,0.055 0.105,0.047 0.109,0.039 0.11,0.035 0.109,0.027 0.106,0.02 0.101,0.015 0.102,0.008 0.097,0.004 c 0.176,0 1.395,-0.023 2.075,-0.797 -0.797,-0.066 -0.911,-0.711 -0.911,-0.992 0,-0.566 0.348,-0.996 0.891,-0.996 0.504,0 0.891,0.367 0.891,1.012 0,1.472 -1.473,2.316 -2.965,2.316 -2.422,0 -4.203,-2.332 -4.203,-5.012 0,-2.765 1.914,-4.902 4.164,-4.902 2.598,0 3.219,2.594 3.219,2.809 0,0.218 -0.192,0.218 -0.254,0.218 -0.172,0 -0.211,-0.085 -0.25,-0.218 -0.563,-2.004 -1.821,-2.266 -2.539,-2.266 -1.028,0 -2.735,0.926 -2.735,4.402 z" /><path
         id="path120"
         style="fill:#58c160;fill-opacity:1;fill-rule:evenodd;stroke:none"
         d="m 272.18,277.515 2.769,0 0,0.668 -2.769,0 0,3.977 -0.489,0 c -0.019,-1.774 -0.597,-4.082 -2.496,-4.172 l 0,-0.473 1.645,0 0,-5.957 c 0,-2.656 1.801,-2.918 2.5,-2.918 1.379,0 1.922,1.535 1.922,2.918 l 0,1.231 -0.489,0 0,-1.188 c 0,-1.598 -0.578,-2.418 -1.296,-2.418 -1.297,0 -1.297,1.965 -1.297,2.332 l 0,6 z" /><path
         id="path122"
         style="fill:#58c160;fill-opacity:1;fill-rule:evenodd;stroke:none"
         d="m 285.348,273.499 -0.004,0.254 -0.02,0.258 -0.027,0.25 -0.035,0.246 -0.051,0.246 -0.059,0.239 -0.066,0.234 -0.078,0.227 -0.086,0.226 -0.098,0.219 -0.101,0.211 -0.114,0.203 -0.121,0.199 -0.125,0.192 -0.136,0.179 -0.141,0.18 -0.152,0.168 -0.157,0.156 -0.16,0.153 -0.172,0.144 -0.168,0.129 -0.179,0.125 -0.188,0.113 -0.187,0.098 -0.196,0.094 -0.195,0.082 -0.203,0.07 -0.207,0.055 -0.211,0.043 -0.215,0.035 -0.215,0.015 -0.219,0.012 -0.019,-0.476 c 0.852,0 1.687,-0.481 2.191,-1.407 0.504,-0.925 0.504,-2.179 0.504,-3 0,-0.773 0,-1.945 -0.426,-2.894 -0.425,-0.969 -1.277,-1.594 -2.25,-1.594 -0.832,0 -1.683,0.449 -2.21,1.449 -0.481,0.95 -0.481,2.266 -0.481,3.039 0,0.844 0,2.008 0.465,2.957 0.523,0.996 1.434,1.45 2.207,1.45 l 0.019,0.476 c -2.421,0 -4.3,-2.355 -4.3,-5.055 0,-2.785 2.011,-4.859 4.281,-4.859 2.348,0 4.305,2.117 4.305,4.859 z" /><path
         id="path124"
         style="fill:#58c160;fill-opacity:1;fill-rule:evenodd;stroke:none"
         d="m 289.184,276.046 0,2.375 -2.696,-0.238 0,-0.668 c 1.356,0 1.512,-0.148 1.512,-1.207 l 0,-5.785 c 0,-0.977 -0.215,-0.977 -1.512,-0.977 l 0,-0.668 4.672,0 0,0.668 -0.41,0 c -1.43,0 -1.469,0.239 -1.469,1.02 l 0,3.32 c 0,2.141 0.813,4.059 2.285,4.059 0.133,0 0.176,0 0.211,-0.02 -0.058,-0.023 -0.441,-0.281 -0.441,-0.843 0,-0.602 0.406,-0.926 0.832,-0.926 0.348,0 0.832,0.258 0.832,0.949 0,0.687 -0.598,1.316 -1.434,1.316 -1.414,0 -2.113,-1.445 -2.382,-2.375 z" /><g
         transform="matrix(1,0,0,-1,0,313.46823)"
         id="g126"><path
           id="path128"
           style="fill:none;stroke:#000000;stroke-width:0.80000001;stroke-linecap:butt;stroke-linejoin:miter;stroke-miterlimit:4;stroke-dasharray:none;stroke-opacity:1"
           d="M 330.305,19.141 301.938,19.098" /></g><g
         transform="matrix(-1,0.00152565,0.00152565,1,0,313.46823)"
         id="g130"><path
           id="path132"
           style="fill:#000000;fill-opacity:1;fill-rule:evenodd;stroke:#000000;stroke-width:0.30000001;stroke-linecap:butt;stroke-linejoin:round;stroke-miterlimit:4;stroke-dasharray:none;stroke-opacity:1"
           d="m -326.147,-16.698 -5.245,-1.929 5.243,-1.93 c -0.838,1.138 -0.831,2.696 0.002,3.859 z" /></g><g
         transform="matrix(1,-0.00152565,-0.00152565,-1,0,313.46823)"
         id="g134"><path
           id="path136"
           style="fill:#000000;fill-opacity:1;fill-rule:evenodd;stroke:#000000;stroke-width:0.40000001;stroke-linecap:butt;stroke-linejoin:miter;stroke-miterlimit:4;stroke-dasharray:none;stroke-opacity:1"
           d="m 305.165,18.636 1.599,-1.6 -5.599,1.598 5.6,1.601 -1.6,-1.599 z" /></g><path
         id="path138"
         style="fill:#000000;fill-opacity:1;fill-rule:evenodd;stroke:none"
         d="m 5.48,159.906 0.137,0.07 0.137,0.066 0.133,0.071 0.125,0.074 0.125,0.07 0.125,0.078 0.117,0.075 0.117,0.078 0.109,0.078 0.11,0.086 0.101,0.082 0.102,0.086 0.098,0.082 0.179,0.18 0.082,0.089 0.157,0.188 0.07,0.098 0.066,0.097 0.063,0.098 0.055,0.105 0.05,0.102 0.047,0.101 0.043,0.11 0.035,0.105 0.028,0.106 0.031,0.113 0.031,0.227 0.008,0.113 0.004,0.117 c 0,1.75 -1.828,2.832 -3.695,2.832 l -0.02,-0.476 c 1.5,0 2.812,-0.989 2.812,-2.356 0,-1.082 -0.796,-1.996 -2.031,-2.656 l -2.547,1.519 c -0.941,0.567 -1.027,1.211 -1.027,1.535 0,1.161 1.336,1.958 2.793,1.958 l 0.02,0.476 c -2.051,0 -3.715,-1.406 -3.715,-3.172 0,-0.344 0.043,-1.199 0.902,-2.09 0.231,-0.226 0.988,-0.703 1.504,-1.023 l 0.469,-0.289 2.527,-1.481 c 0.57,-0.359 1.535,-0.929 1.535,-2.089 0,-1.403 -1.535,-2.391 -3.222,-2.391 -1.766,0 -3.243,1.18 -3.243,2.754 0,1.101 0.661,2.316 2.403,3.207 l -0.469,0.289 C 1.77,158.843 0,157.781 0,155.902 c 0,-2.016 2.094,-3.289 4.25,-3.289 2.32,0 4.273,1.578 4.273,3.613 0,0.68 -0.23,1.535 -1.011,2.336 -0.387,0.395 -0.715,0.586 -2.032,1.344 z" /><path
         id="path140"
         style="fill:#000000;fill-opacity:1;fill-rule:evenodd;stroke:none"
         d="m 18.473,159.109 0,0.289 -0.004,0.281 -0.008,0.285 -0.012,0.282 -0.047,0.57 -0.027,0.281 -0.043,0.277 -0.047,0.278 -0.055,0.281 -0.066,0.274 -0.078,0.273 -0.094,0.269 -0.097,0.274 -0.114,0.266 -0.062,0.132 -0.067,0.133 c -0.945,1.824 -2.625,2.129 -3.492,2.129 -1.23,0 -2.726,-0.496 -3.566,-2.262 -0.66,-1.312 -0.766,-2.789 -0.766,-4.312 0,-1.426 0.082,-3.133 0.926,-4.578 0.887,-1.535 2.383,-1.918 3.387,-1.918 l 0,0.422 c -0.801,0 -2.012,0.476 -2.383,2.297 -0.223,1.14 -0.223,2.886 -0.223,4.007 0,1.215 0,2.465 0.164,3.493 0.391,2.261 1.93,2.429 2.442,2.429 0.679,0 2.035,-0.34 2.421,-2.219 0.208,-1.066 0.208,-2.507 0.208,-3.703 0,-1.425 0,-2.718 -0.227,-3.929 -0.309,-1.805 -1.481,-2.375 -2.402,-2.375 l 0,-0.422 c 1.109,0 2.671,0.402 3.574,2.203 0.652,1.312 0.758,2.793 0.758,4.293 z" /><path
         id="path142"
         style="fill:#000000;fill-opacity:1;fill-rule:evenodd;stroke:none"
         d="m 21.734,157.175 0,0.145 0.008,0.137 0.004,0.136 0.008,0.133 0.023,0.258 0.016,0.125 0.016,0.121 0.023,0.117 0.039,0.227 0.027,0.109 0.055,0.207 0.063,0.195 0.066,0.188 0.078,0.176 0.078,0.164 0.086,0.152 0.094,0.141 0.094,0.133 0.097,0.128 0.106,0.114 0.105,0.105 0.106,0.098 0.113,0.086 0.113,0.082 0.114,0.07 0.113,0.067 0.121,0.054 0.117,0.051 0.113,0.043 0.118,0.035 0.113,0.027 0.117,0.024 0.11,0.019 0.109,0.012 0.105,0.008 0.102,0.004 c 0.187,0 1.48,-0.02 2.199,-0.703 -0.84,-0.055 -0.965,-0.625 -0.965,-0.871 0,-0.496 0.371,-0.879 0.946,-0.879 0.535,0 0.941,0.324 0.941,0.894 0,1.297 -1.559,2.035 -3.141,2.035 -2.562,0 -4.449,-2.05 -4.449,-4.406 0,-2.433 2.027,-4.312 4.41,-4.312 2.75,0 3.407,2.281 3.407,2.468 0,0.192 -0.2,0.192 -0.266,0.192 -0.184,0 -0.223,-0.074 -0.266,-0.192 -0.597,-1.761 -1.929,-1.992 -2.691,-1.992 -1.086,0 -2.895,0.817 -2.895,3.875 z" /><path
         id="path144"
         style="fill:#000000;fill-opacity:1;fill-rule:evenodd;stroke:none"
         d="m 31.07,159.566 0,-5.086 c 0,-0.859 -0.226,-0.859 -1.601,-0.859 l 0,-0.586 4.621,0 0,0.586 c -1.375,0 -1.602,0 -1.602,0.859 l 0,3.492 c 0,1.973 1.457,3.035 2.77,3.035 1.293,0 1.519,-1.023 1.519,-2.105 l 0,-4.422 c 0,-0.859 -0.226,-0.859 -1.601,-0.859 l 0,-0.586 4.621,0 0,0.586 c -1.379,0 -1.602,0 -1.602,0.859 l 0,3.492 c 0,1.973 1.457,3.035 2.77,3.035 1.297,0 1.523,-1.023 1.523,-2.105 l 0,-4.422 c 0,-0.859 -0.226,-0.859 -1.605,-0.859 l 0,-0.586 4.621,0 0,0.586 c -1.066,0 -1.582,0 -1.602,0.57 l 0,3.629 c 0,1.633 0,2.219 -0.636,2.906 -0.289,0.32 -0.965,0.703 -2.157,0.703 -1.726,0 -2.629,-1.14 -2.976,-1.863 -0.285,1.652 -1.809,1.863 -2.731,1.863 -1.5,0 -2.464,-0.816 -3.035,-1.996 l 0,1.996 -2.898,-0.211 0,-0.586 c 1.437,0 1.601,-0.133 1.601,-1.066 z" /><path
         id="path146"
         style="fill:#000000;fill-opacity:1;fill-rule:evenodd;stroke:none"
         d="m 350.762,279.902 0,0.23 -0.004,0.016 0,0.027 -0.008,0.012 0,0.012 -0.008,0.039 -0.008,0.019 -0.004,0.02 -0.015,0.031 -0.012,0.016 -0.012,0.011 -0.015,0.008 -0.012,0.012 -0.016,0.008 -0.019,0.008 -0.008,0 -0.012,0.003 -0.011,0 -0.024,0.008 -0.012,0 -0.011,0.004 -0.012,0 -0.016,0.004 -0.043,0 -0.015,0.004 -0.094,0 -0.019,0.004 -0.063,0 c -1.273,-1.215 -3.078,-1.215 -3.738,-1.215 l 0,-0.59 c 0.414,0 1.625,0 2.691,0.496 l 0,-9.84 c 0,-0.683 -0.062,-0.91 -1.906,-0.91 l -0.66,0 0,-0.59 6.652,0 0,0.59 -0.656,0 c -1.852,0 -1.91,0.207 -1.91,0.91 l 0,10.653 z" /><path
         id="path148"
         style="fill:#000000;fill-opacity:1;fill-rule:evenodd;stroke:none"
         d="m 364.059,273.828 0,0.285 -0.004,0.281 -0.008,0.285 -0.012,0.285 -0.019,0.285 -0.055,0.563 -0.043,0.281 -0.043,0.278 -0.059,0.277 -0.066,0.273 -0.078,0.278 -0.09,0.269 -0.098,0.27 -0.117,0.265 -0.062,0.137 -0.067,0.133 c -0.941,1.82 -2.625,2.125 -3.488,2.125 -1.234,0 -2.73,-0.496 -3.57,-2.258 -0.66,-1.312 -0.762,-2.793 -0.762,-4.312 0,-1.426 0.082,-3.133 0.922,-4.579 0.887,-1.539 2.383,-1.917 3.387,-1.917 l 0,0.417 c -0.797,0 -2.008,0.477 -2.379,2.301 -0.223,1.137 -0.223,2.883 -0.223,4.004 0,1.219 0,2.469 0.164,3.492 0.387,2.262 1.93,2.434 2.438,2.434 0.683,0 2.039,-0.344 2.425,-2.223 0.207,-1.062 0.207,-2.504 0.207,-3.703 0,-1.426 0,-2.715 -0.226,-3.93 -0.313,-1.8 -1.481,-2.375 -2.406,-2.375 l 0,-0.417 c 1.109,0 2.671,0.398 3.574,2.203 0.656,1.312 0.758,2.789 0.758,4.293 z" /><path
         id="path150"
         style="fill:#000000;fill-opacity:1;fill-rule:evenodd;stroke:none"
         d="m 367.324,271.89 0,0.145 0.008,0.273 0.008,0.137 0.023,0.258 0.02,0.121 0.015,0.121 0.02,0.121 0.02,0.113 0.023,0.11 0.023,0.113 0.059,0.203 0.062,0.199 0.067,0.188 0.078,0.175 0.078,0.165 0.086,0.152 0.09,0.14 0.094,0.133 0.101,0.125 0.102,0.114 0.105,0.109 0.11,0.094 0.109,0.09 0.117,0.078 0.11,0.074 0.117,0.062 0.117,0.059 0.117,0.051 0.117,0.039 0.114,0.035 0.117,0.031 0.113,0.024 0.113,0.019 0.106,0.012 0.109,0.008 0.102,0 c 0.183,0 1.48,-0.016 2.195,-0.699 -0.84,-0.059 -0.965,-0.625 -0.965,-0.875 0,-0.493 0.371,-0.875 0.946,-0.875 0.535,0 0.945,0.324 0.945,0.89 0,1.297 -1.559,2.035 -3.141,2.035 -2.566,0 -4.453,-2.05 -4.453,-4.406 0,-2.43 2.027,-4.309 4.41,-4.309 2.754,0 3.41,2.278 3.41,2.469 0,0.192 -0.203,0.192 -0.269,0.192 -0.18,0 -0.223,-0.079 -0.262,-0.192 -0.598,-1.765 -1.93,-1.992 -2.691,-1.992 -1.09,0 -2.895,0.813 -2.895,3.871 z" /><path
         id="path152"
         style="fill:#000000;fill-opacity:1;fill-rule:evenodd;stroke:none"
         d="m 376.66,274.285 0,-5.09 c 0,-0.856 -0.226,-0.856 -1.605,-0.856 l 0,-0.59 4.621,0 0,0.59 c -1.371,0 -1.598,0 -1.598,0.856 l 0,3.492 c 0,1.977 1.453,3.039 2.77,3.039 1.293,0 1.519,-1.027 1.519,-2.109 l 0,-4.422 c 0,-0.856 -0.226,-0.856 -1.601,-0.856 l 0,-0.59 4.617,0 0,0.59 c -1.375,0 -1.598,0 -1.598,0.856 l 0,3.492 c 0,1.977 1.453,3.039 2.77,3.039 1.293,0 1.519,-1.027 1.519,-2.109 l 0,-4.422 c 0,-0.856 -0.226,-0.856 -1.601,-0.856 l 0,-0.59 4.621,0 0,0.59 c -1.071,0 -1.586,0 -1.606,0.571 l 0,3.625 c 0,1.636 0,2.222 -0.633,2.91 -0.289,0.32 -0.964,0.699 -2.156,0.699 -1.726,0 -2.629,-1.141 -2.98,-1.859 -0.285,1.652 -1.805,1.859 -2.727,1.859 -1.5,0 -2.465,-0.816 -3.039,-1.992 l 0,1.992 -2.898,-0.207 0,-0.59 c 1.437,0 1.605,-0.133 1.605,-1.062 z" /><path
         id="path154"
         style="fill:#000000;fill-opacity:1;fill-rule:evenodd;stroke:none"
         d="m 182.391,7.292 0.136,0.071 0.137,0.066 0.133,0.07 0.125,0.071 0.25,0.148 0.117,0.078 0.117,0.075 0.219,0.164 0.102,0.086 0.101,0.082 0.098,0.086 0.179,0.179 0.083,0.09 0.156,0.188 0.07,0.093 0.066,0.102 0.063,0.098 0.055,0.101 0.05,0.106 0.047,0.101 0.043,0.106 0.035,0.109 0.028,0.105 0.031,0.11 0.016,0.117 0.015,0.113 0.008,0.114 0.004,0.113 c 0,1.75 -1.828,2.836 -3.695,2.836 l -0.02,-0.477 c 1.5,0 2.813,-0.988 2.813,-2.359 0,-1.082 -0.797,-1.992 -2.032,-2.656 l -2.546,1.523 c -0.942,0.566 -1.028,1.211 -1.028,1.535 0,1.16 1.336,1.957 2.793,1.957 l 0.02,0.477 c -2.051,0 -3.715,-1.41 -3.715,-3.172 0,-0.344 0.043,-1.199 0.902,-2.09 0.227,-0.23 0.988,-0.703 1.5,-1.027 l 0.473,-0.285 2.527,-1.485 c 0.571,-0.355 1.535,-0.929 1.535,-2.086 0,-1.402 -1.535,-2.39 -3.222,-2.39 -1.766,0 -3.242,1.175 -3.242,2.75 0,1.101 0.656,2.32 2.402,3.211 l -0.473,0.285 C 178.68,6.23 176.91,5.167 176.91,3.285 c 0,-2.012 2.094,-3.286 4.25,-3.286 2.32,0 4.274,1.579 4.274,3.61 0,0.683 -0.231,1.539 -1.012,2.34 -0.387,0.394 -0.715,0.586 -2.031,1.343 z" /><path
         id="path156"
         style="fill:#000000;fill-opacity:1;fill-rule:evenodd;stroke:none"
         d="m 195.383,6.496 0,0.285 -0.004,0.285 -0.008,0.285 -0.016,0.281 -0.019,0.285 -0.024,0.282 -0.031,0.285 -0.039,0.277 -0.047,0.278 -0.054,0.277 -0.067,0.277 -0.078,0.274 -0.094,0.269 -0.097,0.27 -0.114,0.269 -0.062,0.133 -0.067,0.133 c -0.945,1.824 -2.624,2.129 -3.492,2.129 -1.23,0 -2.726,-0.496 -3.57,-2.262 -0.656,-1.312 -0.762,-2.793 -0.762,-4.312 0,-1.426 0.082,-3.133 0.926,-4.579 0.883,-1.535 2.379,-1.918 3.387,-1.918 l 0,0.418 c -0.801,0 -2.012,0.477 -2.383,2.301 -0.223,1.141 -0.223,2.887 -0.223,4.008 0,1.215 0,2.465 0.164,3.492 0.387,2.258 1.93,2.43 2.442,2.43 0.679,0 2.035,-0.344 2.422,-2.223 0.207,-1.062 0.207,-2.504 0.207,-3.699 0,-1.426 0,-2.719 -0.227,-3.934 -0.308,-1.8 -1.48,-2.375 -2.402,-2.375 l 0,-0.418 c 1.109,0 2.672,0.403 3.574,2.204 0.652,1.312 0.758,2.793 0.758,4.293 z" /><path
         id="path158"
         style="fill:#000000;fill-opacity:1;fill-rule:evenodd;stroke:none"
         d="m 198.645,4.558 0,0.145 0.003,0.14 0.008,0.137 0.008,0.133 0.024,0.258 0.015,0.121 0.016,0.125 0.023,0.117 0.039,0.226 0.028,0.11 0.054,0.207 0.063,0.195 0.066,0.188 0.078,0.175 0.078,0.164 0.086,0.153 0.09,0.14 0.098,0.133 0.098,0.125 0.101,0.117 0.109,0.106 0.106,0.094 0.113,0.09 0.113,0.078 0.114,0.074 0.113,0.066 0.121,0.055 0.117,0.051 0.114,0.043 0.117,0.031 0.113,0.031 0.117,0.024 0.11,0.019 0.109,0.012 0.105,0.008 0.102,0.004 c 0.188,0 1.481,-0.02 2.199,-0.704 -0.84,-0.054 -0.965,-0.625 -0.965,-0.871 0,-0.496 0.372,-0.879 0.946,-0.879 0.535,0 0.941,0.325 0.941,0.895 0,1.293 -1.558,2.035 -3.14,2.035 -2.563,0 -4.45,-2.051 -4.45,-4.406 0,-2.434 2.028,-4.313 4.41,-4.313 2.75,0 3.407,2.278 3.407,2.469 0,0.192 -0.203,0.192 -0.266,0.192 -0.184,0 -0.223,-0.079 -0.266,-0.192 -0.597,-1.765 -1.929,-1.992 -2.691,-1.992 -1.086,0 -2.894,0.816 -2.894,3.871 z" /><path
         id="path160"
         style="fill:#000000;fill-opacity:1;fill-rule:evenodd;stroke:none"
         d="m 207.98,6.953 0,-5.09 c 0,-0.856 -0.226,-0.856 -1.601,-0.856 l 0,-0.59 4.617,0 0,0.59 c -1.371,0 -1.598,0 -1.598,0.856 l 0,3.492 c 0,1.977 1.457,3.039 2.77,3.039 1.293,0 1.52,-1.023 1.52,-2.109 l 0,-4.422 c 0,-0.856 -0.227,-0.856 -1.602,-0.856 l 0,-0.59 4.621,0 0,0.59 c -1.379,0 -1.602,0 -1.602,0.856 l 0,3.492 c 0,1.977 1.457,3.039 2.77,3.039 1.297,0 1.523,-1.023 1.523,-2.109 l 0,-4.422 c 0,-0.856 -0.226,-0.856 -1.605,-0.856 l 0,-0.59 4.621,0 0,0.59 c -1.066,0 -1.582,0 -1.602,0.571 l 0,3.625 c 0,1.636 0,2.222 -0.636,2.91 -0.289,0.32 -0.965,0.699 -2.156,0.699 -1.727,0 -2.629,-1.137 -2.977,-1.859 -0.285,1.652 -1.809,1.859 -2.731,1.859 -1.5,0 -2.464,-0.813 -3.039,-1.992 l 0,1.992 -2.894,-0.207 0,-0.59 c 1.437,0 1.601,-0.133 1.601,-1.062 z" /><path
         id="path162"
         style="fill:#000000;fill-opacity:1;fill-rule:evenodd;stroke:none"
         d="m 297.602,312.972 0,0.231 -0.004,0.015 0,0.024 -0.004,0.011 0,0.012 -0.008,0.024 -0.004,0.019 -0.008,0.02 -0.004,0.019 -0.015,0.031 -0.024,0.024 -0.011,0.008 -0.016,0.011 -0.016,0.008 -0.019,0.008 -0.008,0.004 -0.012,0.004 -0.011,0 -0.024,0.008 -0.012,0 -0.011,0.004 -0.012,0 -0.016,0.003 -0.043,0 -0.015,0.004 -0.094,0 -0.02,0.004 -0.062,0 c -1.274,-1.215 -3.078,-1.215 -3.738,-1.215 l 0,-0.593 c 0.414,0 1.625,0 2.691,0.496 l 0,-9.84 c 0,-0.68 -0.059,-0.91 -1.906,-0.91 l -0.66,0 0,-0.586 6.652,0 0,0.586 -0.656,0 c -1.852,0 -1.91,0.211 -1.91,0.91 l 0,10.656 z" /><path
         id="path164"
         style="fill:#000000;fill-opacity:1;fill-rule:evenodd;stroke:none"
         d="m 310.898,306.898 0,0.285 -0.003,0.281 -0.008,0.285 -0.012,0.282 -0.02,0.289 -0.054,0.562 -0.086,0.555 -0.059,0.281 -0.066,0.274 -0.078,0.273 -0.09,0.274 -0.098,0.269 -0.117,0.266 -0.062,0.133 -0.067,0.132 c -0.941,1.825 -2.625,2.129 -3.488,2.129 -1.235,0 -2.731,-0.496 -3.57,-2.261 -0.661,-1.309 -0.762,-2.79 -0.762,-4.309 0,-1.426 0.082,-3.137 0.922,-4.582 0.886,-1.535 2.382,-1.914 3.386,-1.914 l 0,0.418 c -0.796,0 -2.007,0.476 -2.378,2.297 -0.223,1.14 -0.223,2.886 -0.223,4.007 0,1.215 0,2.465 0.164,3.493 0.387,2.261 1.93,2.433 2.437,2.433 0.684,0 2.039,-0.343 2.426,-2.222 0.207,-1.067 0.207,-2.504 0.207,-3.704 0,-1.425 0,-2.718 -0.226,-3.929 -0.313,-1.805 -1.481,-2.375 -2.407,-2.375 l 0,-0.418 c 1.11,0 2.672,0.398 3.575,2.203 0.656,1.309 0.757,2.789 0.757,4.293 z" /><path
         id="path166"
         style="fill:#000000;fill-opacity:1;fill-rule:evenodd;stroke:none"
         d="m 314.164,304.96 0,0.145 0.008,0.273 0.008,0.133 0.011,0.129 0.016,0.133 0.031,0.242 0.02,0.117 0.023,0.117 0.02,0.11 0.023,0.109 0.059,0.207 0.062,0.199 0.067,0.184 0.078,0.176 0.078,0.164 0.086,0.152 0.09,0.141 0.094,0.137 0.101,0.125 0.102,0.113 0.105,0.105 0.109,0.098 0.11,0.086 0.117,0.082 0.109,0.07 0.118,0.067 0.121,0.058 0.113,0.047 0.117,0.043 0.113,0.035 0.118,0.032 0.226,0.039 0.106,0.011 0.109,0.008 0.102,0.004 c 0.183,0 1.48,-0.019 2.195,-0.699 -0.84,-0.059 -0.965,-0.625 -0.965,-0.875 0,-0.496 0.371,-0.875 0.945,-0.875 0.536,0 0.946,0.324 0.946,0.89 0,1.297 -1.559,2.036 -3.141,2.036 -2.566,0 -4.453,-2.051 -4.453,-4.407 0,-2.433 2.027,-4.312 4.41,-4.312 2.754,0 3.41,2.281 3.41,2.473 0,0.187 -0.203,0.187 -0.269,0.187 -0.18,0 -0.223,-0.074 -0.262,-0.187 -0.598,-1.766 -1.93,-1.997 -2.691,-1.997 -1.09,0 -2.895,0.817 -2.895,3.875 z" /><path
         id="path168"
         style="fill:#000000;fill-opacity:1;fill-rule:evenodd;stroke:none"
         d="m 323.5,307.355 0,-5.09 c 0,-0.859 -0.227,-0.859 -1.605,-0.859 l 0,-0.586 4.621,0 0,0.586 c -1.371,0 -1.598,0 -1.598,0.859 l 0,3.492 c 0,1.973 1.453,3.039 2.77,3.039 1.292,0 1.519,-1.027 1.519,-2.109 l 0,-4.422 c 0,-0.859 -0.227,-0.859 -1.602,-0.859 l 0,-0.586 4.618,0 0,0.586 c -1.375,0 -1.598,0 -1.598,0.859 l 0,3.492 c 0,1.973 1.453,3.039 2.77,3.039 1.293,0 1.519,-1.027 1.519,-2.109 l 0,-4.422 c 0,-0.859 -0.226,-0.859 -1.602,-0.859 l 0,-0.586 4.622,0 0,0.586 c -1.071,0 -1.586,0 -1.606,0.574 l 0,3.625 c 0,1.633 0,2.223 -0.633,2.906 -0.289,0.321 -0.965,0.703 -2.156,0.703 -1.727,0 -2.629,-1.14 -2.98,-1.859 -0.286,1.648 -1.805,1.859 -2.727,1.859 -1.5,0 -2.465,-0.816 -3.039,-1.996 l 0,1.996 -2.898,-0.211 0,-0.586 c 1.441,0 1.605,-0.132 1.605,-1.062 z" /></g></g></svg>