<?xml version="1.0" encoding="UTF-8" standalone="no"?>
<svg
   xmlns:dc="http://purl.org/dc/elements/1.1/"
   xmlns:cc="http://creativecommons.org/ns#"
   xmlns:rdf="http://www.w3.org/1999/02/22-rdf-syntax-ns#"
   xmlns:svg="http://www.w3.org/2000/svg"
   xmlns="http://www.w3.org/2000/svg"
   xmlns:sodipodi="http://sodipodi.sourceforge.net/DTD/sodipodi-0.dtd"
   xmlns:inkscape="http://www.inkscape.org/namespaces/inkscape"
   viewBox="0 0 843.84058 702.1131"
   height="702.1131"
   width="843.84058"
   xml:space="preserve"
   version="1.1"
   id="svg2"
   inkscape:version="0.91 r13725"
   sodipodi:docname="adj_0.svg"><sodipodi:namedview
     pagecolor="#ffffff"
     bordercolor="#666666"
     borderopacity="1"
     objecttolerance="10"
     gridtolerance="10"
     guidetolerance="10"
     inkscape:pageopacity="0"
     inkscape:pageshadow="2"
     inkscape:window-width="636"
     inkscape:window-height="985"
     id="namedview35"
     showgrid="false"
     inkscape:zoom="0.67225638"
     inkscape:cx="582.74083"
     inkscape:cy="238.6916"
     inkscape:window-x="640"
     inkscape:window-y="18"
     inkscape:window-maximized="0"
     inkscape:current-layer="svg2"
     showguides="false" /><metadata
     id="metadata8"><rdf:RDF><cc:Work
         rdf:about=""><dc:format>image/svg+xml</dc:format><dc:type
           rdf:resource="http://purl.org/dc/dcmitype/StillImage" /><dc:title /></cc:Work></rdf:RDF></metadata><defs
     id="defs6"><marker
       inkscape:isstock="true"
       style="overflow:visible;"
       id="Arrow2Mend"
       refX="0.0"
       refY="0.0"
       orient="auto"
       inkscape:stockid="Arrow2Mend"><path
         transform="scale(0.6) rotate(180) translate(0,0)"
         d="M 8.7185878,4.0337352 L -2.2072895,0.016013256 L 8.7185884,-4.0017078 C 6.9730900,-1.6296469 6.9831476,1.6157441 8.7185878,4.0337352 z "
         style="fill-rule:evenodd;stroke-width:0.625;stroke-linejoin:round;stroke:#000000;stroke-opacity:1;fill:#000000;fill-opacity:1"
         id="path4196" /></marker><marker
       inkscape:isstock="true"
       style="overflow:visible;"
       id="Arrow1Mend"
       refX="0.0"
       refY="0.0"
       orient="auto"
       inkscape:stockid="Arrow1Mend"><path
         transform="scale(0.4) rotate(180) translate(10,0)"
         style="fill-rule:evenodd;stroke:#a21e1e;stroke-width:1pt;stroke-opacity:1;fill:#a21e1e;fill-opacity:1"
         d="M 0.0,0.0 L 5.0,-5.0 L -12.5,0.0 L 5.0,5.0 L 0.0,0.0 z "
         id="path5173" /></marker></defs><g
     id="g10"
     transform="matrix(1.25,0,0,-1.25,0,702.11311)"><rect
       transform="scale(1,-1)"
       y="-560.32397"
       x="0.95545387"
       height="561.91003"
       width="677.99908"
       id="rect4436"
       style="opacity:1;fill:#ffffff;fill-opacity:1;stroke:#ffffff;stroke-width:1.12;stroke-linecap:butt;stroke-linejoin:miter;stroke-miterlimit:4;stroke-dasharray:none;stroke-dashoffset:0;stroke-opacity:1" /><g
       style="fill:#ff7f7f;fill-opacity:1"
       transform="translate(-477.1989,-208.25389)"
       id="g4255"><path
         sodipodi:nodetypes="csssssc"
         inkscape:connector-curvature="0"
         id="path4138"
         d="m 1032.3197,626.11278 c 0,0 100.7158,19.7564 99.0996,-145.10049 -1.6163,-164.8569 -54.9523,-158.39192 -101.8234,-130.10765 -46.87113,28.28427 -67.28023,58.78085 -65.95513,80.49981 3.4182,56.0238 53.79113,39.94663 28.9241,121.89852 -0.9446,3.11313 -5.5718,24.37916 0.198,43.19899 4.0625,13.2512 10.30063,24.99175 39.56973,29.62506"
         style="fill:#ff7f7f;fill-opacity:1;fill-rule:evenodd;stroke:#000000;stroke-width:2.4000001;stroke-linecap:butt;stroke-linejoin:miter;stroke-miterlimit:4;stroke-dasharray:none;stroke-opacity:1" /></g><g
       style="stroke:#aca2a2;stroke-opacity:1;fill:#ff7f7f;fill-opacity:1"
       transform="translate(-550.98029,-61.881155)"
       id="g4249"><path
         sodipodi:nodetypes="cssc"
         inkscape:connector-curvature="0"
         id="path4159"
         d="m 599.74573,396.442 c 0,0 54.25204,-24.74845 33.39244,-58.50976 -20.8596,-33.76132 -77.74941,-93.07173 -75.85308,-6.38728 1.89632,86.68445 42.46064,64.89704 42.46064,64.89704 z"
         style="fill:#d6d0d0;fill-opacity:1;fill-rule:evenodd;stroke:#aca2a2;stroke-width:2.4000001;stroke-linecap:butt;stroke-linejoin:miter;stroke-miterlimit:4;stroke-dasharray:none;stroke-opacity:1" /></g><text
       id="text220"
       style="font-variant:normal;font-weight:normal;font-size:15.05717564px;font-family:'DejaVu Sans';-inkscape-font-specification:DejaVuSans;writing-mode:lr-tb;fill:#000000;fill-opacity:1;fill-rule:nonzero;stroke:none"
       transform="scale(1.0009965,-0.99900446)"
       x="334.90292"
       y="-3.8375676"><tspan
         id="tspan222"
         x="344.47931 392.28583 440.13754 492.71719 545.34204 593.14856" /></text>
<path
       style="font-style:normal;font-variant:normal;font-weight:normal;font-stretch:normal;letter-spacing:normal;word-spacing:normal;text-anchor:start;fill:#000000;fill-opacity:1;fill-rule:evenodd;stroke:#000000;stroke-width:0;stroke-linecap:butt;stroke-linejoin:miter;stroke-miterlimit:10.43299961;stroke-dasharray:none;stroke-dashoffset:0;stroke-opacity:1"
       inkscape:connector-curvature="0"
       d="m 638.65867,211.01299 0.10432,0.13641 0.0962,0.13641 0.0963,0.12839 0.0882,0.12036 0.0963,0.12036 0.0963,0.12037 0.0962,0.11233 0.0963,0.10431 0.0962,0.10432 0.0883,0.0963 0.0962,0.0963 0.10432,0.0883 0.0963,0.0802 0.0963,0.0802 0.0962,0.0802 0.10432,0.0722 0.10432,0.0722 0.10432,0.0642 0.10432,0.0562 0.10432,0.0562 0.11232,0.0562 0.11232,0.0482 0.11232,0.0482 0.1124,0.0402 0.12032,0.0402 0.1204,0.0321 0.1284,0.0321 0.12832,0.0241 0.1284,0.0241 0.1364,0.0161 0.13648,0.0161 0.1364,0.0161 c 0.33696,0.0241 0.64192,0.0482 0.64192,0.60984 0,0.0883 -0.048,0.39319 -0.3932,0.39319 -0.674,0 -1.54064,-0.11235 -2.23872,-0.11235 -0.89072,0 -2.07024,0.11235 -2.89672,0.11235 -0.2648,0 -0.56976,-0.0883 -0.56976,-0.61787 0,-0.36109 0.3932,-0.38516 0.50552,-0.38516 0.89072,-0.0642 1.13944,-0.39318 1.13944,-0.81846 0,-0.38516 -0.18456,-0.666 -0.49744,-1.11535 l -9.1716,-13.52872 -2.54368,14.28299 c -0.048,0.24874 -0.048,0.31293 -0.048,0.42528 0,0.75426 1.55664,0.75426 1.75728,0.75426 0.47344,0 0.83448,0 0.83448,0.60984 0,0.0241 -0.024,0.39319 -0.47344,0.39319 -0.8104,0 -2.7924,-0.11235 -3.6108,-0.11235 -0.69008,0 -2.3912,0.11235 -3.09736,0.11235 -0.24872,0 -0.56168,-0.0883 -0.56168,-0.61787 0,-0.38516 0.38512,-0.38516 0.69808,-0.38516 1.57272,0 1.5968,-0.17653 1.7332,-0.90673 l 3.0492,-16.98712 c 0.11232,-0.58576 0.1364,-0.76229 0.67408,-0.76229 0.52952,0 0.666,0.2006 0.9548,0.60983 z"
       id="path4190-6" /><g
       id="g4208"><g
         style="stroke:#aca2a2;stroke-opacity:1;fill:#ff7f7f;fill-opacity:1;stroke-width:0.98141336"
         transform="matrix(1.0401639,0,0,-0.9981464,267.54888,487.95524)"
         id="g4444"><g
           style="font-style:normal;font-variant:normal;font-weight:normal;font-stretch:normal;letter-spacing:normal;word-spacing:normal;text-anchor:start;fill:none;fill-opacity:1;fill-rule:evenodd;stroke:#aca2a2;stroke-width:0.98141336;stroke-linecap:butt;stroke-linejoin:miter;stroke-miterlimit:10.43299961;stroke-dasharray:none;stroke-dashoffset:0;stroke-opacity:1"
           id="g4500"
           transform="matrix(1.0030187,0,0,-1.0030187,-175.52827,632.88044)"
           xml:space="preserve"
           stroke-miterlimit="10.433"
           font-style="normal"
           font-variant="normal"
           font-weight="normal"
           font-stretch="normal"
           font-size-adjust="none"
           letter-spacing="normal"
           word-spacing="normal"><path
             style="fill:#000000;stroke-width:0;stroke:#aca2a2;stroke-opacity:1"
             inkscape:connector-curvature="0"
             d="m 488.13,440.62 0,0.02 0,0.01 0,0.02 -0.01,0.02 0,0.01 0,0.02 -0.01,0.02 0,0.02 -0.01,0.02 -0.01,0.02 -0.01,0.02 -0.01,0.02 -0.01,0.02 -0.01,0.02 -0.01,0.02 -0.02,0.02 -0.01,0.02 -0.02,0.02 -0.02,0.02 -0.02,0.02 -0.02,0.02 -0.02,0.01 -0.03,0.02 -0.02,0.01 -0.03,0.01 -0.02,0.01 -0.01,0 -0.02,0.01 -0.01,0 -0.02,0.01 -0.02,0 -0.01,0.01 -0.02,0 -0.02,0 -0.02,0 -0.02,0 -0.02,0.01 -0.02,0 -0.02,0 c -0.25,0 -0.3,-0.05 -0.9,-0.75 l -2.39,-2.84 c -1.29,2.34 -3.88,3.59 -7.12,3.59 -6.33,0 -12.3,-5.73 -12.3,-11.76 0,-4.03 2.64,-6.32 5.18,-7.07 l 5.33,-1.4 c 1.84,-0.44 4.58,-1.19 4.58,-5.28 0,-4.48 -4.08,-9.16 -8.97,-9.16 -3.19,0 -8.71,1.09 -8.71,7.27 0,1.2 0.25,2.39 0.29,2.69 0.05,0.2 0.11,0.25 0.11,0.35 0,0.5 -0.35,0.55 -0.6,0.55 -0.25,0 -0.35,-0.05 -0.5,-0.2 -0.2,-0.2 -2.99,-11.56 -2.99,-11.71 0,-0.3 0.25,-0.5 0.55,-0.5 0.25,0 0.3,0.05 0.9,0.75 l 2.44,2.84 c 2.14,-2.89 5.52,-3.59 8.41,-3.59 6.78,0 12.66,6.63 12.66,12.81 0,3.43 -1.7,5.13 -2.44,5.83 -1.15,1.14 -1.9,1.34 -6.33,2.48 -1.1,0.3 -2.89,0.8 -3.34,0.9 -1.34,0.45 -3.04,1.89 -3.04,4.53 0,4.04 3.99,8.27 8.72,8.27 4.13,0 7.17,-2.14 7.17,-7.72 0,-1.59 -0.2,-2.49 -0.2,-2.79 0,-0.05 0,-0.5 0.6,-0.5 0.5,0 0.55,0.15 0.75,1 z"
             id="path4447" /></g></g><g
         transform="matrix(1.0320081,0,0,-0.98630315,270.56415,485.37336)"
         id="g4177"><g
           style="font-style:normal;font-variant:normal;font-weight:normal;font-stretch:normal;letter-spacing:normal;word-spacing:normal;text-anchor:start;fill:none;fill-opacity:1;fill-rule:evenodd;stroke:#000000;stroke-width:0.99118167;stroke-linecap:butt;stroke-linejoin:miter;stroke-miterlimit:10.43299961;stroke-dasharray:none;stroke-dashoffset:0;stroke-opacity:1"
           id="content"
           transform="matrix(1.0030187,0,0,-1.0030187,-175.52827,632.88044)"
           xml:space="preserve"
           stroke-miterlimit="10.433"
           font-style="normal"
           font-variant="normal"
           font-weight="normal"
           font-stretch="normal"
           font-size-adjust="none"
           letter-spacing="normal"
           word-spacing="normal"><path
             style="fill:#000000;stroke-width:0"
             inkscape:connector-curvature="0"
             d="m 498.55,441.28 0.09,-0.01 0.09,-0.01 0.1,-0.01 0.09,-0.02 0.09,-0.01 0.1,-0.01 0.09,-0.02 0.06,-0.01 0.05,-0.01 0.05,-0.01 0.06,-0.01 0.06,-0.01 0.06,-0.01 0.06,-0.02 0.06,-0.01 0.07,-0.02 0.07,-0.01 0.07,-0.02 0.08,-0.02 0.08,-0.01 0.08,-0.02 0.08,-0.02 0.09,-0.03 0.09,-0.02 0.1,-0.02 c 1.11,-0.32 1.95,-0.53 2.61,-0.53 1.36,0 1.5,1.04 1.5,1.35 0,0.29 -0.14,1.36 -1.5,1.36 -0.66,0 -1.5,-0.2 -2.61,-0.51 -1.05,-0.28 -1.41,-0.31 -1.92,-0.39 0.06,1.22 0.31,2.69 0.48,3.76 0.14,0.71 0.45,2.47 0.45,3.69 0,1.05 -0.48,1.61 -1.36,1.61 -0.73,0 -1.35,-0.39 -1.35,-1.61 0,-1.14 0.28,-2.89 0.5,-4.08 0.06,-0.37 0.37,-2.08 0.45,-3.37 -0.53,0.08 -0.88,0.11 -1.92,0.39 -1.13,0.31 -1.96,0.51 -2.61,0.51 -1.36,0 -1.5,-1.04 -1.5,-1.36 0,-0.28 0.14,-1.35 1.5,-1.35 0.65,0 1.48,0.21 2.61,0.53 1.04,0.26 1.39,0.31 1.92,0.37 -0.08,-0.87 -0.33,-1.98 -0.5,-2.72 -0.45,-2.15 -0.45,-2.4 -0.45,-4.22 0,-6.72 0.67,-13.86 0.76,-14.56 0.05,-0.31 0.11,-0.51 0.59,-0.51 0.54,0 0.57,0.2 0.63,0.68 0,0.05 0.28,3.08 0.42,5.21 0.17,3.06 0.31,6.12 0.31,9.18 0,1.82 0,2.07 -0.48,4.3 -0.06,0.38 -0.39,1.77 -0.45,2.64 z"
             id="path4182" /></g></g></g></g><g
     transform="translate(76.607678,2.9750504)"
     id="g4308"><g
       style="font-style:normal;font-variant:normal;font-weight:normal;font-stretch:normal;letter-spacing:normal;word-spacing:normal;text-anchor:start;fill:none;fill-opacity:1;fill-rule:evenodd;stroke:#000000;stroke-linecap:butt;stroke-linejoin:miter;stroke-miterlimit:10.43299961;stroke-dasharray:none;stroke-dashoffset:0;stroke-opacity:1"
       id="g4310"
       transform="matrix(1.0030187,0,0,-1.0030187,-175.52827,632.88044)"
       xml:space="preserve"
       stroke-miterlimit="10.433"
       font-style="normal"
       font-variant="normal"
       font-weight="normal"
       font-stretch="normal"
       font-size-adjust="none"
       letter-spacing="normal"
       word-spacing="normal"><path
         style="fill:#000000;stroke-width:0"
         inkscape:connector-curvature="0"
         d="m 477.29,439.57 0,0.01 0,0.01 0,0 0,0.01 0,0.01 0,0.01 0,0 0,0.01 0.01,0.02 0,0.03 0,0.02 0.01,0.02 0.01,0.03 0,0.03 0.01,0.02 0,0.03 0.01,0.03 0.01,0.03 0.01,0.06 0.02,0.06 0,0.03 0.01,0.02 0.01,0.03 0,0.03 0.01,0.02 0.01,0.02 0,0.02 0.01,0.02 0,0.01 0,0.01 0,0.01 0,0.01 0.01,0 0,0.01 0,0.01 0,0 0,0.01 0,0 0,0 0,0.01 c 0,0.04 0,0.5 -0.59,0.5 -0.5,0 -0.55,-0.16 -0.75,-1 l -2.89,-11.5 c -7.92,-0.25 -15.25,-6.88 -15.25,-13.66 0,-4.73 3.48,-8.67 9.56,-9.01 l 0.25,1.09 c -2.98,0.14 -6.58,1.89 -6.58,6.87 0,5.99 4.3,12.96 11.72,13.6 l -5.14,-20.47 -0.25,-1.09 c -0.39,-1.55 -0.73,-3.15 -1.14,-4.69 -0.59,-2.35 -1.09,-4.24 -1.09,-4.39 0,-0.49 0.34,-0.55 0.59,-0.55 0.25,0 0.36,0.06 0.5,0.2 0.09,0.1 0.41,1.3 0.55,2 l 1.89,7.43 0.25,1.09 5.14,20.47 c 3.78,-0.19 6.62,-2.49 6.62,-6.88 0,-5.87 -4.28,-13 -11.76,-13.59 l -0.25,-1.09 c 8.03,0.25 15.25,6.96 15.25,13.64 0,3.93 -2.64,8.53 -9.57,9.03 z"
         id="path4312" /><path
         style="fill:#000000;stroke-width:0"
         inkscape:connector-curvature="0"
         d="m 494.71,441.28 0.09,-0.01 0.09,-0.01 0.1,-0.01 0.09,-0.02 0.09,-0.01 0.1,-0.01 0.09,-0.02 0.06,-0.01 0.05,-0.01 0.05,-0.01 0.06,-0.01 0.06,-0.01 0.06,-0.01 0.06,-0.02 0.06,-0.01 0.07,-0.02 0.07,-0.01 0.07,-0.02 0.08,-0.02 0.08,-0.01 0.08,-0.02 0.08,-0.02 0.09,-0.03 0.09,-0.02 0.1,-0.02 c 1.11,-0.32 1.95,-0.53 2.61,-0.53 1.36,0 1.5,1.04 1.5,1.35 0,0.29 -0.14,1.36 -1.5,1.36 -0.66,0 -1.5,-0.2 -2.61,-0.51 -1.05,-0.28 -1.41,-0.31 -1.92,-0.39 0.06,1.22 0.31,2.69 0.48,3.76 0.14,0.71 0.45,2.47 0.45,3.69 0,1.05 -0.48,1.61 -1.35,1.61 -0.74,0 -1.36,-0.39 -1.36,-1.61 0,-1.14 0.28,-2.89 0.5,-4.08 0.06,-0.37 0.37,-2.08 0.45,-3.37 -0.53,0.08 -0.88,0.11 -1.92,0.39 -1.13,0.31 -1.96,0.51 -2.61,0.51 -1.36,0 -1.5,-1.04 -1.5,-1.36 0,-0.28 0.14,-1.35 1.5,-1.35 0.65,0 1.48,0.21 2.61,0.53 1.04,0.26 1.39,0.31 1.92,0.37 -0.08,-0.87 -0.33,-1.98 -0.5,-2.72 -0.45,-2.15 -0.45,-2.4 -0.45,-4.22 0,-6.72 0.67,-13.86 0.76,-14.56 0.05,-0.31 0.11,-0.51 0.6,-0.51 0.53,0 0.56,0.2 0.62,0.68 0,0.05 0.28,3.08 0.42,5.21 0.17,3.06 0.31,6.12 0.31,9.18 0,1.82 0,2.07 -0.48,4.3 -0.06,0.38 -0.39,1.77 -0.45,2.64 z"
         id="path4314" /></g></g><path
     inkscape:connector-curvature="0"
     id="path3357"
     d="m 351.80031,165.11559 51.3197,-22.31291"
     style="fill:none;fill-rule:evenodd;stroke:#000000;stroke-width:2.5;stroke-linecap:butt;stroke-linejoin:miter;stroke-opacity:1;stroke-miterlimit:4;stroke-dasharray:none;marker-end:url(#Arrow2Mend)" /><g
     id="g3386"
     transform="translate(5.9501108,-63.963692)"><g
       word-spacing="normal"
       letter-spacing="normal"
       font-size-adjust="none"
       font-stretch="normal"
       font-weight="normal"
       font-variant="normal"
       font-style="normal"
       stroke-miterlimit="10.433"
       xml:space="preserve"
       transform="matrix(1.0030187,0,0,-1.0030187,-175.52827,632.88044)"
       id="g3388"
       style="font-style:normal;font-variant:normal;font-weight:normal;font-stretch:normal;letter-spacing:normal;word-spacing:normal;text-anchor:start;fill:none;fill-opacity:1;fill-rule:evenodd;stroke:#000000;stroke-linecap:butt;stroke-linejoin:miter;stroke-miterlimit:10.43299961;stroke-dasharray:none;stroke-dashoffset:0;stroke-opacity:1"><path
         id="path3390"
         d="m 470.61,421.95 0.21,1.28 3.39,13.56 c 0.43,1.74 0.54,1.89 2.68,1.89 l 4.79,0 c 4.14,0 6.78,-1.34 6.78,-4.78 0,-1.95 -1,-6.23 -2.94,-8.03 -2.5,-2.23 -5.48,-2.64 -7.69,-2.64 l -7.01,0 -0.21,-1.28 8.47,0 c 7.08,0 14,5.17 14,10.75 0,3.84 -3.28,7.53 -9.81,7.53 l -16.14,0 c -0.95,0 -1.5,0 -1.5,-0.95 0,-0.6 0.45,-0.6 1.45,-0.6 0.64,0 1.55,-0.04 2.14,-0.09 0.8,-0.11 1.1,-0.25 1.1,-0.8 0,-0.2 -0.05,-0.36 -0.21,-0.95 l -6.67,-26.75 c -0.5,-1.95 -0.59,-2.34 -4.53,-2.34 -0.84,0 -1.39,0 -1.39,-0.96 0,-0.59 0.59,-0.59 0.73,-0.59 1.41,0 4.94,0.16 6.33,0.16 1.05,0 2.14,-0.07 3.19,-0.07 1.11,0 2.2,-0.09 3.25,-0.09 0.34,0 0.98,0 0.98,1 0,0.55 -0.43,0.55 -1.39,0.55 -1.84,0 -3.23,0 -3.23,0.89 0,0.29 0.09,0.54 0.14,0.84 z"
         inkscape:connector-curvature="0"
         style="fill:#000000;stroke-width:0" /><path
         id="path3392"
         d="m 505.54,409.87 0,0.71 -0.02,0.68 -0.03,0.66 -0.04,0.64 -0.06,0.62 -0.08,0.6 -0.09,0.57 -0.1,0.56 -0.13,0.55 -0.15,0.53 -0.17,0.51 -0.19,0.5 -0.21,0.49 -0.24,0.48 -0.26,0.47 -0.14,0.23 -0.15,0.23 c -1.08,1.61 -3.23,3 -6.03,3 l 0,-0.98 c 1.89,0 3.7,-1.14 4.33,-3.17 0.56,-1.88 0.59,-4.39 0.59,-7.43 0,-2.57 0,-5.15 -0.45,-7.34 -0.71,-3.17 -3.06,-3.94 -4.47,-3.94 l 0,0 c -1.59,0 -3.72,0.94 -4.42,3.8 -0.49,2.05 -0.49,4.91 -0.49,7.48 0,2.55 0,5.21 0.52,7.11 0.73,2.75 2.97,3.49 4.39,3.49 l 0,0.98 c -8.08,0 -8.08,-9.51 -8.08,-12.03 0,-2.5 0,-11.81 8.08,-11.81 8.09,0 8.09,9.31 8.09,11.81 z"
         inkscape:connector-curvature="0"
         style="fill:#000000;stroke-width:0" /></g></g></svg>