<?xml version="1.0" encoding="UTF-8" standalone="no"?>
<svg
   xmlns:dc="http://purl.org/dc/elements/1.1/"
   xmlns:cc="http://creativecommons.org/ns#"
   xmlns:rdf="http://www.w3.org/1999/02/22-rdf-syntax-ns#"
   xmlns:svg="http://www.w3.org/2000/svg"
   xmlns="http://www.w3.org/2000/svg"
   id="svg2"
   version="1.1"
   xml:space="preserve"
   width="843.84058"
   height="702.1131"
   viewBox="0 0 843.84058 702.1131"><metadata
     id="metadata8"><rdf:RDF><cc:Work
         rdf:about=""><dc:format>image/svg+xml</dc:format><dc:type
           rdf:resource="http://purl.org/dc/dcmitype/StillImage" /><dc:title></dc:title></cc:Work></rdf:RDF></metadata><defs
     id="defs6" /><g
     id="g10"
     transform="matrix(1.25,0,0,-1.25,0,702.11311)"><g
       transform="matrix(1,0,0,-1,0,561.69049)"
       id="g14"><path
         id="path16"
         style="fill:#ff0000;fill-opacity:1;fill-rule:evenodd;stroke:#000000;stroke-width:1.50662804;stroke-linecap:butt;stroke-linejoin:miter;stroke-miterlimit:4;stroke-dasharray:none;stroke-opacity:1"
         d="m 79.711,269.086 c 0,7.855 -6.348,14.223 -14.18,14.223 -7.832,0 -14.179,-6.368 -14.179,-14.223 0,-7.856 6.347,-14.223 14.179,-14.223 7.832,0 14.18,6.367 14.18,14.223 z" /></g><g
       transform="matrix(1,0,0,-1,0,561.69049)"
       id="g18"><path
         id="path20"
         style="fill:none;stroke:#000000;stroke-width:2.00762296;stroke-linecap:butt;stroke-linejoin:miter;stroke-miterlimit:4;stroke-dasharray:none;stroke-opacity:1"
         d="m 66.156,268.484 25.903,-21.937 -5.493,-15.668 30.614,-14.887 1.57,-11.75 15.699,-4.703 14.133,-26.637 19.531,-50.89 97.403,-1.887 12.589,-46.719" /></g><g
       transform="matrix(1,0,0,-1,0,561.69049)"
       id="g22"><path
         id="path24"
         style="fill:none;stroke:#000000;stroke-width:2.00762296;stroke-linecap:butt;stroke-linejoin:miter;stroke-miterlimit:4;stroke-dasharray:none;stroke-opacity:1"
         d="m 66.156,268.484 13.555,0.602 27.266,-2.168 7.062,25.07 51.027,3.133 27.477,35.254 3.922,24.289 14.918,-11.754" /></g><g
       transform="matrix(1,0,0,-1,0,561.69049)"
       id="g26"><path
         id="path28"
         style="fill:none;stroke:#000000;stroke-width:2.00762296;stroke-linecap:butt;stroke-linejoin:miter;stroke-miterlimit:4;stroke-dasharray:none;stroke-opacity:1"
         d="m 65.531,283.309 2.981,20.429 29.043,23.504 37.117,-7.457 -25.906,43.871 17.992,17.266 -66.371,-28.762" /></g><g
       transform="matrix(1,0,0,-1,0,561.69049)"
       id="g70"><path
         id="path72"
         style="fill:none;stroke:#000000;stroke-width:2.29772496;stroke-linecap:round;stroke-linejoin:miter;stroke-miterlimit:4;stroke-dasharray:none;stroke-opacity:1"
         d="m 523.82,147.914 -1.496,179.57 131.199,-0.156 -1.003,-179.101 -128.7,-0.313 z" /></g><g
       transform="matrix(1,0,0,-1,0,561.69049)"
       id="g182"><path
         id="path184"
         style="fill:none;stroke:#000000;stroke-width:2.40914798;stroke-linecap:butt;stroke-linejoin:round;stroke-miterlimit:4;stroke-dasharray:none;stroke-opacity:1"
         d="m 97.504,512.707 c 5.684,0 572.672,-0.711 572.672,-0.711" /></g><g
       transform="matrix(-1,-0.00125063,-0.00125063,1,0,561.69049)"
       id="g186"><path
         id="path188"
         style="fill:#000000;fill-opacity:1;fill-rule:evenodd;stroke:#000000;stroke-width:1.20457304;stroke-linecap:butt;stroke-linejoin:miter;stroke-miterlimit:4;stroke-dasharray:none;stroke-opacity:1"
         d="m -659.898,-512.833 4.819,-4.818 -16.866,4.818 16.865,4.818 -4.818,-4.818 z" /></g><text
       id="text190"
       style="font-variant:normal;font-weight:normal;font-size:15.05717564px;font-family:'DejaVu Sans';-inkscape-font-specification:DejaVuSans;writing-mode:lr-tb;fill:#000000;fill-opacity:1;fill-rule:nonzero;stroke:none"
       transform="scale(1.0009965,-0.99900446)"
       x="-1.418962"
       y="-44.383953"><tspan
         id="tspan192"
         y="-44.383953"
         x="-1.418962 2.7518756 17.417566 26.963814 36.16375 42.352249 48.254662 57.469654 67.000847 75.312401">importance</tspan><tspan
         id="tspan194"
         y="-77.679466"
         x="6.2050433 16.504152 29.483438 39.029686 43.802811 47.973652 57.23381 66.132599 75.392769 79.563606">AMS level </tspan></text>
<text
       id="text220"
       style="font-variant:normal;font-weight:normal;font-size:15.05717564px;font-family:'DejaVu Sans';-inkscape-font-specification:DejaVuSans;writing-mode:lr-tb;fill:#000000;fill-opacity:1;fill-rule:nonzero;stroke:none"
       transform="scale(1.0009965,-0.99900446)"
       x="334.90292"
       y="-3.8375676"><tspan
         id="tspan222"
         x="344.47931 392.28583 440.13754 492.71719 545.34204 593.14856" /></text>
<text
       id="text284"
       style="font-variant:normal;font-weight:normal;font-size:15.05717564px;font-family:'DejaVu Sans';-inkscape-font-specification:DejaVuSans;writing-mode:lr-tb;fill:#000000;fill-opacity:1;fill-rule:nonzero;stroke:none"
       transform="scale(1.0009965,-0.99900446)"
       x="565.55194"
       y="-212.58415"><tspan
         id="tspan286"
         y="-212.58415"
         x="565.55194 575.09821 584.35834 590.2608 599.52094 607.78735 613.68976 622.88965">detector</tspan></text>
<rect
       transform="scale(1,-1)"
       y="-95.086441"
       x="1.2622092"
       height="21.667925"
       width="86.040596"
       id="rect4220"
       style="opacity:1;fill:#ffffff;fill-opacity:1;stroke:#ffffff;stroke-width:0.132;stroke-linecap:butt;stroke-linejoin:miter;stroke-miterlimit:10.43299961;stroke-dasharray:none;stroke-dashoffset:0;stroke-opacity:1" /></g></svg>