<?xml version="1.0" encoding="UTF-8" standalone="no"?>
<svg
   xmlns:dc="http://purl.org/dc/elements/1.1/"
   xmlns:cc="http://creativecommons.org/ns#"
   xmlns:rdf="http://www.w3.org/1999/02/22-rdf-syntax-ns#"
   xmlns:svg="http://www.w3.org/2000/svg"
   xmlns="http://www.w3.org/2000/svg"
   viewBox="0 0 843.84058 635.36957"
   height="635.36957"
   width="843.84058"
   xml:space="preserve"
   version="1.1"
   id="svg2"><metadata
     id="metadata8"><rdf:RDF><cc:Work
         rdf:about=""><dc:format>image/svg+xml</dc:format><dc:type
           rdf:resource="http://purl.org/dc/dcmitype/StillImage" /><dc:title></dc:title></cc:Work></rdf:RDF></metadata><defs
     id="defs6" /><g
     transform="matrix(1.25,0,0,-1.25,0,635.36957)"
     id="g10"><g
       id="g12"><g
         transform="matrix(1,0,0,-1,0,508.29565)"
         id="g14"><path
           id="path16"
           style="fill:#ff0000;fill-opacity:1;fill-rule:evenodd;stroke:#000000;stroke-width:1.186396;stroke-linecap:butt;stroke-linejoin:miter;stroke-miterlimit:4;stroke-dasharray:none;stroke-opacity:1"
           d="m 75.152,218.855 c 0,7.719 -6.429,13.977 -14.359,13.977 -7.934,0 -14.363,-6.258 -14.363,-13.977 0,-7.722 6.429,-13.98 14.363,-13.98 7.93,0 14.359,6.258 14.359,13.98 z" /></g><g
         transform="matrix(1,0,0,-1,0,508.29565)"
         id="g18"><path
           id="path20"
           style="fill:none;stroke:#2ca05a;stroke-width:1.58090496;stroke-linecap:butt;stroke-linejoin:miter;stroke-miterlimit:4;stroke-dasharray:none;stroke-opacity:1"
           d="m 59.387,216.293 26.234,-21.563 -5.562,-15.398 31.003,-14.633 1.59,-11.547 15.903,-4.621 14.308,-26.179 19.782,-50.02 98.644,-1.855 12.754,-45.918" /></g><g
         transform="matrix(1,0,0,-1,0,508.29565)"
         id="g22"><path
           id="path24"
           style="fill:none;stroke:#0066ff;stroke-width:1.58090496;stroke-linecap:butt;stroke-linejoin:miter;stroke-miterlimit:4;stroke-dasharray:none;stroke-opacity:1"
           d="m 61.422,218.262 13.73,0.593 27.61,-2.132 7.156,24.64 51.676,3.078 27.828,34.653 3.973,23.871 15.105,-11.551" /></g><g
         transform="matrix(1,0,0,-1,0,508.29565)"
         id="g26"><path
           id="path28"
           style="fill:none;stroke:#000000;stroke-width:1.58090496;stroke-linecap:butt;stroke-linejoin:miter;stroke-miterlimit:4;stroke-dasharray:none;stroke-opacity:1"
           d="m 60.793,232.832 3.016,20.082 29.414,23.098 37.589,-7.328 -26.238,43.121 18.223,16.968 L 55.582,300.5" /></g><g
         transform="matrix(1,0,0,-1,0,508.29565)"
         id="g30"><path
           id="path32"
           style="fill:none;stroke:#d40000;stroke-width:1.58090496;stroke-linecap:butt;stroke-linejoin:miter;stroke-miterlimit:4;stroke-dasharray:none;stroke-opacity:1"
           d="m 136.695,154.445 11.082,-20.277 54.543,1.547 95.395,9.379 -25.184,46.691 15.11,3.485 11.515,31.363 35.977,16.726 34.539,31.364 33.82,7.664 -22.308,30.664 7.199,16.031 -6.477,23.695" /></g><g
         transform="matrix(1,0,0,-1,0,508.29565)"
         id="g34"><path
           id="path36"
           style="fill:none;stroke:#8800aa;stroke-width:1.58090496;stroke-linecap:butt;stroke-linejoin:miter;stroke-miterlimit:4;stroke-dasharray:none;stroke-opacity:1"
           d="m 481.453,42.645 -28.062,-23.696 1.437,-18.121 -16.551,0.695 -28.644,20.129 1.301,18.899 -51.809,28.574 -35.258,-9.754 -34.101,32.469 -87.438,-15.617 -35.672,0.75 -17.707,47.402 -15.203,27.613 -17.18,5.317 -1.464,10.66 -30.59,14.23 5.468,14.969 -23.781,20.074" /></g><g
         transform="matrix(1,0,0,-1,0,508.29565)"
         id="g38"><path
           id="path40"
           style="fill:none;stroke:#6e6e91;stroke-width:1.58090496;stroke-linecap:butt;stroke-linejoin:miter;stroke-miterlimit:4;stroke-dasharray:none;stroke-opacity:0.87843101"
           d="m 291.164,95.289 12.113,-11.766 10.641,31.84 20.867,12.543 5.035,23 17.989,12.547 c 0,0 -2.157,40.422 0.722,40.422 2.875,0 38.137,18.117 38.137,18.117 l 12.23,-13.937 13.672,8.363 12.235,8.363 33.097,7.668 49.653,-22.304 38.855,17.425 -10.793,48.785 10.793,50.875 30.223,30.665" /></g><g
         transform="matrix(1,0,0,-1,0,508.29565)"
         id="g42"><path
           id="path44"
           style="fill:none;stroke:#6f6f91;stroke-width:1.58090496;stroke-linecap:butt;stroke-linejoin:miter;stroke-miterlimit:4;stroke-dasharray:none;stroke-opacity:1"
           d="m 414.75,42.77 -1.031,-13.887 32.437,5.234 21.153,48.949 32.379,4.879 9.355,49.481 49.648,4.879 18.711,52.965" /></g><g
         transform="matrix(1,0,0,-1,0,508.29565)"
         id="g46"><path
           id="path48"
           style="fill:none;stroke:#6f6f91;stroke-width:1.58090496;stroke-linecap:butt;stroke-linejoin:miter;stroke-miterlimit:4;stroke-dasharray:none;stroke-opacity:1"
           d="m 501.723,84 4.679,24.742 23.84,-42.203 121.871,9.797 -64.043,43.906 1.442,34.848" /></g><g
         transform="matrix(1,0,0,-1,0,508.29565)"
         id="g50"><path
           id="path52"
           style="fill:none;stroke:#000000;stroke-width:1.80934596;stroke-linecap:round;stroke-linejoin:miter;stroke-miterlimit:4;stroke-dasharray:none;stroke-opacity:1"
           d="m 524.922,99.762 -1.516,176.488 132.875,-0.156 -1.019,-176.028 -130.34,-0.304 z" /></g><g
         transform="matrix(1,0,0,-1,0,508.29565)"
         id="g54"><path
           id="path56"
           style="fill:none;stroke:#d40000;stroke-width:1.50186002;stroke-linecap:butt;stroke-linejoin:miter;stroke-miterlimit:4;stroke-dasharray:none;stroke-opacity:1"
           d="m 137.348,154.02 -17.461,5.019 -1.797,10.344 -30.528,14.23 5.598,14.289 -22.758,20.746" /></g><g
         transform="matrix(1,0,0,-1,0,508.29565)"
         id="g58"><path
           id="path60"
           style="fill:none;stroke:#6e6e91;stroke-width:1.58090496;stroke-linecap:butt;stroke-linejoin:miter;stroke-miterlimit:4;stroke-dasharray:none;stroke-opacity:0.87843101"
           d="m 291.164,95.289 -88.609,-14.996 -28.782,0.871 -14.929,42.688 -18.532,32.753 -17.312,4.965 -1.352,9.149 -30.086,13.937 5.489,13.332 -22.84,20.824" /></g><g
         transform="matrix(1,0,0,-1,0,508.29565)"
         id="g62"><path
           id="path64"
           style="fill:none;stroke:#6f6f91;stroke-width:1.58090496;stroke-linecap:butt;stroke-linejoin:miter;stroke-miterlimit:4;stroke-dasharray:none;stroke-opacity:1"
           d="m 79.262,218.535 22.242,-20.332 -5.262,-12.109 29.367,-13.414 1.032,-8.668 16.82,-4.965 20.867,-34.762 12.145,-40.074 25.632,-1.043 90.309,16.117 36.336,-34.5 30.852,8.801 55.644,-31.688" /></g><g
         transform="matrix(1,0,0,-1,0,508.29565)"
         id="g66"><path
           id="path68"
           style="fill:none;stroke:#6f6f91;stroke-width:1.58090496;stroke-linecap:butt;stroke-linejoin:miter;stroke-miterlimit:4;stroke-dasharray:none;stroke-opacity:1"
           d="m 501.723,84 -41.832,-5.535 -17,-40.512 -25.274,-4.703 1.078,10.629 -58.734,33.887 -30.313,-8.625 -36.336,34.324 -91.566,-17.074 -22.305,0.871 -11.156,37.199 -22.394,37.633 -16.282,4.008 -1.168,7.492 -27.793,13.851 4.497,10.891 -21.243,19.844 -19.402,0.215" /></g><g
         transform="matrix(1,0,0,-1,0,508.29565)"
         id="g70"><path
           id="path72"
           style="fill:none;stroke:#000000;stroke-width:2.40914798;stroke-linecap:butt;stroke-linejoin:round;stroke-miterlimit:4;stroke-dasharray:none;stroke-opacity:1"
           d="m 97.504,459.312 c 5.684,0 572.672,-0.71 572.672,-0.71" /></g><g
         transform="matrix(-1,-0.00125063,-0.00125063,1,0,508.29565)"
         id="g74"><path
           id="path76"
           style="fill:#000000;fill-opacity:1;fill-rule:evenodd;stroke:#000000;stroke-width:1.20457304;stroke-linecap:butt;stroke-linejoin:miter;stroke-miterlimit:4;stroke-dasharray:none;stroke-opacity:1"
           d="m -659.964,-459.439 4.818,-4.818 -16.865,4.819 16.865,4.818 -4.818,-4.819 z" /></g><text
         id="text78"
         style="font-variant:normal;font-weight:normal;font-size:15.07218075px;font-family:'DejaVu Sans';-inkscape-font-specification:DejaVuSans;writing-mode:lr-tb;fill:#000000;fill-opacity:1;fill-rule:nonzero;stroke:none"
         transform="matrix(1,0,0,-0.99800998,-1.420376,44.339776)"><tspan
           id="tspan80"
           y="0"
           x="0 4.174994 18.855299 28.41106 37.620163 43.814831 49.723125 58.9473 68.487991 76.807831">importance</tspan><tspan
           id="tspan82"
           y="-33.328693"
           x="7.6316028 17.940975 30.933195 40.488956 45.266838 49.441833 58.711224 67.618881 76.888275 81.063271">AMS level </tspan></text>
<g
         transform="matrix(1,0,0,-1,0,508.29565)"
         id="g84"><path
           id="path86"
           style="fill:none;stroke:#000000;stroke-width:2.40914798;stroke-linecap:butt;stroke-linejoin:round;stroke-miterlimit:4;stroke-dasharray:none;stroke-opacity:1"
           d="m 97.801,426.84 c 5.683,0 572.672,-0.711 572.672,-0.711" /></g><g
         transform="matrix(-1,-0.00125063,-0.00125063,1,0,508.29565)"
         id="g88"><path
           id="path90"
           style="fill:#000000;fill-opacity:1;fill-rule:evenodd;stroke:#000000;stroke-width:1.20457304;stroke-linecap:butt;stroke-linejoin:miter;stroke-miterlimit:4;stroke-dasharray:none;stroke-opacity:1"
           d="m -660.302,-426.966 4.819,-4.819 -16.862,4.819 16.861,4.818 -4.818,-4.818 z" /></g><text
         id="text92"
         style="font-variant:normal;font-weight:normal;font-size:15.07218075px;font-family:'DejaVu Sans';-inkscape-font-specification:DejaVuSans;writing-mode:lr-tb;fill:#000000;fill-opacity:1;fill-rule:nonzero;stroke:none"
         transform="matrix(1,0,0,-0.99800998,85.312983,4.790223)"><tspan
           id="tspan94"
           y="0"
           x="0 5.9082952 12.102962 21.327137 29.64698 38.373772 46.211308 50.989189 56.897484 66.166878 80.847176 90.056282 98.963943 108.23333 117.78909 122.56698 131.79115 137.69945 142.47733 146.65233 152.56062 161.83 168.06989 177.29407 183.20236 187.37735 196.58646 206.12715">tracks removed at iteration:</tspan></text>
<g
         transform="matrix(1,0,0,-1,0,508.29565)"
         id="g96"><path
           id="path98"
           style="fill:#0066ff;fill-opacity:1;fill-rule:evenodd;stroke:#000000;stroke-width:1.86608601;stroke-linecap:butt;stroke-linejoin:miter;stroke-miterlimit:4;stroke-dasharray:none;stroke-opacity:1"
           d="m 314.656,493.539 12.317,10.996" /></g><g
         transform="matrix(1,0,0,-1,0,508.29565)"
         id="g100"><path
           id="path102"
           style="fill:#0066ff;fill-opacity:1;fill-rule:evenodd;stroke:#000000;stroke-width:1.82492995;stroke-linecap:butt;stroke-linejoin:miter;stroke-miterlimit:4;stroke-dasharray:none;stroke-opacity:1"
           d="m 326.43,493.371 -11.231,11.332" /></g><g
         transform="matrix(1,0,0,-1,0,508.29565)"
         id="g104"><path
           id="path106"
           style="fill:none;stroke:#000000;stroke-width:1.43648601;stroke-linecap:butt;stroke-linejoin:miter;stroke-miterlimit:4;stroke-dasharray:none;stroke-opacity:1"
           d="m 328.668,498.855 c 0,4.375 -3.602,7.922 -8.043,7.922 -4.445,0 -8.047,-3.547 -8.047,-7.922 0,-4.375 3.602,-7.921 8.047,-7.921 4.441,0 8.043,3.546 8.043,7.921 z" /></g><text
         id="text108"
         style="font-variant:normal;font-weight:normal;font-size:15.07218075px;font-family:'DejaVu Sans';-inkscape-font-specification:DejaVuSans;writing-mode:lr-tb;fill:#000000;fill-opacity:1;fill-rule:nonzero;stroke:none"
         transform="matrix(1,0,0,-0.99800998,335.23665,3.833705)"><tspan
           id="tspan110"
           y="0"
           x="0 9.585907 47.854176 57.440083 95.753563 105.33947 148.38562 157.97153 201.0629 210.6488 248.91707 258.50299">0 1 2 3 4 5 </tspan></text>
<g
         transform="matrix(1,0,0,-1,0,508.29565)"
         id="g112"><path
           id="path114"
           style="fill:#0066ff;fill-opacity:1;fill-rule:evenodd;stroke:#0066ff;stroke-width:1.86608601;stroke-linecap:butt;stroke-linejoin:miter;stroke-miterlimit:4;stroke-dasharray:none;stroke-opacity:1"
           d="m 363.961,493.988 12.312,10.996" /></g><g
         transform="matrix(1,0,0,-1,0,508.29565)"
         id="g116"><path
           id="path118"
           style="fill:#0066ff;fill-opacity:1;fill-rule:evenodd;stroke:#0066ff;stroke-width:1.82492995;stroke-linecap:butt;stroke-linejoin:miter;stroke-miterlimit:4;stroke-dasharray:none;stroke-opacity:1"
           d="m 375.734,493.82 -11.23,11.332" /></g><g
         transform="matrix(1,0,0,-1,0,508.29565)"
         id="g120"><path
           id="path122"
           style="fill:none;stroke:#0066ff;stroke-width:1.43648601;stroke-linecap:butt;stroke-linejoin:miter;stroke-miterlimit:4;stroke-dasharray:none;stroke-opacity:1"
           d="m 377.973,499.301 c 0,4.375 -3.602,7.922 -8.047,7.922 -4.442,0 -8.043,-3.547 -8.043,-7.922 0,-4.375 3.601,-7.922 8.043,-7.922 4.445,0 8.047,3.547 8.047,7.922 z" /></g><g
         transform="matrix(1,0,0,-1,0,508.29565)"
         id="g124"><path
           id="path126"
           style="fill:#0066ff;fill-opacity:1;fill-rule:evenodd;stroke:#2ca05a;stroke-width:1.86608601;stroke-linecap:butt;stroke-linejoin:miter;stroke-miterlimit:4;stroke-dasharray:none;stroke-opacity:1"
           d="m 412.277,493.988 12.313,10.996" /></g><g
         transform="matrix(1,0,0,-1,0,508.29565)"
         id="g128"><path
           id="path130"
           style="fill:#0066ff;fill-opacity:1;fill-rule:evenodd;stroke:#2ca05a;stroke-width:1.82492995;stroke-linecap:butt;stroke-linejoin:miter;stroke-miterlimit:4;stroke-dasharray:none;stroke-opacity:1"
           d="m 424.047,493.82 -11.231,11.332" /></g><g
         transform="matrix(1,0,0,-1,0,508.29565)"
         id="g132"><path
           id="path134"
           style="fill:none;stroke:#2ca05a;stroke-width:1.43648601;stroke-linecap:butt;stroke-linejoin:miter;stroke-miterlimit:4;stroke-dasharray:none;stroke-opacity:1"
           d="m 426.285,499.301 c 0,4.375 -3.601,7.922 -8.043,7.922 -4.445,0 -8.047,-3.547 -8.047,-7.922 0,-4.375 3.602,-7.922 8.047,-7.922 4.442,0 8.043,3.547 8.043,7.922 z" /></g><g
         transform="matrix(1,0,0,-1,0,508.29565)"
         id="g136"><path
           id="path138"
           style="fill:#0066ff;fill-opacity:1;fill-rule:evenodd;stroke:#d40000;stroke-width:1.86608601;stroke-linecap:butt;stroke-linejoin:miter;stroke-miterlimit:4;stroke-dasharray:none;stroke-opacity:1"
           d="m 463.809,494.34 12.312,10.996" /></g><g
         transform="matrix(1,0,0,-1,0,508.29565)"
         id="g140"><path
           id="path142"
           style="fill:#0066ff;fill-opacity:1;fill-rule:evenodd;stroke:#d40000;stroke-width:1.82492995;stroke-linecap:butt;stroke-linejoin:miter;stroke-miterlimit:4;stroke-dasharray:none;stroke-opacity:1"
           d="m 475.582,494.172 -11.23,11.336" /></g><g
         transform="matrix(1,0,0,-1,0,508.29565)"
         id="g144"><path
           id="path146"
           style="fill:none;stroke:#d40000;stroke-width:1.43648601;stroke-linecap:butt;stroke-linejoin:miter;stroke-miterlimit:4;stroke-dasharray:none;stroke-opacity:1"
           d="m 477.82,499.656 c 0,4.375 -3.601,7.922 -8.047,7.922 -4.441,0 -8.043,-3.547 -8.043,-7.922 0,-4.375 3.602,-7.922 8.043,-7.922 4.446,0 8.047,3.547 8.047,7.922 z" /></g><g
         transform="matrix(1,0,0,-1,0,508.29565)"
         id="g148"><path
           id="path150"
           style="fill:#0066ff;fill-opacity:1;fill-rule:evenodd;stroke:#8800aa;stroke-width:1.86608601;stroke-linecap:butt;stroke-linejoin:miter;stroke-miterlimit:4;stroke-dasharray:none;stroke-opacity:1"
           d="m 517.34,493.277 12.316,10.996" /></g><g
         transform="matrix(1,0,0,-1,0,508.29565)"
         id="g152"><path
           id="path154"
           style="fill:#0066ff;fill-opacity:1;fill-rule:evenodd;stroke:#8800aa;stroke-width:1.82492995;stroke-linecap:butt;stroke-linejoin:miter;stroke-miterlimit:4;stroke-dasharray:none;stroke-opacity:1"
           d="m 529.113,493.109 -11.23,11.332" /></g><g
         transform="matrix(1,0,0,-1,0,508.29565)"
         id="g156"><path
           id="path158"
           style="fill:none;stroke:#8800aa;stroke-width:1.43648601;stroke-linecap:butt;stroke-linejoin:miter;stroke-miterlimit:4;stroke-dasharray:none;stroke-opacity:1"
           d="m 531.352,498.594 c 0,4.375 -3.602,7.922 -8.047,7.922 -4.442,0 -8.043,-3.547 -8.043,-7.922 0,-4.375 3.601,-7.922 8.043,-7.922 4.445,0 8.047,3.547 8.047,7.922 z" /></g><g
         transform="matrix(1,0,0,-1,0,508.29565)"
         id="g160"><path
           id="path162"
           style="fill:none;stroke:#6e6e90;stroke-width:1.86608601;stroke-linecap:butt;stroke-linejoin:miter;stroke-miterlimit:4;stroke-dasharray:none;stroke-opacity:0.70980398"
           d="m 565.078,492.57 12.313,10.996" /></g><g
         transform="matrix(1,0,0,-1,0,508.29565)"
         id="g164"><path
           id="path166"
           style="fill:none;stroke:#6e6e90;stroke-width:1.82492995;stroke-linecap:butt;stroke-linejoin:miter;stroke-miterlimit:4;stroke-dasharray:none;stroke-opacity:0.70980398"
           d="m 576.848,492.402 -11.231,11.332" /></g><g
         transform="matrix(1,0,0,-1,0,508.29565)"
         id="g168"><path
           id="path170"
           style="fill:none;stroke:#6e6e90;stroke-width:1.43648601;stroke-linecap:butt;stroke-linejoin:miter;stroke-miterlimit:4;stroke-dasharray:none;stroke-opacity:0.70980398"
           d="m 579.09,497.883 c 0,4.375 -3.602,7.922 -8.047,7.922 -4.441,0 -8.047,-3.547 -8.047,-7.922 0,-4.375 3.606,-7.922 8.047,-7.922 4.445,0 8.047,3.547 8.047,7.922 z" /></g><text
         id="text172"
         style="font-variant:normal;font-weight:normal;font-size:15.07218075px;font-family:'DejaVu Sans';-inkscape-font-specification:DejaVuSans;writing-mode:lr-tb;fill:#000000;fill-opacity:1;fill-rule:nonzero;stroke:none"
         transform="matrix(1,0,0,-0.99800998,572.51432,210.42515)"><tspan
           id="tspan174"
           y="0"
           x="0 9.5557623 18.825153 24.73345 34.002842 42.277466 48.185764 57.394867">detector</tspan></text>
</g></g></svg>