<?xml version="1.0" encoding="UTF-8" standalone="no"?>
<svg
   xmlns:dc="http://purl.org/dc/elements/1.1/"
   xmlns:cc="http://creativecommons.org/ns#"
   xmlns:rdf="http://www.w3.org/1999/02/22-rdf-syntax-ns#"
   xmlns:svg="http://www.w3.org/2000/svg"
   xmlns="http://www.w3.org/2000/svg"
   width="237.07202mm"
   height="22.594572mm"
   viewBox="0 0 840.01897 80.059503"
   id="svg2"
   version="1.1">
  <defs
     id="defs4">
    <marker
       style="overflow:visible"
       id="marker6533"
       refX="0"
       refY="0"
       orient="auto">
      <path
         transform="matrix(-0.4,0,0,-0.4,-4,0)"
         style="fill:#ff0013;fill-opacity:1;fill-rule:evenodd;stroke:#ff0013;stroke-width:1pt;stroke-opacity:1"
         d="M 0,0 5,-5 -12.5,0 5,5 0,0 Z"
         id="path6535" />
    </marker>
    <marker
       orient="auto"
       refY="0"
       refX="0"
       id="Arrow1Mend"
       style="overflow:visible">
      <path
         id="path4198"
         d="M 0,0 5,-5 -12.5,0 5,5 0,0 Z"
         style="fill:#000000;fill-opacity:1;fill-rule:evenodd;stroke:#000000;stroke-width:1pt;stroke-opacity:1"
         transform="matrix(-0.4,0,0,-0.4,-4,0)" />
    </marker>
  </defs>
  <metadata
     id="metadata7">
    <rdf:RDF>
      <cc:Work
         rdf:about="">
        <dc:format>image/svg+xml</dc:format>
        <dc:type
           rdf:resource="http://purl.org/dc/dcmitype/StillImage" />
        <dc:title></dc:title>
      </cc:Work>
    </rdf:RDF>
  </metadata>
  <g
     id="layer1"
     transform="translate(-106.57617,-540.51697)">
    <rect
       style="opacity:1;fill:#c1c1c1;fill-opacity:1;stroke:#000000;stroke-width:1;stroke-linecap:butt;stroke-linejoin:miter;stroke-miterlimit:4;stroke-dasharray:none;stroke-dashoffset:0;stroke-opacity:1"
       id="rect4136"
       width="839"
       height="79"
       x="107.07617"
       y="541.01697"
       ry="0" />
    <rect
       style="opacity:1;fill:#ccebff;fill-opacity:1;stroke:#000000;stroke-width:1;stroke-linecap:butt;stroke-linejoin:miter;stroke-miterlimit:4;stroke-dasharray:none;stroke-dashoffset:0;stroke-opacity:1"
       id="rect4136-6"
       width="599"
       height="79"
       x="107.08479"
       y="541.07648"
       ry="0" />
    <rect
       style="opacity:1;fill:#80e6ae;fill-opacity:0.33910038;stroke:#00963b;stroke-width:2.70000005;stroke-linecap:butt;stroke-linejoin:miter;stroke-miterlimit:4;stroke-dasharray:none;stroke-dashoffset:0;stroke-opacity:1"
       id="rect4136-6-7"
       width="37.634563"
       height="77.255753"
       x="907.6106"
       y="541.93988"
       ry="0" />
    <g
       id="g5862"
       transform="matrix(0.27874296,0,0,0.30119943,17.160265,568.54818)">
      <g
         id="content"
         transform="matrix(1.0629921,0,0,-1.0629921,-186.02362,789.27165)"
         xml:space="preserve"
         stroke-miterlimit="10.433"
         font-style="normal"
         font-variant="normal"
         font-weight="normal"
         font-stretch="normal"
         font-size-adjust="none"
         letter-spacing="normal"
         word-spacing="normal"
         style="font-style:normal;font-variant:normal;font-weight:normal;font-stretch:normal;letter-spacing:normal;word-spacing:normal;text-anchor:start;fill:none;fill-opacity:1;fill-rule:evenodd;stroke:#000000;stroke-width:3.45120645;stroke-linecap:butt;stroke-linejoin:miter;stroke-miterlimit:10.43299961;stroke-dasharray:none;stroke-dashoffset:0;stroke-opacity:1"><path
           d="m 526.41549,624.77577 0,0.75 -0.01,0.74 -0.02,0.75 -0.03,0.74 -0.05,0.75 -0.06,0.74 -0.07,0.74 -0.1,0.73 -0.11,0.73 -0.14,0.73 -0.16,0.72 -0.19,0.72 -0.22,0.71 -0.24,0.71 -0.28,0.7 -0.15,0.35 -0.16,0.35 c -2.29,4.78 -6.37,5.58 -8.47,5.58 -2.98,0 -6.62,-1.3 -8.67,-5.93 -1.59,-3.44 -1.84,-7.32 -1.84,-11.31 0,-3.74 0.2,-8.22 2.24,-12.01 2.15,-4.03 5.78,-5.03 8.22,-5.03 l 0,1.1 c -1.94,0 -4.88,1.25 -5.78,6.03 -0.54,2.99 -0.54,7.57 -0.54,10.51 0,3.19 0,6.47 0.4,9.16 0.94,5.93 4.68,6.38 5.92,6.38 1.65,0 4.94,-0.9 5.88,-5.83 0.5,-2.79 0.5,-6.57 0.5,-9.71 0,-3.74 0,-7.13 -0.55,-10.31 -0.75,-4.73 -3.58,-6.23 -5.83,-6.23 l 0,0 0,-1.1 c 2.69,0 6.48,1.05 8.67,5.78 1.59,3.44 1.84,7.32 1.84,11.26 z"
           id="path5871"
           style="fill:#000000;stroke-width:0" /></g>    </g>
    <g
       id="g5917"
       transform="matrix(0.31452518,0,0,0.34996901,587.714,484.20944)">
      <g
         word-spacing="normal"
         letter-spacing="normal"
         font-size-adjust="none"
         font-stretch="normal"
         font-weight="normal"
         font-variant="normal"
         font-style="normal"
         stroke-miterlimit="10.433"
         xml:space="preserve"
         transform="matrix(1.0629921,0,0,-1.0629921,-186.02362,789.27165)"
         id="g5919"
         style="font-style:normal;font-variant:normal;font-weight:normal;font-stretch:normal;letter-spacing:normal;word-spacing:normal;text-anchor:start;fill:none;fill-opacity:1;fill-rule:evenodd;stroke:#000000;stroke-width:3.01409888;stroke-linecap:butt;stroke-linejoin:miter;stroke-miterlimit:10.43299961;stroke-dasharray:none;stroke-dashoffset:0;stroke-opacity:1"><path
           id="path5927"
           d="m 564.45,423.54 0.37,0.13 0.38,0.14 0.36,0.16 0.36,0.17 0.35,0.18 0.34,0.19 0.33,0.2 0.32,0.21 0.31,0.22 0.3,0.23 0.3,0.24 0.28,0.25 0.27,0.26 0.26,0.27 0.25,0.27 0.23,0.29 0.23,0.29 0.21,0.3 0.2,0.3 0.19,0.31 0.17,0.32 0.16,0.33 0.15,0.33 0.13,0.33 0.12,0.34 0.1,0.35 0.09,0.35 0.08,0.35 0.05,0.36 0.04,0.36 0.03,0.36 0.01,0.37 c 0,4.09 -4.39,6.88 -9.17,6.88 -5.03,0 -8.81,-2.99 -8.81,-6.78 0,-1.64 1.09,-2.59 2.54,-2.59 1.54,0 2.54,1.1 2.54,2.54 0,2.49 -2.34,2.49 -3.09,2.49 1.54,2.44 4.83,3.09 6.62,3.09 2.05,0 4.79,-1.09 4.79,-5.58 0,-0.6 -0.1,-3.49 -1.4,-5.68 -1.49,-2.39 -3.19,-2.54 -4.43,-2.59 -0.4,-0.05 -1.6,-0.15 -1.94,-0.15 -0.4,-0.05 -0.75,-0.1 -0.75,-0.59 0,-0.55 0.35,-0.55 1.2,-0.55 l 2.19,0 c 4.08,0 5.92,-3.39 5.92,-8.27 0,-6.78 -3.43,-8.22 -5.63,-8.22 -2.14,0 -5.87,0.84 -7.62,3.79 1.75,-0.25 3.29,0.84 3.29,2.73 0,1.8 -1.34,2.79 -2.79,2.79 -1.19,0 -2.79,-0.69 -2.79,-2.88 0,-4.54 4.64,-7.83 10.07,-7.83 6.07,0 10.61,4.54 10.61,9.62 0,4.08 -3.15,7.97 -8.32,9.02 z"
           style="fill:#000000;stroke-width:0" /><path
           id="path5929"
           d="m 580.48,423.14 0,-13.35 c 0,-2.25 -0.55,-2.25 -3.89,-2.25 l 0,-1.54 11.21,0 0,1.54 c -3.33,0 -3.88,0 -3.88,2.25 l 0,9.16 c 0,5.18 3.53,7.97 6.72,7.97 3.14,0 3.69,-2.69 3.69,-5.53 l 0,-11.6 c 0,-2.25 -0.55,-2.25 -3.89,-2.25 l 0,-1.54 11.21,0 0,1.54 c -3.34,0 -3.88,0 -3.88,2.25 l 0,9.16 c 0,5.18 3.53,7.97 6.72,7.97 3.14,0 3.69,-2.69 3.69,-5.53 l 0,-11.6 c 0,-2.25 -0.55,-2.25 -3.89,-2.25 l 0,-1.54 11.21,0 0,1.54 c -2.59,0 -3.84,0 -3.89,1.5 l 0,9.51 c 0,4.29 0,5.83 -1.54,7.63 -0.7,0.84 -2.34,1.84 -5.23,1.84 -4.19,0 -6.38,-2.99 -7.23,-4.88 -0.69,4.33 -4.38,4.88 -6.62,4.88 -3.64,0 -5.98,-2.14 -7.37,-5.23 l 0,5.23 -7.03,-0.55 0,-1.54 c 3.49,0 3.89,-0.35 3.89,-2.79 z"
           style="fill:#000000;stroke-width:0" /></g>    </g>
    <g
       id="g6067"
       transform="matrix(0.32115146,0,0,0.34974601,786.00079,484.54383)">
      <g
         word-spacing="normal"
         letter-spacing="normal"
         font-size-adjust="none"
         font-stretch="normal"
         font-weight="normal"
         font-variant="normal"
         font-style="normal"
         stroke-miterlimit="10.433"
         xml:space="preserve"
         transform="matrix(1.0629921,0,0,-1.0629921,-186.02362,789.27165)"
         id="g6069"
         style="font-style:normal;font-variant:normal;font-weight:normal;font-stretch:normal;letter-spacing:normal;word-spacing:normal;text-anchor:start;fill:none;fill-opacity:1;fill-rule:evenodd;stroke:#000000;stroke-width:2.98379302;stroke-linecap:butt;stroke-linejoin:miter;stroke-miterlimit:10.43299961;stroke-dasharray:none;stroke-dashoffset:0;stroke-opacity:1"><path
           id="path6077"
           d="m 564.65,414.22 0,-4.33 c 0,-1.8 -0.1,-2.35 -3.79,-2.35 l -1.05,0 0,-1.54 13.5,0 0,1.54 -1.04,0 c -3.69,0 -3.79,0.55 -3.79,2.35 l 0,4.33 4.98,0 0,1.54 -4.98,0 0,22.67 c 0,1 0,1.29 -0.8,1.29 -0.45,0 -0.59,0 -0.99,-0.6 l -15.29,-23.36 1.39,0 12.16,18.58 0,-18.58 -12.16,0 -1.39,0 0,-1.54 z"
           style="fill:#000000;stroke-width:0" /><path
           id="path6083"
           d="m 585.98514,422.69019 0,-13.35 c 0,-2.25 -0.55,-2.25 -3.89,-2.25 l 0,-1.54 11.21,0 0,1.54 c -3.33,0 -3.88,0 -3.88,2.25 l 0,9.16 c 0,5.18 3.53,7.97 6.72,7.97 3.14,0 3.69,-2.69 3.69,-5.53 l 0,-11.6 c 0,-2.25 -0.55,-2.25 -3.89,-2.25 l 0,-1.54 11.21,0 0,1.54 c -3.34,0 -3.88,0 -3.88,2.25 l 0,9.16 c 0,5.18 3.53,7.97 6.72,7.97 3.14,0 3.69,-2.69 3.69,-5.53 l 0,-11.6 c 0,-2.25 -0.55,-2.25 -3.89,-2.25 l 0,-1.54 11.21,0 0,1.54 c -2.59,0 -3.84,0 -3.89,1.5 l 0,9.51 c 0,4.29 0,5.83 -1.54,7.63 -0.7,0.84 -2.34,1.84 -5.23,1.84 -4.19,0 -6.38,-2.99 -7.23,-4.88 -0.69,4.33 -4.38,4.88 -6.62,4.88 -3.64,0 -5.98,-2.14 -7.37,-5.23 l 0,5.23 -7.03,-0.55 0,-1.54 c 3.49,0 3.89,-0.35 3.89,-2.79 z"
           style="fill:#000000;stroke-width:0" /></g>    </g>
    <g
       transform="matrix(0.38867376,0,0,0.40558253,295.98351,439.6497)"
       id="g6283">
      <g
         style="font-style:normal;font-variant:normal;font-weight:normal;font-stretch:normal;letter-spacing:normal;word-spacing:normal;text-anchor:start;fill:none;fill-opacity:1;fill-rule:evenodd;stroke:#000000;stroke-width:2.51864958;stroke-linecap:butt;stroke-linejoin:miter;stroke-miterlimit:10.43299961;stroke-dasharray:none;stroke-dashoffset:0;stroke-opacity:1"
         id="g6285"
         transform="matrix(1.0629921,0,0,-1.0629921,-186.02362,789.27165)"
         xml:space="preserve"
         stroke-miterlimit="10.433"
         font-style="normal"
         font-variant="normal"
         font-weight="normal"
         font-stretch="normal"
         font-size-adjust="none"
         letter-spacing="normal"
         word-spacing="normal"><path
           style="fill:#000000;stroke-width:0"
           d="m 461.53,417.51 0.05,1.04 c 0.3,7.43 4.48,8.67 6.18,8.67 5.13,0 5.63,-6.72 5.63,-8.67 l -11.81,0 -0.05,-1.04 13.9,0 c 1.09,0 1.24,0 1.24,1.04 0,4.93 -2.69,9.77 -8.91,9.77 -5.78,0 -10.37,-5.14 -10.37,-11.36 0,-6.67 5.23,-11.51 10.97,-11.51 6.07,0 8.31,5.53 8.31,6.48 0,0.5 -0.4,0.6 -0.65,0.6 -0.44,0 -0.54,-0.3 -0.64,-0.7 -1.75,-5.13 -6.23,-5.13 -6.73,-5.13 -2.49,0 -4.48,1.49 -5.63,3.34 -1.49,2.39 -1.49,5.67 -1.49,7.47 z"
           id="path6287" /><path
           style="fill:#000000;stroke-width:0"
           d="m 494.59,409.79 0.02,-0.19 0.03,-0.19 0.03,-0.19 0.04,-0.18 0.05,-0.19 0.06,-0.18 0.06,-0.18 0.07,-0.18 0.07,-0.18 0.08,-0.18 0.09,-0.17 0.1,-0.16 0.1,-0.17 0.1,-0.15 0.12,-0.16 0.12,-0.14 0.12,-0.15 0.13,-0.13 0.14,-0.13 0.15,-0.12 0.15,-0.12 0.15,-0.1 0.17,-0.1 0.17,-0.09 0.17,-0.08 0.18,-0.07 0.19,-0.07 0.19,-0.05 0.2,-0.04 0.21,-0.03 0.21,-0.01 0.21,-0.01 c 1.05,0 4.09,0.7 4.09,4.73 l 0,2.79 -1.25,0 0,-2.79 c 0,-2.89 -1.24,-3.18 -1.79,-3.18 -1.64,0 -1.84,2.24 -1.84,2.48 l 0,9.97 c 0,2.09 0,4.03 -1.8,5.88 -1.94,1.94 -4.43,2.74 -6.82,2.74 -4.09,0 -7.52,-2.34 -7.52,-5.63 0,-1.5 0.99,-2.34 2.29,-2.34 1.39,0 2.29,0.99 2.29,2.29 0,0.59 -0.25,2.24 -2.54,2.29 1.35,1.74 3.78,2.29 5.38,2.29 2.44,0 5.28,-1.94 5.28,-6.38 l 0,-1.84 0,-1.04 0,-4.99 c 0,-4.73 -3.59,-6.42 -5.83,-6.42 -2.44,0 -4.48,1.74 -4.48,4.23 0,2.74 2.09,6.88 10.31,7.18 l 0,0 0,1.04 c -2.54,-0.15 -6.03,-0.3 -9.17,-1.79 -3.73,-1.69 -4.98,-4.28 -4.98,-6.48 0,-4.03 4.84,-5.28 7.97,-5.28 3.29,0 5.58,2 6.53,4.34 z"
           id="path6289" /><path
           style="fill:#000000;stroke-width:0"
           d="m 522.48,409.93 0,-4.48 7.17,0.55 0,1.54 c -3.49,0 -3.88,0.35 -3.88,2.79 l 0,17.69 -7.33,-0.55 0,-1.54 c 3.49,0 3.89,-0.35 3.89,-2.79 l 0,-8.87 c 0,-4.34 -2.39,-7.72 -6.03,-7.72 -4.18,0 -4.38,2.34 -4.38,4.93 l 0,16.54 -7.33,-0.55 0,-1.54 c 3.89,0 3.89,-0.15 3.89,-4.59 l 0,-7.47 c 0,-3.89 0,-8.42 7.57,-8.42 2.79,0 4.98,1.4 6.43,4.48 z"
           id="path6291" /></g>    </g>
    <g
       transform="matrix(0.37327509,0,0,0.36893666,531.41966,362.02965)"
       id="g6355">
      <g
         transform="translate(422,238)"
         id="g6436">
        <g
           style="font-style:normal;font-variant:normal;font-weight:normal;font-stretch:normal;letter-spacing:normal;word-spacing:normal;text-anchor:start;fill:none;fill-opacity:1;fill-rule:evenodd;stroke:#000000;stroke-width:2.69469476;stroke-linecap:butt;stroke-linejoin:miter;stroke-miterlimit:10.43299961;stroke-dasharray:none;stroke-dashoffset:0;stroke-opacity:1"
           id="g6438"
           transform="matrix(1.0629921,0,0,-1.0629921,-186.02362,789.27165)"
           xml:space="preserve"
           stroke-miterlimit="10.433"
           font-style="normal"
           font-variant="normal"
           font-weight="normal"
           font-stretch="normal"
           font-size-adjust="none"
           letter-spacing="normal"
           word-spacing="normal"><path
             style="fill:#000000;stroke-width:0"
             d="m 464.57,424.78 0,15.79 -7.18,-0.55 0,-1.54 c 3.49,0 3.89,-0.35 3.89,-2.79 l 0,-29.69 1.25,0 c 0.04,0.05 0.44,0.75 1.79,3.09 0.75,-1.15 2.84,-3.64 6.52,-3.64 l -0.2,1.1 c -2.24,0 -4.03,1.19 -5.23,3.04 -0.69,1.04 -0.69,1.19 -0.69,2.09 l 0,0 0,10.26 c 0,0.95 0,1 0.55,1.79 1.94,2.79 4.68,3.19 5.87,3.19 2.25,0 4.04,-1.3 5.24,-3.19 1.29,-2.04 1.44,-4.88 1.44,-6.92 0,-1.85 -0.1,-4.83 -1.55,-7.08 -1.04,-1.54 -2.93,-3.18 -5.63,-3.18 l 0.2,-1.1 c 5.93,0 11.11,4.88 11.11,11.31 0,6.33 -4.88,11.26 -10.56,11.26 -3.88,0 -6.03,-2.34 -6.82,-3.24 z"
             id="path6440" /><path
             style="fill:#000000;stroke-width:0"
             d="m 500.68,437.48 0.08,0.07 0.09,0.07 0.07,0.08 0.08,0.08 0.08,0.08 0.03,0.05 0.04,0.04 0.03,0.05 0.03,0.04 0.03,0.05 0.03,0.05 0.03,0.04 0.03,0.05 0.02,0.05 0.03,0.05 0.02,0.05 0.02,0.06 0.02,0.05 0.02,0.05 0.01,0.05 0.02,0.06 0.01,0.05 0.01,0.06 0.01,0.05 0,0.06 0.01,0.05 0,0.06 c 0,0.89 -0.9,1.79 -1.8,1.79 -0.75,0 -1.29,-0.55 -1.49,-0.85 l -5.98,-7.62 0.85,-0.89 z"
             id="path6442" /><path
             style="fill:#000000;stroke-width:0"
             d="m 488.53,417.51 0.05,1.04 c 0.3,7.43 4.48,8.67 6.18,8.67 5.13,0 5.63,-6.72 5.63,-8.67 l -11.81,0 -0.05,-1.04 13.9,0 c 1.09,0 1.24,0 1.24,1.04 0,4.93 -2.69,9.77 -8.91,9.77 -5.78,0 -10.37,-5.14 -10.37,-11.36 0,-6.67 5.23,-11.51 10.97,-11.51 6.07,0 8.31,5.53 8.31,6.48 0,0.5 -0.4,0.6 -0.65,0.6 -0.44,0 -0.54,-0.3 -0.64,-0.7 -1.75,-5.13 -6.23,-5.13 -6.73,-5.13 -2.49,0 -4.48,1.49 -5.63,3.34 -1.49,2.39 -1.49,5.67 -1.49,7.47 z"
             id="path6444" /><path
             style="fill:#000000;stroke-width:0"
             d="m 513.62,425.93 7.12,0 0,1.54 -7.12,0 0,9.17 -1.25,0 c -0.05,-4.09 -1.54,-9.42 -6.42,-9.62 l 0,-1.09 4.23,0 0,-13.75 c 0,-6.13 4.63,-6.73 6.42,-6.73 3.55,0 4.94,3.54 4.94,6.73 l 0,2.84 -1.25,0 0,-2.74 c 0,-3.69 -1.49,-5.58 -3.33,-5.58 -3.34,0 -3.34,4.53 -3.34,5.38 z"
             id="path6446" /><path
             style="fill:#000000;stroke-width:0"
             d="m 548.46,416.66 -0.01,0.59 -0.05,0.59 -0.07,0.58 -0.09,0.57 -0.13,0.56 -0.15,0.55 -0.17,0.54 -0.2,0.53 -0.22,0.52 -0.25,0.5 -0.26,0.49 -0.29,0.47 -0.31,0.46 -0.33,0.44 -0.35,0.42 -0.36,0.41 -0.39,0.39 -0.4,0.36 -0.41,0.35 -0.44,0.33 -0.44,0.3 -0.46,0.29 -0.48,0.26 -0.48,0.23 -0.5,0.21 -0.51,0.19 -0.52,0.16 -0.53,0.13 -0.54,0.1 -0.55,0.08 -0.56,0.04 -0.56,0.02 -0.05,-1.1 c 2.19,0 4.34,-1.1 5.63,-3.24 1.3,-2.14 1.3,-5.03 1.3,-6.92 0,-1.79 0,-4.49 -1.1,-6.68 -1.09,-2.24 -3.28,-3.68 -5.78,-3.68 l 0,0 c -2.14,0 -4.33,1.04 -5.68,3.34 -1.24,2.19 -1.24,5.23 -1.24,7.02 0,1.94 0,4.63 1.2,6.82 1.34,2.3 3.68,3.34 5.67,3.34 l 0.05,1.1 c -6.22,0 -11.05,-5.43 -11.05,-11.66 0,-6.43 5.17,-11.21 11,-11.21 6.03,0 11.06,4.88 11.06,11.21 z"
             id="path6448" /><path
             style="fill:#000000;stroke-width:0"
             d="m 555.48,423.14 0,-13.35 c 0,-2.25 -0.55,-2.25 -3.89,-2.25 l 0,-1.54 11.21,0 0,1.54 c -3.33,0 -3.88,0 -3.88,2.25 l 0,9.16 c 0,5.18 3.53,7.97 6.72,7.97 3.14,0 3.69,-2.69 3.69,-5.53 l 0,-11.6 c 0,-2.25 -0.55,-2.25 -3.89,-2.25 l 0,-1.54 11.21,0 0,1.54 c -2.59,0 -3.84,0 -3.88,1.5 l 0,9.51 c 0,4.29 0,5.83 -1.55,7.63 -0.7,0.84 -2.34,1.84 -5.23,1.84 -3.64,0 -5.98,-2.14 -7.37,-5.23 l 0,5.23 -7.03,-0.55 0,-1.54 c 3.49,0 3.89,-0.35 3.89,-2.79 z"
             id="path6450" /></g>      </g>
    </g>
    <path
       d="m 117.73992,580.31495 a 1.128805,1.0514383 0 0 1 -1.0736,1.09918 1.128805,1.0514383 0 0 1 -1.18142,-0.99863 1.128805,1.0514383 0 0 1 1.07061,-1.10171 1.128805,1.0514383 0 0 1 1.18413,0.99583"
       id="path6529"
       style="opacity:1;fill:#ff2a2a;fill-opacity:1;stroke:#ff0013;stroke-width:2.70000029;stroke-linecap:butt;stroke-linejoin:miter;stroke-miterlimit:4;stroke-dasharray:none;stroke-dashoffset:0;stroke-opacity:1" />
    <path
       id="path6531"
       d="m 116.7648,580.40617 26.4461,0"
       style="fill:none;fill-rule:evenodd;stroke:#ff0013;stroke-width:1.29999995;stroke-linecap:butt;stroke-linejoin:miter;stroke-miterlimit:4;stroke-dasharray:none;stroke-opacity:1;marker-end:url(#marker6533)" />
    <g
       id="g6976"
       transform="matrix(2.9888284,0,0,2.4064277,-20.976257,-764.81317)">
      <g
         word-spacing="normal"
         letter-spacing="normal"
         font-size-adjust="none"
         font-stretch="normal"
         font-weight="normal"
         font-variant="normal"
         font-style="normal"
         stroke-miterlimit="10.433"
         xml:space="preserve"
         transform="matrix(0.16497709,0,0,-0.16497709,-28.87099,618.77261)"
         id="g6978"
         style="font-style:normal;font-variant:normal;font-weight:normal;font-stretch:normal;letter-spacing:normal;word-spacing:normal;text-anchor:start;fill:#ff0004;fill-opacity:1;fill-rule:evenodd;stroke:#ff0013;stroke-width:0.37292665;stroke-linecap:butt;stroke-linejoin:miter;stroke-miterlimit:10.43299961;stroke-dasharray:none;stroke-dashoffset:0;stroke-opacity:1"><path
           id="path6980"
           d="m 501.28,435.14 0.09,0.26 0.09,0.25 0.1,0.23 0.11,0.22 0.12,0.21 0.12,0.19 0.12,0.19 0.13,0.17 0.14,0.16 0.14,0.15 0.15,0.14 0.15,0.13 0.15,0.13 0.16,0.11 0.16,0.1 0.17,0.09 0.17,0.09 0.17,0.08 0.17,0.07 0.18,0.06 0.18,0.06 0.18,0.05 0.18,0.04 0.18,0.03 0.18,0.04 0.19,0.02 0.18,0.02 0.19,0.02 0.37,0.02 0.36,0.01 0,1.54 -10.46,0 0,-1.54 c 3.34,-0.05 4.33,-1.69 4.33,-2.64 0,-0.3 -0.15,-0.7 -0.24,-1 l -7.48,-23.01 -7.97,24.41 c -0.05,0.2 -0.15,0.49 -0.15,0.74 0,1.5 2.89,1.5 4.19,1.5 l 0,1.54 -13.15,0 0,-1.54 c 2.84,0 3.88,0 4.48,-1.8 l 1.1,-3.48 -6.93,-21.37 -8.02,24.51 c -0.05,0.14 -0.1,0.5 -0.1,0.64 0,1.5 2.89,1.5 4.19,1.5 l 0,1.54 -13.15,0 0,-1.54 c 3.73,0 3.93,-0.25 4.53,-2.09 l 9.96,-30.54 c 0.15,-0.45 0.3,-0.95 0.95,-0.95 0.7,0 0.8,0.35 1,1 l 8.21,25.31 8.27,-25.36 c 0.15,-0.45 0.3,-0.95 0.95,-0.95 0.7,0 0.8,0.35 1,1 z"
           style="fill:#ff0004;fill-opacity:1;stroke:#ff0013;stroke-width:0.37292665;stroke-miterlimit:10.43299961;stroke-dasharray:none;stroke-opacity:1" /><path
           id="path6982"
           d="m 519.59,409.79 0.02,-0.19 0.03,-0.19 0.03,-0.19 0.04,-0.18 0.05,-0.19 0.06,-0.18 0.06,-0.18 0.07,-0.18 0.07,-0.18 0.08,-0.18 0.09,-0.17 0.1,-0.16 0.1,-0.17 0.1,-0.15 0.12,-0.16 0.12,-0.14 0.12,-0.15 0.13,-0.13 0.14,-0.13 0.15,-0.12 0.15,-0.12 0.15,-0.1 0.17,-0.1 0.17,-0.09 0.17,-0.08 0.18,-0.07 0.19,-0.07 0.19,-0.05 0.2,-0.04 0.21,-0.03 0.21,-0.01 0.21,-0.01 c 1.05,0 4.09,0.7 4.09,4.73 l 0,2.79 -1.25,0 0,-2.79 c 0,-2.89 -1.24,-3.18 -1.79,-3.18 -1.64,0 -1.84,2.24 -1.84,2.48 l 0,9.97 c 0,2.09 0,4.03 -1.8,5.88 -1.94,1.94 -4.43,2.74 -6.82,2.74 -4.09,0 -7.52,-2.34 -7.52,-5.63 0,-1.5 0.99,-2.34 2.29,-2.34 1.39,0 2.29,0.99 2.29,2.29 0,0.59 -0.25,2.24 -2.54,2.29 1.35,1.74 3.78,2.29 5.38,2.29 2.44,0 5.28,-1.94 5.28,-6.38 l 0,-1.84 0,-1.04 0,-4.99 c 0,-4.73 -3.59,-6.42 -5.83,-6.42 -2.44,0 -4.48,1.74 -4.48,4.23 0,2.74 2.09,6.88 10.31,7.18 l 0,0 0,1.04 c -2.54,-0.15 -6.03,-0.3 -9.17,-1.79 -3.73,-1.69 -4.98,-4.28 -4.98,-6.48 0,-4.03 4.84,-5.28 7.97,-5.28 3.29,0 5.58,2 6.53,4.34 z"
           style="fill:#ff0004;fill-opacity:1;stroke:#ff0013;stroke-width:0.37292665;stroke-miterlimit:10.43299961;stroke-dasharray:none;stroke-opacity:1" /><path
           id="path6984"
           d="m 536.62,425.93 7.12,0 0,1.54 -7.12,0 0,9.17 -1.25,0 c -0.05,-4.09 -1.54,-9.42 -6.42,-9.62 l 0,-1.09 4.23,0 0,-13.75 c 0,-6.13 4.63,-6.73 6.42,-6.73 3.55,0 4.94,3.54 4.94,6.73 l 0,2.84 -1.25,0 0,-2.74 c 0,-3.69 -1.49,-5.58 -3.33,-5.58 -3.34,0 -3.34,4.53 -3.34,5.38 z"
           style="fill:#ff0004;fill-opacity:1;stroke:#ff0013;stroke-width:0.37292665;stroke-miterlimit:10.43299961;stroke-dasharray:none;stroke-opacity:1" /><path
           id="path6986"
           d="m 555.62,425.93 7.12,0 0,1.54 -7.12,0 0,9.17 -1.25,0 c -0.05,-4.09 -1.54,-9.42 -6.42,-9.62 l 0,-1.09 4.23,0 0,-13.75 c 0,-6.13 4.63,-6.73 6.42,-6.73 3.55,0 4.94,3.54 4.94,6.73 l 0,2.84 -1.25,0 0,-2.74 c 0,-3.69 -1.49,-5.58 -3.33,-5.58 -3.34,0 -3.34,4.53 -3.34,5.38 z"
           style="fill:#ff0004;fill-opacity:1;stroke:#ff0013;stroke-width:0.37292665;stroke-miterlimit:10.43299961;stroke-dasharray:none;stroke-opacity:1" /></g>    </g>
  </g>
</svg>
