<?xml version="1.0" encoding="UTF-8" standalone="no"?>
<svg
   xmlns:dc="http://purl.org/dc/elements/1.1/"
   xmlns:cc="http://creativecommons.org/ns#"
   xmlns:rdf="http://www.w3.org/1999/02/22-rdf-syntax-ns#"
   xmlns:svg="http://www.w3.org/2000/svg"
   xmlns="http://www.w3.org/2000/svg"
   xmlns:sodipodi="http://sodipodi.sourceforge.net/DTD/sodipodi-0.dtd"
   xmlns:inkscape="http://www.inkscape.org/namespaces/inkscape"
   viewBox="0 0 1030.8145 601.08533"
   height="601.08533"
   width="1030.8145"
   xml:space="preserve"
   version="1.1"
   id="svg2"
   inkscape:version="0.91 r13725"
   sodipodi:docname="concrete_fom_ams.svg"><sodipodi:namedview
     pagecolor="#ffffff"
     bordercolor="#666666"
     borderopacity="1"
     objecttolerance="10"
     gridtolerance="10"
     guidetolerance="10"
     inkscape:pageopacity="0"
     inkscape:pageshadow="2"
     inkscape:window-width="1280"
     inkscape:window-height="1024"
     id="namedview215"
     showgrid="false"
     inkscape:zoom="0.55525295"
     inkscape:cx="448.90076"
     inkscape:cy="83.301404"
     inkscape:window-x="0"
     inkscape:window-y="0"
     inkscape:window-maximized="0"
     inkscape:current-layer="g386" /><metadata
     id="metadata8"><rdf:RDF><cc:Work
         rdf:about=""><dc:format>image/svg+xml</dc:format><dc:type
           rdf:resource="http://purl.org/dc/dcmitype/StillImage" /><dc:title /></cc:Work></rdf:RDF></metadata><defs
     id="defs6"><clipPath
       id="clipPath34"
       clipPathUnits="userSpaceOnUse"><path
         id="path36"
         d="m -1021,-463 2815,0 0,1696 -2815,0 0,-1696 z" /></clipPath><clipPath
       id="clipPath58"
       clipPathUnits="userSpaceOnUse"><path
         id="path60"
         d="m -1021,-463 2815,0 0,1696 -2815,0 0,-1696 z" /></clipPath><clipPath
       id="clipPath82"
       clipPathUnits="userSpaceOnUse"><path
         id="path84"
         d="m -1021,-463 2815,0 0,1696 -2815,0 0,-1696 z" /></clipPath><clipPath
       id="clipPath106"
       clipPathUnits="userSpaceOnUse"><path
         id="path108"
         d="m -1021,-463 2815,0 0,1696 -2815,0 0,-1696 z" /></clipPath><clipPath
       id="clipPath130"
       clipPathUnits="userSpaceOnUse"><path
         id="path132"
         d="m -1021,-463 2815,0 0,1696 -2815,0 0,-1696 z" /></clipPath><clipPath
       id="clipPath170"
       clipPathUnits="userSpaceOnUse"><path
         id="path172"
         d="m -1021,-463 2815,0 0,1696 -2815,0 0,-1696 z" /></clipPath><clipPath
       id="clipPath194"
       clipPathUnits="userSpaceOnUse"><path
         id="path196"
         d="m -1021,-463 2815,0 0,1696 -2815,0 0,-1696 z" /></clipPath><clipPath
       id="clipPath218"
       clipPathUnits="userSpaceOnUse"><path
         id="path220"
         d="m -1021,-463 2815,0 0,1696 -2815,0 0,-1696 z" /></clipPath><clipPath
       id="clipPath242"
       clipPathUnits="userSpaceOnUse"><path
         id="path244"
         d="m -1021,-463 2815,0 0,1696 -2815,0 0,-1696 z" /></clipPath><clipPath
       id="clipPath360"
       clipPathUnits="userSpaceOnUse"><path
         id="path362"
         d="m 86.4,209.088 535.68,0 0,399.168 -535.68,0 0,-399.168 z" /></clipPath><clipPath
       id="clipPath370"
       clipPathUnits="userSpaceOnUse"><path
         id="path372"
         d="m 86.4,209.088 535.68,0 0,399.168 -535.68,0 0,-399.168 z" /></clipPath><clipPath
       id="clipPath380"
       clipPathUnits="userSpaceOnUse"><path
         id="path382"
         d="m 86.4,209.088 535.68,0 0,399.168 -535.68,0 0,-399.168 z" /></clipPath><clipPath
       id="clipPath424"
       clipPathUnits="userSpaceOnUse"><path
         id="path426"
         d="m 86.4,209.088 535.68,0 0,399.168 -535.68,0 0,-399.168 z" /></clipPath><clipPath
       id="clipPath434"
       clipPathUnits="userSpaceOnUse"><path
         id="path436"
         d="m 86.4,209.088 535.68,0 0,399.168 -535.68,0 0,-399.168 z" /></clipPath><clipPath
       id="clipPath444"
       clipPathUnits="userSpaceOnUse"><path
         id="path446"
         d="m 86.4,209.088 535.68,0 0,399.168 -535.68,0 0,-399.168 z" /></clipPath></defs><g
     transform="matrix(1.25,0,0,-1.25,-12.187204,794.48492)"
     id="g10"><path
       id="path14"
       style="fill:#ffffff;fill-opacity:1;fill-rule:nonzero;stroke:none"
       d="m 86.4,209.088 535.68,0 0,399.168 -535.68,0 0,-399.168 z" /><path
       id="path16"
       style="fill:#000000;fill-opacity:1;fill-rule:nonzero;stroke:#000000;stroke-width:0.80000001;stroke-linecap:butt;stroke-linejoin:round;stroke-miterlimit:10;stroke-dasharray:none;stroke-opacity:1"
       d="m 86.4,209.088 0,-3.5" /><g
       transform="translate(69.4,190.99425)"
       id="g18"><text
         id="text20"
         style="font-variant:normal;font-weight:normal;font-size:14.39999962px;font-family:'DejaVu Sans';-inkscape-font-specification:DejaVuSans;writing-mode:lr-tb;fill:#000000;fill-opacity:1;fill-rule:nonzero;stroke:none"
         transform="matrix(1,0,0,-1,0,0.3671875)"><tspan
           id="tspan22"
           y="0"
           x="0 9.145813">10</tspan></text>
<text
         id="text24"
         style="font-variant:normal;font-weight:normal;font-size:10.07999992px;font-family:'DejaVu Sans';-inkscape-font-specification:DejaVuSans;writing-mode:lr-tb;fill:#000000;fill-opacity:1;fill-rule:nonzero;stroke:none"
         transform="matrix(1,0,0,-1,26.856885,5.7265625)"><tspan
           id="tspan26"
           y="0"
           x="0">9</tspan></text>
<g
         transform="matrix(0.01008,0,0,0.01008,18.42561,5.7265625)"
         id="g28"><g
           id="g30"><g
             clip-path="url(#clipPath34)"
             id="g32"><path
               id="path38"
               style="fill:#000000;fill-opacity:1;fill-rule:nonzero;stroke:none"
               d="m 106,355 626,0 0,-83 -626,0 0,83" /></g></g></g></g><path
       id="path40"
       style="fill:#000000;fill-opacity:1;fill-rule:nonzero;stroke:#000000;stroke-width:0.80000001;stroke-linecap:butt;stroke-linejoin:round;stroke-miterlimit:10;stroke-dasharray:none;stroke-opacity:1"
       d="m 188.6571,209.088 0,-3.5" /><g
       transform="translate(171.6571,190.99425)"
       id="g42"><text
         id="text44"
         style="font-variant:normal;font-weight:normal;font-size:14.39999962px;font-family:'DejaVu Sans';-inkscape-font-specification:DejaVuSans;writing-mode:lr-tb;fill:#000000;fill-opacity:1;fill-rule:nonzero;stroke:none"
         transform="matrix(1,0,0,-1,0,0.4984375)"><tspan
           id="tspan46"
           y="0"
           x="0 9.145813">10</tspan></text>
<text
         id="text48"
         style="font-variant:normal;font-weight:normal;font-size:10.07999992px;font-family:'DejaVu Sans';-inkscape-font-specification:DejaVuSans;writing-mode:lr-tb;fill:#000000;fill-opacity:1;fill-rule:nonzero;stroke:none"
         transform="matrix(1,0,0,-1,26.856885,5.8578125)"><tspan
           id="tspan50"
           y="0"
           x="0">7</tspan></text>
<g
         transform="matrix(0.01008,0,0,0.01008,18.42561,5.8578125)"
         id="g52"><g
           id="g54"><g
             clip-path="url(#clipPath58)"
             id="g56"><path
               id="path62"
               style="fill:#000000;fill-opacity:1;fill-rule:nonzero;stroke:none"
               d="m 106,355 626,0 0,-83 -626,0 0,83" /></g></g></g></g><path
       id="path64"
       style="fill:#000000;fill-opacity:1;fill-rule:nonzero;stroke:#000000;stroke-width:0.80000001;stroke-linecap:butt;stroke-linejoin:round;stroke-miterlimit:10;stroke-dasharray:none;stroke-opacity:1"
       d="m 290.91419,209.088 0,-3.5" /><g
       transform="translate(273.91419,190.99425)"
       id="g66"><text
         id="text68"
         style="font-variant:normal;font-weight:normal;font-size:14.39999962px;font-family:'DejaVu Sans';-inkscape-font-specification:DejaVuSans;writing-mode:lr-tb;fill:#000000;fill-opacity:1;fill-rule:nonzero;stroke:none"
         transform="matrix(1,0,0,-1,0,0.4984375)"><tspan
           id="tspan70"
           y="0"
           x="0 9.145813">10</tspan></text>
<text
         id="text72"
         style="font-variant:normal;font-weight:normal;font-size:10.07999992px;font-family:'DejaVu Sans';-inkscape-font-specification:DejaVuSans;writing-mode:lr-tb;fill:#000000;fill-opacity:1;fill-rule:nonzero;stroke:none"
         transform="matrix(1,0,0,-1,26.856885,5.8578125)"><tspan
           id="tspan74"
           y="0"
           x="0">5</tspan></text>
<g
         transform="matrix(0.01008,0,0,0.01008,18.42561,5.8578125)"
         id="g76"><g
           id="g78"><g
             clip-path="url(#clipPath82)"
             id="g80"><path
               id="path86"
               style="fill:#000000;fill-opacity:1;fill-rule:nonzero;stroke:none"
               d="m 106,355 626,0 0,-83 -626,0 0,83" /></g></g></g></g><path
       id="path88"
       style="fill:#000000;fill-opacity:1;fill-rule:nonzero;stroke:#000000;stroke-width:0.80000001;stroke-linecap:butt;stroke-linejoin:round;stroke-miterlimit:10;stroke-dasharray:none;stroke-opacity:1"
       d="m 393.17129,209.088 0,-3.5" /><g
       transform="translate(376.17129,190.99425)"
       id="g90"><text
         id="text92"
         style="font-variant:normal;font-weight:normal;font-size:14.39999962px;font-family:'DejaVu Sans';-inkscape-font-specification:DejaVuSans;writing-mode:lr-tb;fill:#000000;fill-opacity:1;fill-rule:nonzero;stroke:none"
         transform="matrix(1,0,0,-1,0,0.3671875)"><tspan
           id="tspan94"
           y="0"
           x="0 9.145813">10</tspan></text>
<text
         id="text96"
         style="font-variant:normal;font-weight:normal;font-size:10.07999992px;font-family:'DejaVu Sans';-inkscape-font-specification:DejaVuSans;writing-mode:lr-tb;fill:#000000;fill-opacity:1;fill-rule:nonzero;stroke:none"
         transform="matrix(1,0,0,-1,26.856885,5.7265625)"><tspan
           id="tspan98"
           y="0"
           x="0">3</tspan></text>
<g
         transform="matrix(0.01008,0,0,0.01008,18.42561,5.7265625)"
         id="g100"><g
           id="g102"><g
             clip-path="url(#clipPath106)"
             id="g104"><path
               id="path110"
               style="fill:#000000;fill-opacity:1;fill-rule:nonzero;stroke:none"
               d="m 106,355 626,0 0,-83 -626,0 0,83" /></g></g></g></g><path
       id="path112"
       style="fill:#000000;fill-opacity:1;fill-rule:nonzero;stroke:#000000;stroke-width:0.80000001;stroke-linecap:butt;stroke-linejoin:round;stroke-miterlimit:10;stroke-dasharray:none;stroke-opacity:1"
       d="m 495.42839,209.088 0,-3.5" /><g
       transform="translate(478.42839,190.99425)"
       id="g114"><text
         id="text116"
         style="font-variant:normal;font-weight:normal;font-size:14.39999962px;font-family:'DejaVu Sans';-inkscape-font-specification:DejaVuSans;writing-mode:lr-tb;fill:#000000;fill-opacity:1;fill-rule:nonzero;stroke:none"
         transform="matrix(1,0,0,-1,0,0.4984375)"><tspan
           id="tspan118"
           y="0"
           x="0 9.145813">10</tspan></text>
<text
         id="text120"
         style="font-variant:normal;font-weight:normal;font-size:10.07999992px;font-family:'DejaVu Sans';-inkscape-font-specification:DejaVuSans;writing-mode:lr-tb;fill:#000000;fill-opacity:1;fill-rule:nonzero;stroke:none"
         transform="matrix(1,0,0,-1,26.856885,5.8578125)"><tspan
           id="tspan122"
           y="0"
           x="0">1</tspan></text>
<g
         transform="matrix(0.01008,0,0,0.01008,18.42561,5.8578125)"
         id="g124"><g
           id="g126"><g
             clip-path="url(#clipPath130)"
             id="g128"><path
               id="path134"
               style="fill:#000000;fill-opacity:1;fill-rule:nonzero;stroke:none"
               d="m 106,355 626,0 0,-83 -626,0 0,83" /></g></g></g></g><path
       id="path136"
       style="fill:#000000;fill-opacity:1;fill-rule:nonzero;stroke:#000000;stroke-width:0.80000001;stroke-linecap:butt;stroke-linejoin:round;stroke-miterlimit:10;stroke-dasharray:none;stroke-opacity:1"
       d="m 597.68548,209.088 0,-3.5" /><g
       transform="translate(584.68548,190.99425)"
       id="g138"><text
         id="text140"
         style="font-variant:normal;font-weight:normal;font-size:14.39999962px;font-family:'DejaVu Sans';-inkscape-font-specification:DejaVuSans;writing-mode:lr-tb;fill:#000000;fill-opacity:1;fill-rule:nonzero;stroke:none"
         transform="matrix(1,0,0,-1,0,0.4984375)"><tspan
           id="tspan142"
           y="0"
           x="0 9.145813">10</tspan></text>
<text
         id="text144"
         style="font-variant:normal;font-weight:normal;font-size:10.07999992px;font-family:'DejaVu Sans';-inkscape-font-specification:DejaVuSans;writing-mode:lr-tb;fill:#000000;fill-opacity:1;fill-rule:nonzero;stroke:none"
         transform="matrix(1,0,0,-1,18.42561,5.8578125)"><tspan
           id="tspan146"
           y="0"
           x="0">1</tspan></text>
</g><text
       id="text148"
       style="font-variant:normal;font-weight:normal;font-size:14.39999962px;font-family:'DejaVu Sans';-inkscape-font-specification:DejaVuSans;writing-mode:lr-tb;fill:#000000;fill-opacity:1;fill-rule:nonzero;stroke:none"
       transform="matrix(1,0,0,-1,305.51344,173.44737)"><tspan
         id="tspan150"
         y="0"
         x="0 9.1007996 18.2304 27.086399 33.004799 42.1488 50.673599 55.2528 60.868801 73.295998 82.152 92.001602">Energy (MeV)</tspan></text>
<path
       id="path152"
       style="fill:#000000;fill-opacity:1;fill-rule:nonzero;stroke:#000000;stroke-width:0.80000001;stroke-linecap:butt;stroke-linejoin:round;stroke-miterlimit:10;stroke-dasharray:none;stroke-opacity:1"
       d="m 86.4,209.088 -3.5,0" /><g
       transform="translate(45.4,203.54112)"
       id="g154"><text
         id="text156"
         style="font-variant:normal;font-weight:normal;font-size:14.39999962px;font-family:'DejaVu Sans';-inkscape-font-specification:DejaVuSans;writing-mode:lr-tb;fill:#000000;fill-opacity:1;fill-rule:nonzero;stroke:none"
         transform="matrix(1,0,0,-1,0,0.4984375)"><tspan
           id="tspan158"
           y="0"
           x="0 9.145813">10</tspan></text>
<text
         id="text160"
         style="font-variant:normal;font-weight:normal;font-size:10.07999992px;font-family:'DejaVu Sans';-inkscape-font-specification:DejaVuSans;writing-mode:lr-tb;fill:#000000;fill-opacity:1;fill-rule:nonzero;stroke:none"
         transform="matrix(1,0,0,-1,26.856885,5.8578125)"><tspan
           id="tspan162"
           y="0"
           x="0">4</tspan></text>
<g
         transform="matrix(0.01008,0,0,0.01008,18.42561,5.8578125)"
         id="g164"><g
           id="g166"><g
             clip-path="url(#clipPath170)"
             id="g168"><path
               id="path174"
               style="fill:#000000;fill-opacity:1;fill-rule:nonzero;stroke:none"
               d="m 106,355 626,0 0,-83 -626,0 0,83" /></g></g></g></g><path
       id="path176"
       style="fill:#000000;fill-opacity:1;fill-rule:nonzero;stroke:#000000;stroke-width:0.80000001;stroke-linecap:butt;stroke-linejoin:round;stroke-miterlimit:10;stroke-dasharray:none;stroke-opacity:1"
       d="m 86.4,288.9216 -3.5,0" /><g
       transform="translate(45.4,283.37472)"
       id="g178"><text
         id="text180"
         style="font-variant:normal;font-weight:normal;font-size:14.39999962px;font-family:'DejaVu Sans';-inkscape-font-specification:DejaVuSans;writing-mode:lr-tb;fill:#000000;fill-opacity:1;fill-rule:nonzero;stroke:none"
         transform="matrix(1,0,0,-1,0,0.3671875)"><tspan
           id="tspan182"
           y="0"
           x="0 9.145813">10</tspan></text>
<text
         id="text184"
         style="font-variant:normal;font-weight:normal;font-size:10.07999992px;font-family:'DejaVu Sans';-inkscape-font-specification:DejaVuSans;writing-mode:lr-tb;fill:#000000;fill-opacity:1;fill-rule:nonzero;stroke:none"
         transform="matrix(1,0,0,-1,26.856885,5.7265625)"><tspan
           id="tspan186"
           y="0"
           x="0">3</tspan></text>
<g
         transform="matrix(0.01008,0,0,0.01008,18.42561,5.7265625)"
         id="g188"><g
           id="g190"><g
             clip-path="url(#clipPath194)"
             id="g192"><path
               id="path198"
               style="fill:#000000;fill-opacity:1;fill-rule:nonzero;stroke:none"
               d="m 106,355 626,0 0,-83 -626,0 0,83" /></g></g></g></g><path
       id="path200"
       style="fill:#000000;fill-opacity:1;fill-rule:nonzero;stroke:#000000;stroke-width:0.80000001;stroke-linecap:butt;stroke-linejoin:round;stroke-miterlimit:10;stroke-dasharray:none;stroke-opacity:1"
       d="m 86.4,368.7552 -3.5,0" /><g
       transform="translate(45.4,363.20832)"
       id="g202"><text
         id="text204"
         style="font-variant:normal;font-weight:normal;font-size:14.39999962px;font-family:'DejaVu Sans';-inkscape-font-specification:DejaVuSans;writing-mode:lr-tb;fill:#000000;fill-opacity:1;fill-rule:nonzero;stroke:none"
         transform="matrix(1,0,0,-1,0,0.3671875)"><tspan
           id="tspan206"
           y="0"
           x="0 9.145813">10</tspan></text>
<text
         id="text208"
         style="font-variant:normal;font-weight:normal;font-size:10.07999992px;font-family:'DejaVu Sans';-inkscape-font-specification:DejaVuSans;writing-mode:lr-tb;fill:#000000;fill-opacity:1;fill-rule:nonzero;stroke:none"
         transform="matrix(1,0,0,-1,26.856885,5.7265625)"><tspan
           id="tspan210"
           y="0"
           x="0">2</tspan></text>
<g
         transform="matrix(0.01008,0,0,0.01008,18.42561,5.7265625)"
         id="g212"><g
           id="g214"><g
             clip-path="url(#clipPath218)"
             id="g216"><path
               id="path222"
               style="fill:#000000;fill-opacity:1;fill-rule:nonzero;stroke:none"
               d="m 106,355 626,0 0,-83 -626,0 0,83" /></g></g></g></g><path
       id="path224"
       style="fill:#000000;fill-opacity:1;fill-rule:nonzero;stroke:#000000;stroke-width:0.80000001;stroke-linecap:butt;stroke-linejoin:round;stroke-miterlimit:10;stroke-dasharray:none;stroke-opacity:1"
       d="m 86.4,448.5888 -3.5,0" /><g
       transform="translate(45.4,443.04192)"
       id="g226"><text
         id="text228"
         style="font-variant:normal;font-weight:normal;font-size:14.39999962px;font-family:'DejaVu Sans';-inkscape-font-specification:DejaVuSans;writing-mode:lr-tb;fill:#000000;fill-opacity:1;fill-rule:nonzero;stroke:none"
         transform="matrix(1,0,0,-1,0,0.4984375)"><tspan
           id="tspan230"
           y="0"
           x="0 9.145813">10</tspan></text>
<text
         id="text232"
         style="font-variant:normal;font-weight:normal;font-size:10.07999992px;font-family:'DejaVu Sans';-inkscape-font-specification:DejaVuSans;writing-mode:lr-tb;fill:#000000;fill-opacity:1;fill-rule:nonzero;stroke:none"
         transform="matrix(1,0,0,-1,26.856885,5.8578125)"><tspan
           id="tspan234"
           y="0"
           x="0">1</tspan></text>
<g
         transform="matrix(0.01008,0,0,0.01008,18.42561,5.8578125)"
         id="g236"><g
           id="g238"><g
             clip-path="url(#clipPath242)"
             id="g240"><path
               id="path246"
               style="fill:#000000;fill-opacity:1;fill-rule:nonzero;stroke:none"
               d="m 106,355 626,0 0,-83 -626,0 0,83" /></g></g></g></g><path
       id="path248"
       style="fill:#000000;fill-opacity:1;fill-rule:nonzero;stroke:#000000;stroke-width:0.80000001;stroke-linecap:butt;stroke-linejoin:round;stroke-miterlimit:10;stroke-dasharray:none;stroke-opacity:1"
       d="m 86.4,528.4224 -3.5,0" /><g
       transform="translate(53.4,522.87552)"
       id="g250"><text
         id="text252"
         style="font-variant:normal;font-weight:normal;font-size:14.39999962px;font-family:'DejaVu Sans';-inkscape-font-specification:DejaVuSans;writing-mode:lr-tb;fill:#000000;fill-opacity:1;fill-rule:nonzero;stroke:none"
         transform="matrix(1,0,0,-1,0,0.3671875)"><tspan
           id="tspan254"
           y="0"
           x="0 9.145813">10</tspan></text>
<text
         id="text256"
         style="font-variant:normal;font-weight:normal;font-size:10.07999992px;font-family:'DejaVu Sans';-inkscape-font-specification:DejaVuSans;writing-mode:lr-tb;fill:#000000;fill-opacity:1;fill-rule:nonzero;stroke:none"
         transform="matrix(1,0,0,-1,18.42561,5.7265625)"><tspan
           id="tspan258"
           y="0"
           x="0">0</tspan></text>
</g><path
       id="path260"
       style="fill:#000000;fill-opacity:1;fill-rule:nonzero;stroke:#000000;stroke-width:0.80000001;stroke-linecap:butt;stroke-linejoin:round;stroke-miterlimit:10;stroke-dasharray:none;stroke-opacity:1"
       d="m 86.4,608.256 -3.5,0" /><g
       transform="translate(53.4,602.70912)"
       id="g262"><text
         id="text264"
         style="font-variant:normal;font-weight:normal;font-size:14.39999962px;font-family:'DejaVu Sans';-inkscape-font-specification:DejaVuSans;writing-mode:lr-tb;fill:#000000;fill-opacity:1;fill-rule:nonzero;stroke:none"
         transform="matrix(1,0,0,-1,0,0.4984375)"><tspan
           id="tspan266"
           y="0"
           x="0 9.145813">10</tspan></text>
<text
         id="text268"
         style="font-variant:normal;font-weight:normal;font-size:10.07999992px;font-family:'DejaVu Sans';-inkscape-font-specification:DejaVuSans;writing-mode:lr-tb;fill:#000000;fill-opacity:1;fill-rule:nonzero;stroke:none"
         transform="matrix(1,0,0,-1,18.42561,5.8578125)"><tspan
           id="tspan270"
           y="0"
           x="0">1</tspan></text>
</g><path
       id="path272"
       style="fill:#000000;fill-opacity:1;fill-rule:nonzero;stroke:#000000;stroke-width:0.60000002;stroke-linecap:butt;stroke-linejoin:round;stroke-miterlimit:10;stroke-dasharray:none;stroke-opacity:1"
       d="m 86.4,233.12031 -2,0" /><path
       id="path274"
       style="fill:#000000;fill-opacity:1;fill-rule:nonzero;stroke:#000000;stroke-width:0.60000002;stroke-linecap:butt;stroke-linejoin:round;stroke-miterlimit:10;stroke-dasharray:none;stroke-opacity:1"
       d="m 86.4,247.17831 -2,0" /><path
       id="path276"
       style="fill:#000000;fill-opacity:1;fill-rule:nonzero;stroke:#000000;stroke-width:0.60000002;stroke-linecap:butt;stroke-linejoin:round;stroke-miterlimit:10;stroke-dasharray:none;stroke-opacity:1"
       d="m 86.4,257.15262 -2,0" /><path
       id="path278"
       style="fill:#000000;fill-opacity:1;fill-rule:nonzero;stroke:#000000;stroke-width:0.60000002;stroke-linecap:butt;stroke-linejoin:round;stroke-miterlimit:10;stroke-dasharray:none;stroke-opacity:1"
       d="m 86.4,264.88929 -2,0" /><path
       id="path280"
       style="fill:#000000;fill-opacity:1;fill-rule:nonzero;stroke:#000000;stroke-width:0.60000002;stroke-linecap:butt;stroke-linejoin:round;stroke-miterlimit:10;stroke-dasharray:none;stroke-opacity:1"
       d="m 86.4,271.21062 -2,0" /><path
       id="path282"
       style="fill:#000000;fill-opacity:1;fill-rule:nonzero;stroke:#000000;stroke-width:0.60000002;stroke-linecap:butt;stroke-linejoin:round;stroke-miterlimit:10;stroke-dasharray:none;stroke-opacity:1"
       d="m 86.4,276.55522 -2,0" /><path
       id="path284"
       style="fill:#000000;fill-opacity:1;fill-rule:nonzero;stroke:#000000;stroke-width:0.60000002;stroke-linecap:butt;stroke-linejoin:round;stroke-miterlimit:10;stroke-dasharray:none;stroke-opacity:1"
       d="m 86.4,281.18493 -2,0" /><path
       id="path286"
       style="fill:#000000;fill-opacity:1;fill-rule:nonzero;stroke:#000000;stroke-width:0.60000002;stroke-linecap:butt;stroke-linejoin:round;stroke-miterlimit:10;stroke-dasharray:none;stroke-opacity:1"
       d="m 86.4,285.26861 -2,0" /><path
       id="path288"
       style="fill:#000000;fill-opacity:1;fill-rule:nonzero;stroke:#000000;stroke-width:0.60000002;stroke-linecap:butt;stroke-linejoin:round;stroke-miterlimit:10;stroke-dasharray:none;stroke-opacity:1"
       d="m 86.4,312.95391 -2,0" /><path
       id="path290"
       style="fill:#000000;fill-opacity:1;fill-rule:nonzero;stroke:#000000;stroke-width:0.60000002;stroke-linecap:butt;stroke-linejoin:round;stroke-miterlimit:10;stroke-dasharray:none;stroke-opacity:1"
       d="m 86.4,327.01191 -2,0" /><path
       id="path292"
       style="fill:#000000;fill-opacity:1;fill-rule:nonzero;stroke:#000000;stroke-width:0.60000002;stroke-linecap:butt;stroke-linejoin:round;stroke-miterlimit:10;stroke-dasharray:none;stroke-opacity:1"
       d="m 86.4,336.98622 -2,0" /><path
       id="path294"
       style="fill:#000000;fill-opacity:1;fill-rule:nonzero;stroke:#000000;stroke-width:0.60000002;stroke-linecap:butt;stroke-linejoin:round;stroke-miterlimit:10;stroke-dasharray:none;stroke-opacity:1"
       d="m 86.4,344.72289 -2,0" /><path
       id="path296"
       style="fill:#000000;fill-opacity:1;fill-rule:nonzero;stroke:#000000;stroke-width:0.60000002;stroke-linecap:butt;stroke-linejoin:round;stroke-miterlimit:10;stroke-dasharray:none;stroke-opacity:1"
       d="m 86.4,351.04422 -2,0" /><path
       id="path298"
       style="fill:#000000;fill-opacity:1;fill-rule:nonzero;stroke:#000000;stroke-width:0.60000002;stroke-linecap:butt;stroke-linejoin:round;stroke-miterlimit:10;stroke-dasharray:none;stroke-opacity:1"
       d="m 86.4,356.38882 -2,0" /><path
       id="path300"
       style="fill:#000000;fill-opacity:1;fill-rule:nonzero;stroke:#000000;stroke-width:0.60000002;stroke-linecap:butt;stroke-linejoin:round;stroke-miterlimit:10;stroke-dasharray:none;stroke-opacity:1"
       d="m 86.4,361.01852 -2,0" /><path
       id="path302"
       style="fill:#000000;fill-opacity:1;fill-rule:nonzero;stroke:#000000;stroke-width:0.60000002;stroke-linecap:butt;stroke-linejoin:round;stroke-miterlimit:10;stroke-dasharray:none;stroke-opacity:1"
       d="m 86.4,365.10221 -2,0" /><path
       id="path304"
       style="fill:#000000;fill-opacity:1;fill-rule:nonzero;stroke:#000000;stroke-width:0.60000002;stroke-linecap:butt;stroke-linejoin:round;stroke-miterlimit:10;stroke-dasharray:none;stroke-opacity:1"
       d="m 86.4,392.78751 -2,0" /><path
       id="path306"
       style="fill:#000000;fill-opacity:1;fill-rule:nonzero;stroke:#000000;stroke-width:0.60000002;stroke-linecap:butt;stroke-linejoin:round;stroke-miterlimit:10;stroke-dasharray:none;stroke-opacity:1"
       d="m 86.4,406.84551 -2,0" /><path
       id="path308"
       style="fill:#000000;fill-opacity:1;fill-rule:nonzero;stroke:#000000;stroke-width:0.60000002;stroke-linecap:butt;stroke-linejoin:round;stroke-miterlimit:10;stroke-dasharray:none;stroke-opacity:1"
       d="m 86.4,416.81982 -2,0" /><path
       id="path310"
       style="fill:#000000;fill-opacity:1;fill-rule:nonzero;stroke:#000000;stroke-width:0.60000002;stroke-linecap:butt;stroke-linejoin:round;stroke-miterlimit:10;stroke-dasharray:none;stroke-opacity:1"
       d="m 86.4,424.55649 -2,0" /><path
       id="path312"
       style="fill:#000000;fill-opacity:1;fill-rule:nonzero;stroke:#000000;stroke-width:0.60000002;stroke-linecap:butt;stroke-linejoin:round;stroke-miterlimit:10;stroke-dasharray:none;stroke-opacity:1"
       d="m 86.4,430.87782 -2,0" /><path
       id="path314"
       style="fill:#000000;fill-opacity:1;fill-rule:nonzero;stroke:#000000;stroke-width:0.60000002;stroke-linecap:butt;stroke-linejoin:round;stroke-miterlimit:10;stroke-dasharray:none;stroke-opacity:1"
       d="m 86.4,436.22242 -2,0" /><path
       id="path316"
       style="fill:#000000;fill-opacity:1;fill-rule:nonzero;stroke:#000000;stroke-width:0.60000002;stroke-linecap:butt;stroke-linejoin:round;stroke-miterlimit:10;stroke-dasharray:none;stroke-opacity:1"
       d="m 86.4,440.85212 -2,0" /><path
       id="path318"
       style="fill:#000000;fill-opacity:1;fill-rule:nonzero;stroke:#000000;stroke-width:0.60000002;stroke-linecap:butt;stroke-linejoin:round;stroke-miterlimit:10;stroke-dasharray:none;stroke-opacity:1"
       d="m 86.4,444.93581 -2,0" /><path
       id="path320"
       style="fill:#000000;fill-opacity:1;fill-rule:nonzero;stroke:#000000;stroke-width:0.60000002;stroke-linecap:butt;stroke-linejoin:round;stroke-miterlimit:10;stroke-dasharray:none;stroke-opacity:1"
       d="m 86.4,472.62111 -2,0" /><path
       id="path322"
       style="fill:#000000;fill-opacity:1;fill-rule:nonzero;stroke:#000000;stroke-width:0.60000002;stroke-linecap:butt;stroke-linejoin:round;stroke-miterlimit:10;stroke-dasharray:none;stroke-opacity:1"
       d="m 86.4,486.67911 -2,0" /><path
       id="path324"
       style="fill:#000000;fill-opacity:1;fill-rule:nonzero;stroke:#000000;stroke-width:0.60000002;stroke-linecap:butt;stroke-linejoin:round;stroke-miterlimit:10;stroke-dasharray:none;stroke-opacity:1"
       d="m 86.4,496.65342 -2,0" /><path
       id="path326"
       style="fill:#000000;fill-opacity:1;fill-rule:nonzero;stroke:#000000;stroke-width:0.60000002;stroke-linecap:butt;stroke-linejoin:round;stroke-miterlimit:10;stroke-dasharray:none;stroke-opacity:1"
       d="m 86.4,504.39009 -2,0" /><path
       id="path328"
       style="fill:#000000;fill-opacity:1;fill-rule:nonzero;stroke:#000000;stroke-width:0.60000002;stroke-linecap:butt;stroke-linejoin:round;stroke-miterlimit:10;stroke-dasharray:none;stroke-opacity:1"
       d="m 86.4,510.71142 -2,0" /><path
       id="path330"
       style="fill:#000000;fill-opacity:1;fill-rule:nonzero;stroke:#000000;stroke-width:0.60000002;stroke-linecap:butt;stroke-linejoin:round;stroke-miterlimit:10;stroke-dasharray:none;stroke-opacity:1"
       d="m 86.4,516.05602 -2,0" /><path
       id="path332"
       style="fill:#000000;fill-opacity:1;fill-rule:nonzero;stroke:#000000;stroke-width:0.60000002;stroke-linecap:butt;stroke-linejoin:round;stroke-miterlimit:10;stroke-dasharray:none;stroke-opacity:1"
       d="m 86.4,520.68573 -2,0" /><path
       id="path334"
       style="fill:#000000;fill-opacity:1;fill-rule:nonzero;stroke:#000000;stroke-width:0.60000002;stroke-linecap:butt;stroke-linejoin:round;stroke-miterlimit:10;stroke-dasharray:none;stroke-opacity:1"
       d="m 86.4,524.76941 -2,0" /><path
       id="path336"
       style="fill:#000000;fill-opacity:1;fill-rule:nonzero;stroke:#000000;stroke-width:0.60000002;stroke-linecap:butt;stroke-linejoin:round;stroke-miterlimit:10;stroke-dasharray:none;stroke-opacity:1"
       d="m 86.4,552.45471 -2,0" /><path
       id="path338"
       style="fill:#000000;fill-opacity:1;fill-rule:nonzero;stroke:#000000;stroke-width:0.60000002;stroke-linecap:butt;stroke-linejoin:round;stroke-miterlimit:10;stroke-dasharray:none;stroke-opacity:1"
       d="m 86.4,566.51271 -2,0" /><path
       id="path340"
       style="fill:#000000;fill-opacity:1;fill-rule:nonzero;stroke:#000000;stroke-width:0.60000002;stroke-linecap:butt;stroke-linejoin:round;stroke-miterlimit:10;stroke-dasharray:none;stroke-opacity:1"
       d="m 86.4,576.48702 -2,0" /><path
       id="path342"
       style="fill:#000000;fill-opacity:1;fill-rule:nonzero;stroke:#000000;stroke-width:0.60000002;stroke-linecap:butt;stroke-linejoin:round;stroke-miterlimit:10;stroke-dasharray:none;stroke-opacity:1"
       d="m 86.4,584.22369 -2,0" /><path
       id="path344"
       style="fill:#000000;fill-opacity:1;fill-rule:nonzero;stroke:#000000;stroke-width:0.60000002;stroke-linecap:butt;stroke-linejoin:round;stroke-miterlimit:10;stroke-dasharray:none;stroke-opacity:1"
       d="m 86.4,590.54502 -2,0" /><path
       id="path346"
       style="fill:#000000;fill-opacity:1;fill-rule:nonzero;stroke:#000000;stroke-width:0.60000002;stroke-linecap:butt;stroke-linejoin:round;stroke-miterlimit:10;stroke-dasharray:none;stroke-opacity:1"
       d="m 86.4,595.88962 -2,0" /><path
       id="path348"
       style="fill:#000000;fill-opacity:1;fill-rule:nonzero;stroke:#000000;stroke-width:0.60000002;stroke-linecap:butt;stroke-linejoin:round;stroke-miterlimit:10;stroke-dasharray:none;stroke-opacity:1"
       d="m 86.4,600.51932 -2,0" /><path
       id="path350"
       style="fill:#000000;fill-opacity:1;fill-rule:nonzero;stroke:#000000;stroke-width:0.60000002;stroke-linecap:butt;stroke-linejoin:round;stroke-miterlimit:10;stroke-dasharray:none;stroke-opacity:1"
       d="m 86.4,604.60302 -2,0" /><text
       id="text352"
       style="font-variant:normal;font-weight:normal;font-size:14.39999962px;font-family:'DejaVu Sans';-inkscape-font-specification:DejaVuSans;writing-mode:lr-tb;fill:#000000;fill-opacity:1;fill-rule:nonzero;stroke:none"
       transform="matrix(0,1,1,0,38.49375,355.35169)"><tspan
         id="tspan354"
         y="0"
         x="0 8.2799997 12.2832 21.4272 30.556801 36.475201 45.3312 49.9104 58.723202 63.792 68.371201 82.396797 91.2528 97.171204 101.1744">Figure of merit</tspan></text>
<g
       id="g356"><g
         clip-path="url(#clipPath360)"
         id="g358"><path
           id="path364"
           style="fill:none;stroke:#00bfff;stroke-width:2;stroke-linecap:square;stroke-linejoin:round;stroke-miterlimit:10;stroke-dasharray:none;stroke-opacity:1"
           d="m 593.24368,237.0059 -4.4408,33.12117 -4.44078,-0.74758 -4.44193,-0.40395 -4.44433,-5.71332 -4.44312,-2.30611 -4.44276,3.06211 -4.44285,0.92188 -4.44364,3.54176 -4.43347,-1.90634 -4.43581,-1.41405 -4.44229,-0.21189 -8.88001,0.59246 -8.88312,1.62637 -8.88376,0.62389 -8.88575,-2.30375 -8.88838,0.18507 -8.87068,1.1518 -8.88219,-0.0561 -8.88485,-0.52573 -8.88349,-1.37599 -8.88265,1.64148 -8.88995,0.32603 -8.86903,-1.27118 -8.88167,0.10305 -8.8838,1.48983 -8.88445,0.22512 -8.88016,-2.56972 -8.88573,2.86545 -8.87614,-2.77118 -8.88393,0.57239 -8.87889,-0.0717 -8.89048,-0.82572 -8.8784,2.4093 -8.87534,0.71019 -6.66256,-1.12278 -4.4417,2.44286 -4.44255,0.0456 -4.44123,-1.99452 -4.43799,1.21775 -4.4405,-0.0922 -4.44303,-2.83546 -4.445,-1.17314 -4.44997,1.50111 -4.43427,2.00143 -4.4341,-1.67995 -4.4419,1.45458 -4.43849,0.44196 -4.44265,-0.62453 -4.44021,1.07185 -4.44451,0.58318 -4.44346,-2.23741 -3.54225,-0.69318 -2.27789,-3.0181 -1.17797,8.53624 -1.01255,-6.17162 -1.06095,0.0203 -1.0508,-0.76158 -1.10301,2.6756 -1.07672,-3.23252 -1.16102,2.84569 -1.05471,6.12785 -1.09109,-5.14495 -1.09635,-1.00348 -1.20718,3.0337 -1.21954,0.0514 -1.16997,-2.25992 -0.8157,-1.69961 -0.73917,4.06723 -1.05773,-6.237 -1.29849,2.83566 -1.73778,-0.98865 -1.8854,1.97743 -2.52804,5.03549 -2.67489,-0.81624 -3.2424,-1.71034 -2.38525,1.3964 -2.52341,-1.14184 -2.26612,-3.8202 -2.33383,0.86678 -2.50206,-0.35205 -2.38351,-1.19469 -2.89327,0.67765 -2.6613,-0.1609 -3.37414,3.85899 -3.68699,0.8437 -3.93767,-0.24447 -3.41461,0.62483 -4.22537,1.19224 -4.66227,0.36669 -5.9162,0.23618 -7.02562,0.0828 -7.99605,-0.18646 -8.99589,-0.0852 -6.40274,-0.17047 -8.98848,0.5342 -13.27892,-0.80854 -13.46252,1.65534" /></g></g><g
       id="g366"><g
         clip-path="url(#clipPath370)"
         id="g368"><path
           id="path374"
           style="fill:none;stroke:#1e90ff;stroke-width:2;stroke-linecap:square;stroke-linejoin:round;stroke-miterlimit:10;stroke-dasharray:none;stroke-opacity:1"
           d="m 593.24368,248.16598 -4.4408,25.37719 -4.44078,4.92918 -4.44193,-0.22363 -4.44433,-5.42913 -4.44312,-3.91485 -4.44276,2.51683 -4.44285,6.8129 -4.44364,2.65995 -4.43347,-4.89747 -4.43581,0.23492 -4.44229,-1.64566 -8.88001,-1.11375 -8.88312,-1.57793 -8.88376,1.91511 -8.88575,0.0864 -8.88838,-0.80288 -8.87068,1.24786 -8.88219,0.44536 -8.88485,1.58401 -8.88349,0.5176 -8.88265,-2.11173 -8.88995,-0.26845 -8.86903,0.42698 -8.88167,3.96897 -8.8838,-1.71632 -8.88445,0.6076 -8.88016,-1.56433 -8.88573,0.89245 -8.87614,-0.4079 -8.88393,0.9973 -8.87889,1.2794 -8.89048,-1.63761 -8.8784,-1.15583 -8.87534,1.05938 -6.66256,1.89044 -4.4417,-0.621 -4.44255,-1.11459 -4.44123,-2.37862 -4.43799,1.01245 -4.4405,1.81123 -4.44303,0.59878 -4.445,-2.2529 -4.44997,1.69163 -4.43427,-0.21983 -4.4341,1.02144 -4.4419,-2.36214 -4.43849,0.97879 -4.44265,0.13551 -4.44021,-2.24499 -4.44451,2.24199 -4.44346,-0.59404 -3.54225,-0.64074 -2.27789,2.78194 -1.17797,0.94535 -1.01255,0.0901 -1.06095,-3.68954 -1.0508,0.70742 -1.10301,2.42865 -1.07672,-3.68401 -1.16102,2.29654 -1.05471,2.22104 -1.09109,-7.6517 -1.09635,7.70908 -1.20718,2.42712 -1.21954,-5.94328 -1.16997,-2.4206 -0.8157,0.37388 -0.73917,-1.68794 -1.05773,4.87459 -1.29849,-1.26049 -1.73778,-3.65978 -1.8854,2.83335 -2.52804,-1.84689 -2.67489,0.72046 -3.2424,3.90777 -2.38525,-4.58887 -2.52341,1.32757 -2.26612,1.87242 -2.33383,-0.60959 -2.50206,1.52692 -2.38351,-2.35384 -2.89327,3.54048 -2.6613,0.87693 -3.37414,0.93356 -3.68699,1.32181 -3.93767,2.54004 -3.41461,-1.33173 -4.22537,1.73799 -4.66227,0.4093 -5.9162,0.12097 -7.02562,-0.0713 -7.99605,0.0627 -8.99589,0.15459 -6.40274,-0.40757 -8.98848,-0.0765 -13.27892,-0.10741 -13.46252,0.77242" /></g></g><g
       id="g376"><g
         clip-path="url(#clipPath380)"
         id="g378"><path
           id="path384"
           style="fill:none;stroke:#4169e1;stroke-width:2;stroke-linecap:square;stroke-linejoin:round;stroke-miterlimit:10;stroke-dasharray:none;stroke-opacity:1"
           d="m 593.24368,264.84092 -4.4408,26.54445 -4.44078,5.02628 -4.44193,-4.72809 -4.44433,-0.80797 -4.44312,0.10961 -4.44276,-0.005 -4.44285,1.71194 -4.44364,0.3495 -4.43347,-0.66942 -4.43581,0.60097 -4.44229,-2.52359 -8.88001,1.86375 -8.88312,0.14427 -8.88376,0.62033 -8.88575,0.002 -8.88838,-2.0628 -8.87068,2.2652 -8.88219,-0.24162 -8.88485,-0.46453 -8.88349,0.41067 -8.88265,-2.52551 -8.88995,2.89239 -8.86903,-1.3779 -8.88167,0.7013 -8.8838,-0.0164 -8.88445,-0.64016 -8.88016,0.241 -8.88573,1.35431 -8.87614,0.0756 -8.88393,-1.30491 -8.87889,-1.58158 -8.89048,-0.49707 -8.8784,2.57426 -8.87534,-1.17887 -6.66256,1.01141 -4.4417,-0.986 -4.44255,2.14724 -4.44123,-0.65265 -4.43799,0.17797 -4.4405,-1.81213 -4.44303,2.49919 -4.445,-1.72225 -4.44997,-0.20502 -4.43427,2.48809 -4.4341,-2.14832 -4.4419,-0.97378 -4.43849,0.39013 -4.44265,0.22835 -4.44021,-0.0235 -4.44451,0.68568 -4.44346,-0.75876 -3.54225,-0.21799 -2.27789,1.17645 -1.17797,0.42011 -1.01255,1.36017 -1.06095,-1.55966 -1.0508,0.34154 -1.10301,2.47364 -1.07672,-2.56427 -1.16102,1.93223 -1.05471,-4.66194 -1.09109,6.83547 -1.09635,-5.73581 -1.20718,0.69807 -1.21954,1.69974 -1.16997,-2.26094 -0.8157,3.25846 -0.73917,-1.35628 -1.05773,3.45699 -1.29849,-0.4455 -1.73778,-2.46265 -1.8854,-2.42547 -2.52804,2.89716 -2.67489,-1.39703 -3.2424,1.09686 -2.38525,-2.86574 -2.52341,3.80755 -2.26612,-1.86846 -2.33383,-1.45605 -2.50206,2.03815 -2.38351,3.64755 -2.89327,-3.45338 -2.6613,-0.85773 -3.37414,2.15383 -3.68699,1.87119 -3.93767,-0.61973 -3.41461,1.31611 -4.22537,-0.46543 -4.66227,0.13765 -5.9162,-0.10797 -7.02562,0.16991 -7.99605,0.0244 -8.99589,-0.0997 -6.40274,0.23973 -8.98848,-0.43592 -13.27892,0.25294 -13.46252,-0.2245" /></g></g><g
       transform="translate(-1.9566272e-8,5.1254237)"
       id="g386"><path
         id="path388"
         style="fill:none;stroke:#000000;stroke-width:0.80000001;stroke-linecap:square;stroke-linejoin:miter;stroke-miterlimit:10;stroke-dasharray:none;stroke-opacity:1"
         d="m 86.4,209.088 0,399.168" /><path
         id="path390"
         style="fill:none;stroke:#000000;stroke-width:0.80000001;stroke-linecap:square;stroke-linejoin:miter;stroke-miterlimit:10;stroke-dasharray:none;stroke-opacity:1"
         d="m 810.68873,209.15255 0,398.62268" /><path
         id="path392"
         style="fill:none;stroke:#000000;stroke-width:0.79999989;stroke-linecap:square;stroke-linejoin:miter;stroke-miterlimit:10;stroke-dasharray:none;stroke-opacity:1"
         d="m 86.540044,209.08799 723.729986,0" /><path
         id="path394"
         style="fill:none;stroke:#000000;stroke-width:0.80000001;stroke-linecap:square;stroke-linejoin:miter;stroke-miterlimit:10;stroke-dasharray:none;stroke-opacity:1"
         d="m 86.540204,608.25597 724.199176,0" /><text
         y="-236.36967"
         x="250.61858"
         id="text398"
         style="font-variant:normal;font-weight:bold;font-size:12px;font-family:'DejaVu Sans';-inkscape-font-specification:DejaVuSans-Bold;writing-mode:lr-tb;fill:#1e90ff;fill-opacity:1;fill-rule:nonzero;stroke:none"
         transform="scale(1,-1)"><tspan
           id="tspan400"
           y="-236.36967"
           x="250.61858 259.90659 268.4986 276.5986 285.19058 290.92657 295.0426 302.86658 311.00259 315.17859 327.11859 335.6626 339.77859 345.51459 349.63058 353.74658 361.8826 369.70657 377.84259 381.95859 386.13458 394.7746 403.36658 407.48257 411.59857 417.33459 423.07059 427.18658 435.73059">Adaptive Multilevel Splitting</tspan></text>
<text
         y="-244.81752"
         x="608.22461"
         id="text404"
         style="font-variant:normal;font-weight:normal;font-size:14.39999962px;font-family:'DejaVu Sans';-inkscape-font-specification:DejaVuSans;writing-mode:lr-tb;fill:#00bfff;fill-opacity:1;fill-rule:nonzero;stroke:none"
         transform="scale(1,-1)"><tspan
           y="-244.81752"
           x="608.22461"
           id="tspan406">INIPOND </tspan></text>
<text
         y="-52.40876"
         x="186.68246"
         id="text410"
         style="font-variant:normal;font-weight:normal;font-size:14.39999962px;font-family:'DejaVu Sans';-inkscape-font-specification:DejaVuSans;writing-mode:lr-tb;fill:#000000;fill-opacity:1;fill-rule:nonzero;stroke:none"
         transform="scale(1,-1)"><tspan
           y="-52.40876"
           x="186.68246"
           id="tspan412" /></text>
<text
         y="-244.83675"
         x="608.22913"
         id="text404-2"
         style="font-variant:normal;font-weight:normal;font-size:14.39999962px;font-family:'DejaVu Sans';-inkscape-font-specification:DejaVuSans;writing-mode:lr-tb;fill:#00bfff;fill-opacity:1;fill-rule:nonzero;stroke:none"
         transform="scale(1,-1)"><tspan
           y="-244.83675"
           x="608.22913"
           id="tspan406-9">INIPOND MANUEL</tspan></text>
<text
         y="-280.48013"
         x="608.36957"
         id="text416-1"
         style="font-variant:normal;font-weight:normal;font-size:14.39999962px;font-family:'DejaVu Sans';-inkscape-font-specification:DejaVuSans;writing-mode:lr-tb;fill:#4169e1;fill-opacity:1;fill-rule:nonzero;stroke:none"
         transform="scale(1,-1)"><tspan
           y="-280.48013"
           x="608.36957"
           id="tspan418-27">IDT avec XS d'APOLLO3</tspan></text>
<text
         y="-262.53387"
         x="608.44672"
         id="text416-3-0"
         style="font-variant:normal;font-weight:normal;font-size:14.39999962px;font-family:'DejaVu Sans';-inkscape-font-specification:DejaVuSans;writing-mode:lr-tb;fill:#1e90ff;fill-opacity:1;fill-rule:nonzero;stroke:none"
         transform="scale(1,-1)"><tspan
           y="-262.53387"
           x="608.44672"
           id="tspan418-6-9">IDT avec XS de TRIPOLI-4</tspan></text>
</g><g
       id="g450" /></g></svg>