<?xml version="1.0" encoding="UTF-8" standalone="no"?>
<svg
   xmlns:osb="http://www.openswatchbook.org/uri/2009/osb"
   xmlns:dc="http://purl.org/dc/elements/1.1/"
   xmlns:cc="http://creativecommons.org/ns#"
   xmlns:rdf="http://www.w3.org/1999/02/22-rdf-syntax-ns#"
   xmlns:svg="http://www.w3.org/2000/svg"
   xmlns="http://www.w3.org/2000/svg"
   xmlns:xlink="http://www.w3.org/1999/xlink"
   xmlns:sodipodi="http://sodipodi.sourceforge.net/DTD/sodipodi-0.dtd"
   xmlns:inkscape="http://www.inkscape.org/namespaces/inkscape"
   viewBox="0 0 843.84058 702.1131"
   height="702.1131"
   width="843.84058"
   xml:space="preserve"
   version="1.1"
   id="svg2"
   inkscape:version="0.91 r13725"
   sodipodi:docname="et_8.svg"><sodipodi:namedview
     pagecolor="#ffffff"
     bordercolor="#666666"
     borderopacity="1"
     objecttolerance="10"
     gridtolerance="10"
     guidetolerance="10"
     inkscape:pageopacity="0"
     inkscape:pageshadow="2"
     inkscape:window-width="636"
     inkscape:window-height="985"
     id="namedview35"
     showgrid="false"
     inkscape:zoom="0.78924862"
     inkscape:cx="688.93044"
     inkscape:cy="272.47911"
     inkscape:window-x="640"
     inkscape:window-y="18"
     inkscape:window-maximized="0"
     inkscape:current-layer="svg2" /><metadata
     id="metadata8"><rdf:RDF><cc:Work
         rdf:about=""><dc:format>image/svg+xml</dc:format><dc:type
           rdf:resource="http://purl.org/dc/dcmitype/StillImage" /><dc:title /></cc:Work></rdf:RDF></metadata><defs
     id="defs6"><marker
       inkscape:stockid="Arrow1Mend"
       orient="auto"
       refY="0.0"
       refX="0.0"
       id="marker9722"
       style="overflow:visible;"
       inkscape:isstock="true"><path
         id="path9475"
         d="M 0.0,0.0 L 5.0,-5.0 L -12.5,0.0 L 5.0,5.0 L 0.0,0.0 z "
         style="fill-rule:evenodd;stroke:#000000;stroke-width:1pt;stroke-opacity:1;fill:#000000;fill-opacity:1"
         transform="scale(0.4) rotate(180) translate(10,0)" /></marker><linearGradient
       inkscape:collect="always"
       id="linearGradient7240"><stop
         style="stop-color:#ca0e2b;stop-opacity:1;"
         offset="0"
         id="stop7242" /><stop
         style="stop-color:#ca0e2b;stop-opacity:0;"
         offset="1"
         id="stop7244" /></linearGradient><linearGradient
       inkscape:collect="always"
       id="linearGradient7142"><stop
         style="stop-color:#40a040;stop-opacity:1;"
         offset="0"
         id="stop7144" /><stop
         style="stop-color:#40a040;stop-opacity:0;"
         offset="1"
         id="stop7146" /></linearGradient><linearGradient
       id="linearGradient6770"
       osb:paint="solid"><stop
         style="stop-color:#000000;stop-opacity:1;"
         offset="0"
         id="stop6772" /></linearGradient><linearGradient
       id="linearGradient6756"
       osb:paint="gradient"><stop
         style="stop-color:#000000;stop-opacity:1;"
         offset="0"
         id="stop6758" /><stop
         style="stop-color:#000000;stop-opacity:0;"
         offset="1"
         id="stop6760" /></linearGradient><marker
       inkscape:stockid="Arrow1Mend"
       orient="auto"
       refY="0.0"
       refX="0.0"
       id="Arrow1Mend"
       style="overflow:visible;"
       inkscape:isstock="true"><path
         id="path5173"
         d="M 0.0,0.0 L 5.0,-5.0 L -12.5,0.0 L 5.0,5.0 L 0.0,0.0 z "
         style="fill-rule:evenodd;stroke:#a21e1e;stroke-width:1pt;stroke-opacity:1;fill:#a21e1e;fill-opacity:1"
         transform="scale(0.4) rotate(180) translate(10,0)" /></marker><marker
       inkscape:stockid="Arrow1Mend"
       orient="auto"
       refY="0"
       refX="0"
       id="Arrow1Mend-3"
       style="overflow:visible"
       inkscape:isstock="true"><path
         inkscape:connector-curvature="0"
         id="path5173-6"
         d="M 0,0 5,-5 -12.5,0 5,5 0,0 Z"
         style="fill:#a21e1e;fill-opacity:1;fill-rule:evenodd;stroke:#a21e1e;stroke-width:1pt;stroke-opacity:1"
         transform="matrix(-0.4,0,0,-0.4,-4,0)" /></marker><linearGradient
       inkscape:collect="always"
       xlink:href="#linearGradient7142"
       id="linearGradient7230"
       x1="89.934586"
       y1="200.47321"
       x2="399.97708"
       y2="200.47321"
       gradientUnits="userSpaceOnUse" /><linearGradient
       gradientTransform="translate(4.5334314,33.18806)"
       inkscape:collect="always"
       xlink:href="#linearGradient7142"
       id="linearGradient7148-6"
       x1="89.934586"
       y1="200.47321"
       x2="544.69421"
       y2="167.11595"
       gradientUnits="userSpaceOnUse" /><linearGradient
       gradientTransform="translate(4.5334314,33.18806)"
       inkscape:collect="always"
       xlink:href="#linearGradient7142"
       id="linearGradient7140-2"
       x1="89.934586"
       y1="200.47321"
       x2="544.69421"
       y2="167.11595"
       gradientUnits="userSpaceOnUse" /><linearGradient
       inkscape:collect="always"
       xlink:href="#linearGradient7240"
       id="linearGradient7246-4"
       x1="54.786373"
       y1="274.50864"
       x2="323.74426"
       y2="97.153931"
       gradientUnits="userSpaceOnUse"
       gradientTransform="matrix(0.33699029,0,0,0.28985148,296.1413,261.65007)" /><marker
       inkscape:isstock="true"
       style="overflow:visible"
       id="marker11294"
       refX="0"
       refY="0"
       orient="auto"
       inkscape:stockid="Arrow1Mend"><path
         inkscape:connector-curvature="0"
         transform="matrix(-0.4,0,0,-0.4,-4,0)"
         style="fill:#000000;fill-opacity:1;fill-rule:evenodd;stroke:#000000;stroke-width:1pt;stroke-opacity:1"
         d="M 0,0 5,-5 -12.5,0 5,5 0,0 Z"
         id="path11296" /></marker><marker
       inkscape:isstock="true"
       style="overflow:visible"
       id="marker11173"
       refX="0"
       refY="0"
       orient="auto"
       inkscape:stockid="Arrow1Mend"><path
         inkscape:connector-curvature="0"
         transform="matrix(-0.4,0,0,-0.4,-4,0)"
         style="fill:#000000;fill-opacity:1;fill-rule:evenodd;stroke:#000000;stroke-width:1pt;stroke-opacity:1"
         d="M 0,0 5,-5 -12.5,0 5,5 0,0 Z"
         id="path11175" /></marker></defs><rect
     style="opacity:1;fill:#ffffff;fill-opacity:1;stroke:#ffffff;stroke-width:1.39999998;stroke-linecap:butt;stroke-linejoin:miter;stroke-miterlimit:4;stroke-dasharray:none;stroke-dashoffset:0;stroke-opacity:1"
     id="rect4436"
     width="847.49884"
     height="702.38751"
     x="-3.4965196"
     y="1.7962592" /><g
     style="fill:#c6f6a3;fill-opacity:1"
     transform="matrix(1.25,0,0,-1.25,-596.49862,962.43047)"
     id="g4255"><path
       sodipodi:nodetypes="csssssc"
       inkscape:connector-curvature="0"
       id="path4138"
       d="m 1032.3197,626.11278 c 0,0 100.7158,19.7564 99.0996,-145.10049 -1.6163,-164.8569 -54.9523,-158.39192 -101.8234,-130.10765 -46.87113,28.28427 -67.28023,58.78085 -65.95513,80.49981 3.4182,56.0238 53.79113,39.94663 28.9241,121.89852 -0.9446,3.11313 -5.5718,24.37916 0.198,43.19899 4.0625,13.2512 10.30063,24.99175 39.56973,29.62506"
       style="fill:#c6f6a3;fill-opacity:1;fill-rule:evenodd;stroke:#000000;stroke-width:2.4000001;stroke-linecap:butt;stroke-linejoin:miter;stroke-miterlimit:4;stroke-dasharray:none;stroke-opacity:1" /></g><path
     style="fill:#ff7f7f;fill-opacity:1;fill-rule:evenodd;stroke:#000000;stroke-width:3;stroke-linecap:butt;stroke-linejoin:miter;stroke-miterlimit:4;stroke-dasharray:none;stroke-opacity:1"
     d="m 60.956802,283.91205 c 0,0 67.815048,30.93556 41.740548,73.1372 C 76.622852,399.2509 5.51059,473.38891 7.8810025,365.03335 10.251402,256.67779 60.956802,283.91205 60.956802,283.91205 Z"
     id="path4159"
     inkscape:connector-curvature="0"
     sodipodi:nodetypes="cssc" /><g
     style="fill:#ff7f7f;fill-opacity:1;stroke:#000000;stroke-width:0.98141336;stroke-opacity:1"
     transform="matrix(1.3002049,0,0,1.247683,-335.58659,91.117225)"
     id="g4444"><g
       style="font-style:normal;font-variant:normal;font-weight:normal;font-stretch:normal;letter-spacing:normal;word-spacing:normal;text-anchor:start;fill:none;fill-opacity:1;fill-rule:evenodd;stroke:#000000;stroke-width:0.98141336;stroke-linecap:butt;stroke-linejoin:miter;stroke-miterlimit:10.43299961;stroke-dasharray:none;stroke-dashoffset:0;stroke-opacity:1"
       id="g4500"
       transform="matrix(1.0030187,0,0,-1.0030187,-175.52827,632.88044)"
       xml:space="preserve"
       stroke-miterlimit="10.433"
       font-style="normal"
       font-variant="normal"
       font-weight="normal"
       font-stretch="normal"
       font-size-adjust="none"
       letter-spacing="normal"
       word-spacing="normal"><path
         style="fill:#000000;stroke-width:0"
         inkscape:connector-curvature="0"
         d="m 488.13,440.62 0,0.02 0,0.01 0,0.02 -0.01,0.02 0,0.01 0,0.02 -0.01,0.02 0,0.02 -0.01,0.02 -0.01,0.02 -0.01,0.02 -0.01,0.02 -0.01,0.02 -0.01,0.02 -0.01,0.02 -0.02,0.02 -0.01,0.02 -0.02,0.02 -0.02,0.02 -0.02,0.02 -0.02,0.02 -0.02,0.01 -0.03,0.02 -0.02,0.01 -0.03,0.01 -0.02,0.01 -0.01,0 -0.02,0.01 -0.01,0 -0.02,0.01 -0.02,0 -0.01,0.01 -0.02,0 -0.02,0 -0.02,0 -0.02,0 -0.02,0.01 -0.02,0 -0.02,0 c -0.25,0 -0.3,-0.05 -0.9,-0.75 l -2.39,-2.84 c -1.29,2.34 -3.88,3.59 -7.12,3.59 -6.33,0 -12.3,-5.73 -12.3,-11.76 0,-4.03 2.64,-6.32 5.18,-7.07 l 5.33,-1.4 c 1.84,-0.44 4.58,-1.19 4.58,-5.28 0,-4.48 -4.08,-9.16 -8.97,-9.16 -3.19,0 -8.71,1.09 -8.71,7.27 0,1.2 0.25,2.39 0.29,2.69 0.05,0.2 0.11,0.25 0.11,0.35 0,0.5 -0.35,0.55 -0.6,0.55 -0.25,0 -0.35,-0.05 -0.5,-0.2 -0.2,-0.2 -2.99,-11.56 -2.99,-11.71 0,-0.3 0.25,-0.5 0.55,-0.5 0.25,0 0.3,0.05 0.9,0.75 l 2.44,2.84 c 2.14,-2.89 5.52,-3.59 8.41,-3.59 6.78,0 12.66,6.63 12.66,12.81 0,3.43 -1.7,5.13 -2.44,5.83 -1.15,1.14 -1.9,1.34 -6.33,2.48 -1.1,0.3 -2.89,0.8 -3.34,0.9 -1.34,0.45 -3.04,1.89 -3.04,4.53 0,4.04 3.99,8.27 8.72,8.27 4.13,0 7.17,-2.14 7.17,-7.72 0,-1.59 -0.2,-2.49 -0.2,-2.79 0,-0.05 0,-0.5 0.6,-0.5 0.5,0 0.55,0.15 0.75,1 z"
         id="path4447" /></g></g><text
     id="text220"
     style="font-variant:normal;font-weight:normal;font-size:18.82146835px;font-family:'DejaVu Sans';-inkscape-font-specification:DejaVuSans;writing-mode:lr-tb;fill:#000000;fill-opacity:1;fill-rule:nonzero;stroke:none"
     transform="scale(1.0009965,0.9990045)"
     x="418.62866"
     y="698.01581"><tspan
       id="tspan222"
       x="430.59912 490.35727 550.17194 615.89648 681.67755 741.43567" /></text>
<g
     id="g6180" /><g
     id="g4212"
     style="stroke-width:0.1;stroke-miterlimit:4;stroke-dasharray:none"
     transform="translate(0.89592401,0.89592401)"><path
       style="fill:url(#linearGradient7148-6);fill-opacity:1;fill-rule:evenodd;stroke:url(#linearGradient7140-2);stroke-width:2;stroke-linecap:butt;stroke-linejoin:miter;stroke-miterlimit:4;stroke-dasharray:none;stroke-opacity:1"
       d="M 94.900739,355.23782 C 181.36887,337.46616 322.54524,312.84538 409.01337,295.07371"
       id="path6053-6"
       inkscape:connector-curvature="0"
       sodipodi:nodetypes="cc" /></g><path
     style="fill:#a04045;fill-opacity:1;fill-rule:evenodd;stroke:url(#linearGradient7246-4);stroke-width:2;stroke-linecap:butt;stroke-linejoin:miter;stroke-miterlimit:4;stroke-dasharray:none;stroke-opacity:1"
     d="m 407.61305,296.60395 -99.13562,51.20502"
     id="path6053-9-1"
     inkscape:connector-curvature="0"
     sodipodi:nodetypes="cc" /><path
     style="opacity:1;fill:#1d0d73;fill-opacity:1;stroke:#1d0d73;stroke-width:0.1;stroke-linecap:butt;stroke-linejoin:miter;stroke-miterlimit:4;stroke-dasharray:none;stroke-dashoffset:0;stroke-opacity:1"
     id="path6055-5-2-7-0-6"
     sodipodi:type="arc"
     sodipodi:cx="309.94565"
     sodipodi:cy="346.94482"
     sodipodi:rx="3.2074821"
     sodipodi:ry="3.3004589"
     sodipodi:start="6.2366199"
     sodipodi:end="6.231541"
     sodipodi:open="true"
     d="m 313.14965,346.79119 a 3.2074821,3.3004589 0 0 1 -3.05063,3.45032 3.2074821,3.3004589 0 0 1 -3.35699,-3.13468 3.2074821,3.3004589 0 0 1 3.04211,-3.45828 3.2074821,3.3004589 0 0 1 3.36471,3.1259" /><path
     style="opacity:1;fill:#1d0d73;fill-opacity:1;stroke:#1d0d73;stroke-width:0.1;stroke-linecap:butt;stroke-linejoin:miter;stroke-miterlimit:4;stroke-dasharray:none;stroke-dashoffset:0;stroke-opacity:1"
     id="path6055-5-2-7-0-1"
     sodipodi:type="arc"
     sodipodi:cx="408.55377"
     sodipodi:cy="295.18387"
     sodipodi:rx="3.2074821"
     sodipodi:ry="3.3004589"
     sodipodi:start="6.2366199"
     sodipodi:end="6.231541"
     sodipodi:open="true"
     d="m 411.75778,295.03024 a 3.2074821,3.3004589 0 0 1 -3.05064,3.45031 3.2074821,3.3004589 0 0 1 -3.35698,-3.13468 3.2074821,3.3004589 0 0 1 3.0421,-3.45827 3.2074821,3.3004589 0 0 1 3.36472,3.12589" /><g
     id="g8261"
     transform="matrix(0.51734786,-0.06278767,0.07514554,0.61917216,46.21879,184.22365)"
     style="fill:#226f22;fill-opacity:1"><g
       id="content"
       transform="matrix(0.99361183,0.11450977,0.16402124,-0.99361184,-239.65372,564.61539)"
       xml:space="preserve"
       stroke-miterlimit="10.433"
       font-style="normal"
       font-variant="normal"
       font-weight="normal"
       font-stretch="normal"
       font-size-adjust="none"
       letter-spacing="normal"
       word-spacing="normal"
       style="font-style:normal;font-variant:normal;font-weight:normal;font-stretch:normal;letter-spacing:normal;word-spacing:normal;text-anchor:start;fill:#226f22;fill-opacity:1;fill-rule:evenodd;stroke:#000000;stroke-width:1.75399303;stroke-linecap:butt;stroke-linejoin:miter;stroke-miterlimit:10.43299961;stroke-dasharray:none;stroke-dashoffset:0;stroke-opacity:1"><g
         id="g9447"><path
           style="fill:#226f22;fill-opacity:1;stroke-width:0"
           inkscape:connector-curvature="0"
           id="path8264"
           d="m 498.31006,420.70826 0.0105,0.0101 0.0105,0.0101 0.0104,0.0152 0.0105,0.0101 0.0105,0.0101 0.0105,0.0101 0.005,0.0101 0.0105,0.0101 0.0105,0.0101 0.005,0.0101 0.0157,0.0202 0.0157,0.0202 0.0105,0.0152 0.0104,0.0152 0.0105,0.0152 0.0104,0.0202 0.0105,0.0101 0.0105,0.0152 0.005,0.0152 0.005,0.0101 0.005,0.0152 0.005,0.0101 0.005,0.0101 0.005,0.0101 0.005,0.0101 -1.1e-4,0.0102 0.005,0.0101 -5e-5,0.005 -1.1e-4,0.0101 0.005,0.005 -1.1e-4,0.0102 -5e-5,0.005 -6e-5,0.005 -5e-5,0.005 -1.1e-4,0.0102 -5e-5,0.005 -5e-5,0.005 c -0.001,0.12693 -0.10883,0.25461 -0.18946,0.35163 l -5.49814,7.52694 6.10946,-0.0429 c 4.464,-0.0313 5.80059,-0.95454 6.39461,-4.95419 l 0.65819,-0.005 -0.79762,5.69674 -14.6712,0.10297 c -0.63696,0.004 -0.69004,0.005 -0.68395,-0.57396 l 6.67813,-9.2055 -6.21789,-6.8101 c -0.26252,-0.27231 -0.26198,-0.32308 -0.26118,-0.39924 0.003,-0.27925 0.26833,-0.28111 0.66643,-0.28391 l 14.67119,-0.10297 0.67506,5.96564 -0.65819,0.005 c -0.43332,-4.2209 -2.22021,-4.89373 -6.37103,-4.8646 l -7.29844,0.0512 z" /><path
           style="fill:#226f22;fill-opacity:1;stroke-width:0"
           inkscape:connector-curvature="0"
           id="path8266"
           d="m 513.4881,427.42501 0.14268,0.0599 0.13211,0.0549 0.13211,0.0549 0.12155,0.0499 0.12155,0.0499 0.1163,0.0449 0.11629,0.0449 0.10568,0.045 0.10568,0.0449 0.10042,0.0399 0.0952,0.0349 0.0951,0.0399 0.0899,0.0349 0.0845,0.0349 0.0846,0.0299 0.0793,0.035 0.074,0.0299 0.074,0.0299 0.074,0.0249 0.0687,0.03 0.0634,0.0249 0.0634,0.0249 0.0581,0.025 0.0581,0.025 0.0582,0.0199 0.0528,0.025 0.10574,0.0399 0.0951,0.0399 0.0898,0.04 c 0.34883,0.13971 0.51263,0.20963 0.50906,0.54981 -0.003,0.29955 -0.24479,0.56525 -0.57919,0.56759 -0.1327,9.3e-4 -0.16454,0.001 -0.38582,-0.15467 l -2.50431,-1.59686 0.25378,2.61787 c 0.0338,0.3196 -0.008,0.76158 -0.56534,0.76549 -0.22293,0.002 -0.57176,-0.13813 -0.56771,-0.524 0.002,-0.1574 0.0816,-0.69103 0.0994,-0.86884 0.0403,-0.29982 0.1864,-1.57513 0.22788,-1.98665 l -2.51702,1.63211 c -0.1869,0.10792 -0.24051,0.15907 -0.41037,0.16026 -0.32909,0.002 -0.57048,-0.25999 -0.56733,-0.55955 0.004,-0.35541 0.22763,-0.44836 0.39823,-0.52063 l 2.80367,-1.13151 c -1.51135,-0.62908 -2.19346,-0.87305 -2.65301,-1.08306 -0.34889,-0.13462 -0.518,-0.20451 -0.51442,-0.54469 0.003,-0.29955 0.25009,-0.56528 0.57918,-0.56759 0.1327,-9.3e-4 0.16986,-10e-4 0.39114,0.15464 l 2.49905,1.59182 -0.26731,-2.84624 c 0.004,-0.39094 0.35588,-0.53049 0.57881,-0.53205 0.22294,-0.002 0.57182,0.13306 0.56771,0.52401 -0.002,0.16247 -0.0816,0.69102 -0.0994,0.86883 -0.0403,0.29982 -0.18639,1.57513 -0.22782,1.98157 l 2.23892,-1.43215 c 0.48671,-0.35372 0.52386,-0.35398 0.68841,-0.35514 0.3344,-0.002 0.57049,0.26 0.56734,0.55955 -0.004,0.35541 -0.22763,0.44836 -0.39287,0.51552 z" /><path
           style="fill:#226f22;fill-opacity:1;stroke-width:0"
           inkscape:connector-curvature="0"
           id="path8268"
           d="m 512.2145,413.26447 1.88433,-0.0132 c 0.35563,-0.002 0.59449,-0.004 0.59038,0.38677 -0.003,0.24878 -0.24147,0.25046 -0.55995,0.25269 l -1.75693,0.0123 0.65719,2.61504 c 0.015,0.0862 0.0565,0.17729 0.0558,0.24837 -0.003,0.31479 -0.26601,0.5654 -0.63757,0.56801 -0.46179,0.003 -0.73466,-0.29438 -0.8625,-0.75548 -0.12275,-0.44082 0.10715,0.41047 -0.67258,-2.6657 l -1.88963,0.0133 c -0.35033,0.002 -0.5945,0.004 -0.59039,-0.38677 0.003,-0.24878 0.22555,-0.25035 0.55995,-0.2527 l 1.75694,-0.0123 -1.04422,-4.17091 c -0.10682,-0.44094 -0.27001,-1.0744 -0.26755,-1.30795 0.0109,-1.04083 0.94125,-1.68705 1.99753,-1.69446 2.05418,-0.0144 3.19589,2.45507 3.19349,2.68355 -0.002,0.23355 -0.24131,0.23523 -0.2997,0.23564 -0.21763,0.002 -0.23849,-0.0339 -0.38396,-0.33238 -0.50844,-1.11334 -1.43754,-2.0968 -2.45667,-2.08965 -0.38748,0.003 -0.64997,0.23302 -0.6567,0.87275 -0.002,0.17262 0.0686,0.54782 0.10384,0.72526 z" /><path
           style="fill:#226f22;fill-opacity:1;stroke-width:0"
           inkscape:connector-curvature="0"
           id="path8270"
           d="m 561.62,430.81 0.06,0.03 0.05,0.02 0.06,0.03 0.05,0.03 0.05,0.03 0.04,0.02 0.05,0.03 0.04,0.03 0.05,0.03 0.04,0.02 0.04,0.03 0.04,0.03 0.03,0.03 0.04,0.03 0.03,0.03 0.03,0.03 0.03,0.03 0.03,0.04 0.02,0.03 0.03,0.03 0.02,0.04 0.02,0.04 0.02,0.03 0.02,0.04 0.01,0.04 0.01,0.04 0.01,0.05 0.01,0.04 0.01,0.05 0.01,0.04 0,0.05 0,0.05 c 0,0.55 -0.45,1 -1,1 -0.14,0 -0.25,0 -0.89,-0.35 l -27.6,-13 c -0.55,-0.25 -0.95,-0.5 -0.95,-1.1 0,-0.59 0.4,-0.84 0.95,-1.09 l 27.6,-13 c 0.64,-0.35 0.75,-0.35 0.89,-0.35 0.55,0 1,0.45 1,0.99 0,0.55 -0.35,0.8 -0.95,1.1 l -26.15,12.35 z" /><path
           style="fill:#226f22;fill-opacity:1;stroke-width:0"
           inkscape:connector-curvature="0"
           id="path8272"
           d="m 599.53,422.24 0.02,0.02 0.02,0.02 0.02,0.03 0.02,0.02 0.02,0.02 0.02,0.02 0.01,0.02 0.02,0.02 0.02,0.02 0.01,0.02 0.03,0.04 0.03,0.04 0.02,0.03 0.02,0.03 0.02,0.03 0.02,0.04 0.02,0.02 0.02,0.03 0.01,0.03 0.01,0.02 0.01,0.03 0.01,0.02 0.01,0.02 0.01,0.02 0.01,0.02 0,0.02 0.01,0.02 0,0.01 0,0.02 0.01,0.01 0,0.02 0,0.01 0,0.01 0,0.01 0,0.02 0,0.01 0,0.01 c 0,0.25 -0.2,0.5 -0.35,0.69 l -10.21,14.75 11.51,0 c 8.41,0 10.91,-1.8 11.95,-9.67 l 1.24,0 -1.39,11.21 -27.64,0 c -1.2,0 -1.3,0 -1.3,-1.14 l 12.4,-18.04 -11.85,-13.5 c -0.5,-0.54 -0.5,-0.64 -0.5,-0.79 0,-0.55 0.5,-0.55 1.25,-0.55 l 27.64,0 1.39,11.76 -1.24,0 c -0.9,-8.32 -4.28,-9.67 -12.1,-9.67 l -13.75,0 z" /><path
           style="fill:#226f22;fill-opacity:1;stroke-width:0"
           inkscape:connector-curvature="0"
           id="path8274"
           d="m 625.58,412.77 3.55,0 c 0.67,0 1.12,0 1.12,0.77 0,0.49 -0.45,0.49 -1.05,0.49 l -3.31,0 1.29,5.16 c 0.04,0.17 0.1,0.35 0.1,0.49 0,0.62 -0.48,1.11 -1.18,1.11 -0.87,0 -1.39,-0.59 -1.64,-1.5 -0.24,-0.87 0.21,0.81 -1.32,-5.26 l -3.56,0 c -0.66,0 -1.11,0 -1.11,-0.77 0,-0.49 0.41,-0.49 1.04,-0.49 l 3.31,0 -2.05,-8.23 c -0.21,-0.87 -0.53,-2.12 -0.53,-2.58 0,-2.05 1.74,-3.31 3.73,-3.31 3.87,0 6.07,4.88 6.07,5.33 0,0.46 -0.45,0.46 -0.56,0.46 -0.41,0 -0.45,-0.07 -0.73,-0.66 -0.98,-2.2 -2.75,-4.15 -4.67,-4.15 -0.73,0 -1.22,0.45 -1.22,1.71 0,0.34 0.14,1.08 0.21,1.43 z" /></g></g></g><g
     id="g8498"
     transform="matrix(0.5210981,0.00691858,-0.0082803,0.62366053,-264.55564,-53.148631)"><g
       word-spacing="normal"
       letter-spacing="normal"
       font-size-adjust="none"
       font-stretch="normal"
       font-weight="normal"
       font-variant="normal"
       font-style="normal"
       stroke-miterlimit="10.433"
       xml:space="preserve"
       transform="matrix(1.0030187,0,0,-1.0030187,-175.52827,632.88044)"
       id="g8500"
       style="font-style:normal;font-variant:normal;font-weight:normal;font-stretch:normal;letter-spacing:normal;word-spacing:normal;text-anchor:start;fill:#ca0e2b;fill-opacity:1;fill-rule:evenodd;stroke:#ff0000;stroke-width:1.75399303;stroke-linecap:butt;stroke-linejoin:miter;stroke-miterlimit:10.43299961;stroke-dasharray:none;stroke-dashoffset:0;stroke-opacity:1"><path
         id="path8502"
         d="m 1415.0133,17.178838 0.02,0.02 0.02,0.02 0.02,0.03 0.02,0.02 0.02,0.02 0.02,0.02 0.01,0.02 0.02,0.02 0.02,0.02 0.01,0.02 0.03,0.04 0.03,0.04 0.02,0.03 0.02,0.03 0.02,0.03 0.02,0.04 0.02,0.02 0.02,0.03 0.01,0.03 0.01,0.02 0.01,0.03 0.01,0.02 0.01,0.02 0.01,0.02 0.01,0.02 0,0.02 0.01,0.02 0,0.01 0,0.02 0.01,0.01 0,0.02 0,0.01 0,0.01 0,0.01 0,0.02 0,0.01 0,0.01 c 0,0.25 -0.2,0.5 -0.35,0.69 l -10.21,14.75 11.51,0 c 8.41,0 10.91,-1.8 11.95,-9.67 l 1.24,0 -1.39,11.21 -27.64,0 c -1.2,0 -1.3,0 -1.3,-1.14 l 12.4,-18.04 -11.85,-13.4999999 c -0.5,-0.54 -0.5,-0.64 -0.5,-0.79 0,-0.54999996 0.5,-0.54999996 1.25,-0.54999996 l 27.64,0 1.39,11.75999986 -1.24,0 c -0.9,-8.3199999 -4.28,-9.6699999 -12.1,-9.6699999 l -13.75,0 z"
         inkscape:connector-curvature="0"
         style="fill:#ca0e2b;fill-opacity:1;stroke:#ff0000;stroke-width:0;stroke-opacity:1" /><path
         id="path8504"
         d="m 1443.7433,30.618838 0.27,0.12 0.25,0.11 0.25,0.11 0.23,0.1 0.23,0.1 0.22,0.09 0.22,0.09 0.2,0.09 0.2,0.09 0.19,0.08 0.18,0.07 0.18,0.08 0.17,0.07 0.16,0.07 0.16,0.06 0.15,0.07 0.14,0.06 0.14,0.06 0.14,0.05 0.13,0.06 0.12,0.05 0.12,0.05 0.11,0.05 0.11,0.05 0.11,0.04 0.1,0.05 0.2,0.08 0.18,0.08 0.17,0.08 c 0.66,0.28 0.97,0.42 0.97,1.09 0,0.59 -0.45,1.11 -1.08,1.11 -0.25,0 -0.31,0 -0.73,-0.31 l -4.75,-3.18 0.53,5.16 c 0.07,0.63 0,1.5 -1.05,1.5 -0.42,0 -1.08,-0.28 -1.08,-1.04 0,-0.31 0.14,-1.36 0.17,-1.71 0.07,-0.59 0.32,-3.1 0.39,-3.91 l -4.71,3.18 c -0.35,0.21 -0.45,0.31 -0.77,0.31 -0.62,0 -1.08,-0.52 -1.08,-1.11 0,-0.7 0.42,-0.88 0.74,-1.02 l 5.26,-2.19 c -2.86,-1.26 -4.15,-1.75 -5.02,-2.17 -0.66,-0.27 -0.98,-0.41 -0.98,-1.08 0,-0.59 0.46,-1.11 1.08,-1.11 0.25,0 0.32,0 0.74,0.31 l 4.74,3.17 -0.56,-5.61 c 0,-0.77 0.66,-1.04 1.08,-1.04 0.42,0 1.08,0.27 1.08,1.04 0,0.32 -0.14,1.36 -0.17,1.71 -0.07,0.59 -0.32,3.1 -0.39,3.9 l 4.19,-2.79 c 0.91,-0.69 0.98,-0.69 1.29,-0.69 0.63,0 1.08,0.52 1.08,1.11 0,0.7 -0.42,0.88 -0.73,1.01 z"
         inkscape:connector-curvature="0"
         style="fill:#ca0e2b;fill-opacity:1;stroke:#ff0000;stroke-width:0;stroke-opacity:1" /><path
         id="path8506"
         d="m 1441.0633,2.7088381 3.55,0 c 0.67,0 1.12,0 1.12,0.77 0,0.49 -0.45,0.49 -1.05,0.49 l -3.31,0 1.29,5.16 c 0.03,0.17 0.11,0.35 0.11,0.49 0,0.6199999 -0.49,1.1099999 -1.19,1.1099999 -0.87,0 -1.39,-0.59 -1.64,-1.4999999 -0.24,-0.87 0.21,0.8099999 -1.32,-5.26 l -3.56,0 c -0.66,0 -1.12,0 -1.12,-0.77 0,-0.49 0.42,-0.49 1.05,-0.49 l 3.31,0 -2.05,-8.23 c -0.21,-0.87 -0.53,-2.12 -0.53,-2.58 0,-2.0500001 1.74,-3.3100001 3.73,-3.3100001 3.87,0 6.07,4.8800001 6.07,5.3300001 0,0.46 -0.45,0.46 -0.56,0.46 -0.41,0 -0.45,-0.07 -0.73,-0.66 -0.98,-2.2 -2.75,-4.1500001 -4.67,-4.1500001 -0.73,0 -1.22,0.4500001 -1.22,1.7100001 0,0.34 0.14,1.08 0.21,1.43 z"
         inkscape:connector-curvature="0"
         style="fill:#ca0e2b;fill-opacity:1;stroke:#ff0000;stroke-width:0;stroke-opacity:1" /><path
         id="path8508"
         d="m 1502.1033,12.298838 0.11,0.04 0.09,0.05 0.05,0.02 0.05,0.03 0.04,0.02 0.04,0.03 0.05,0.02 0.04,0.03 0.04,0.03 0.03,0.02 0.04,0.03 0.04,0.03 0.03,0.03 0.03,0.03 0.03,0.04 0.03,0.03 0.03,0.03 0.03,0.04 0.02,0.04 0.02,0.03 0.02,0.04 0.02,0.04 0.02,0.05 0.01,0.04 0.01,0.05 0.01,0.04 0.01,0.05 0.01,0.05 0,0.06 0,0.05 c 0,0.6 -0.4,0.85 -0.95,1.1 l -27.59,13 c -0.65,0.35 -0.75,0.35 -0.9,0.35 -0.55,0 -1,-0.45 -1,-1 0,-0.45 0.25,-0.74 0.95,-1.09 l 26.15,-12.36 -26.15,-12.3499999 c -0.7,-0.34999996 -0.95,-0.64999996 -0.95,-1.09999996 0,-0.54 0.45,-0.99000004 1,-0.99000004 0.15,0 0.25,0 0.9,0.35000004 z"
         inkscape:connector-curvature="0"
         style="fill:#ca0e2b;fill-opacity:1;stroke:#ff0000;stroke-width:0;stroke-opacity:1" /><path
         id="path8510"
         d="m 1526.2821,12.652285 0.012,0.012 0.012,0.012 0.012,0.01803 0.012,0.012 0.012,0.012 0.012,0.012 0.01,0.01203 0.012,0.012 0.012,0.012 0.01,0.01203 0.018,0.02403 0.018,0.02404 0.012,0.01803 0.012,0.01803 0.012,0.01803 0.012,0.02407 0.012,0.012 0.012,0.01803 0.01,0.01807 0.01,0.01203 0.01,0.01807 0.01,0.01203 0.01,0.01203 0.01,0.01203 0.01,0.01203 0,0.01206 0.01,0.01203 0,0.006 -10e-5,0.01206 0.01,0.006 -10e-5,0.01206 0,0.006 0,0.006 -10e-5,0.006 -10e-5,0.01206 0,0.006 -10e-5,0.006 c 0,0.150809 -0.1238,0.302251 -0.2159,0.41734 l -6.2731,8.930043 6.9965,-0.03644 c 5.1121,-0.02662 6.6399,-1.120362 7.3077,-5.871116 l 0.7538,-0.0039 -0.8958,6.766668 -16.8012,0.0875 c -0.7294,0.0038 -0.7902,0.0041 -0.785,-0.683573 l 7.6192,-10.92162 -7.1419,-8.1061628 c -0.3015,-0.324164 -0.301,-0.384487 -0.3003,-0.474973 0,-0.331779 0.3064,-0.333362 0.7623,-0.335736 l 16.8012,-0.0875 0.7916,7.089647 -0.7538,0.0039 c -0.5093,-5.016069 -2.5577,-5.819736 -7.3112,-5.794981 l -8.358,0.04353 z"
         inkscape:connector-curvature="0"
         style="fill:#ca0e2b;fill-opacity:1;stroke:#ff0000;stroke-width:0;stroke-opacity:1" /><path
         id="path8512"
         d="m 1542.1598,6.8571802 2.1578,-0.01124 c 0.4073,-0.0021 0.6808,-0.0035 0.6774,0.460945 0,0.295586 -0.2758,0.29701 -0.6405,0.29891 l -2.012,0.01048 0.7607,3.1086108 c 0.024,0.102423 0.059,0.210816 0.059,0.295268 0,0.374006 -0.2968,0.671111 -0.7223,0.673327 -0.5289,0.0028 -0.8423,-0.351508 -0.9901,-0.899661 -0.142,-0.524055 0.124,0.487956 -0.7785,-3.1688388 l -2.164,0.01127 c -0.4012,0.0021 -0.6747,0.0035 -0.6712,-0.460977 0,-0.295586 0.2514,-0.296884 0.6344,-0.298878 l 2.012,-0.01048 -1.2088,-4.958137 c -0.1237,-0.52415 -0.3126,-1.27718203 -0.3105,-1.55467003 0.01,-1.236632 1.0727,-2.00221697 2.2823,-2.00851697 2.3524,-0.01225 3.6676,2.924573 3.6656,3.196029 0,0.277488 -0.2757,0.278912 -0.3425,0.279261 -0.2493,0.0013 -0.2732,-0.0408 -0.4408,-0.395825 -0.5857,-1.32401503 -1.6528,-2.494721 -2.8199,-2.488642 -0.4437,0.0023 -0.7436,0.27531797 -0.7493,1.03539397 0,0.2051 0.08,0.651051 0.1212,0.861962 z"
         inkscape:connector-curvature="0"
         style="fill:#ca0e2b;fill-opacity:1;stroke:#ff0000;stroke-width:0;stroke-opacity:1" /></g></g><g
     style="font-style:normal;font-variant:normal;font-weight:normal;font-stretch:normal;letter-spacing:normal;word-spacing:normal;text-anchor:start;fill:none;fill-opacity:1;fill-rule:evenodd;stroke:#000000;stroke-width:1.75399303;stroke-linecap:butt;stroke-linejoin:miter;stroke-miterlimit:10.43299961;stroke-dasharray:none;stroke-dashoffset:0;stroke-opacity:1"
     id="g9137"
     transform="matrix(0.52271721,0,0,-0.62559831,-213.13045,335.95661)"
     xml:space="preserve"
     stroke-miterlimit="10.433"
     font-style="normal"
     font-variant="normal"
     font-weight="normal"
     font-stretch="normal"
     font-size-adjust="none"
     letter-spacing="normal"
     word-spacing="normal"><path
       style="fill:#000000;stroke-width:0"
       inkscape:connector-curvature="0"
       d="m 474.53,386.24 0.02,0.02 0.02,0.02 0.02,0.03 0.02,0.02 0.02,0.02 0.02,0.02 0.01,0.02 0.02,0.02 0.02,0.02 0.01,0.02 0.03,0.04 0.03,0.04 0.02,0.03 0.02,0.03 0.02,0.03 0.02,0.04 0.02,0.02 0.02,0.03 0.01,0.03 0.01,0.02 0.01,0.03 0.01,0.02 0.01,0.02 0.01,0.02 0.01,0.02 0,0.02 0.01,0.02 0,0.01 0,0.02 0.01,0.01 0,0.02 0,0.01 0,0.01 0,0.01 0,0.02 0,0.01 0,0.01 c 0,0.25 -0.2,0.5 -0.35,0.69 l -10.21,14.75 11.51,0 c 8.41,0 10.91,-1.8 11.95,-9.67 l 1.24,0 -1.39,11.21 -27.64,0 c -1.2,0 -1.3,0 -1.3,-1.14 l 12.4,-18.04 -11.85,-13.5 c -0.5,-0.54 -0.5,-0.64 -0.5,-0.79 0,-0.55 0.5,-0.55 1.25,-0.55 l 27.64,0 1.39,11.76 -1.24,0 c -0.9,-8.32 -4.28,-9.67 -12.1,-9.67 l -13.75,0 z"
       id="path9139" /><path
       style="fill:#000000;stroke-width:0"
       inkscape:connector-curvature="0"
       d="m 500.58,376.77 3.55,0 c 0.67,0 1.12,0 1.12,0.77 0,0.49 -0.45,0.49 -1.05,0.49 l -3.31,0 1.29,5.16 c 0.03,0.17 0.11,0.35 0.11,0.49 0,0.62 -0.49,1.11 -1.19,1.11 -0.87,0 -1.39,-0.59 -1.64,-1.5 -0.24,-0.87 0.21,0.81 -1.32,-5.26 l -3.56,0 c -0.66,0 -1.12,0 -1.12,-0.77 0,-0.49 0.42,-0.49 1.05,-0.49 l 3.31,0 -2.05,-8.23 c -0.21,-0.87 -0.53,-2.12 -0.53,-2.58 0,-2.05 1.74,-3.31 3.73,-3.31 3.87,0 6.07,4.88 6.07,5.33 0,0.46 -0.45,0.46 -0.56,0.46 -0.41,0 -0.45,-0.07 -0.73,-0.66 -0.98,-2.2 -2.75,-4.15 -4.67,-4.15 -0.73,0 -1.22,0.45 -1.22,1.71 0,0.34 0.14,1.08 0.21,1.43 z"
       id="path9141" /><path
       style="fill:#000000;stroke-width:0"
       inkscape:connector-curvature="0"
       d="m 525.49,358.04 0,0.03 0,0.03 -0.01,0.01 0,0.02 0,0.01 -0.01,0.02 0,0.02 -0.01,0.01 -0.01,0.02 -0.01,0.02 -0.01,0.03 -0.01,0.02 -0.02,0.02 -0.02,0.03 -0.02,0.03 -0.02,0.03 -0.03,0.03 -0.03,0.04 -0.01,0.02 -0.02,0.02 -0.02,0.02 -0.02,0.02 -0.02,0.02 -0.02,0.03 -0.02,0.02 -0.02,0.02 -0.02,0.03 -0.03,0.02 -0.02,0.03 -0.03,0.03 -0.02,0.03 -0.03,0.03 -0.03,0.03 -0.03,0.03 -0.03,0.03 -0.03,0.03 -0.04,0.04 -0.03,0.03 -0.04,0.04 -0.03,0.03 -0.04,0.04 -0.04,0.04 c -6.23,6.28 -7.82,15.69 -7.82,23.31 0,8.67 1.9,17.34 8.02,23.57 0.65,0.59 0.65,0.69 0.65,0.84 0,0.35 -0.2,0.5 -0.5,0.5 -0.5,0 -4.98,-3.39 -7.92,-9.72 -2.54,-5.47 -3.14,-11 -3.14,-15.19 0,-3.88 0.55,-9.91 3.29,-15.54 2.99,-6.12 7.27,-9.36 7.77,-9.36 0.3,0 0.5,0.15 0.5,0.49 z"
       id="path9143" /><path
       style="fill:#000000;stroke-width:0"
       inkscape:connector-curvature="0"
       d="m 543.09,385.74 0.2,1.3 3.39,13.55 c 0.45,1.74 0.55,1.89 2.69,1.89 l 4.78,0 c 4.13,0 6.78,-1.35 6.78,-4.78 0,-1.95 -1,-6.23 -2.94,-8.02 -2.49,-2.25 -5.48,-2.64 -7.67,-2.64 l -7.03,0 -0.2,-1.3 8.47,0 c 7.08,0 14,5.18 14,10.76 0,3.84 -3.29,7.52 -9.81,7.52 l -16.15,0 c -0.94,0 -1.49,0 -1.49,-0.95 0,-0.59 0.45,-0.59 1.45,-0.59 0.64,0 1.54,-0.05 2.14,-0.1 0.8,-0.1 1.09,-0.25 1.09,-0.8 0,-0.2 -0.04,-0.35 -0.2,-0.94 l -6.67,-26.75 c -0.5,-1.95 -0.6,-2.35 -4.53,-2.35 -0.85,0 -1.4,0 -1.4,-0.94 0,-0.6 0.6,-0.6 0.75,-0.6 l 12.75,0 c 0.35,0 1,0 1,1 0,0.54 -0.45,0.54 -1.4,0.54 -1.84,0 -3.24,0 -3.24,0.9 0,0.3 0.11,0.55 0.15,0.85 z"
       id="path9145" /><path
       style="fill:#000000;stroke-width:0"
       inkscape:connector-curvature="0"
       d="m 581.4,382.45 -0.01,0.37 0,0.39 -0.01,0.39 -0.01,0.41 -0.04,0.84 -0.06,0.88 -0.09,0.92 -0.1,0.94 -0.14,0.98 -0.16,1 -0.2,1.02 -0.23,1.04 -0.27,1.05 -0.3,1.06 -0.35,1.06 -0.39,1.07 -0.22,0.53 -0.22,0.54 -0.24,0.53 -0.25,0.53 c -2.99,6.12 -7.27,9.36 -7.77,9.36 -0.3,0 -0.5,-0.2 -0.5,-0.5 0,-0.15 0,-0.25 0.94,-1.15 4.89,-4.92 7.73,-12.85 7.73,-23.26 0,-8.52 -1.85,-17.28 -8.02,-23.56 -0.65,-0.6 -0.65,-0.69 -0.65,-0.85 0,-0.29 0.2,-0.49 0.5,-0.49 0.5,0 4.98,3.38 7.92,9.71 2.54,5.48 3.14,11.01 3.14,15.19 z"
       id="path9147" /><path
       style="fill:#000000;stroke-width:0"
       inkscape:connector-curvature="0"
       d="m 598.26,399.68 0.27,0.12 0.25,0.11 0.25,0.11 0.23,0.1 0.23,0.1 0.22,0.09 0.22,0.09 0.2,0.09 0.2,0.09 0.19,0.08 0.18,0.07 0.18,0.08 0.17,0.07 0.16,0.07 0.16,0.06 0.15,0.07 0.14,0.06 0.14,0.06 0.14,0.05 0.13,0.06 0.12,0.05 0.12,0.05 0.11,0.05 0.11,0.05 0.11,0.04 0.1,0.05 0.2,0.08 0.18,0.08 0.16,0.08 c 0.67,0.28 0.98,0.42 0.98,1.09 0,0.59 -0.45,1.11 -1.08,1.11 -0.25,0 -0.31,0 -0.73,-0.31 l -4.75,-3.18 0.53,5.16 c 0.07,0.63 0,1.5 -1.05,1.5 -0.42,0 -1.08,-0.28 -1.08,-1.04 0,-0.31 0.14,-1.36 0.17,-1.71 0.07,-0.59 0.32,-3.1 0.39,-3.91 l -4.71,3.18 c -0.35,0.21 -0.45,0.31 -0.77,0.31 -0.62,0 -1.08,-0.52 -1.08,-1.11 0,-0.7 0.42,-0.88 0.74,-1.02 l 5.26,-2.19 c -2.86,-1.26 -4.15,-1.75 -5.02,-2.17 -0.66,-0.27 -0.98,-0.41 -0.98,-1.08 0,-0.59 0.46,-1.11 1.08,-1.11 0.25,0 0.32,0 0.74,0.31 l 4.74,3.17 -0.56,-5.61 c 0,-0.77 0.66,-1.04 1.08,-1.04 0.42,0 1.08,0.27 1.08,1.04 0,0.32 -0.14,1.36 -0.17,1.71 -0.07,0.59 -0.32,3.1 -0.39,3.9 l 4.19,-2.79 c 0.91,-0.69 0.98,-0.69 1.29,-0.69 0.63,0 1.08,0.52 1.08,1.11 0,0.7 -0.42,0.88 -0.73,1.01 z"
       id="path9149" /><path
       style="fill:#000000;stroke-width:0"
       inkscape:connector-curvature="0"
       d="m 657.22,386.29 0.14,0 0.15,0 0.15,0.01 0.07,0 0.07,0 0.07,0.01 0.08,0.01 0.07,0.01 0.07,0.01 0.06,0.02 0.07,0.01 0.07,0.02 0.06,0.02 0.06,0.03 0.06,0.03 0.05,0.03 0.06,0.03 0.05,0.04 0.04,0.04 0.05,0.05 0.03,0.05 0.02,0.03 0.02,0.02 0.02,0.03 0.01,0.03 0.02,0.03 0.01,0.04 0.01,0.03 0.01,0.04 0.01,0.03 0.01,0.04 0.01,0.04 0,0.04 0.01,0.04 0,0.04 0,0.05 0,0.05 c 0,0.99 -0.94,0.99 -1.64,0.99 l -29.84,0 c -0.7,0 -1.64,0 -1.64,-0.99 0,-1 0.94,-1 1.69,-1 z"
       id="path9151" /><path
       style="fill:#000000;stroke-width:0"
       inkscape:connector-curvature="0"
       d="m 657.27,376.62 0.13,0.01 0.14,0 0.14,0 0.07,0.01 0.07,0 0.07,0.01 0.07,0.01 0.07,0.01 0.07,0.01 0.06,0.01 0.07,0.02 0.06,0.02 0.06,0.02 0.06,0.02 0.06,0.03 0.06,0.03 0.05,0.04 0.05,0.04 0.04,0.04 0.05,0.04 0.02,0.03 0.02,0.03 0.01,0.02 0.02,0.03 0.02,0.03 0.01,0.03 0.02,0.03 0.01,0.03 0.01,0.04 0.01,0.03 0.01,0.04 0.01,0.04 0.01,0.04 0,0.04 0.01,0.04 0,0.04 0,0.05 0,0.04 c 0,1 -0.94,1 -1.69,1 l -29.74,0 c -0.75,0 -1.69,0 -1.69,-1 0,-1 0.94,-1 1.64,-1 z"
       id="path9153" /><path
       style="fill:#000000;stroke-width:0"
       inkscape:connector-curvature="0"
       d="m 694.53,386.24 0.02,0.02 0.02,0.02 0.02,0.03 0.02,0.02 0.02,0.02 0.02,0.02 0.01,0.02 0.02,0.02 0.02,0.02 0.01,0.02 0.03,0.04 0.03,0.04 0.02,0.03 0.02,0.03 0.02,0.03 0.02,0.04 0.02,0.02 0.02,0.03 0.01,0.03 0.01,0.02 0.01,0.03 0.01,0.02 0.01,0.02 0.01,0.02 0.01,0.02 0,0.02 0.01,0.02 0,0.01 0,0.02 0.01,0.01 0,0.02 0,0.01 0,0.01 0,0.01 0,0.02 0,0.01 0,0.01 c 0,0.25 -0.2,0.5 -0.35,0.69 l -10.21,14.75 11.51,0 c 8.41,0 10.91,-1.8 11.95,-9.67 l 1.24,0 -1.39,11.21 -27.64,0 c -1.2,0 -1.3,0 -1.3,-1.14 l 12.4,-18.04 -11.85,-13.5 c -0.5,-0.54 -0.5,-0.64 -0.5,-0.79 0,-0.55 0.5,-0.55 1.25,-0.55 l 27.64,0 1.39,11.76 -1.24,0 c -0.9,-8.32 -4.28,-9.67 -12.1,-9.67 l -13.75,0 z"
       id="path9155" /><path
       style="fill:#000000;stroke-width:0"
       inkscape:connector-curvature="0"
       d="m 720.58,376.77 3.55,0 c 0.67,0 1.12,0 1.12,0.77 0,0.49 -0.45,0.49 -1.05,0.49 l -3.31,0 1.29,5.16 c 0.04,0.17 0.1,0.35 0.1,0.49 0,0.62 -0.48,1.11 -1.18,1.11 -0.87,0 -1.39,-0.59 -1.64,-1.5 -0.24,-0.87 0.21,0.81 -1.32,-5.26 l -3.56,0 c -0.66,0 -1.11,0 -1.11,-0.77 0,-0.49 0.41,-0.49 1.04,-0.49 l 3.31,0 -2.05,-8.23 c -0.21,-0.87 -0.53,-2.12 -0.53,-2.58 0,-2.05 1.74,-3.31 3.73,-3.31 3.87,0 6.07,4.88 6.07,5.33 0,0.46 -0.45,0.46 -0.56,0.46 -0.41,0 -0.45,-0.07 -0.73,-0.66 -0.98,-2.2 -2.75,-4.15 -4.67,-4.15 -0.73,0 -1.22,0.45 -1.22,1.71 0,0.34 0.14,1.08 0.21,1.43 z"
       id="path9157" /><path
       style="fill:#000000;stroke-width:0"
       inkscape:connector-curvature="0"
       d="m 746.49,358.04 0,0.03 0,0.03 -0.01,0.01 0,0.02 0,0.01 -0.01,0.02 0,0.02 -0.01,0.01 -0.01,0.02 -0.01,0.02 -0.01,0.03 -0.01,0.02 -0.02,0.02 -0.02,0.03 -0.02,0.03 -0.02,0.03 -0.03,0.03 -0.03,0.04 -0.01,0.02 -0.02,0.02 -0.02,0.02 -0.02,0.02 -0.02,0.02 -0.02,0.03 -0.02,0.02 -0.02,0.02 -0.02,0.03 -0.03,0.02 -0.02,0.03 -0.03,0.03 -0.02,0.03 -0.03,0.03 -0.03,0.03 -0.03,0.03 -0.03,0.03 -0.03,0.03 -0.04,0.04 -0.03,0.03 -0.04,0.04 -0.03,0.03 -0.04,0.04 -0.04,0.04 c -6.23,6.28 -7.82,15.69 -7.82,23.31 0,8.67 1.9,17.34 8.02,23.57 0.65,0.59 0.65,0.69 0.65,0.84 0,0.35 -0.2,0.5 -0.5,0.5 -0.5,0 -4.98,-3.39 -7.92,-9.72 -2.54,-5.47 -3.14,-11 -3.14,-15.19 0,-3.88 0.55,-9.91 3.29,-15.54 2.99,-6.12 7.27,-9.36 7.77,-9.36 0.3,0 0.5,0.15 0.5,0.49 z"
       id="path9159" /><path
       style="fill:#000000;stroke-width:0"
       inkscape:connector-curvature="0"
       d="m 764.09,385.74 0.2,1.3 3.39,13.55 c 0.45,1.74 0.55,1.89 2.69,1.89 l 4.78,0 c 4.13,0 6.78,-1.35 6.78,-4.78 0,-1.95 -1,-6.23 -2.94,-8.02 -2.49,-2.25 -5.48,-2.64 -7.67,-2.64 l -7.03,0 -0.2,-1.3 8.47,0 c 7.08,0 14,5.18 14,10.76 0,3.84 -3.29,7.52 -9.81,7.52 l -16.15,0 c -0.94,0 -1.49,0 -1.49,-0.95 0,-0.59 0.45,-0.59 1.45,-0.59 0.64,0 1.54,-0.05 2.14,-0.1 0.8,-0.1 1.09,-0.25 1.09,-0.8 0,-0.2 -0.04,-0.35 -0.2,-0.94 l -6.67,-26.75 c -0.5,-1.95 -0.6,-2.35 -4.53,-2.35 -0.85,0 -1.4,0 -1.4,-0.94 0,-0.6 0.6,-0.6 0.75,-0.6 l 12.75,0 c 0.35,0 1,0 1,1 0,0.54 -0.45,0.54 -1.4,0.54 -1.84,0 -3.24,0 -3.24,0.9 0,0.3 0.11,0.55 0.15,0.85 z"
       id="path9161" /><path
       style="fill:#000000;stroke-width:0"
       inkscape:connector-curvature="0"
       d="m 802.4,382.45 -0.01,0.37 0,0.39 -0.01,0.39 -0.01,0.41 -0.04,0.84 -0.06,0.88 -0.09,0.92 -0.1,0.94 -0.14,0.98 -0.16,1 -0.2,1.02 -0.23,1.04 -0.27,1.05 -0.3,1.06 -0.35,1.06 -0.39,1.07 -0.22,0.53 -0.22,0.54 -0.24,0.53 -0.25,0.53 c -2.99,6.12 -7.27,9.36 -7.77,9.36 -0.3,0 -0.5,-0.2 -0.5,-0.5 0,-0.15 0,-0.25 0.94,-1.15 4.89,-4.92 7.73,-12.85 7.73,-23.26 0,-8.52 -1.85,-17.28 -8.02,-23.56 -0.65,-0.6 -0.65,-0.69 -0.65,-0.85 0,-0.29 0.2,-0.49 0.5,-0.49 0.5,0 4.98,3.38 7.92,9.71 2.54,5.48 3.14,11.01 3.14,15.19 z"
       id="path9163" /><path
       style="fill:#000000;stroke-width:0"
       inkscape:connector-curvature="0"
       d="m 850.83,381.46 0.16,0 0.16,0 0.15,0 0.08,0.01 0.08,0 0.07,0.01 0.08,0.01 0.07,0.01 0.07,0.01 0.07,0.01 0.07,0.02 0.06,0.02 0.07,0.02 0.06,0.03 0.05,0.02 0.06,0.04 0.05,0.03 0.05,0.04 0.05,0.04 0.04,0.05 0.04,0.05 0.01,0.02 0.02,0.03 0.02,0.03 0.01,0.03 0.02,0.03 0.01,0.04 0.01,0.03 0.01,0.03 0.01,0.04 0.01,0.04 0,0.04 0.01,0.04 0,0.04 0.01,0.04 0,0.05 0,0.04 c 0,1 -0.9,1 -1.74,1 l -26.95,0 c -0.85,0 -1.75,0 -1.75,-1 0,-0.99 0.9,-0.99 1.75,-0.99 z"
       id="path9165" /><path
       style="fill:#000000;stroke-width:0"
       inkscape:connector-curvature="0"
       d="m 934.83,449.46 0.16,0 0.16,0 0.15,0 0.08,0.01 0.08,0 0.07,0.01 0.08,0.01 0.07,0.01 0.07,0.01 0.07,0.01 0.07,0.02 0.06,0.02 0.07,0.02 0.06,0.03 0.05,0.02 0.06,0.04 0.05,0.03 0.05,0.04 0.05,0.04 0.04,0.05 0.04,0.05 0.01,0.02 0.02,0.03 0.02,0.03 0.01,0.03 0.02,0.03 0.01,0.04 0.01,0.03 0.01,0.03 0.01,0.04 0.01,0.04 0,0.04 0.01,0.04 0,0.04 0.01,0.04 0,0.05 0,0.04 c 0,1 -0.9,1 -1.74,1 l -26.95,0 c -0.85,0 -1.75,0 -1.75,-1 0,-0.99 0.9,-0.99 1.75,-0.99 z"
       id="path9167" /><path
       style="fill:#000000;stroke-width:0"
       inkscape:connector-curvature="0"
       d="m 943.54,449.46 -0.25,-0.2 -0.24,-0.19 -0.24,-0.2 -0.23,-0.19 -0.22,-0.2 -0.21,-0.19 -0.21,-0.19 -0.2,-0.18 -0.19,-0.19 -0.18,-0.18 -0.17,-0.18 -0.17,-0.18 -0.16,-0.17 -0.16,-0.17 -0.14,-0.16 -0.14,-0.17 -0.14,-0.15 -0.12,-0.16 -0.12,-0.15 -0.12,-0.14 -0.1,-0.14 -0.1,-0.13 -0.1,-0.13 -0.08,-0.12 -0.09,-0.11 -0.07,-0.11 -0.07,-0.1 -0.06,-0.1 -0.06,-0.09 -0.05,-0.08 -0.05,-0.07 -0.04,-0.06 c -2.24,-3.44 -2.64,-6.58 -2.64,-6.63 0,-0.6 0.6,-0.6 1,-0.6 0.85,0 0.89,0.1 1.09,1 1.15,4.88 4.09,9.07 9.72,11.35 0.59,0.2 0.74,0.31 0.74,0.65 0,0.35 -0.29,0.5 -0.4,0.55 -2.19,0.85 -8.22,3.34 -10.1,11.71 -0.16,0.59 -0.2,0.74 -1.05,0.74 -0.4,0 -1,0 -1,-0.59 0,-0.1 0.45,-3.24 2.54,-6.58 1,-1.49 2.44,-3.24 4.58,-4.83 l -37.01,0 c -0.89,0 -1.79,0 -1.79,-1 0,-0.99 0.9,-0.99 1.79,-0.99 z"
       id="path9169" /><path
       style="fill:#000000;stroke-width:0"
       inkscape:connector-curvature="0"
       d="m 944.85,436.93 0.01,0.01 0.01,0.02 0.01,0.01 0.01,0.02 0.01,0.02 0.01,0.02 0.01,0.02 0.01,0.02 0.02,0.02 0.01,0.02 0.02,0.05 0.02,0.05 0.02,0.05 0.01,0.05 0.02,0.05 0.01,0.02 0,0.02 0.01,0.03 0.01,0.02 0,0.03 0.01,0.02 0,0.02 0.01,0.02 0,0.03 0,0.02 0,0.02 0,0.01 c 0,0.35 -0.05,0.4 -1.19,0.4 l -34.38,0 c -1.14,0 -1.19,-0.05 -1.19,-0.4 0,-0.19 0.15,-0.55 0.25,-0.69 l 16.79,-33.63 c 0.35,-0.64 0.5,-0.94 1.34,-0.94 0.85,0 1,0.3 1.35,0.94 l 0.15,3.74 -13.7,27.4 27.35,0 -13.65,-27.4 -0.15,-3.74 z"
       id="path9171" /><path
       style="fill:#000000;stroke-width:0"
       inkscape:connector-curvature="0"
       d="m 970.63,434.19 0.04,0.16 0.04,0.16 0.04,0.15 0.04,0.14 0.04,0.14 0.05,0.12 0.04,0.13 0.05,0.11 0.06,0.11 0.06,0.1 0.06,0.1 0.07,0.09 0.08,0.08 0.09,0.08 0.09,0.08 0.11,0.06 0.11,0.07 0.13,0.05 0.14,0.06 0.15,0.05 0.16,0.04 0.09,0.02 0.09,0.02 0.09,0.01 0.1,0.02 0.1,0.02 0.11,0.01 0.11,0.01 0.11,0.02 0.12,0.01 0.12,0.01 0.13,0.01 0.13,0.01 0.14,0.01 0.14,0 0.14,0.01 0.15,0 0.16,0.01 0.16,0 0.16,0 0.18,0.01 0.17,0 0.18,0 c 1.2,0 1.6,0 1.6,0.95 0,0.59 -0.55,0.59 -0.75,0.59 l -13.2,0 c -0.35,0 -1,0 -1,-0.99 0,-0.55 0.45,-0.55 1.4,-0.55 2.09,0 3.44,0 3.44,-0.95 0,-0.25 0,-0.35 -0.1,-0.8 l -6.73,-26.84 c -0.45,-1.85 -0.6,-2.35 -4.53,-2.35 -1.15,0 -1.59,0 -1.59,-0.99 0,-0.55 0.59,-0.55 0.74,-0.55 l 13.2,0 c 0.4,0 1,0 1,0.95 0,0.59 -0.4,0.59 -1.49,0.59 -0.9,0 -1.15,0 -2.15,0.1 -1.04,0.1 -1.24,0.3 -1.24,0.85 0,0.4 0.09,0.8 0.2,1.15 z"
       id="path9173" /><path
       style="fill:#000000;stroke-width:0"
       inkscape:connector-curvature="0"
       d="m 993.49,392.04 0,0.03 0,0.03 -0.01,0.01 0,0.02 0,0.01 -0.01,0.02 0,0.02 -0.01,0.01 -0.01,0.02 -0.01,0.02 -0.01,0.03 -0.01,0.02 -0.02,0.02 -0.02,0.03 -0.02,0.03 -0.02,0.03 -0.03,0.03 -0.03,0.04 -0.01,0.02 -0.02,0.02 -0.02,0.02 -0.02,0.02 -0.02,0.02 -0.02,0.03 -0.02,0.02 -0.02,0.02 -0.02,0.03 -0.03,0.02 -0.02,0.03 -0.03,0.03 -0.02,0.03 -0.03,0.03 -0.03,0.03 -0.03,0.03 -0.03,0.03 -0.03,0.03 -0.04,0.04 -0.03,0.03 -0.04,0.04 -0.03,0.03 -0.04,0.04 -0.04,0.04 c -6.23,6.28 -7.82,15.69 -7.82,23.31 0,8.67 1.9,17.34 8.02,23.57 0.65,0.59 0.65,0.69 0.65,0.84 0,0.35 -0.2,0.5 -0.5,0.5 -0.5,0 -4.98,-3.39 -7.92,-9.72 -2.54,-5.47 -3.14,-11 -3.14,-15.19 0,-3.88 0.55,-9.91 3.29,-15.54 2.99,-6.12 7.27,-9.36 7.77,-9.36 0.3,0 0.5,0.15 0.5,0.49 z"
       id="path9175" /><path
       style="fill:#000000;stroke-width:0"
       inkscape:connector-curvature="0"
       d="m 1012.1,419.74 0.2,1.3 3.4,13.55 c 0.4,1.74 0.5,1.89 2.7,1.89 l 4.8,0 c 4.1,0 6.7,-1.35 6.7,-4.78 0,-1.95 -1,-6.23 -2.9,-8.02 -2.5,-2.25 -5.5,-2.64 -7.7,-2.64 l -7,0 -0.2,-1.3 8.5,0 c 7,0 14,5.18 14,10.76 0,3.84 -3.3,7.52 -9.8,7.52 l -16.2,0 c -0.9,0 -1.5,0 -1.5,-0.95 0,-0.59 0.5,-0.59 1.5,-0.59 0.6,0 1.5,-0.05 2.1,-0.1 0.8,-0.1 1.1,-0.25 1.1,-0.8 0,-0.2 0,-0.35 -0.2,-0.94 l -6.7,-26.75 c -0.5,-1.95 -0.6,-2.35 -4.5,-2.35 -0.86,0 -1.41,0 -1.41,-0.94 0,-0.6 0.6,-0.6 0.75,-0.6 l 12.76,0 c 0.3,0 1,0 1,1 0,0.54 -0.5,0.54 -1.4,0.54 -1.9,0 -3.2,0 -3.2,0.9 0,0.3 0.1,0.55 0.1,0.85 z"
       id="path9177" /><path
       style="fill:#000000;stroke-width:0"
       inkscape:connector-curvature="0"
       d="m 1050.4,416.45 0,0.37 0,0.39 0,0.39 0,0.41 -0.1,0.84 0,0.88 -0.1,0.92 -0.1,0.94 -0.2,0.98 -0.1,1 -0.2,1.02 -0.2,1.04 -0.3,1.05 -0.3,1.06 -0.4,1.06 -0.4,1.07 -0.2,0.53 -0.2,0.54 -0.2,0.53 -0.3,0.53 c -3,6.12 -7.3,9.36 -7.8,9.36 -0.3,0 -0.5,-0.2 -0.5,-0.5 0,-0.15 0,-0.25 1,-1.15 4.9,-4.92 7.7,-12.85 7.7,-23.26 0,-8.52 -1.8,-17.28 -8,-23.56 -0.7,-0.6 -0.7,-0.69 -0.7,-0.85 0,-0.29 0.2,-0.49 0.5,-0.49 0.5,0 5,3.38 8,9.71 2.5,5.48 3.1,11.01 3.1,15.19 z"
       id="path9179" /><polyline
       style="fill:#000000;fill-rule:nonzero;stroke-width:0"
       points="874,381 1082.7,381 1082.7,383.04 874,383.04 "
       id="polyline9181" /><path
       style="fill:#000000;stroke-width:0"
       inkscape:connector-curvature="0"
       d="m 881.92,358.57 0,0.16 0,0.17 0,0.17 -0.01,0.08 0,0.08 -0.01,0.07 -0.01,0.08 -0.01,0.08 -0.01,0.07 -0.01,0.07 -0.02,0.07 -0.02,0.07 -0.02,0.06 -0.03,0.06 -0.03,0.06 -0.03,0.06 -0.03,0.05 -0.04,0.05 -0.04,0.04 -0.05,0.05 -0.05,0.04 -0.05,0.03 -0.03,0.02 -0.03,0.01 -0.03,0.01 -0.04,0.02 -0.03,0.01 -0.04,0.01 -0.03,0.01 -0.04,0.01 -0.04,0 -0.04,0.01 -0.04,0 -0.04,0.01 -0.05,0 -0.04,0 c -1,0 -1,-0.9 -1,-1.79 l 0,-46.23 c 0,-0.89 0,-1.79 1,-1.79 0.99,0 0.99,0.9 0.99,1.79 z"
       id="path9183" /><path
       style="fill:#000000;stroke-width:0"
       inkscape:connector-curvature="0"
       d="m 895.92,358.57 0,0.16 0,0.17 0,0.17 -0.01,0.08 0,0.08 -0.01,0.07 -0.01,0.08 -0.01,0.08 -0.01,0.07 -0.01,0.07 -0.02,0.07 -0.02,0.07 -0.02,0.06 -0.03,0.06 -0.03,0.06 -0.03,0.06 -0.03,0.05 -0.04,0.05 -0.04,0.04 -0.05,0.05 -0.05,0.04 -0.05,0.03 -0.03,0.02 -0.03,0.01 -0.03,0.01 -0.04,0.02 -0.03,0.01 -0.04,0.01 -0.03,0.01 -0.04,0.01 -0.04,0 -0.04,0.01 -0.04,0 -0.04,0.01 -0.05,0 -0.04,0 c -1,0 -1,-0.9 -1,-1.79 l 0,-46.23 c 0,-0.89 0,-1.79 1,-1.79 0.99,0 0.99,0.9 0.99,1.79 z"
       id="path9185" /><path
       style="fill:#000000;stroke-width:0"
       inkscape:connector-curvature="0"
       d="m 934.83,368.46 0.16,0 0.16,0 0.15,0 0.08,0.01 0.08,0 0.07,0.01 0.08,0.01 0.07,0.01 0.07,0.01 0.07,0.01 0.07,0.02 0.06,0.02 0.07,0.02 0.06,0.03 0.05,0.02 0.06,0.04 0.05,0.03 0.05,0.04 0.05,0.04 0.04,0.05 0.04,0.05 0.01,0.02 0.02,0.03 0.02,0.03 0.01,0.03 0.02,0.03 0.01,0.04 0.01,0.03 0.01,0.03 0.01,0.04 0.01,0.04 0,0.04 0.01,0.04 0,0.04 0.01,0.04 0,0.05 0,0.04 c 0,1 -0.9,1 -1.74,1 l -26.95,0 c -0.85,0 -1.75,0 -1.75,-1 0,-0.99 0.9,-0.99 1.75,-0.99 z"
       id="path9187" /><path
       style="fill:#000000;stroke-width:0"
       inkscape:connector-curvature="0"
       d="m 943.54,368.46 -0.25,-0.2 -0.24,-0.19 -0.24,-0.2 -0.23,-0.19 -0.22,-0.2 -0.21,-0.19 -0.21,-0.19 -0.2,-0.18 -0.19,-0.19 -0.18,-0.18 -0.17,-0.18 -0.17,-0.18 -0.16,-0.17 -0.16,-0.17 -0.14,-0.16 -0.14,-0.17 -0.14,-0.15 -0.12,-0.16 -0.12,-0.15 -0.12,-0.14 -0.1,-0.14 -0.1,-0.13 -0.1,-0.13 -0.08,-0.12 -0.09,-0.11 -0.07,-0.11 -0.07,-0.1 -0.06,-0.1 -0.06,-0.09 -0.05,-0.08 -0.05,-0.07 -0.04,-0.06 c -2.24,-3.44 -2.64,-6.58 -2.64,-6.63 0,-0.6 0.6,-0.6 1,-0.6 0.85,0 0.89,0.1 1.09,1 1.15,4.88 4.09,9.07 9.72,11.35 0.59,0.2 0.74,0.31 0.74,0.65 0,0.35 -0.29,0.5 -0.4,0.55 -2.19,0.85 -8.22,3.34 -10.1,11.71 -0.16,0.59 -0.2,0.74 -1.05,0.74 -0.4,0 -1,0 -1,-0.59 0,-0.1 0.45,-3.24 2.54,-6.58 1,-1.49 2.44,-3.24 4.58,-4.83 l -37.01,0 c -0.89,0 -1.79,0 -1.79,-1 0,-0.99 0.9,-0.99 1.79,-0.99 z"
       id="path9189" /><path
       style="fill:#000000;stroke-width:0"
       inkscape:connector-curvature="0"
       d="m 944.85,355.93 0.01,0.01 0.01,0.02 0.01,0.01 0.01,0.02 0.01,0.02 0.01,0.02 0.01,0.02 0.01,0.02 0.02,0.02 0.01,0.02 0.02,0.05 0.02,0.05 0.02,0.05 0.01,0.05 0.02,0.05 0.01,0.02 0,0.02 0.01,0.03 0.01,0.02 0,0.03 0.01,0.02 0,0.02 0.01,0.02 0,0.03 0,0.02 0,0.02 0,0.01 c 0,0.35 -0.05,0.4 -1.19,0.4 l -34.38,0 c -1.14,0 -1.19,-0.05 -1.19,-0.4 0,-0.19 0.15,-0.55 0.25,-0.69 l 16.79,-33.63 c 0.35,-0.64 0.5,-0.94 1.34,-0.94 0.85,0 1,0.3 1.35,0.94 l 0.15,3.74 -13.7,27.4 27.35,0 -13.65,-27.4 -0.15,-3.74 z"
       id="path9191" /><path
       style="fill:#000000;stroke-width:0"
       inkscape:connector-curvature="0"
       d="m 970.63,353.19 0.04,0.16 0.04,0.16 0.04,0.15 0.04,0.14 0.04,0.14 0.05,0.12 0.04,0.13 0.05,0.11 0.06,0.11 0.06,0.1 0.06,0.1 0.07,0.09 0.08,0.08 0.09,0.08 0.09,0.08 0.11,0.06 0.11,0.07 0.13,0.05 0.14,0.06 0.15,0.05 0.16,0.04 0.09,0.02 0.09,0.02 0.09,0.01 0.1,0.02 0.1,0.02 0.11,0.01 0.11,0.01 0.11,0.02 0.12,0.01 0.12,0.01 0.13,0.01 0.13,0.01 0.14,0.01 0.14,0 0.14,0.01 0.15,0 0.16,0.01 0.16,0 0.16,0 0.18,0.01 0.17,0 0.18,0 c 1.2,0 1.6,0 1.6,0.95 0,0.59 -0.55,0.59 -0.75,0.59 l -13.2,0 c -0.35,0 -1,0 -1,-0.99 0,-0.55 0.45,-0.55 1.4,-0.55 2.09,0 3.44,0 3.44,-0.95 0,-0.25 0,-0.35 -0.1,-0.8 l -6.73,-26.84 c -0.45,-1.85 -0.6,-2.35 -4.53,-2.35 -1.15,0 -1.59,0 -1.59,-0.99 0,-0.55 0.59,-0.55 0.74,-0.55 l 13.2,0 c 0.4,0 1,0 1,0.95 0,0.59 -0.4,0.59 -1.49,0.59 -0.9,0 -1.15,0 -2.15,0.1 -1.04,0.1 -1.24,0.3 -1.24,0.85 0,0.4 0.09,0.8 0.2,1.15 z"
       id="path9193" /><path
       style="fill:#000000;stroke-width:0"
       inkscape:connector-curvature="0"
       d="m 993.49,311.04 0,0.03 0,0.03 -0.01,0.01 0,0.02 0,0.01 -0.01,0.02 0,0.02 -0.01,0.01 -0.01,0.02 -0.01,0.02 -0.01,0.03 -0.01,0.02 -0.02,0.02 -0.02,0.03 -0.02,0.03 -0.02,0.03 -0.03,0.03 -0.03,0.04 -0.01,0.02 -0.02,0.02 -0.02,0.02 -0.02,0.02 -0.02,0.02 -0.02,0.03 -0.02,0.02 -0.02,0.02 -0.02,0.03 -0.03,0.02 -0.02,0.03 -0.03,0.03 -0.02,0.03 -0.03,0.03 -0.03,0.03 -0.03,0.03 -0.03,0.03 -0.03,0.03 -0.04,0.04 -0.03,0.03 -0.04,0.04 -0.03,0.03 -0.04,0.04 -0.04,0.04 c -6.23,6.28 -7.82,15.69 -7.82,23.31 0,8.67 1.9,17.34 8.02,23.57 0.65,0.59 0.65,0.69 0.65,0.84 0,0.35 -0.2,0.5 -0.5,0.5 -0.5,0 -4.98,-3.39 -7.92,-9.72 -2.54,-5.47 -3.14,-11 -3.14,-15.19 0,-3.88 0.55,-9.91 3.29,-15.54 2.99,-6.12 7.27,-9.36 7.77,-9.36 0.3,0 0.5,0.15 0.5,0.49 z"
       id="path9195" /><path
       style="fill:#000000;stroke-width:0"
       inkscape:connector-curvature="0"
       d="m 1012.1,338.74 0.2,1.3 3.4,13.55 c 0.4,1.74 0.5,1.89 2.7,1.89 l 4.8,0 c 4.1,0 6.7,-1.35 6.7,-4.78 0,-1.95 -1,-6.23 -2.9,-8.02 -2.5,-2.25 -5.5,-2.64 -7.7,-2.64 l -7,0 -0.2,-1.3 8.5,0 c 7,0 14,5.18 14,10.76 0,3.84 -3.3,7.52 -9.8,7.52 l -16.2,0 c -0.9,0 -1.5,0 -1.5,-0.95 0,-0.59 0.5,-0.59 1.5,-0.59 0.6,0 1.5,-0.05 2.1,-0.1 0.8,-0.1 1.1,-0.25 1.1,-0.8 0,-0.2 0,-0.35 -0.2,-0.94 l -6.7,-26.75 c -0.5,-1.95 -0.6,-2.35 -4.5,-2.35 -0.86,0 -1.41,0 -1.41,-0.94 0,-0.6 0.6,-0.6 0.75,-0.6 l 12.76,0 c 0.3,0 1,0 1,1 0,0.54 -0.5,0.54 -1.4,0.54 -1.9,0 -3.2,0 -3.2,0.9 0,0.3 0.1,0.55 0.1,0.85 z"
       id="path9197" /><path
       style="fill:#000000;stroke-width:0"
       inkscape:connector-curvature="0"
       d="m 1050.4,335.45 0,0.37 0,0.39 0,0.39 0,0.41 -0.1,0.84 0,0.88 -0.1,0.92 -0.1,0.94 -0.2,0.98 -0.1,1 -0.2,1.02 -0.2,1.04 -0.3,1.05 -0.3,1.06 -0.4,1.06 -0.4,1.07 -0.2,0.53 -0.2,0.54 -0.2,0.53 -0.3,0.53 c -3,6.12 -7.3,9.36 -7.8,9.36 -0.3,0 -0.5,-0.2 -0.5,-0.5 0,-0.15 0,-0.25 1,-1.15 4.9,-4.92 7.7,-12.85 7.7,-23.26 0,-8.52 -1.8,-17.28 -8,-23.56 -0.7,-0.6 -0.7,-0.69 -0.7,-0.85 0,-0.29 0.2,-0.49 0.5,-0.49 0.5,0 5,3.38 8,9.71 2.5,5.48 3.1,11.01 3.1,15.19 z"
       id="path9199" /><path
       style="fill:#000000;stroke-width:0"
       inkscape:connector-curvature="0"
       d="m 1062.9,358.57 0,0.16 0,0.17 0,0.17 0,0.08 0,0.08 0,0.07 0,0.08 0,0.08 0,0.07 0,0.07 -0.1,0.07 0,0.07 0,0.06 0,0.06 -0.1,0.06 0,0.06 0,0.05 -0.1,0.05 0,0.04 0,0.05 -0.1,0.04 -0.1,0.03 0,0.02 0,0.01 0,0.01 -0.1,0.02 0,0.01 0,0.01 -0.1,0.01 0,0.01 -0.1,0 0,0.01 0,0 -0.1,0.01 0,0 -0.1,0 c -1,0 -1,-0.9 -1,-1.79 l 0,-46.23 c 0,-0.89 0,-1.79 1,-1.79 1,0 1,0.9 1,1.79 z"
       id="path9201" /><path
       style="fill:#000000;stroke-width:0"
       inkscape:connector-curvature="0"
       d="m 1076.9,358.57 0,0.16 0,0.17 0,0.17 0,0.08 0,0.08 0,0.07 0,0.08 0,0.08 0,0.07 0,0.07 -0.1,0.07 0,0.07 0,0.06 0,0.06 -0.1,0.06 0,0.06 0,0.05 -0.1,0.05 0,0.04 0,0.05 -0.1,0.04 -0.1,0.03 0,0.02 0,0.01 0,0.01 -0.1,0.02 0,0.01 0,0.01 -0.1,0.01 0,0.01 -0.1,0 0,0.01 0,0 -0.1,0.01 0,0 -0.1,0 c -1,0 -1,-0.9 -1,-1.79 l 0,-46.23 c 0,-0.89 0,-1.79 1,-1.79 1,0 1,0.9 1,1.79 z"
       id="path9203" /><path
       style="fill:#000000;stroke-width:0"
       inkscape:connector-curvature="0"
       d="m 1127.8,379.96 -2.3,0 c -0.1,-0.69 -0.5,-2.79 -0.9,-3.68 -0.2,-0.65 -0.4,-1.15 -3.4,-1.15 l -3.6,0 c 1,2.24 2.4,3.99 4,5.93 2.8,3.58 5.6,7.17 5.6,11.71 0,5.37 -4.5,11.95 -17.5,11.95 -13,0 -17.5,-6.58 -17.5,-11.95 0,-4.59 2.8,-8.18 5.6,-11.61 1.7,-2.24 3,-3.94 4,-6.03 l -3.6,0 c -3,0 -3.2,0.5 -3.4,1 -0.4,0.89 -0.8,3.33 -0.9,3.83 l -2.4,0 1.9,-9.96 9.5,0 c 1.1,0 1.6,0 1.6,1.34 0,3.49 -1.5,8.07 -2.3,10.27 -1.2,3.93 -2.4,7.52 -2.4,11.16 0,1.94 0.3,5.47 2.7,7.71 2.4,2.2 5.7,2.45 7.2,2.45 2.6,0 5.4,-0.75 7.2,-2.54 1.5,-1.45 2.6,-3.64 2.6,-7.62 0,-3.49 -1,-6.88 -2.3,-10.57 -0.9,-2.99 -2.4,-7.37 -2.4,-10.86 0,-1.34 0.5,-1.34 1.6,-1.34 l 9.6,0 z"
       id="path9205" /><path
       style="fill:#000000;stroke-width:0"
       inkscape:connector-curvature="0"
       d="m 1150.6,382.45 0,0.14 -0.1,0.13 0,0.13 0,0.13 0,0.13 -0.1,0.12 0,0.13 0,0.12 -0.1,0.11 -0.1,0.12 0,0.11 -0.1,0.1 -0.1,0.11 0,0.1 -0.1,0.09 -0.1,0.1 -0.1,0.08 -0.1,0.09 -0.1,0.08 -0.1,0.07 -0.1,0.07 -0.1,0.06 -0.1,0.06 -0.2,0.05 -0.1,0.05 -0.1,0.04 -0.1,0.04 -0.1,0.03 -0.2,0.02 -0.1,0.02 -0.1,0.01 -0.2,0 c -1.4,0 -2.6,-1.19 -2.6,-2.64 0,-1.44 1.2,-2.64 2.6,-2.64 1.5,0 2.7,1.2 2.7,2.64 z"
       id="path9207" /><path
       style="fill:#000000;stroke-width:0"
       inkscape:connector-curvature="0"
       d="m 1204.8,379.96 -2.3,0 c -0.1,-0.69 -0.5,-2.79 -0.9,-3.68 -0.2,-0.65 -0.4,-1.15 -3.4,-1.15 l -3.6,0 c 1,2.24 2.4,3.99 4,5.93 2.8,3.58 5.6,7.17 5.6,11.71 0,5.37 -4.5,11.95 -17.5,11.95 -13,0 -17.5,-6.58 -17.5,-11.95 0,-4.59 2.8,-8.18 5.6,-11.61 1.7,-2.24 3,-3.94 4,-6.03 l -3.6,0 c -3,0 -3.2,0.5 -3.4,1 -0.4,0.89 -0.8,3.33 -0.9,3.83 l -2.4,0 1.9,-9.96 9.5,0 c 1.1,0 1.6,0 1.6,1.34 0,3.49 -1.5,8.07 -2.3,10.27 -1.2,3.93 -2.4,7.52 -2.4,11.16 0,1.94 0.3,5.47 2.7,7.71 2.4,2.2 5.7,2.45 7.2,2.45 2.6,0 5.4,-0.75 7.2,-2.54 1.5,-1.45 2.6,-3.64 2.6,-7.62 0,-3.49 -1,-6.88 -2.3,-10.57 -0.9,-2.99 -2.4,-7.37 -2.4,-10.86 0,-1.34 0.5,-1.34 1.6,-1.34 l 9.6,0 z"
       id="path9209" /><path
       style="fill:#000000;stroke-width:0"
       inkscape:connector-curvature="0"
       d="m 1227.6,374.09 0,0.41 0,0.43 0,0.44 0,0.46 0,0.46 -0.1,0.48 0,0.48 -0.1,0.49 0,0.49 -0.1,0.49 -0.1,0.5 -0.2,0.48 -0.1,0.49 -0.2,0.47 -0.2,0.47 -0.2,0.46 -0.2,0.45 -0.3,0.43 -0.3,0.41 -0.3,0.4 -0.4,0.37 -0.4,0.36 -0.4,0.32 -0.3,0.16 -0.2,0.15 -0.3,0.14 -0.2,0.13 -0.3,0.13 -0.3,0.11 -0.2,0.12 -0.3,0.1 -0.4,0.09 -0.3,0.08 -0.3,0.08 -0.3,0.07 -0.4,0.05 -0.4,0.05 -0.3,0.04 -0.4,0.02 -0.4,0.02 -0.4,0.01 0,-1.61 c 1.3,0 3.6,-0.56 4.1,-2.97 0.4,-1.63 0.4,-4.53 0.4,-6.76 0,-2.44 0,-4.99 -0.4,-6.94 -0.4,-2.82 -2.8,-3.41 -4.1,-3.41 l 0,0 c -1.1,0 -2.2,0.38 -3,1.11 -1,0.8 -1.6,1.32 -1.6,9.24 0,2.41 0,5.16 0.4,6.84 0.6,2.26 2.7,2.89 4.2,2.89 l 0,1.61 c -9,0 -9.4,-7.54 -9.4,-11.79 0,-4.39 0.5,-11.51 9.4,-11.51 8.8,0 9.3,7.08 9.3,11.51 z"
       id="path9211" /></g><g
     id="g182"
     transform="matrix(1.25,0,0,1.25,-109.83116,42.723774)"><path
       d="m 97.504,512.707 c 5.684,0 572.672,-0.711 572.672,-0.711"
       style="fill:none;stroke:#000000;stroke-width:2.40914798;stroke-linecap:butt;stroke-linejoin:round;stroke-miterlimit:4;stroke-dasharray:none;stroke-opacity:1;marker-end:url(#marker11173)"
       id="path184"
       inkscape:connector-curvature="0" /></g><g
     id="g11439"
     transform="translate(461.19579,473.92391)"><g
       word-spacing="normal"
       letter-spacing="normal"
       font-size-adjust="none"
       font-stretch="normal"
       font-weight="normal"
       font-variant="normal"
       font-style="normal"
       stroke-miterlimit="10.433"
       xml:space="preserve"
       transform="matrix(1.0030187,0,0,-1.0030187,-175.52827,632.88044)"
       id="content-8"
       style="font-style:normal;font-variant:normal;font-weight:normal;font-stretch:normal;letter-spacing:normal;word-spacing:normal;text-anchor:start;fill:none;fill-opacity:1;fill-rule:evenodd;stroke:#000000;stroke-linecap:butt;stroke-linejoin:miter;stroke-miterlimit:10.43299961;stroke-dasharray:none;stroke-dashoffset:0;stroke-opacity:1"><path
         id="path11442"
         d="m 474.63,436.19 0.04,0.16 0.04,0.16 0.04,0.15 0.04,0.14 0.04,0.14 0.05,0.12 0.04,0.13 0.05,0.11 0.06,0.11 0.06,0.1 0.06,0.1 0.07,0.09 0.08,0.08 0.09,0.08 0.09,0.08 0.11,0.06 0.11,0.07 0.13,0.05 0.14,0.06 0.15,0.05 0.16,0.04 0.09,0.02 0.09,0.02 0.09,0.01 0.1,0.02 0.1,0.02 0.11,0.01 0.11,0.01 0.11,0.02 0.12,0.01 0.12,0.01 0.13,0.01 0.13,0.01 0.14,0.01 0.14,0 0.14,0.01 0.15,0 0.16,0.01 0.16,0 0.16,0 0.18,0.01 0.17,0 0.18,0 c 1.2,0 1.6,0 1.6,0.95 0,0.59 -0.55,0.59 -0.75,0.59 l -13.2,0 c -0.35,0 -1,0 -1,-0.99 0,-0.55 0.45,-0.55 1.4,-0.55 2.09,0 3.43,0 3.43,-0.95 0,-0.25 0,-0.35 -0.09,-0.8 l -6.73,-26.84 c -0.45,-1.85 -0.6,-2.35 -4.53,-2.35 -1.15,0 -1.59,0 -1.59,-0.99 0,-0.55 0.59,-0.55 0.74,-0.55 l 13.2,0 c 0.4,0 1,0 1,0.95 0,0.59 -0.4,0.59 -1.5,0.59 -0.89,0 -1.14,0 -2.14,0.1 -1.04,0.1 -1.24,0.3 -1.24,0.85 0,0.4 0.1,0.8 0.2,1.15 z"
         inkscape:connector-curvature="0"
         style="fill:#000000;stroke-width:0" /></g></g></svg>