<?xml version="1.0" encoding="UTF-8" standalone="no"?>
<svg
   xmlns:dc="http://purl.org/dc/elements/1.1/"
   xmlns:cc="http://creativecommons.org/ns#"
   xmlns:rdf="http://www.w3.org/1999/02/22-rdf-syntax-ns#"
   xmlns:svg="http://www.w3.org/2000/svg"
   xmlns="http://www.w3.org/2000/svg"
   xmlns:sodipodi="http://sodipodi.sourceforge.net/DTD/sodipodi-0.dtd"
   xmlns:inkscape="http://www.inkscape.org/namespaces/inkscape"
   viewBox="0 0 358.28168 225.41422"
   height="225.41422"
   width="358.28168"
   xml:space="preserve"
   version="1.1"
   id="svg2"
   inkscape:version="0.91 r13725"
   sodipodi:docname="fixed_scheme.svg"><sodipodi:namedview
     pagecolor="#ffffff"
     bordercolor="#666666"
     borderopacity="1"
     objecttolerance="10"
     gridtolerance="10"
     guidetolerance="10"
     inkscape:pageopacity="0"
     inkscape:pageshadow="2"
     inkscape:window-width="1920"
     inkscape:window-height="1080"
     id="namedview144"
     showgrid="false"
     fit-margin-top="0"
     fit-margin-left="0"
     fit-margin-right="0"
     fit-margin-bottom="0"
     inkscape:zoom="1.2493652"
     inkscape:cx="188.74604"
     inkscape:cy="83.63541"
     inkscape:window-x="0"
     inkscape:window-y="0"
     inkscape:window-maximized="0"
     inkscape:current-layer="g12" /><metadata
     id="metadata8"><rdf:RDF><cc:Work
         rdf:about=""><dc:format>image/svg+xml</dc:format><dc:type
           rdf:resource="http://purl.org/dc/dcmitype/StillImage" /><dc:title /></cc:Work></rdf:RDF></metadata><defs
     id="defs6" /><g
     transform="matrix(1.25,0,0,-1.25,-404.75565,227.56543)"
     id="g10"><g
       id="g12"><g
         transform="matrix(0.95491506,0,0,-0.57074621,25.380476,157.13619)"
         id="g14"><path
           id="path16"
           style="fill:none;stroke:#32cd32;stroke-width:4.87639189;stroke-linecap:square;stroke-linejoin:miter;stroke-miterlimit:4;stroke-dasharray:none;stroke-opacity:1"
           d="m 459.824,19.457 121.031,0 c 5.7,0 10.286,3.371 10.286,7.555 l 0,65.703 c 0,4.183 -4.586,7.555 -10.286,7.555 l -121.031,0 c -5.699,0 -10.285,-3.372 -10.285,-7.555 l 0,-65.703 c 0,-4.184 4.586,-7.555 10.285,-7.555 z"
           inkscape:connector-curvature="0" /></g><text
         id="text158"
         style="font-variant:normal;font-weight:bold;font-size:13px;font-family:'DejaVu Sans';-inkscape-font-specification:DejaVuSans-Bold;writing-mode:lr-tb;fill:#0000ff;fill-opacity:1;fill-rule:nonzero;stroke:none"
         transform="matrix(1,0,0,-1,347.70403,95.620148)"><tspan
           id="tspan160"
           y="0"
           x="0 10.049 19.344 23.790001 32.721001 37.206001 46.449001">Adjoint</tspan><tspan
           id="tspan162"
           y="16.25"
           x="6.5507779 14.285778 21.981777 30.912779 37.360779">score</tspan></text>
<g
         transform="matrix(1,0,0,-1,0,180.27153)"
         id="g196"><path
           id="path198"
           style="fill:#0000ff;fill-opacity:1;fill-rule:nonzero;stroke:#000000;stroke-width:3.91039991;stroke-linecap:round;stroke-linejoin:bevel;stroke-miterlimit:4;stroke-dasharray:none;stroke-opacity:1"
           d="m 386.008,55.984 c 0,6.696 -5.61,12.121 -12.528,12.121 -6.918,0 -12.523,-5.425 -12.523,-12.121 0,-6.695 5.605,-12.121 12.523,-12.121 6.918,0 12.528,5.426 12.528,12.121 z"
           inkscape:connector-curvature="0" /></g><text
         id="text200"
         style="font-variant:normal;font-weight:bold;font-size:16px;font-family:'DejaVu Sans';-inkscape-font-specification:DejaVuSans-Bold;writing-mode:lr-tb;fill:#32cd32;fill-opacity:1;fill-rule:nonzero;stroke:none"
         transform="scale(1,-1)"
         x="467.80478"
         y="-117.39381"><tspan
           id="tspan202"
           y="-117.39381"
           x="467.80478 478.73279 489.0528 500.4928 505.96478 516.95679 522.47681 530.12476 540.90875 548.55676 554.07678 565.06879">Exploitation</tspan></text>
<g
         transform="matrix(1,0,0,-1,0,180.27153)"
         id="g212"><path
           id="path214"
           style="fill:none;stroke:#000000;stroke-width:1.44000006;stroke-linecap:butt;stroke-linejoin:miter;stroke-miterlimit:4;stroke-dasharray:none;stroke-opacity:1"
           d="m 402.328,55.707 c 5.082,0.57 30.836,-0.234 30.836,-0.234"
           inkscape:connector-curvature="0" /></g><g
         transform="matrix(-1,-0.0313802,-0.0313802,1,0,180.27153)"
         id="g216"><path
           id="path218"
           style="fill:#000000;fill-opacity:1;fill-rule:evenodd;stroke:#000000;stroke-width:0.71964598;stroke-linecap:butt;stroke-linejoin:miter;stroke-miterlimit:4;stroke-dasharray:none;stroke-opacity:1"
           d="m -425.241,-68.996 2.879,-2.879 -10.074,2.879 10.073,2.879 -2.878,-2.879 z"
           inkscape:connector-curvature="0" /></g><text
         id="text236"
         style="font-variant:normal;font-weight:bold;font-size:13px;font-family:'DejaVu Sans';-inkscape-font-specification:DejaVuSans-Bold;writing-mode:lr-tb;fill:#030000;fill-opacity:1;fill-rule:nonzero;stroke:none"
         transform="scale(1,-1)"
         x="471.67209"
         y="-38.605572"><tspan
           id="tspan238"
           y="-38.605572"
           x="471.67209 480.55109">ET</tspan></text>
<g
         transform="matrix(1,0,0,-1,-5.1226014,205.24421)"
         id="g240"><path
           id="path242"
           style="fill:none;stroke:#000000;stroke-width:1.91999996;stroke-linecap:butt;stroke-linejoin:miter;stroke-miterlimit:4;stroke-dasharray:none;stroke-opacity:1"
           d="m 458.105,160.074 c 0.114,7.942 4.247,10.582 8.375,12.84 6.063,3.316 13.403,3.938 18.516,3.981 5.738,0.043 14.434,0.429 20.852,-3.977 3.195,-2.191 7.269,-3.82 7.269,-10.738 0.215,-5.668 0.68,-7.504 -2.793,-10.078 -5.59,-4.145 -14.496,-3.071 -23.488,-3.098 -7.738,-0.024 -17.156,-0.641 -22.281,1.394 -7.524,2.993 -6.371,6.086 -6.45,9.676 z"
           inkscape:connector-curvature="0" /></g><text
         id="text244"
         style="font-variant:normal;font-weight:bold;font-size:13px;font-family:'DejaVu Sans';-inkscape-font-specification:DejaVuSans-Bold;writing-mode:lr-tb;fill:#030000;fill-opacity:1;fill-rule:nonzero;stroke:none"
         transform="scale(1,-1)"
         x="541.98944"
         y="-37.610298"><tspan
           id="tspan246"
           y="-37.610298"
           x="541.98944 552.03845 564.97345">AMS</tspan></text>
<g
         transform="matrix(1,0,0,-1,-5.1226014,205.24421)"
         id="g248"><path
           id="path250"
           style="fill:none;stroke:#000000;stroke-width:1.91999996;stroke-linecap:butt;stroke-linejoin:miter;stroke-miterlimit:4;stroke-dasharray:none;stroke-opacity:1"
           d="m 535.309,160.5 c 0.113,7.941 4.246,10.578 8.375,12.836 6.062,3.316 13.398,3.941 18.511,3.98 5.739,0.047 14.434,0.434 20.856,-3.972 3.191,-2.192 7.269,-3.824 7.269,-10.742 0.211,-5.664 0.676,-7.504 -2.797,-10.079 -5.589,-4.144 -14.496,-3.07 -23.488,-3.093 -7.734,-0.024 -17.156,-0.645 -22.277,1.394 -7.528,2.992 -6.371,6.086 -6.449,9.676 z"
           inkscape:connector-curvature="0" /></g><g
         transform="matrix(1,0,0,-1,-5.1226014,205.24421)"
         id="g252"><path
           id="path254"
           style="fill:none;stroke:#000000;stroke-width:1.44000006;stroke-linecap:butt;stroke-linejoin:miter;stroke-miterlimit:4;stroke-dasharray:none;stroke-opacity:1"
           d="m 487.461,138.84 c -0.133,-3.274 0.059,-20.082 0.059,-20.082"
           inkscape:connector-curvature="0" /></g><g
         transform="matrix(-0.0112295,-1,-1,0.0112295,-5.1226014,205.24421)"
         id="g256"><path
           id="path258"
           style="fill:#000000;fill-opacity:1;fill-rule:evenodd;stroke:#000000;stroke-width:0.71995503;stroke-linecap:butt;stroke-linejoin:miter;stroke-miterlimit:4;stroke-dasharray:none;stroke-opacity:1"
           d="m 119.031,-488.79 2.877,-2.88 -10.08,2.879 10.083,2.879 -2.88,-2.878 z"
           inkscape:connector-curvature="0" /></g><g
         transform="matrix(1,0,0,-1,-5.1226014,205.24421)"
         id="g260"><path
           id="path262"
           style="fill:none;stroke:#000000;stroke-width:1.44000006;stroke-linecap:butt;stroke-linejoin:miter;stroke-miterlimit:4;stroke-dasharray:none;stroke-opacity:1"
           d="m 563.855,138.031 c -0.128,-3.273 0.059,-20.082 0.059,-20.082"
           inkscape:connector-curvature="0" /></g><g
         transform="matrix(-0.0112295,-1,-1,0.0112295,-5.1226014,205.24421)"
         id="g264"><path
           id="path266"
           style="fill:#000000;fill-opacity:1;fill-rule:evenodd;stroke:#000000;stroke-width:0.71995503;stroke-linecap:butt;stroke-linejoin:miter;stroke-miterlimit:4;stroke-dasharray:none;stroke-opacity:1"
           d="m 117.364,-565.17 2.878,-2.876 -10.077,2.879 10.079,2.879 -2.88,-2.882 z"
           inkscape:connector-curvature="0" /></g></g></g></svg>