<?xml version="1.0" encoding="UTF-8" standalone="no"?>
<!-- Created with Inkscape (http://www.inkscape.org/) -->

<svg
   xmlns:dc="http://purl.org/dc/elements/1.1/"
   xmlns:cc="http://creativecommons.org/ns#"
   xmlns:rdf="http://www.w3.org/1999/02/22-rdf-syntax-ns#"
   xmlns:svg="http://www.w3.org/2000/svg"
   xmlns="http://www.w3.org/2000/svg"
   xmlns:sodipodi="http://sodipodi.sourceforge.net/DTD/sodipodi-0.dtd"
   xmlns:inkscape="http://www.inkscape.org/namespaces/inkscape"
   width="297mm"
   height="210mm"
   viewBox="0 0 1052.3622 744.09448"
   id="svg2"
   version="1.1"
   inkscape:version="0.91 r13725"
   sodipodi:docname="inipond_mesh.svg">
  <defs
     id="defs4" />
  <sodipodi:namedview
     id="base"
     pagecolor="#ffffff"
     bordercolor="#666666"
     borderopacity="1.0"
     inkscape:pageopacity="0.0"
     inkscape:pageshadow="2"
     inkscape:zoom="0.49497475"
     inkscape:cx="-19.386051"
     inkscape:cy="165.01886"
     inkscape:document-units="px"
     inkscape:current-layer="layer1"
     showgrid="true"
     inkscape:snap-grids="false"
     inkscape:snap-to-guides="false"
     inkscape:window-width="1920"
     inkscape:window-height="1080"
     inkscape:window-x="0"
     inkscape:window-y="0"
     inkscape:window-maximized="0">
    <inkscape:grid
       type="xygrid"
       id="grid4156"
       spacingx="100"
       spacingy="100" />
  </sodipodi:namedview>
  <metadata
     id="metadata7">
    <rdf:RDF>
      <cc:Work
         rdf:about="">
        <dc:format>image/svg+xml</dc:format>
        <dc:type
           rdf:resource="http://purl.org/dc/dcmitype/StillImage" />
        <dc:title></dc:title>
      </cc:Work>
    </rdf:RDF>
  </metadata>
  <g
     inkscape:label="Calque 1"
     inkscape:groupmode="layer"
     id="layer1"
     transform="translate(0,-308.26772)">
    <rect
       style="opacity:1;fill:none;fill-opacity:1;stroke:#000000;stroke-width:4;stroke-linecap:butt;stroke-linejoin:miter;stroke-miterlimit:4;stroke-dasharray:none;stroke-dashoffset:0;stroke-opacity:1"
       id="rect4136"
       width="497.65253"
       height="498.06558"
       x="-296.56876"
       y="453.10513" />
    <path
       style="fill:none;fill-rule:evenodd;stroke:#000000;stroke-width:4;stroke-linecap:butt;stroke-linejoin:miter;stroke-miterlimit:4;stroke-dasharray:none;stroke-opacity:1"
       d="m -198.03046,452.18363 0,500"
       id="path4269"
       inkscape:connector-curvature="0" />
    <path
       style="fill:none;fill-rule:evenodd;stroke:#000000;stroke-width:4;stroke-linecap:butt;stroke-linejoin:miter;stroke-miterlimit:4;stroke-dasharray:none;stroke-opacity:1"
       d="m -98.030454,452.18363 0,500"
       id="path4269-6"
       inkscape:connector-curvature="0" />
    <path
       style="fill:none;fill-rule:evenodd;stroke:#000000;stroke-width:4;stroke-linecap:butt;stroke-linejoin:miter;stroke-miterlimit:4;stroke-dasharray:none;stroke-opacity:1"
       d="m 1.9695465,452.18363 0,500"
       id="path4269-0"
       inkscape:connector-curvature="0" />
    <path
       style="fill:none;fill-rule:evenodd;stroke:#000000;stroke-width:4;stroke-linecap:butt;stroke-linejoin:miter;stroke-miterlimit:4;stroke-dasharray:none;stroke-opacity:1"
       d="m 101.96954,452.18363 0,500"
       id="path4269-62"
       inkscape:connector-curvature="0" />
    <path
       style="fill:none;fill-rule:evenodd;stroke:#000000;stroke-width:4;stroke-linecap:butt;stroke-linejoin:miter;stroke-miterlimit:4;stroke-dasharray:none;stroke-opacity:1"
       d="m -298.03047,552.18363 500,0"
       id="path4298"
       inkscape:connector-curvature="0" />
    <path
       style="fill:none;fill-rule:evenodd;stroke:#000000;stroke-width:4;stroke-linecap:butt;stroke-linejoin:miter;stroke-miterlimit:4;stroke-dasharray:none;stroke-opacity:1"
       d="m -298.03047,652.18363 500,0"
       id="path4298-6"
       inkscape:connector-curvature="0" />
    <path
       style="fill:none;fill-rule:evenodd;stroke:#000000;stroke-width:4;stroke-linecap:butt;stroke-linejoin:miter;stroke-miterlimit:4;stroke-dasharray:none;stroke-opacity:1"
       d="m -298.03047,752.18363 500,0"
       id="path4298-1"
       inkscape:connector-curvature="0" />
    <path
       style="fill:none;fill-rule:evenodd;stroke:#000000;stroke-width:4;stroke-linecap:butt;stroke-linejoin:miter;stroke-miterlimit:4;stroke-dasharray:none;stroke-opacity:1"
       d="m -298.03047,852.18363 500,0"
       id="path4298-8"
       inkscape:connector-curvature="0" />
    <rect
       style="opacity:1;fill:none;fill-opacity:1;stroke:#cbcbcb;stroke-width:4;stroke-linecap:butt;stroke-linejoin:miter;stroke-miterlimit:4;stroke-dasharray:none;stroke-dashoffset:0;stroke-opacity:1"
       id="rect4136-7"
       width="497.65253"
       height="498.06558"
       x="301.93115"
       y="453.99274" />
    <path
       style="fill:none;fill-rule:evenodd;stroke:#cbcbcb;stroke-width:4;stroke-linecap:butt;stroke-linejoin:miter;stroke-miterlimit:4;stroke-dasharray:none;stroke-opacity:1"
       d="m 400.4695,453.07122 0,500"
       id="path4269-9"
       inkscape:connector-curvature="0" />
    <path
       style="fill:none;fill-rule:evenodd;stroke:#cbcbcb;stroke-width:4;stroke-linecap:butt;stroke-linejoin:miter;stroke-miterlimit:4;stroke-dasharray:none;stroke-opacity:1"
       d="m 500.4695,453.07122 0,500"
       id="path4269-6-2"
       inkscape:connector-curvature="0" />
    <path
       style="fill:none;fill-rule:evenodd;stroke:#cbcbcb;stroke-width:4;stroke-linecap:butt;stroke-linejoin:miter;stroke-miterlimit:4;stroke-dasharray:none;stroke-opacity:1"
       d="m 600.46945,453.07122 0,500"
       id="path4269-0-0"
       inkscape:connector-curvature="0" />
    <path
       style="fill:none;fill-rule:evenodd;stroke:#cbcbcb;stroke-width:4;stroke-linecap:butt;stroke-linejoin:miter;stroke-miterlimit:4;stroke-dasharray:none;stroke-opacity:1"
       d="m 700.46945,453.07122 0,500"
       id="path4269-62-2"
       inkscape:connector-curvature="0" />
    <path
       style="fill:none;fill-rule:evenodd;stroke:#cbcbcb;stroke-width:4;stroke-linecap:butt;stroke-linejoin:miter;stroke-miterlimit:4;stroke-dasharray:none;stroke-opacity:1"
       d="m 300.46947,553.07122 499.99998,0"
       id="path4298-3"
       inkscape:connector-curvature="0" />
    <path
       style="fill:none;fill-rule:evenodd;stroke:#cbcbcb;stroke-width:4;stroke-linecap:butt;stroke-linejoin:miter;stroke-miterlimit:4;stroke-dasharray:none;stroke-opacity:1"
       d="m 300.46947,653.07122 499.99998,0"
       id="path4298-6-7"
       inkscape:connector-curvature="0" />
    <path
       style="fill:none;fill-rule:evenodd;stroke:#cbcbcb;stroke-width:4;stroke-linecap:butt;stroke-linejoin:miter;stroke-miterlimit:4;stroke-dasharray:none;stroke-opacity:1"
       d="m 300.46947,753.07122 499.99998,0"
       id="path4298-1-5"
       inkscape:connector-curvature="0" />
    <path
       style="fill:none;fill-rule:evenodd;stroke:#cbcbcb;stroke-width:4;stroke-linecap:butt;stroke-linejoin:miter;stroke-miterlimit:4;stroke-dasharray:none;stroke-opacity:1"
       d="m 300.46947,853.07122 499.99998,0"
       id="path4298-8-9"
       inkscape:connector-curvature="0" />
    <path
       style="fill:none;fill-rule:evenodd;stroke:#000000;stroke-width:2.3;stroke-linecap:butt;stroke-linejoin:miter;stroke-opacity:1;stroke-miterlimit:4;stroke-dasharray:none"
       d="m 352.14286,506.64792 398.57143,-0.71429"
       id="path4580"
       inkscape:connector-curvature="0" />
    <path
       style="fill:none;fill-rule:evenodd;stroke:#000000;stroke-width:2.29999995;stroke-linecap:butt;stroke-linejoin:miter;stroke-miterlimit:4;stroke-dasharray:none;stroke-opacity:1"
       d="m 350.71429,604.86221 398.57143,-0.71429"
       id="path4580-3"
       inkscape:connector-curvature="0" />
    <path
       style="fill:none;fill-rule:evenodd;stroke:#000000;stroke-width:2.29999995;stroke-linecap:butt;stroke-linejoin:miter;stroke-miterlimit:4;stroke-dasharray:none;stroke-opacity:1"
       d="M 351.42857,704.14792 750,703.43363"
       id="path4580-0"
       inkscape:connector-curvature="0" />
    <path
       style="fill:none;fill-rule:evenodd;stroke:#000000;stroke-width:2.29999995;stroke-linecap:butt;stroke-linejoin:miter;stroke-miterlimit:4;stroke-dasharray:none;stroke-opacity:1"
       d="M 346.42857,802.71935 745,802.00506"
       id="path4580-7"
       inkscape:connector-curvature="0" />
    <path
       style="fill:none;fill-rule:evenodd;stroke:#000000;stroke-width:2.29999995;stroke-linecap:butt;stroke-linejoin:miter;stroke-miterlimit:4;stroke-dasharray:none;stroke-opacity:1"
       d="m 350.71429,903.0765 398.57143,-0.71429"
       id="path4580-6"
       inkscape:connector-curvature="0" />
    <path
       style="opacity:1;fill:#a848e1;fill-opacity:1;stroke:#a848e1;stroke-width:4;stroke-linecap:butt;stroke-linejoin:miter;stroke-miterlimit:4;stroke-dasharray:none;stroke-dashoffset:0;stroke-opacity:1"
       id="path4372-5"
       sodipodi:type="arc"
       sodipodi:cx="349.11243"
       sodipodi:cy="804.50507"
       sodipodi:rx="7.0762415"
       sodipodi:ry="6.6976113"
       sodipodi:start="6.2366199"
       sodipodi:end="6.231541"
       sodipodi:open="true"
       d="m 356.181,804.1933 a 7.0762415,6.6976113 0 0 1 -6.73021,7.00172 7.0762415,6.6976113 0 0 1 -7.40608,-6.3612 7.0762415,6.6976113 0 0 1 6.7114,-7.01787 7.0762415,6.6976113 0 0 1 7.42312,6.34338" />
    <path
       style="opacity:1;fill:#a848e1;fill-opacity:1;stroke:#a848e1;stroke-width:4;stroke-linecap:butt;stroke-linejoin:miter;stroke-miterlimit:4;stroke-dasharray:none;stroke-dashoffset:0;stroke-opacity:1"
       id="path4372-20"
       sodipodi:type="arc"
       sodipodi:cx="549.82666"
       sodipodi:cy="803.79077"
       sodipodi:rx="7.0762415"
       sodipodi:ry="6.6976113"
       sodipodi:start="6.2366199"
       sodipodi:end="6.231541"
       sodipodi:open="true"
       d="m 556.89523,803.47901 a 7.0762415,6.6976113 0 0 1 -6.73021,7.00171 7.0762415,6.6976113 0 0 1 -7.40607,-6.3612 7.0762415,6.6976113 0 0 1 6.7114,-7.01786 7.0762415,6.6976113 0 0 1 7.42312,6.34337" />
    <path
       style="fill:none;fill-rule:evenodd;stroke:#000000;stroke-width:2.3;stroke-linecap:butt;stroke-linejoin:miter;stroke-miterlimit:4;stroke-dasharray:none;stroke-opacity:1"
       d="m 351.96954,505.93363 -2.14286,399.28572"
       id="path4539"
       inkscape:connector-curvature="0" />
    <path
       style="fill:none;fill-rule:evenodd;stroke:#000000;stroke-width:2.3;stroke-linecap:butt;stroke-linejoin:miter;stroke-miterlimit:4;stroke-dasharray:none;stroke-opacity:1"
       d="m 451.6124,508.43363 -2.14286,399.28572"
       id="path4539-2"
       inkscape:connector-curvature="0" />
    <path
       style="fill:none;fill-rule:evenodd;stroke:#000000;stroke-width:2.3;stroke-linecap:butt;stroke-linejoin:miter;stroke-miterlimit:4;stroke-dasharray:none;stroke-opacity:1"
       d="m 550.89811,504.8622 -2.14286,399.28572"
       id="path4539-5"
       inkscape:connector-curvature="0" />
    <path
       style="fill:none;fill-rule:evenodd;stroke:#000000;stroke-width:2.3;stroke-linecap:butt;stroke-linejoin:miter;stroke-miterlimit:4;stroke-dasharray:none;stroke-opacity:1"
       d="m 650.89815,505.57649 -2.1429,399.28572"
       id="path4539-4"
       inkscape:connector-curvature="0" />
    <path
       style="fill:none;fill-rule:evenodd;stroke:#000000;stroke-width:2.3;stroke-linecap:butt;stroke-linejoin:miter;stroke-miterlimit:4;stroke-dasharray:none;stroke-opacity:1"
       d="m 750.61755,502.44895 -2.1428,399.28572"
       id="path4539-44"
       inkscape:connector-curvature="0" />
    <path
       style="opacity:1;fill:#a848e1;fill-opacity:1;stroke:#a848e1;stroke-width:4;stroke-linecap:butt;stroke-linejoin:miter;stroke-miterlimit:4;stroke-dasharray:none;stroke-dashoffset:0;stroke-opacity:1"
       id="path4372"
       sodipodi:type="arc"
       sodipodi:cx="351.04095"
       sodipodi:cy="506.12222"
       sodipodi:rx="7.0762415"
       sodipodi:ry="6.6976113"
       sodipodi:start="6.2366199"
       sodipodi:end="6.231541"
       sodipodi:open="true"
       d="m 358.10953,505.81046 a 7.0762415,6.6976113 0 0 1 -6.73021,7.00171 7.0762415,6.6976113 0 0 1 -7.40608,-6.36119 7.0762415,6.6976113 0 0 1 6.7114,-7.01787 7.0762415,6.6976113 0 0 1 7.42312,6.34337"
       inkscape:transform-center-x="4.5456822"
       inkscape:transform-center-y="1.5152342" />
    <path
       style="opacity:1;fill:#a848e1;fill-opacity:1;stroke:#a848e1;stroke-width:4;stroke-linecap:butt;stroke-linejoin:miter;stroke-miterlimit:4;stroke-dasharray:none;stroke-dashoffset:0;stroke-opacity:1"
       id="path4372-2"
       sodipodi:type="arc"
       sodipodi:cx="450.54102"
       sodipodi:cy="504.81622"
       sodipodi:rx="7.0762415"
       sodipodi:ry="6.6976113"
       sodipodi:start="6.2366199"
       sodipodi:end="6.231541"
       sodipodi:open="true"
       d="m 457.60959,504.50446 a 7.0762415,6.6976113 0 0 1 -6.73021,7.00171 7.0762415,6.6976113 0 0 1 -7.40608,-6.36119 7.0762415,6.6976113 0 0 1 6.7114,-7.01787 7.0762415,6.6976113 0 0 1 7.42312,6.34337"
       inkscape:transform-center-x="0.75761019"
       inkscape:transform-center-y="-2.525376" />
    <path
       style="opacity:1;fill:#a848e1;fill-opacity:1;stroke:#a848e1;stroke-width:4;stroke-linecap:butt;stroke-linejoin:miter;stroke-miterlimit:4;stroke-dasharray:none;stroke-dashoffset:0;stroke-opacity:1"
       id="path4372-28"
       sodipodi:type="arc"
       sodipodi:cx="549.11243"
       sodipodi:cy="504.50507"
       sodipodi:rx="7.0762415"
       sodipodi:ry="6.6976113"
       sodipodi:start="6.2366199"
       sodipodi:end="6.231541"
       sodipodi:open="true"
       d="m 556.181,504.1933 a 7.0762415,6.6976113 0 0 1 -6.73021,7.00172 7.0762415,6.6976113 0 0 1 -7.40608,-6.3612 7.0762415,6.6976113 0 0 1 6.7114,-7.01787 7.0762415,6.6976113 0 0 1 7.42312,6.34338" />
    <path
       style="opacity:1;fill:#a848e1;fill-opacity:1;stroke:#a848e1;stroke-width:4;stroke-linecap:butt;stroke-linejoin:miter;stroke-miterlimit:4;stroke-dasharray:none;stroke-dashoffset:0;stroke-opacity:1"
       id="path4372-9"
       sodipodi:type="arc"
       sodipodi:cx="653.39807"
       sodipodi:cy="505.93362"
       sodipodi:rx="7.0762415"
       sodipodi:ry="6.6976113"
       sodipodi:start="6.2366199"
       sodipodi:end="6.231541"
       sodipodi:open="true"
       d="m 660.46664,505.62186 a 7.0762415,6.6976113 0 0 1 -6.7302,7.00171 7.0762415,6.6976113 0 0 1 -7.40608,-6.36119 7.0762415,6.6976113 0 0 1 6.7114,-7.01787 7.0762415,6.6976113 0 0 1 7.42312,6.34337" />
    <path
       style="opacity:1;fill:#09db8b;fill-opacity:1;stroke:#09db8b;stroke-width:4;stroke-linecap:butt;stroke-linejoin:miter;stroke-miterlimit:4;stroke-dasharray:none;stroke-dashoffset:0;stroke-opacity:1"
       id="path4372-7"
       sodipodi:type="arc"
       sodipodi:cx="750.54089"
       sodipodi:cy="506.22952"
       sodipodi:rx="11.621888"
       sodipodi:ry="11.24334"
       sodipodi:start="6.2366199"
       sodipodi:end="6.231541"
       sodipodi:open="true"
       d="m 762.15018,505.70616 a 11.621888,11.24334 0 0 1 -11.05356,11.75384 11.621888,11.24334 0 0 1 -12.16361,-10.6786 11.621888,11.24334 0 0 1 11.02268,-11.78095 11.621888,11.24334 0 0 1 12.1916,10.64868" />
    <path
       style="opacity:1;fill:#a848e1;fill-opacity:1;stroke:#a848e1;stroke-width:4;stroke-linecap:butt;stroke-linejoin:miter;stroke-miterlimit:4;stroke-dasharray:none;stroke-dashoffset:0;stroke-opacity:1"
       id="path4372-3"
       sodipodi:type="arc"
       sodipodi:cx="750.03589"
       sodipodi:cy="601.5105"
       sodipodi:rx="7.0762415"
       sodipodi:ry="6.6976113"
       sodipodi:start="6.2366199"
       sodipodi:end="6.231541"
       sodipodi:open="true"
       d="m 757.10446,601.19873 a 7.0762415,6.6976113 0 0 1 -6.73021,7.00172 7.0762415,6.6976113 0 0 1 -7.40607,-6.3612 7.0762415,6.6976113 0 0 1 6.7114,-7.01787 7.0762415,6.6976113 0 0 1 7.42312,6.34338" />
    <path
       style="opacity:1;fill:#a848e1;fill-opacity:1;stroke:#a848e1;stroke-width:4;stroke-linecap:butt;stroke-linejoin:miter;stroke-miterlimit:4;stroke-dasharray:none;stroke-dashoffset:0;stroke-opacity:1"
       id="path4372-6"
       sodipodi:type="arc"
       sodipodi:cx="646.96948"
       sodipodi:cy="601.64795"
       sodipodi:rx="7.0762415"
       sodipodi:ry="6.6976113"
       sodipodi:start="6.2366199"
       sodipodi:end="6.231541"
       sodipodi:open="true"
       d="m 654.03805,601.33618 a 7.0762415,6.6976113 0 0 1 -6.7302,7.00172 7.0762415,6.6976113 0 0 1 -7.40608,-6.3612 7.0762415,6.6976113 0 0 1 6.7114,-7.01787 7.0762415,6.6976113 0 0 1 7.42312,6.34338" />
    <path
       style="opacity:1;fill:#a848e1;fill-opacity:1;stroke:#a848e1;stroke-width:4;stroke-linecap:butt;stroke-linejoin:miter;stroke-miterlimit:4;stroke-dasharray:none;stroke-dashoffset:0;stroke-opacity:1"
       id="path4372-1"
       sodipodi:type="arc"
       sodipodi:cx="549.11237"
       sodipodi:cy="604.50507"
       sodipodi:rx="7.0762415"
       sodipodi:ry="6.6976113"
       sodipodi:start="6.2366199"
       sodipodi:end="6.231541"
       sodipodi:open="true"
       d="m 556.18094,604.1933 a 7.0762415,6.6976113 0 0 1 -6.73021,7.00172 7.0762415,6.6976113 0 0 1 -7.40608,-6.3612 7.0762415,6.6976113 0 0 1 6.7114,-7.01787 7.0762415,6.6976113 0 0 1 7.42312,6.34338" />
    <path
       style="opacity:1;fill:#a848e1;fill-opacity:1;stroke:#a848e1;stroke-width:4;stroke-linecap:butt;stroke-linejoin:miter;stroke-miterlimit:4;stroke-dasharray:none;stroke-dashoffset:0;stroke-opacity:1"
       id="path4372-29"
       sodipodi:type="arc"
       sodipodi:cx="449.82666"
       sodipodi:cy="605.93359"
       sodipodi:rx="7.0762415"
       sodipodi:ry="6.6976113"
       sodipodi:start="6.2366199"
       sodipodi:end="6.231541"
       sodipodi:open="true"
       d="m 456.89523,605.62183 a 7.0762415,6.6976113 0 0 1 -6.73021,7.00171 7.0762415,6.6976113 0 0 1 -7.40607,-6.36119 7.0762415,6.6976113 0 0 1 6.7114,-7.01787 7.0762415,6.6976113 0 0 1 7.42312,6.34337" />
    <path
       style="opacity:1;fill:#a848e1;fill-opacity:1;stroke:#a848e1;stroke-width:4;stroke-linecap:butt;stroke-linejoin:miter;stroke-miterlimit:4;stroke-dasharray:none;stroke-dashoffset:0;stroke-opacity:1"
       id="path4372-31"
       sodipodi:type="arc"
       sodipodi:cx="351.25525"
       sodipodi:cy="605.2193"
       sodipodi:rx="7.0762415"
       sodipodi:ry="6.6976113"
       sodipodi:start="6.2366199"
       sodipodi:end="6.231541"
       sodipodi:open="true"
       d="m 358.32382,604.90754 a 7.0762415,6.6976113 0 0 1 -6.73021,7.00171 7.0762415,6.6976113 0 0 1 -7.40607,-6.3612 7.0762415,6.6976113 0 0 1 6.7114,-7.01787 7.0762415,6.6976113 0 0 1 7.42312,6.34338" />
    <path
       style="opacity:1;fill:#a848e1;fill-opacity:1;stroke:#a848e1;stroke-width:4;stroke-linecap:butt;stroke-linejoin:miter;stroke-miterlimit:4;stroke-dasharray:none;stroke-dashoffset:0;stroke-opacity:1"
       id="path4372-94"
       sodipodi:type="arc"
       sodipodi:cx="349.82666"
       sodipodi:cy="706.64789"
       sodipodi:rx="7.0762415"
       sodipodi:ry="6.6976113"
       sodipodi:start="6.2366199"
       sodipodi:end="6.231541"
       sodipodi:open="true"
       d="m 356.89523,706.33612 a 7.0762415,6.6976113 0 0 1 -6.73021,7.00172 7.0762415,6.6976113 0 0 1 -7.40607,-6.3612 7.0762415,6.6976113 0 0 1 6.7114,-7.01787 7.0762415,6.6976113 0 0 1 7.42312,6.34338" />
    <path
       style="opacity:1;fill:#a848e1;fill-opacity:1;stroke:#a848e1;stroke-width:4;stroke-linecap:butt;stroke-linejoin:miter;stroke-miterlimit:4;stroke-dasharray:none;stroke-dashoffset:0;stroke-opacity:1"
       id="path4372-78"
       sodipodi:type="arc"
       sodipodi:cx="449.82666"
       sodipodi:cy="705.93359"
       sodipodi:rx="7.0762415"
       sodipodi:ry="6.6976113"
       sodipodi:start="6.2366199"
       sodipodi:end="6.231541"
       sodipodi:open="true"
       d="m 456.89523,705.62183 a 7.0762415,6.6976113 0 0 1 -6.73021,7.00171 7.0762415,6.6976113 0 0 1 -7.40607,-6.36119 7.0762415,6.6976113 0 0 1 6.7114,-7.01787 7.0762415,6.6976113 0 0 1 7.42312,6.34337" />
    <path
       style="opacity:1;fill:#a848e1;fill-opacity:1;stroke:#a848e1;stroke-width:4;stroke-linecap:butt;stroke-linejoin:miter;stroke-miterlimit:4;stroke-dasharray:none;stroke-dashoffset:0;stroke-opacity:1"
       id="path4372-4"
       sodipodi:type="arc"
       sodipodi:cx="448.39813"
       sodipodi:cy="803.07648"
       sodipodi:rx="7.0762415"
       sodipodi:ry="6.6976113"
       sodipodi:start="6.2366199"
       sodipodi:end="6.231541"
       sodipodi:open="true"
       d="m 455.4667,802.76471 a 7.0762415,6.6976113 0 0 1 -6.7302,7.00172 7.0762415,6.6976113 0 0 1 -7.40608,-6.3612 7.0762415,6.6976113 0 0 1 6.7114,-7.01787 7.0762415,6.6976113 0 0 1 7.42312,6.34338" />
    <path
       style="opacity:1;fill:#a848e1;fill-opacity:1;stroke:#a848e1;stroke-width:4;stroke-linecap:butt;stroke-linejoin:miter;stroke-miterlimit:4;stroke-dasharray:none;stroke-dashoffset:0;stroke-opacity:1"
       id="path4372-0"
       sodipodi:type="arc"
       sodipodi:cx="350.54095"
       sodipodi:cy="905.21936"
       sodipodi:rx="7.0762415"
       sodipodi:ry="6.6976113"
       sodipodi:start="6.2366199"
       sodipodi:end="6.231541"
       sodipodi:open="true"
       d="m 357.60953,904.9076 a 7.0762415,6.6976113 0 0 1 -6.73021,7.00171 7.0762415,6.6976113 0 0 1 -7.40608,-6.3612 7.0762415,6.6976113 0 0 1 6.7114,-7.01786 7.0762415,6.6976113 0 0 1 7.42312,6.34337" />
    <path
       style="opacity:1;fill:#a848e1;fill-opacity:1;stroke:#a848e1;stroke-width:4;stroke-linecap:butt;stroke-linejoin:miter;stroke-miterlimit:4;stroke-dasharray:none;stroke-dashoffset:0;stroke-opacity:1"
       id="path4372-10"
       sodipodi:type="arc"
       sodipodi:cx="451.25525"
       sodipodi:cy="901.64795"
       sodipodi:rx="7.0762415"
       sodipodi:ry="6.6976113"
       sodipodi:start="6.2366199"
       sodipodi:end="6.231541"
       sodipodi:open="true"
       d="m 458.32382,901.33618 a 7.0762415,6.6976113 0 0 1 -6.73021,7.00172 7.0762415,6.6976113 0 0 1 -7.40607,-6.3612 7.0762415,6.6976113 0 0 1 6.7114,-7.01787 7.0762415,6.6976113 0 0 1 7.42312,6.34338" />
    <path
       style="opacity:1;fill:#a848e1;fill-opacity:1;stroke:#a848e1;stroke-width:4;stroke-linecap:butt;stroke-linejoin:miter;stroke-miterlimit:4;stroke-dasharray:none;stroke-dashoffset:0;stroke-opacity:1"
       id="path4372-63"
       sodipodi:type="arc"
       sodipodi:cx="551.25525"
       sodipodi:cy="903.79077"
       sodipodi:rx="7.0762415"
       sodipodi:ry="6.6976113"
       sodipodi:start="6.2366199"
       sodipodi:end="6.231541"
       sodipodi:open="true"
       d="m 558.32382,903.47901 a 7.0762415,6.6976113 0 0 1 -6.73021,7.00171 7.0762415,6.6976113 0 0 1 -7.40607,-6.3612 7.0762415,6.6976113 0 0 1 6.7114,-7.01786 7.0762415,6.6976113 0 0 1 7.42312,6.34337" />
    <path
       style="opacity:1;fill:#a848e1;fill-opacity:1;stroke:#a848e1;stroke-width:4;stroke-linecap:butt;stroke-linejoin:miter;stroke-miterlimit:4;stroke-dasharray:none;stroke-dashoffset:0;stroke-opacity:1"
       id="path4372-61"
       sodipodi:type="arc"
       sodipodi:cx="549.82672"
       sodipodi:cy="703.79077"
       sodipodi:rx="7.0762415"
       sodipodi:ry="6.6976113"
       sodipodi:start="6.2366199"
       sodipodi:end="6.231541"
       sodipodi:open="true"
       d="m 556.89529,703.47901 a 7.0762415,6.6976113 0 0 1 -6.7302,7.00171 7.0762415,6.6976113 0 0 1 -7.40608,-6.3612 7.0762415,6.6976113 0 0 1 6.7114,-7.01786 7.0762415,6.6976113 0 0 1 7.42312,6.34337" />
    <path
       style="opacity:1;fill:#a848e1;fill-opacity:1;stroke:#a848e1;stroke-width:4;stroke-linecap:butt;stroke-linejoin:miter;stroke-miterlimit:4;stroke-dasharray:none;stroke-dashoffset:0;stroke-opacity:1"
       id="path4372-55"
       sodipodi:type="arc"
       sodipodi:cx="649.82666"
       sodipodi:cy="704.50507"
       sodipodi:rx="7.0762415"
       sodipodi:ry="6.6976113"
       sodipodi:start="6.2366199"
       sodipodi:end="6.231541"
       sodipodi:open="true"
       d="m 656.89523,704.1933 a 7.0762415,6.6976113 0 0 1 -6.73021,7.00172 7.0762415,6.6976113 0 0 1 -7.40607,-6.3612 7.0762415,6.6976113 0 0 1 6.7114,-7.01787 7.0762415,6.6976113 0 0 1 7.42312,6.34338" />
    <path
       style="opacity:1;fill:#a848e1;fill-opacity:1;stroke:#a848e1;stroke-width:4;stroke-linecap:butt;stroke-linejoin:miter;stroke-miterlimit:4;stroke-dasharray:none;stroke-dashoffset:0;stroke-opacity:1"
       id="path4372-47"
       sodipodi:type="arc"
       sodipodi:cx="648.39807"
       sodipodi:cy="799.50507"
       sodipodi:rx="7.0762415"
       sodipodi:ry="6.6976113"
       sodipodi:start="6.2366199"
       sodipodi:end="6.231541"
       sodipodi:open="true"
       d="m 655.46664,799.1933 a 7.0762415,6.6976113 0 0 1 -6.7302,7.00172 7.0762415,6.6976113 0 0 1 -7.40608,-6.3612 7.0762415,6.6976113 0 0 1 6.7114,-7.01787 7.0762415,6.6976113 0 0 1 7.42312,6.34338" />
    <path
       style="opacity:1;fill:#a848e1;fill-opacity:1;stroke:#a848e1;stroke-width:4;stroke-linecap:butt;stroke-linejoin:miter;stroke-miterlimit:4;stroke-dasharray:none;stroke-dashoffset:0;stroke-opacity:1"
       id="path4372-65"
       sodipodi:type="arc"
       sodipodi:cx="651.25525"
       sodipodi:cy="902.36224"
       sodipodi:rx="7.0762415"
       sodipodi:ry="6.6976113"
       sodipodi:start="6.2366199"
       sodipodi:end="6.231541"
       sodipodi:open="true"
       d="m 658.32382,902.05048 a 7.0762415,6.6976113 0 0 1 -6.73021,7.00171 7.0762415,6.6976113 0 0 1 -7.40607,-6.36119 7.0762415,6.6976113 0 0 1 6.7114,-7.01787 7.0762415,6.6976113 0 0 1 7.42312,6.34337" />
    <path
       style="opacity:1;fill:#a848e1;fill-opacity:1;stroke:#a848e1;stroke-width:4;stroke-linecap:butt;stroke-linejoin:miter;stroke-miterlimit:4;stroke-dasharray:none;stroke-dashoffset:0;stroke-opacity:1"
       id="path4372-69"
       sodipodi:type="arc"
       sodipodi:cx="750.54102"
       sodipodi:cy="903.79077"
       sodipodi:rx="7.0762415"
       sodipodi:ry="6.6976113"
       sodipodi:start="6.2366199"
       sodipodi:end="6.231541"
       sodipodi:open="true"
       d="m 757.60959,903.47901 a 7.0762415,6.6976113 0 0 1 -6.73021,7.00171 7.0762415,6.6976113 0 0 1 -7.40608,-6.3612 7.0762415,6.6976113 0 0 1 6.7114,-7.01786 7.0762415,6.6976113 0 0 1 7.42312,6.34337" />
    <path
       style="opacity:1;fill:#a848e1;fill-opacity:1;stroke:#a848e1;stroke-width:4;stroke-linecap:butt;stroke-linejoin:miter;stroke-miterlimit:4;stroke-dasharray:none;stroke-dashoffset:0;stroke-opacity:1"
       id="path4372-37"
       sodipodi:type="arc"
       sodipodi:cx="749.82666"
       sodipodi:cy="800.93365"
       sodipodi:rx="7.0762415"
       sodipodi:ry="6.6976113"
       sodipodi:start="6.2366199"
       sodipodi:end="6.231541"
       sodipodi:open="true"
       d="m 756.89523,800.62189 a 7.0762415,6.6976113 0 0 1 -6.73021,7.00171 7.0762415,6.6976113 0 0 1 -7.40607,-6.36119 7.0762415,6.6976113 0 0 1 6.7114,-7.01787 7.0762415,6.6976113 0 0 1 7.42312,6.34338" />
    <path
       style="opacity:1;fill:#a848e1;fill-opacity:1;stroke:#a848e1;stroke-width:4;stroke-linecap:butt;stroke-linejoin:miter;stroke-miterlimit:4;stroke-dasharray:none;stroke-dashoffset:0;stroke-opacity:1"
       id="path4372-45"
       sodipodi:type="arc"
       sodipodi:cx="750.54102"
       sodipodi:cy="701.64795"
       sodipodi:rx="7.0762415"
       sodipodi:ry="6.6976113"
       sodipodi:start="6.2366199"
       sodipodi:end="6.231541"
       sodipodi:open="true"
       d="m 757.60959,701.33618 a 7.0762415,6.6976113 0 0 1 -6.73021,7.00172 7.0762415,6.6976113 0 0 1 -7.40608,-6.3612 7.0762415,6.6976113 0 0 1 6.7114,-7.01787 7.0762415,6.6976113 0 0 1 7.42312,6.34338" />
  </g>
</svg>
