<?xml version="1.0" encoding="UTF-8" standalone="no"?>
<!-- Created with Inkscape (http://www.inkscape.org/) -->

<svg
   xmlns:dc="http://purl.org/dc/elements/1.1/"
   xmlns:cc="http://creativecommons.org/ns#"
   xmlns:rdf="http://www.w3.org/1999/02/22-rdf-syntax-ns#"
   xmlns:svg="http://www.w3.org/2000/svg"
   xmlns="http://www.w3.org/2000/svg"
   xmlns:sodipodi="http://sodipodi.sourceforge.net/DTD/sodipodi-0.dtd"
   xmlns:inkscape="http://www.inkscape.org/namespaces/inkscape"
   width="258.57751"
   height="102.49325"
   id="svg3044"
   sodipodi:version="0.32"
   inkscape:version="0.91 r13725"
   version="1.0"
   sodipodi:docname="logo_paris_dauphine.svg"
   inkscape:output_extension="org.inkscape.output.svg.inkscape">
  <defs
     id="defs3046">
    <clipPath
       clipPathUnits="userSpaceOnUse"
       id="clipPath2596">
      <path
         d="M 236.704,262.131 L 443.567,262.131 L 443.567,344.126 L 236.704,344.126 L 236.704,262.131 z"
         id="path2598" />
    </clipPath>
    <linearGradient
       x1="0"
       y1="0"
       x2="1"
       y2="0"
       gradientUnits="userSpaceOnUse"
       gradientTransform="matrix(136.47586,0,0,-136.47585,261.84146,312.50366)"
       spreadMethod="pad"
       id="linearGradient2704">
      <stop
         style="stop-opacity:1;stop-color:#51bbed"
         offset="0"
         id="stop2706" />
      <stop
         style="stop-opacity:1;stop-color:#263d96"
         offset="1"
         id="stop2708" />
    </linearGradient>
    <inkscape:perspective
       sodipodi:type="inkscape:persp3d"
       inkscape:vp_x="0 : 526.18109 : 1"
       inkscape:vp_y="0 : 1000 : 0"
       inkscape:vp_z="744.09448 : 526.18109 : 1"
       inkscape:persp3d-origin="372.04724 : 350.78739 : 1"
       id="perspective3052" />
  </defs>
  <sodipodi:namedview
     id="base"
     pagecolor="#ffffff"
     bordercolor="#666666"
     borderopacity="1.0"
     inkscape:pageopacity="0.0"
     inkscape:pageshadow="2"
     inkscape:zoom="3.588866"
     inkscape:cx="102.91957"
     inkscape:cy="48.371559"
     inkscape:document-units="px"
     inkscape:current-layer="layer1"
     showgrid="false"
     inkscape:window-width="1920"
     inkscape:window-height="1080"
     inkscape:window-x="0"
     inkscape:window-y="0"
     inkscape:window-maximized="0" />
  <metadata
     id="metadata3049">
    <rdf:RDF>
      <cc:Work
         rdf:about="">
        <dc:format>image/svg+xml</dc:format>
        <dc:type
           rdf:resource="http://purl.org/dc/dcmitype/StillImage" />
      </cc:Work>
    </rdf:RDF>
  </metadata>
  <g
     inkscape:label="Calque 1"
     inkscape:groupmode="layer"
     id="layer1"
     transform="translate(877.8602,96.0273)">
    <g
       id="g4196">
      <rect
         ry="0"
         y="-95.988564"
         x="-877.66315"
         height="102.84857"
         width="258.69766"
         id="rect3394"
         style="opacity:1;fill:#ffffff;fill-opacity:1;stroke:#ffffff;stroke-width:9.30000019;stroke-linecap:butt;stroke-linejoin:miter;stroke-miterlimit:4;stroke-dasharray:none;stroke-dashoffset:0;stroke-opacity:1" />
      <g
         id="g2592"
         transform="matrix(1.25,0,0,-1.25,-1173.7402,334.1302)">
        <g
           clip-path="url(#clipPath2596)"
           id="g2594">
          <g
             transform="translate(240.4342,298.5136)"
             id="g2600">
            <path
               id="path2602"
               style="fill:#263d96;fill-opacity:1;fill-rule:nonzero;stroke:none"
               d="M 0,0 C 0,2.915 0.081,5.781 0.243,8.37 C 1.901,8.569 4.084,8.775 6.468,8.775 C 13.095,8.775 17.948,6.469 17.948,-2.908 C 17.948,-13.576 11.478,-15.923 5.534,-15.923 C 3.475,-15.923 1.375,-15.763 0.243,-15.518 C 0.081,-12.728 0,-9.814 0,-6.949 L 0,0 z M -3.639,-17.424 C -1.816,-17.297 -0.039,-17.213 1.779,-17.213 C 3.595,-17.213 5.377,-17.424 7.195,-17.424 C 13.578,-17.424 21.908,-13.696 21.908,-2.908 C 21.908,5.418 18.029,10.469 8.568,10.469 C 6.549,10.469 4.488,10.268 2.469,10.268 C 0.444,10.268 -1.618,10.348 -3.639,10.469 C -3.475,6.994 -3.314,3.484 -3.314,0 L -3.314,-6.949 C -3.314,-10.427 -3.475,-13.942 -3.639,-17.424" />
          </g>
          <g
             transform="translate(312.6466,281.0162)"
             id="g2604">
            <path
               id="path2606"
               style="fill:#263d96;fill-opacity:1;fill-rule:nonzero;stroke:none"
               d="M 0,0 C 7.279,0 11.438,4.493 11.519,11.643 C 11.598,17.543 11.919,24.654 12.245,28.413 C 11.886,28.292 11.438,28.213 11.037,28.213 C 10.468,28.213 9.903,28.292 9.376,28.413 C 9.618,26.838 9.618,22.957 9.618,15.281 C 9.618,10.185 9.618,1.904 0.765,1.904 C -8.248,1.904 -8.248,9.054 -8.248,14.553 C -8.248,20.533 -8.001,26.026 -7.756,28.413 C -8.282,28.292 -8.933,28.213 -9.498,28.213 C -10.145,28.213 -10.956,28.292 -11.597,28.413 C -11.518,26.071 -11.357,22.393 -11.357,17.941 C -11.357,15.927 -11.561,14.064 -11.561,11.562 C -11.561,3.718 -8.001,0 0,0" />
          </g>
          <g
             transform="translate(335.9743,307.9041)"
             id="g2608">
            <path
               id="path2610"
               style="fill:#263d96;fill-opacity:1;fill-rule:nonzero;stroke:none"
               d="M 0,0 L 3.636,0 C 7.804,0 10.429,-0.987 10.429,-5.695 C 10.429,-11.302 6.184,-12.578 2.868,-12.578 C 1.975,-12.578 0.847,-12.453 0,-12.254 L 0,0 z M 3.272,-14.109 C 7.151,-14.109 14.145,-12.705 14.145,-5.446 C 14.145,1.445 7.717,1.525 5.295,1.525 C 4.162,1.525 1.572,1.32 0.282,1.32 C -1.017,1.32 -2.351,1.401 -3.641,1.525 C -3.482,-2.021 -3.321,-5.604 -3.321,-9.158 L -3.321,-16.25 C -3.321,-19.8 -3.482,-23.388 -3.641,-26.939 C -2.952,-26.812 -2.312,-26.725 -1.663,-26.725 C -1.017,-26.725 -0.365,-26.812 0.321,-26.939 C 0.155,-23.388 0,-19.8 0,-16.25 L 0,-13.983 C 1.05,-14.063 2.06,-14.109 3.272,-14.109" />
          </g>
          <g
             transform="translate(378.9784,309.4296)"
             id="g2612">
            <path
               id="path2614"
               style="fill:#263d96;fill-opacity:1;fill-rule:nonzero;stroke:none"
               d="M 0,0 C -0.69,-0.125 -1.339,-0.207 -1.977,-0.207 C -2.626,-0.207 -3.272,-0.125 -3.965,0 C -3.795,-3.57 -3.639,-7.178 -3.639,-10.755 L -3.639,-12.211 C -6.466,-12.248 -9.256,-12.331 -12.085,-12.331 C -14.915,-12.331 -17.703,-12.248 -20.531,-12.211 L -20.531,-10.755 C -20.531,-7.178 -20.369,-3.57 -20.21,0 C -20.9,-0.125 -21.539,-0.207 -22.191,-0.207 C -22.838,-0.207 -23.481,-0.125 -24.165,0 C -24.006,-3.57 -23.846,-7.178 -23.846,-10.755 L -23.846,-17.894 C -23.846,-21.469 -24.006,-25.081 -24.165,-28.655 C -23.481,-28.526 -22.838,-28.441 -22.191,-28.441 C -21.539,-28.441 -20.9,-28.526 -20.21,-28.655 C -20.369,-25.081 -20.531,-21.469 -20.531,-17.894 L -20.531,-14.158 C -17.703,-14.118 -14.915,-14.073 -12.085,-14.073 C -9.256,-14.073 -6.466,-14.118 -3.639,-14.158 L -3.639,-17.894 C -3.639,-21.469 -3.795,-25.081 -3.965,-28.655 C -3.272,-28.526 -2.626,-28.441 -1.977,-28.441 C -1.339,-28.441 -0.69,-28.526 0,-28.655 C -0.164,-25.081 -0.324,-21.469 -0.324,-17.894 L -0.324,-10.755 C -0.324,-7.178 -0.164,-3.57 0,0" />
          </g>
          <g
             transform="translate(390.2095,309.4296)"
             id="g2616">
            <path
               id="path2618"
               style="fill:#263d96;fill-opacity:1;fill-rule:nonzero;stroke:none"
               d="M 0,0 C -0.683,-0.125 -1.332,-0.207 -1.975,-0.207 C -2.622,-0.207 -3.27,-0.125 -3.957,0 C -3.793,-3.573 -3.633,-7.185 -3.633,-10.765 L -3.633,-17.912 C -3.633,-21.489 -3.793,-25.104 -3.957,-28.682 C -3.27,-28.554 -2.622,-28.468 -1.975,-28.468 C -1.332,-28.468 -0.683,-28.554 0,-28.682 C -0.158,-25.104 -0.318,-21.489 -0.318,-17.912 L -0.318,-10.765 C -0.318,-7.185 -0.158,-3.573 0,0" />
          </g>
          <g
             transform="translate(398.866,309.954)"
             id="g2620">
            <path
               id="path2622"
               style="fill:#263d96;fill-opacity:1;fill-rule:nonzero;stroke:none"
               d="M 0,0 L -0.648,0 C -0.523,-1.844 -0.523,-5.812 -0.523,-10.972 C -0.523,-16.378 -1.055,-26.862 -1.377,-28.79 C -0.846,-28.664 -0.369,-28.579 0.12,-28.579 C 0.604,-28.579 1.094,-28.664 1.533,-28.79 C 1.333,-27.146 1.168,-18.505 1.168,-14.987 C 1.168,-10.644 1.246,-8.184 1.296,-6.671 C 8.207,-14.128 15.561,-21.992 21.7,-29.32 L 22.263,-29.32 C 22.23,-27.473 22.146,-18.423 22.146,-14.244 C 22.146,-11.056 22.549,-2.949 22.796,-0.532 C 22.35,-0.655 21.945,-0.735 21.501,-0.735 C 21.059,-0.735 20.571,-0.655 20.129,-0.532 C 20.442,-6.836 20.442,-14.818 20.442,-22.157 C 15.518,-17.115 6.587,-7.244 0,0" />
          </g>
          <g
             transform="translate(443.566,283.5972)"
             id="g2624">
            <path
               id="path2626"
               style="fill:#263d96;fill-opacity:1;fill-rule:nonzero;stroke:none"
               d="M 0,0 C -2.542,-0.494 -7.318,-0.536 -10.913,-0.536 C -10.954,0.488 -10.992,2.496 -10.992,5.613 C -10.992,9.555 -10.992,10.578 -10.954,11.563 C -9.013,11.563 -3.918,11.481 -1.129,11.193 C -1.211,11.603 -1.255,12.018 -1.255,12.422 C -1.255,12.832 -1.211,13.286 -1.129,13.698 C -3.517,13.485 -6.188,13.286 -10.954,13.286 C -10.954,14.308 -10.992,16.564 -10.992,18.702 C -10.992,20.708 -10.867,22.139 -10.833,23.905 C -5.574,23.905 -3.595,23.618 -0.206,23.375 C -0.281,23.787 -0.327,24.197 -0.327,24.603 C -0.327,25.009 -0.281,25.423 -0.206,25.832 C -2.583,25.71 -4.971,25.629 -7.396,25.629 C -9.822,25.629 -12.206,25.71 -14.629,25.832 C -14.466,22.348 -14.307,18.778 -14.307,15.25 L -14.307,8.2 C -14.307,4.673 -14.466,1.104 -14.629,-2.468 C -12.158,-2.341 -9.742,-2.256 -7.27,-2.256 C -4.81,-2.256 -2.385,-2.341 0,-2.468 C -0.081,-2.096 -0.126,-1.641 -0.126,-1.273 C -0.126,-0.907 -0.081,-0.374 0,0" />
          </g>
          <g
             transform="translate(246.336,275.1816)"
             id="g2628">
            <path
               id="path2630"
               style="fill:#263d96;fill-opacity:1;fill-rule:nonzero;stroke:none"
               d="M 0,0 C 0.113,-0.722 0.113,-2.509 0.113,-6.034 C 0.113,-8.375 0.113,-12.177 -3.951,-12.177 C -8.09,-12.177 -8.09,-8.892 -8.09,-6.366 C -8.09,-3.621 -7.98,-1.096 -7.866,0 C -8.109,-0.054 -8.407,-0.092 -8.667,-0.092 C -8.963,-0.092 -9.339,-0.054 -9.632,0 C -9.598,-1.075 -9.52,-2.766 -9.52,-4.806 C -9.52,-5.735 -9.611,-6.596 -9.611,-7.739 C -9.611,-11.339 -7.98,-13.05 -4.304,-13.05 C -0.963,-13.05 0.947,-10.989 0.986,-7.703 C 1.023,-4.994 1.17,-1.727 1.318,0 C 1.155,-0.054 0.947,-0.092 0.762,-0.092 C 0.503,-0.092 0.242,-0.054 0,0" />
          </g>
          <g
             transform="translate(265.286,275.0894)"
             id="g2632">
            <path
               id="path2634"
               style="fill:#263d96;fill-opacity:1;fill-rule:nonzero;stroke:none"
               d="M 0,0 C -0.205,0 -0.426,0.038 -0.628,0.092 C -0.48,-2.767 -0.48,-6.388 -0.48,-9.706 C -2.744,-7.428 -6.846,-2.955 -9.872,0.331 L -10.171,0.331 C -10.116,-0.504 -10.116,-2.3 -10.116,-4.644 C -10.116,-7.091 -10.354,-11.842 -10.503,-12.71 C -10.265,-12.662 -10.039,-12.621 -9.819,-12.621 C -9.595,-12.621 -9.371,-12.662 -9.167,-12.71 C -9.26,-11.974 -9.333,-8.057 -9.333,-6.464 C -9.333,-4.49 -9.299,-3.382 -9.277,-2.694 C -6.105,-6.07 -2.725,-9.633 0.094,-12.958 L 0.355,-12.958 C 0.335,-12.12 0.302,-8.022 0.302,-6.129 C 0.302,-4.679 0.488,-1.004 0.595,0.092 C 0.394,0.038 0.205,0 0,0" />
          </g>
          <g
             transform="translate(274.7533,275.1816)"
             id="g2636">
            <path
               id="path2638"
               style="fill:#263d96;fill-opacity:1;fill-rule:nonzero;stroke:none"
               d="M 0,0 C -0.316,-0.054 -0.613,-0.095 -0.91,-0.095 C -1.205,-0.095 -1.502,-0.054 -1.819,0 C -1.744,-1.598 -1.667,-3.214 -1.667,-4.806 L -1.667,-8 C -1.667,-9.596 -1.744,-11.209 -1.819,-12.803 C -1.502,-12.754 -1.205,-12.713 -0.91,-12.713 C -0.613,-12.713 -0.316,-12.754 0,-12.803 C -0.072,-11.209 -0.148,-9.596 -0.148,-8 L -0.148,-4.806 C -0.148,-3.214 -0.072,-1.598 0,0" />
          </g>
          <g
             transform="translate(290.8227,275.1816)"
             id="g2640">
            <path
               id="path2642"
               style="fill:#263d96;fill-opacity:1;fill-rule:nonzero;stroke:none"
               d="M 0,0 C -0.775,-2.433 -2.856,-7.96 -4.207,-10.967 C -5.769,-7.219 -7.345,-3.289 -8.438,0 C -8.755,-0.054 -9.089,-0.092 -9.403,-0.092 C -9.723,-0.092 -10.058,-0.054 -10.37,0 C -8.572,-4.267 -6.303,-9.744 -5.197,-12.803 C -5.027,-12.754 -4.781,-12.713 -4.579,-12.713 C -4.377,-12.713 -4.172,-12.754 -3.968,-12.803 C -2.332,-8.536 -0.552,-4.267 1.377,0 C 1.153,-0.054 0.913,-0.092 0.691,-0.092 C 0.469,-0.092 0.228,-0.054 0,0" />
          </g>
          <g
             transform="translate(299.6072,263.2476)"
             id="g2644">
            <path
               id="path2646"
               style="fill:#263d96;fill-opacity:1;fill-rule:nonzero;stroke:none"
               d="M 0,0 C -0.02,0.461 -0.037,1.371 -0.037,2.785 C -0.037,4.564 -0.037,5.026 -0.02,5.478 C 0.872,5.478 3.215,5.436 4.491,5.307 C 4.455,5.497 4.439,5.678 4.439,5.864 C 4.439,6.048 4.455,6.255 4.491,6.441 C 3.394,6.349 2.173,6.255 -0.02,6.255 C -0.02,6.715 -0.037,7.737 -0.037,8.701 C -0.037,9.612 0.018,10.263 0.034,11.061 C 2.449,11.061 3.361,10.929 4.918,10.816 C 4.879,11.007 4.861,11.188 4.861,11.377 C 4.861,11.563 4.879,11.748 4.918,11.934 C 3.823,11.88 2.727,11.842 1.614,11.842 C 0.503,11.842 -0.598,11.88 -1.706,11.934 C -1.634,10.355 -1.561,8.736 -1.561,7.144 L -1.561,3.955 C -1.561,2.358 -1.634,0.744 -1.706,-0.869 C -0.573,-0.82 0.538,-0.779 1.671,-0.779 C 2.802,-0.779 3.916,-0.82 5.011,-0.869 C 4.976,-0.709 4.952,-0.501 4.952,-0.333 C 4.952,-0.17 4.976,0.072 5.011,0.243 C 3.842,0.02 1.651,0 0,0" />
          </g>
          <g
             transform="translate(312.5645,269.3164)"
             id="g2648">
            <path
               id="path2650"
               style="fill:#263d96;fill-opacity:1;fill-rule:nonzero;stroke:none"
               d="M 0,0 L 0,1.059 C 0,2.391 0.056,3.731 0.108,5.081 C 0.496,5.12 1.058,5.177 1.91,5.177 C 3.172,5.177 4.784,4.693 4.784,2.75 C 4.784,0.54 2.759,-0.097 1.244,-0.097 C 0.759,-0.097 0.336,-0.076 0,0 M 6.423,2.931 C 6.423,5.143 4.658,5.865 2.559,5.865 C 1.856,5.865 1.15,5.773 0.442,5.773 C -0.262,5.773 -0.965,5.811 -1.673,5.865 C -1.601,4.267 -1.523,2.651 -1.523,1.059 L -1.523,-2.134 C -1.523,-3.731 -1.601,-5.344 -1.673,-6.937 C -1.357,-6.889 -1.062,-6.848 -0.764,-6.848 C -0.467,-6.848 -0.171,-6.889 0.145,-6.937 C 0.076,-5.344 0,-3.731 0,-2.134 L 0,-0.781 L 0.703,-0.781 C 2.299,-2.392 4.766,-5.81 5.509,-6.937 C 5.864,-6.889 6.235,-6.848 6.587,-6.848 C 6.954,-6.848 7.328,-6.889 7.702,-6.937 C 6.622,-5.733 3.523,-1.745 2.613,-0.615 C 4.028,-0.431 6.423,0.54 6.423,2.931" />
          </g>
          <g
             transform="translate(326.8724,272.4336)"
             id="g2652">
            <path
               id="path2654"
               style="fill:#263d96;fill-opacity:1;fill-rule:nonzero;stroke:none"
               d="M 0,0 C 0,1.355 1.004,2.303 2.394,2.303 C 3.789,2.303 4.345,1.245 4.605,0.555 L 4.827,0.555 C 4.976,1.264 5.105,1.686 5.327,2.12 C 4.581,2.713 3.752,2.987 2.584,2.987 C 0.115,2.987 -1.448,1.541 -1.448,-0.523 C -1.448,-4.879 4.403,-3.415 4.403,-6.828 C 4.403,-8.317 3.401,-9.519 1.741,-9.519 C 0.149,-9.519 -0.779,-8.461 -1.184,-7.592 L -1.412,-7.592 C -1.479,-8.292 -1.538,-8.672 -1.759,-9.242 C -1.112,-9.762 -0.24,-10.302 1.3,-10.302 C 4.156,-10.302 5.851,-8.391 5.851,-6.125 C 5.851,-2.023 0,-3.473 0,0" />
          </g>
          <g
             transform="translate(340.7621,275.1816)"
             id="g2656">
            <path
               id="path2658"
               style="fill:#263d96;fill-opacity:1;fill-rule:nonzero;stroke:none"
               d="M 0,0 C -0.315,-0.054 -0.611,-0.095 -0.912,-0.095 C -1.206,-0.095 -1.504,-0.054 -1.819,0 C -1.747,-1.598 -1.67,-3.214 -1.67,-4.806 L -1.67,-8 C -1.67,-9.596 -1.747,-11.209 -1.819,-12.803 C -1.504,-12.754 -1.206,-12.713 -0.912,-12.713 C -0.611,-12.713 -0.315,-12.754 0,-12.803 C -0.072,-11.209 -0.149,-9.596 -0.149,-8 L -0.149,-4.806 C -0.149,-3.214 -0.072,-1.598 0,0" />
          </g>
          <g
             transform="translate(351.3031,275.0863)"
             id="g2660">
            <path
               id="path2662"
               style="fill:#263d96;fill-opacity:1;fill-rule:nonzero;stroke:none"
               d="M 0,0 C -1.595,0 -3.188,0.041 -4.787,0.095 C -4.733,-0.111 -4.693,-0.293 -4.693,-0.477 C -4.693,-0.689 -4.733,-0.886 -4.787,-1.077 C -3.749,-0.949 -2.095,-0.873 -0.813,-0.873 C -0.781,-2.149 -0.759,-3.434 -0.759,-4.711 L -0.759,-7.904 C -0.759,-9.501 -0.835,-11.114 -0.911,-12.707 C -0.596,-12.659 -0.296,-12.618 0,-12.618 C 0.294,-12.618 0.593,-12.659 0.911,-12.707 C 0.834,-11.114 0.76,-9.501 0.76,-7.904 L 0.76,-4.711 C 0.76,-3.434 0.781,-2.149 0.817,-0.873 C 2.096,-0.873 3.747,-0.949 4.789,-1.077 C 4.731,-0.886 4.696,-0.689 4.696,-0.501 C 4.696,-0.293 4.731,-0.111 4.789,0.095 C 3.195,0.041 1.595,0 0,0" />
          </g>
          <g
             transform="translate(366.577,278.7997)"
             id="g2664">
            <path
               id="path2666"
               style="fill:#263d96;fill-opacity:1;fill-rule:nonzero;stroke:none"
               d="M 0,0 L -2.726,-2.764 L -1.948,-2.764 L 0.782,-1.02 C 1.081,-0.835 1.452,-0.595 1.452,-0.149 C 1.452,0.239 1.081,0.445 0.838,0.445 C 0.56,0.445 0.264,0.261 0,0" />
          </g>
          <g
             transform="translate(363.5566,263.2476)"
             id="g2668">
            <path
               id="path2670"
               style="fill:#263d96;fill-opacity:1;fill-rule:nonzero;stroke:none"
               d="M 0,0 C -0.022,0.461 -0.04,1.371 -0.04,2.785 C -0.04,4.564 -0.04,5.026 -0.022,5.478 C 0.87,5.478 3.209,5.436 4.487,5.307 C 4.455,5.497 4.436,5.678 4.436,5.864 C 4.436,6.048 4.455,6.255 4.487,6.441 C 3.394,6.349 2.172,6.255 -0.022,6.255 C -0.022,6.715 -0.04,7.737 -0.04,8.701 C -0.04,9.612 0.016,10.263 0.032,11.061 C 2.446,11.061 3.359,10.929 4.917,10.816 C 4.879,11.007 4.86,11.188 4.86,11.377 C 4.86,11.563 4.879,11.748 4.917,11.937 C 3.822,11.88 2.729,11.842 1.617,11.842 C 0.5,11.842 -0.592,11.88 -1.71,11.937 C -1.636,10.355 -1.56,8.736 -1.56,7.144 L -1.56,3.955 C -1.56,2.358 -1.636,0.744 -1.71,-0.869 C -0.577,-0.82 0.535,-0.779 1.67,-0.779 C 2.802,-0.779 3.914,-0.82 5.01,-0.869 C 4.972,-0.709 4.958,-0.501 4.958,-0.333 C 4.958,-0.17 4.972,0.072 5.01,0.243 C 3.841,0.02 1.649,0 0,0" />
          </g>
          <g
             transform="translate(386.7025,268.8345)"
             id="g2672">
            <path
               id="path2674"
               style="fill:#263d96;fill-opacity:1;fill-rule:nonzero;stroke:none"
               d="M 0,0 C -0.409,0 -0.93,0.051 -1.32,0.151 L -1.32,5.659 L 0.349,5.659 C 2.262,5.659 3.466,5.213 3.466,3.1 C 3.466,0.573 1.519,0 0,0 M 1.111,6.347 C 0.589,6.347 -0.598,6.255 -1.192,6.255 C -1.787,6.255 -2.398,6.293 -2.994,6.347 C -2.918,4.749 -2.84,3.133 -2.84,1.541 L -2.84,-1.649 C -2.84,-3.249 -2.918,-4.862 -2.994,-6.456 C -2.673,-6.407 -2.376,-6.366 -2.079,-6.366 C -1.787,-6.366 -1.487,-6.407 -1.167,-6.456 C -1.245,-4.862 -1.32,-3.249 -1.32,-1.649 L -1.32,-0.634 C -0.836,-0.669 -0.372,-0.687 0.188,-0.687 C 1.965,-0.687 5.175,-0.057 5.175,3.211 C 5.175,6.312 2.221,6.347 1.111,6.347" />
          </g>
          <g
             transform="translate(400.9015,268.165)"
             id="g2676">
            <path
               id="path2678"
               style="fill:#263d96;fill-opacity:1;fill-rule:nonzero;stroke:none"
               d="M 0,0 C -0.65,0 -1.359,0.035 -2.005,0.035 L 0.013,4.752 L 2.078,0.035 C 1.391,0.02 0.687,0 0,0 M 0.278,7.255 C -1.616,2.877 -3.547,-1.444 -5.531,-5.786 C -5.292,-5.738 -5.07,-5.697 -4.844,-5.697 C -4.623,-5.697 -4.404,-5.738 -4.163,-5.786 C -3.846,-4.62 -3.141,-2.728 -2.356,-0.817 C -1.599,-0.798 -0.857,-0.782 -0.094,-0.782 C 0.724,-0.782 1.539,-0.798 2.334,-0.817 C 3.005,-2.47 3.896,-4.509 4.248,-5.786 C 4.584,-5.738 4.898,-5.697 5.232,-5.697 C 5.568,-5.697 5.884,-5.738 6.215,-5.786 C 5.232,-3.806 2.448,2.947 0.632,7.255 L 0.278,7.255 z" />
          </g>
          <g
             transform="translate(414.4855,269.3164)"
             id="g2680">
            <path
               id="path2682"
               style="fill:#263d96;fill-opacity:1;fill-rule:nonzero;stroke:none"
               d="M 0,0 L 0,1.059 C 0,2.391 0.052,3.731 0.109,5.081 C 0.501,5.12 1.059,5.177 1.908,5.177 C 3.174,5.177 4.791,4.693 4.791,2.75 C 4.791,0.54 2.764,-0.097 1.245,-0.097 C 0.762,-0.097 0.336,-0.076 0,0 M 6.424,2.931 C 6.424,5.143 4.659,5.865 2.559,5.865 C 1.857,5.865 1.15,5.773 0.444,5.773 C -0.259,5.773 -0.963,5.811 -1.671,5.865 C -1.593,4.267 -1.521,2.651 -1.521,1.059 L -1.521,-2.134 C -1.521,-3.731 -1.593,-5.344 -1.671,-6.937 C -1.35,-6.889 -1.061,-6.848 -0.759,-6.848 C -0.465,-6.848 -0.165,-6.889 0.147,-6.937 C 0.073,-5.344 0,-3.731 0,-2.134 L 0,-0.781 L 0.702,-0.781 C 2.301,-2.392 4.768,-5.81 5.511,-6.937 C 5.866,-6.889 6.237,-6.848 6.589,-6.848 C 6.963,-6.848 7.332,-6.889 7.704,-6.937 C 6.627,-5.733 3.526,-1.745 2.617,-0.615 C 4.029,-0.431 6.424,0.54 6.424,2.931" />
          </g>
          <g
             transform="translate(429.6895,275.1816)"
             id="g2684">
            <path
               id="path2686"
               style="fill:#263d96;fill-opacity:1;fill-rule:nonzero;stroke:none"
               d="M 0,0 C -0.315,-0.054 -0.613,-0.095 -0.909,-0.095 C -1.206,-0.095 -1.506,-0.054 -1.819,0 C -1.748,-1.598 -1.674,-3.214 -1.674,-4.806 L -1.674,-8 C -1.674,-9.596 -1.748,-11.209 -1.819,-12.803 C -1.506,-12.754 -1.206,-12.713 -0.909,-12.713 C -0.613,-12.713 -0.315,-12.754 0,-12.803 C -0.079,-11.209 -0.15,-9.596 -0.15,-8 L -0.15,-4.806 C -0.15,-3.214 -0.079,-1.598 0,0" />
          </g>
          <g
             transform="translate(437.6725,272.4336)"
             id="g2688">
            <path
               id="path2690"
               style="fill:#263d96;fill-opacity:1;fill-rule:nonzero;stroke:none"
               d="M 0,0 C 0,1.355 0.997,2.303 2.388,2.303 C 3.78,2.303 4.335,1.245 4.599,0.555 L 4.821,0.555 C 4.972,1.264 5.1,1.686 5.322,2.12 C 4.576,2.713 3.747,2.987 2.574,2.987 C 0.108,2.987 -1.451,1.541 -1.451,-0.523 C -1.451,-4.879 4.392,-3.415 4.392,-6.828 C 4.392,-8.317 3.392,-9.519 1.74,-9.519 C 0.142,-9.519 -0.783,-8.461 -1.193,-7.592 L -1.416,-7.592 C -1.491,-8.292 -1.544,-8.672 -1.767,-9.242 C -1.119,-9.762 -0.249,-10.302 1.294,-10.302 C 4.15,-10.302 5.841,-8.391 5.841,-6.125 C 5.841,-2.023 0,-3.473 0,0" />
          </g>
        </g>
      </g>
      <g
         id="g2692"
         transform="matrix(1.25,0,0,-1.25,-1173.7402,334.1302)">
        <g
           id="g2694">
          <g
             id="g2700">
            <g
               id="g2702">
              <path
                 id="path2710"
                 style="fill:url(#linearGradient2704);stroke:none"
                 d="M 312.015,344.022 C 322.628,332.543 318.416,327.34 318.416,327.34 L 318.416,327.34 C 318.416,327.34 304.457,321.254 287.688,307.797 L 287.688,307.797 C 284.312,315.84 281.528,322.563 281.528,322.563 L 281.528,322.563 L 280.402,322.563 C 280.402,322.563 262.292,281.632 261.841,280.881 L 261.841,280.881 C 264.073,281.784 266.158,280.935 266.229,280.881 L 266.229,280.881 C 266.7,282.43 267.247,284.358 268.203,287.152 L 268.203,287.152 C 271.079,290.018 277.009,295.644 285.149,301.887 L 285.149,301.887 C 288.949,292.272 293.088,280.881 293.088,280.881 L 293.088,280.881 C 293.088,280.881 296.005,281.527 299.376,280.881 L 299.376,280.881 C 298.779,281.58 293.594,293.737 288.969,304.745 L 288.969,304.745 C 314.848,323.564 358.689,344.909 398.317,313.593 L 398.317,313.593 C 377.443,339.691 335.697,333.504 335.697,333.504 L 335.697,333.504 C 335.697,333.504 322.35,344.126 313.447,344.126 L 313.447,344.126 C 312.953,344.126 312.477,344.091 312.015,344.022 M 279.837,315.463 C 279.837,315.463 281.094,313.437 284.269,305.655 L 284.269,305.655 C 284.269,305.655 274.756,297.563 269.82,291.82 L 269.82,291.82 C 269.82,291.82 274.086,302.687 279.837,315.463" />
            </g>
          </g>
        </g>
      </g>
    </g>
  </g>
</svg>
