<?xml version="1.0" encoding="UTF-8" standalone="no"?>
<svg
   xmlns:dc="http://purl.org/dc/elements/1.1/"
   xmlns:cc="http://creativecommons.org/ns#"
   xmlns:rdf="http://www.w3.org/1999/02/22-rdf-syntax-ns#"
   xmlns:svg="http://www.w3.org/2000/svg"
   xmlns="http://www.w3.org/2000/svg"
   xmlns:sodipodi="http://sodipodi.sourceforge.net/DTD/sodipodi-0.dtd"
   xmlns:inkscape="http://www.inkscape.org/namespaces/inkscape"
   viewBox="0 0 843.84058 702.1131"
   height="702.1131"
   width="843.84058"
   xml:space="preserve"
   version="1.1"
   id="svg2"
   inkscape:version="0.91 r13725"
   sodipodi:docname="mc.svg"><sodipodi:namedview
     pagecolor="#ffffff"
     bordercolor="#666666"
     borderopacity="1"
     objecttolerance="10"
     gridtolerance="10"
     guidetolerance="10"
     inkscape:pageopacity="0"
     inkscape:pageshadow="2"
     inkscape:window-width="1916"
     inkscape:window-height="1041"
     id="namedview35"
     showgrid="false"
     inkscape:zoom="0.67225637"
     inkscape:cx="587.93483"
     inkscape:cy="356.78862"
     inkscape:window-x="0"
     inkscape:window-y="18"
     inkscape:window-maximized="0"
     inkscape:current-layer="g10" /><metadata
     id="metadata8"><rdf:RDF><cc:Work
         rdf:about=""><dc:format>image/svg+xml</dc:format><dc:type
           rdf:resource="http://purl.org/dc/dcmitype/StillImage" /><dc:title /></cc:Work></rdf:RDF></metadata><defs
     id="defs6" /><g
     transform="matrix(1.25,0,0,-1.25,0,702.11311)"
     id="g10"><g
       id="g18"
       transform="matrix(1,0,0,-1,0,561.69049)"><path
         d="m 66.156,268.484 25.903,-21.937 -5.493,-15.668 30.614,-14.887 1.57,-11.75 15.699,-4.703 14.133,-26.637 19.531,-50.89 97.403,-1.887 12.589,-46.719"
         style="fill:none;stroke:#000000;stroke-width:2.00762296;stroke-linecap:butt;stroke-linejoin:miter;stroke-miterlimit:4;stroke-dasharray:none;stroke-opacity:1"
         id="path20" /></g><g
       id="g22"
       transform="matrix(1,0,0,-1,0,561.69049)"><path
         d="m 66.156,268.484 13.555,0.602 27.266,-2.168 7.062,25.07 51.027,3.133 27.477,35.254 3.922,24.289 14.918,-11.754"
         style="fill:none;stroke:#000000;stroke-width:2.00762296;stroke-linecap:butt;stroke-linejoin:miter;stroke-miterlimit:4;stroke-dasharray:none;stroke-opacity:1"
         id="path24" /></g><g
       id="g26"
       transform="matrix(1,0,0,-1,0,561.69049)"><path
         d="m 65.531,283.309 2.981,20.429 29.043,23.504 37.117,-7.457 -25.906,43.871 17.992,17.266 -66.371,-28.762"
         style="fill:none;stroke:#000000;stroke-width:2.00762296;stroke-linecap:butt;stroke-linejoin:miter;stroke-miterlimit:4;stroke-dasharray:none;stroke-opacity:1"
         id="path28" /></g><g
       id="g182"
       transform="matrix(1,0,0,-1,0,561.69049)"><path
         d="m 97.504,512.707 c 5.684,0 572.672,-0.711 572.672,-0.711"
         style="fill:none;stroke:#000000;stroke-width:2.40914798;stroke-linecap:butt;stroke-linejoin:round;stroke-miterlimit:4;stroke-dasharray:none;stroke-opacity:1"
         id="path184" /></g><g
       id="g186"
       transform="matrix(-1,-0.00125063,-0.00125063,1,0,561.69049)"><path
         d="m -659.898,-512.833 4.819,-4.818 -16.866,4.818 16.865,4.818 -4.818,-4.818 z"
         style="fill:#000000;fill-opacity:1;fill-rule:evenodd;stroke:#000000;stroke-width:1.20457304;stroke-linecap:butt;stroke-linejoin:miter;stroke-miterlimit:4;stroke-dasharray:none;stroke-opacity:1"
         id="path188" /></g><text
       y="-44.383953"
       x="-1.418962"
       transform="scale(1.0009965,-0.99900446)"
       style="font-variant:normal;font-weight:normal;font-size:15.05717564px;font-family:'DejaVu Sans';-inkscape-font-specification:DejaVuSans;writing-mode:lr-tb;fill:#000000;fill-opacity:1;fill-rule:nonzero;stroke:none"
       id="text190"><tspan
         x="-1.418962 2.7518756 17.417566 26.963814 36.16375 42.352249 48.254662 57.469654 67.000847 75.312401"
         y="-44.383953"
         id="tspan192">importance</tspan><tspan
         x="6.2050433 16.504152 29.483438 39.029686 43.802811 47.973652 57.23381 66.132599 75.392769 79.563606"
         y="-77.679466"
         id="tspan194">AMS level </tspan></text>
<g
       id="g196"
       transform="matrix(1,0,0,-1,0,561.69049)"><path
         d="m 97.801,480.234 c 5.683,0 572.672,-0.711 572.672,-0.711"
         style="fill:none;stroke:#000000;stroke-width:2.40914798;stroke-linecap:butt;stroke-linejoin:round;stroke-miterlimit:4;stroke-dasharray:none;stroke-opacity:1"
         id="path198" /></g><g
       id="g200"
       transform="matrix(-1,-0.00125063,-0.00125063,1,0,561.69049)"><path
         d="m -660.235,-480.361 4.818,-4.818 -16.861,4.819 16.861,4.818 -4.818,-4.819 z"
         style="fill:#000000;fill-opacity:1;fill-rule:evenodd;stroke:#000000;stroke-width:1.20457304;stroke-linecap:butt;stroke-linejoin:miter;stroke-miterlimit:4;stroke-dasharray:none;stroke-opacity:1"
         id="path202" /></g><text
       y="-3.8375676"
       x="334.90292"
       transform="scale(1.0009965,-0.99900446)"
       style="font-variant:normal;font-weight:normal;font-size:15.05717564px;font-family:'DejaVu Sans';-inkscape-font-specification:DejaVuSans;writing-mode:lr-tb;fill:#000000;fill-opacity:1;fill-rule:nonzero;stroke:none"
       id="text220"><tspan
         x="344.47931 392.28583 440.13754 492.71719 545.34204 593.14856"
         id="tspan222" /></text>
<path
       style="fill:none;fill-opacity:0.69387758;fill-rule:evenodd;stroke:#ffffff;stroke-width:16;stroke-linecap:butt;stroke-linejoin:miter;stroke-miterlimit:4;stroke-dasharray:none;stroke-opacity:1"
       d="m 681.93246,203.88494 84.8,0 0,-40.79999 -26,-0.4 -1.2,-30 94.4,1.6 21.6,-44.000005 34.82654,-0.228608 24.46016,104.660683 61.70455,0.0825"
       id="path5875"
       inkscape:connector-curvature="0"
       sodipodi:nodetypes="cccccccccc" /><g
       id="g4255"
       transform="translate(-521.22972,-24.990462)"><path
         style="fill:#a8f075;fill-opacity:0.7908163;fill-rule:evenodd;stroke:#000000;stroke-width:2.4000001;stroke-linecap:butt;stroke-linejoin:miter;stroke-miterlimit:4;stroke-dasharray:none;stroke-opacity:1"
         d="m 1082.3006,471.40989 c 0,0 100.7158,19.7564 99.0996,-145.10049 -1.6163,-164.8569 -54.9523,-158.39192 -101.8234,-130.10765 -46.8711,28.28427 -67.2802,58.78085 -65.9551,80.49981 3.4182,56.0238 53.7911,39.94663 28.9241,121.89852 -0.9446,3.11313 -5.5718,24.37916 0.198,43.19899 4.0625,13.2512 10.3006,24.99175 39.5697,29.62506"
         id="path4138"
         inkscape:connector-curvature="0"
         sodipodi:nodetypes="csssssc" /></g><g
       id="g4249"
       transform="translate(-550.98029,-60.691133)"><path
         style="fill:#ff5555;fill-opacity:0.69387758;fill-rule:evenodd;stroke:#000000;stroke-width:2.4000001;stroke-linecap:butt;stroke-linejoin:miter;stroke-miterlimit:4;stroke-dasharray:none;stroke-opacity:1"
         d="m 599.74573,396.442 c 0,0 54.25204,-24.74845 33.39244,-58.50976 -20.8596,-33.76132 -77.74941,-93.07173 -75.85308,-6.38728 1.89632,86.68445 42.46064,64.89704 42.46064,64.89704 z"
         id="path4159"
         inkscape:connector-curvature="0"
         sodipodi:nodetypes="cssc" /><g
         transform="matrix(0.8,0,0,-0.8,339.3424,612.90643)"
         id="g6120"><g
           style="font-style:normal;font-variant:normal;font-weight:normal;font-stretch:normal;letter-spacing:normal;word-spacing:normal;text-anchor:start;fill:none;fill-opacity:1;fill-rule:evenodd;stroke:#000000;stroke-linecap:butt;stroke-linejoin:miter;stroke-miterlimit:10.43299961;stroke-dasharray:none;stroke-dashoffset:0;stroke-opacity:1"
           id="g6122"
           transform="matrix(1.0629921,0,0,-1.0629921,-186.02362,789.27165)"
           xml:space="preserve"
           stroke-miterlimit="10.433"
           font-style="normal"
           font-variant="normal"
           font-weight="normal"
           font-stretch="normal"
           font-size-adjust="none"
           letter-spacing="normal"
           word-spacing="normal"><path
             style="fill:#000000;stroke-width:0"
             inkscape:connector-curvature="0"
             d="m 488.13,440.62 0,0.02 0,0.01 0,0.02 -0.01,0.02 0,0.01 0,0.02 -0.01,0.02 0,0.02 -0.01,0.02 -0.01,0.02 -0.01,0.02 -0.01,0.02 -0.01,0.02 -0.01,0.02 -0.01,0.02 -0.02,0.02 -0.01,0.02 -0.02,0.02 -0.02,0.02 -0.02,0.02 -0.02,0.02 -0.02,0.01 -0.03,0.02 -0.02,0.01 -0.03,0.01 -0.02,0.01 -0.01,0 -0.02,0.01 -0.01,0 -0.02,0.01 -0.02,0 -0.01,0.01 -0.02,0 -0.02,0 -0.02,0 -0.02,0 -0.02,0.01 -0.02,0 -0.02,0 c -0.25,0 -0.3,-0.05 -0.9,-0.75 l -2.39,-2.84 c -1.29,2.34 -3.88,3.59 -7.12,3.59 -6.33,0 -12.3,-5.73 -12.3,-11.76 0,-4.03 2.64,-6.32 5.18,-7.07 l 5.33,-1.4 c 1.84,-0.44 4.58,-1.19 4.58,-5.28 0,-4.48 -4.08,-9.16 -8.97,-9.16 -3.19,0 -8.71,1.09 -8.71,7.27 0,1.2 0.25,2.39 0.29,2.69 0.05,0.2 0.11,0.25 0.11,0.35 0,0.5 -0.35,0.55 -0.6,0.55 -0.25,0 -0.35,-0.05 -0.5,-0.2 -0.2,-0.2 -2.99,-11.56 -2.99,-11.71 0,-0.3 0.25,-0.5 0.55,-0.5 0.25,0 0.3,0.05 0.9,0.75 l 2.44,2.84 c 2.14,-2.89 5.52,-3.59 8.41,-3.59 6.78,0 12.66,6.63 12.66,12.81 0,3.43 -1.7,5.13 -2.44,5.83 -1.15,1.14 -1.9,1.34 -6.33,2.48 -1.1,0.3 -2.89,0.8 -3.34,0.9 -1.34,0.45 -3.04,1.89 -3.04,4.53 0,4.04 3.99,8.27 8.72,8.27 4.13,0 7.17,-2.14 7.17,-7.72 0,-1.59 -0.2,-2.49 -0.2,-2.79 0,-0.05 0,-0.5 0.6,-0.5 0.5,0 0.55,0.15 0.75,1 z"
             id="path6124" /></g></g></g></g></svg>