<?xml version="1.0" encoding="UTF-8" standalone="no"?>
<svg
   xmlns:dc="http://purl.org/dc/elements/1.1/"
   xmlns:cc="http://creativecommons.org/ns#"
   xmlns:rdf="http://www.w3.org/1999/02/22-rdf-syntax-ns#"
   xmlns:svg="http://www.w3.org/2000/svg"
   xmlns="http://www.w3.org/2000/svg"
   xmlns:sodipodi="http://sodipodi.sourceforge.net/DTD/sodipodi-0.dtd"
   xmlns:inkscape="http://www.inkscape.org/namespaces/inkscape"
   viewBox="0 0 843.84058 702.1131"
   height="702.1131"
   width="843.84058"
   xml:space="preserve"
   version="1.1"
   id="svg2"
   inkscape:version="0.91 r13725"
   sodipodi:docname="mc_0.svg"><sodipodi:namedview
     pagecolor="#ffffff"
     bordercolor="#666666"
     borderopacity="1"
     objecttolerance="10"
     gridtolerance="10"
     guidetolerance="10"
     inkscape:pageopacity="0"
     inkscape:pageshadow="2"
     inkscape:window-width="1280"
     inkscape:window-height="1024"
     id="namedview35"
     showgrid="false"
     inkscape:zoom="5.378051"
     inkscape:cx="706.15865"
     inkscape:cy="279.74757"
     inkscape:window-x="0"
     inkscape:window-y="0"
     inkscape:window-maximized="0"
     inkscape:current-layer="g4249" /><metadata
     id="metadata8"><rdf:RDF><cc:Work
         rdf:about=""><dc:format>image/svg+xml</dc:format><dc:type
           rdf:resource="http://purl.org/dc/dcmitype/StillImage" /><dc:title /></cc:Work></rdf:RDF></metadata><defs
     id="defs6"><marker
       inkscape:stockid="Arrow1Mend"
       orient="auto"
       refY="0.0"
       refX="0.0"
       id="Arrow1Mend"
       style="overflow:visible;"
       inkscape:isstock="true"><path
         id="path5173"
         d="M 0.0,0.0 L 5.0,-5.0 L -12.5,0.0 L 5.0,5.0 L 0.0,0.0 z "
         style="fill-rule:evenodd;stroke:#a21e1e;stroke-width:1pt;stroke-opacity:1;fill:#a21e1e;fill-opacity:1"
         transform="scale(0.4) rotate(180) translate(10,0)" /></marker></defs><g
     transform="matrix(1.25,0,0,-1.25,0,702.11311)"
     id="g10"><rect
       style="opacity:1;fill:#ffffff;fill-opacity:1;stroke:#ffffff;stroke-width:1.12;stroke-linecap:butt;stroke-linejoin:miter;stroke-miterlimit:4;stroke-dasharray:none;stroke-dashoffset:0;stroke-opacity:1"
       id="rect4436"
       width="677.99908"
       height="561.91003"
       x="0.95545387"
       y="-560.32397"
       transform="scale(1,-1)" /><g
       id="g4255"
       transform="translate(-477.1989,-208.25389)"
       style="fill:#c6f6a3;fill-opacity:1"><path
         style="fill:#c6f6a3;fill-opacity:1;fill-rule:evenodd;stroke:#000000;stroke-width:2.4000001;stroke-linecap:butt;stroke-linejoin:miter;stroke-miterlimit:4;stroke-dasharray:none;stroke-opacity:1"
         d="m 1032.3197,626.11278 c 0,0 100.7158,19.7564 99.0996,-145.10049 -1.6163,-164.8569 -54.9523,-158.39192 -101.8234,-130.10765 -46.87113,28.28427 -67.28023,58.78085 -65.95513,80.49981 3.4182,56.0238 53.79113,39.94663 28.9241,121.89852 -0.9446,3.11313 -5.5718,24.37916 0.198,43.19899 4.0625,13.2512 10.30063,24.99175 39.56973,29.62506"
         id="path4138"
         inkscape:connector-curvature="0"
         sodipodi:nodetypes="csssssc" /></g><g
       id="g4249"
       transform="translate(-550.98029,-61.881155)"
       style="stroke:#000000;stroke-opacity:1;fill:#ff7f7f;fill-opacity:1"><path
         style="fill:#ff7f7f;fill-opacity:1;fill-rule:evenodd;stroke:#000000;stroke-width:2.4000001;stroke-linecap:butt;stroke-linejoin:miter;stroke-miterlimit:4;stroke-dasharray:none;stroke-opacity:1"
         d="m 599.74573,396.442 c 0,0 54.25204,-24.74845 33.39244,-58.50976 -20.8596,-33.76132 -77.74941,-93.07173 -75.85308,-6.38728 1.89632,86.68445 42.46064,64.89704 42.46064,64.89704 z"
         id="path4159"
         inkscape:connector-curvature="0"
         sodipodi:nodetypes="cssc" /><g
         style="stroke-width:0.98141336"
         transform="matrix(1.0401639,0,0,-0.99814639,282.51102,550.67786)"
         id="g4444"><g
           style="font-style:normal;font-variant:normal;font-weight:normal;font-stretch:normal;letter-spacing:normal;word-spacing:normal;text-anchor:start;fill:none;fill-opacity:1;fill-rule:evenodd;stroke:#000000;stroke-width:0.98141336;stroke-linecap:butt;stroke-linejoin:miter;stroke-miterlimit:10.43299961;stroke-dasharray:none;stroke-dashoffset:0;stroke-opacity:1"
           id="g4500"
           transform="matrix(1.0030187,0,0,-1.0030187,-175.52827,632.88044)"
           xml:space="preserve"
           stroke-miterlimit="10.433"
           font-style="normal"
           font-variant="normal"
           font-weight="normal"
           font-stretch="normal"
           font-size-adjust="none"
           letter-spacing="normal"
           word-spacing="normal"><path
             style="fill:#000000;stroke-width:0"
             inkscape:connector-curvature="0"
             d="m 488.13,440.62 0,0.02 0,0.01 0,0.02 -0.01,0.02 0,0.01 0,0.02 -0.01,0.02 0,0.02 -0.01,0.02 -0.01,0.02 -0.01,0.02 -0.01,0.02 -0.01,0.02 -0.01,0.02 -0.01,0.02 -0.02,0.02 -0.01,0.02 -0.02,0.02 -0.02,0.02 -0.02,0.02 -0.02,0.02 -0.02,0.01 -0.03,0.02 -0.02,0.01 -0.03,0.01 -0.02,0.01 -0.01,0 -0.02,0.01 -0.01,0 -0.02,0.01 -0.02,0 -0.01,0.01 -0.02,0 -0.02,0 -0.02,0 -0.02,0 -0.02,0.01 -0.02,0 -0.02,0 c -0.25,0 -0.3,-0.05 -0.9,-0.75 l -2.39,-2.84 c -1.29,2.34 -3.88,3.59 -7.12,3.59 -6.33,0 -12.3,-5.73 -12.3,-11.76 0,-4.03 2.64,-6.32 5.18,-7.07 l 5.33,-1.4 c 1.84,-0.44 4.58,-1.19 4.58,-5.28 0,-4.48 -4.08,-9.16 -8.97,-9.16 -3.19,0 -8.71,1.09 -8.71,7.27 0,1.2 0.25,2.39 0.29,2.69 0.05,0.2 0.11,0.25 0.11,0.35 0,0.5 -0.35,0.55 -0.6,0.55 -0.25,0 -0.35,-0.05 -0.5,-0.2 -0.2,-0.2 -2.99,-11.56 -2.99,-11.71 0,-0.3 0.25,-0.5 0.55,-0.5 0.25,0 0.3,0.05 0.9,0.75 l 2.44,2.84 c 2.14,-2.89 5.52,-3.59 8.41,-3.59 6.78,0 12.66,6.63 12.66,12.81 0,3.43 -1.7,5.13 -2.44,5.83 -1.15,1.14 -1.9,1.34 -6.33,2.48 -1.1,0.3 -2.89,0.8 -3.34,0.9 -1.34,0.45 -3.04,1.89 -3.04,4.53 0,4.04 3.99,8.27 8.72,8.27 4.13,0 7.17,-2.14 7.17,-7.72 0,-1.59 -0.2,-2.49 -0.2,-2.79 0,-0.05 0,-0.5 0.6,-0.5 0.5,0 0.55,0.15 0.75,1 z"
             id="path4447" /></g></g></g><text
       y="-3.8375676"
       x="334.90292"
       transform="scale(1.0009965,-0.99900446)"
       style="font-variant:normal;font-weight:normal;font-size:15.05717564px;font-family:'DejaVu Sans';-inkscape-font-specification:DejaVuSans;writing-mode:lr-tb;fill:#000000;fill-opacity:1;fill-rule:nonzero;stroke:none"
       id="text220"><tspan
         x="344.47931 392.28583 440.13754 492.71719 545.34204 593.14856"
         id="tspan222" /></text>
<path
       id="path4190-6"
       d="m 638.65867,211.01299 0.10432,0.13641 0.0962,0.13641 0.0963,0.12839 0.0882,0.12036 0.0963,0.12036 0.0963,0.12037 0.0962,0.11233 0.0963,0.10431 0.0962,0.10432 0.0883,0.0963 0.0962,0.0963 0.10432,0.0883 0.0963,0.0802 0.0963,0.0802 0.0962,0.0802 0.10432,0.0722 0.10432,0.0722 0.10432,0.0642 0.10432,0.0562 0.10432,0.0562 0.11232,0.0562 0.11232,0.0482 0.11232,0.0482 0.1124,0.0402 0.12032,0.0402 0.1204,0.0321 0.1284,0.0321 0.12832,0.0241 0.1284,0.0241 0.1364,0.0161 0.13648,0.0161 0.1364,0.0161 c 0.33696,0.0241 0.64192,0.0482 0.64192,0.60984 0,0.0883 -0.048,0.39319 -0.3932,0.39319 -0.674,0 -1.54064,-0.11235 -2.23872,-0.11235 -0.89072,0 -2.07024,0.11235 -2.89672,0.11235 -0.2648,0 -0.56976,-0.0883 -0.56976,-0.61787 0,-0.36109 0.3932,-0.38516 0.50552,-0.38516 0.89072,-0.0642 1.13944,-0.39318 1.13944,-0.81846 0,-0.38516 -0.18456,-0.666 -0.49744,-1.11535 l -9.1716,-13.52872 -2.54368,14.28299 c -0.048,0.24874 -0.048,0.31293 -0.048,0.42528 0,0.75426 1.55664,0.75426 1.75728,0.75426 0.47344,0 0.83448,0 0.83448,0.60984 0,0.0241 -0.024,0.39319 -0.47344,0.39319 -0.8104,0 -2.7924,-0.11235 -3.6108,-0.11235 -0.69008,0 -2.3912,0.11235 -3.09736,0.11235 -0.24872,0 -0.56168,-0.0883 -0.56168,-0.61787 0,-0.38516 0.38512,-0.38516 0.69808,-0.38516 1.57272,0 1.5968,-0.17653 1.7332,-0.90673 l 3.0492,-16.98712 c 0.11232,-0.58576 0.1364,-0.76229 0.67408,-0.76229 0.52952,0 0.666,0.2006 0.9548,0.60983 z"
       inkscape:connector-curvature="0"
       style="font-style:normal;font-variant:normal;font-weight:normal;font-stretch:normal;letter-spacing:normal;word-spacing:normal;text-anchor:start;fill:#000000;fill-opacity:1;fill-rule:evenodd;stroke:#000000;stroke-width:0;stroke-linecap:butt;stroke-linejoin:miter;stroke-miterlimit:10.43299961;stroke-dasharray:none;stroke-dashoffset:0;stroke-opacity:1" /></g></svg>