<?xml version="1.0" encoding="UTF-8" standalone="no"?>
<svg
   xmlns:dc="http://purl.org/dc/elements/1.1/"
   xmlns:cc="http://creativecommons.org/ns#"
   xmlns:rdf="http://www.w3.org/1999/02/22-rdf-syntax-ns#"
   xmlns:svg="http://www.w3.org/2000/svg"
   xmlns="http://www.w3.org/2000/svg"
   xmlns:sodipodi="http://sodipodi.sourceforge.net/DTD/sodipodi-0.dtd"
   xmlns:inkscape="http://www.inkscape.org/namespaces/inkscape"
   viewBox="0 0 843.84058 702.1131"
   height="702.1131"
   width="843.84058"
   xml:space="preserve"
   version="1.1"
   id="svg2"
   inkscape:version="0.91 r13725"
   sodipodi:docname="mc_1.svg"><sodipodi:namedview
     pagecolor="#ffffff"
     bordercolor="#666666"
     borderopacity="1"
     objecttolerance="10"
     gridtolerance="10"
     guidetolerance="10"
     inkscape:pageopacity="0"
     inkscape:pageshadow="2"
     inkscape:window-width="1280"
     inkscape:window-height="1024"
     id="namedview35"
     showgrid="false"
     inkscape:zoom="2.6890255"
     inkscape:cx="778.78385"
     inkscape:cy="264.20342"
     inkscape:window-x="0"
     inkscape:window-y="0"
     inkscape:window-maximized="0"
     inkscape:current-layer="g4391" /><metadata
     id="metadata8"><rdf:RDF><cc:Work
         rdf:about=""><dc:format>image/svg+xml</dc:format><dc:type
           rdf:resource="http://purl.org/dc/dcmitype/StillImage" /><dc:title /></cc:Work></rdf:RDF></metadata><defs
     id="defs6"><marker
       inkscape:isstock="true"
       style="overflow:visible;"
       id="Arrow1Mend"
       refX="0.0"
       refY="0.0"
       orient="auto"
       inkscape:stockid="Arrow1Mend"><path
         transform="scale(0.4) rotate(180) translate(10,0)"
         style="fill-rule:evenodd;stroke:#a21e1e;stroke-width:1pt;stroke-opacity:1;fill:#a21e1e;fill-opacity:1"
         d="M 0.0,0.0 L 5.0,-5.0 L -12.5,0.0 L 5.0,5.0 L 0.0,0.0 z "
         id="path5173" /></marker></defs><g
     id="g10"
     transform="matrix(1.25,0,0,-1.25,0,702.11311)"><rect
       transform="scale(1,-1)"
       y="-560.61023"
       x="-3.4132829"
       height="561.91003"
       width="677.99908"
       id="rect4436"
       style="opacity:1;fill:#ffffff;fill-opacity:1;stroke:#ffffff;stroke-width:1.12;stroke-linecap:butt;stroke-linejoin:miter;stroke-miterlimit:4;stroke-dasharray:none;stroke-dashoffset:0;stroke-opacity:1" /><g
       style="fill:#c6f6a3;fill-opacity:1"
       transform="translate(-477.1989,-208.25389)"
       id="g4255"><path
         sodipodi:nodetypes="csssssc"
         inkscape:connector-curvature="0"
         id="path4138"
         d="m 1032.3197,626.11278 c 0,0 100.7158,19.7564 99.0996,-145.10049 -1.6163,-164.8569 -54.9523,-158.39192 -101.8234,-130.10765 -46.87113,28.28427 -67.28023,58.78085 -65.95513,80.49981 3.4182,56.0238 53.79113,39.94663 28.9241,121.89852 -0.9446,3.11313 -5.5718,24.37916 0.198,43.19899 4.0625,13.2512 10.30063,24.99175 39.56973,29.62506"
         style="fill:#c6f6a3;fill-opacity:1;fill-rule:evenodd;stroke:#000000;stroke-width:2.4000001;stroke-linecap:butt;stroke-linejoin:miter;stroke-miterlimit:4;stroke-dasharray:none;stroke-opacity:1" /></g><g
       style="stroke:#000000;stroke-opacity:1;fill:#ff7f7f;fill-opacity:1"
       transform="translate(-550.98029,-61.881155)"
       id="g4249"><path
         sodipodi:nodetypes="cssc"
         inkscape:connector-curvature="0"
         id="path4159"
         d="m 599.74573,396.442 c 0,0 54.25204,-24.74845 33.39244,-58.50976 -20.8596,-33.76132 -77.74941,-93.07173 -75.85308,-6.38728 1.89632,86.68445 42.46064,64.89704 42.46064,64.89704 z"
         style="fill:#ff7f7f;fill-opacity:1;fill-rule:evenodd;stroke:#000000;stroke-width:2.4000001;stroke-linecap:butt;stroke-linejoin:miter;stroke-miterlimit:4;stroke-dasharray:none;stroke-opacity:1" /><g
         style="stroke-width:0.99329984;stroke:#000000;stroke-opacity:1;fill:#0b0b0b;fill-opacity:0.98615915"
         transform="matrix(0.92179033,0,0,-1.09953,862.30405,848.63397)"
         id="g4391"><g
           transform="matrix(1.0848454,0,0,0.9094795,-330.99846,195.09964)"
           id="g18"><path
             sodipodi:nodetypes="cc"
             id="path20"
             style="fill:#a21e1e;stroke:#a21e1e;stroke-width:2.24800001;stroke-linecap:butt;stroke-linejoin:miter;stroke-miterlimit:4;stroke-dasharray:none;stroke-opacity:1;marker-end:url(#Arrow1Mend);fill-opacity:1"
             d="m 65.702088,268.81555 37.129472,-29.7394"
             inkscape:connector-curvature="0" /></g></g><g
         id="g4444"
         transform="matrix(1.0401639,0,0,-0.99814639,282.51102,550.67786)"
         style="stroke-width:0.98141336"><g
           word-spacing="normal"
           letter-spacing="normal"
           font-size-adjust="none"
           font-stretch="normal"
           font-weight="normal"
           font-variant="normal"
           font-style="normal"
           stroke-miterlimit="10.433"
           xml:space="preserve"
           transform="matrix(1.0030187,0,0,-1.0030187,-175.52827,632.88044)"
           id="g4500"
           style="font-style:normal;font-variant:normal;font-weight:normal;font-stretch:normal;letter-spacing:normal;word-spacing:normal;text-anchor:start;fill:none;fill-opacity:1;fill-rule:evenodd;stroke:#000000;stroke-width:0.98141336;stroke-linecap:butt;stroke-linejoin:miter;stroke-miterlimit:10.43299961;stroke-dasharray:none;stroke-dashoffset:0;stroke-opacity:1"><path
             id="path4447"
             d="m 488.13,440.62 0,0.02 0,0.01 0,0.02 -0.01,0.02 0,0.01 0,0.02 -0.01,0.02 0,0.02 -0.01,0.02 -0.01,0.02 -0.01,0.02 -0.01,0.02 -0.01,0.02 -0.01,0.02 -0.01,0.02 -0.02,0.02 -0.01,0.02 -0.02,0.02 -0.02,0.02 -0.02,0.02 -0.02,0.02 -0.02,0.01 -0.03,0.02 -0.02,0.01 -0.03,0.01 -0.02,0.01 -0.01,0 -0.02,0.01 -0.01,0 -0.02,0.01 -0.02,0 -0.01,0.01 -0.02,0 -0.02,0 -0.02,0 -0.02,0 -0.02,0.01 -0.02,0 -0.02,0 c -0.25,0 -0.3,-0.05 -0.9,-0.75 l -2.39,-2.84 c -1.29,2.34 -3.88,3.59 -7.12,3.59 -6.33,0 -12.3,-5.73 -12.3,-11.76 0,-4.03 2.64,-6.32 5.18,-7.07 l 5.33,-1.4 c 1.84,-0.44 4.58,-1.19 4.58,-5.28 0,-4.48 -4.08,-9.16 -8.97,-9.16 -3.19,0 -8.71,1.09 -8.71,7.27 0,1.2 0.25,2.39 0.29,2.69 0.05,0.2 0.11,0.25 0.11,0.35 0,0.5 -0.35,0.55 -0.6,0.55 -0.25,0 -0.35,-0.05 -0.5,-0.2 -0.2,-0.2 -2.99,-11.56 -2.99,-11.71 0,-0.3 0.25,-0.5 0.55,-0.5 0.25,0 0.3,0.05 0.9,0.75 l 2.44,2.84 c 2.14,-2.89 5.52,-3.59 8.41,-3.59 6.78,0 12.66,6.63 12.66,12.81 0,3.43 -1.7,5.13 -2.44,5.83 -1.15,1.14 -1.9,1.34 -6.33,2.48 -1.1,0.3 -2.89,0.8 -3.34,0.9 -1.34,0.45 -3.04,1.89 -3.04,4.53 0,4.04 3.99,8.27 8.72,8.27 4.13,0 7.17,-2.14 7.17,-7.72 0,-1.59 -0.2,-2.49 -0.2,-2.79 0,-0.05 0,-0.5 0.6,-0.5 0.5,0 0.55,0.15 0.75,1 z"
             inkscape:connector-curvature="0"
             style="fill:#000000;stroke-width:0" /></g></g></g><text
       id="text220"
       style="font-variant:normal;font-weight:normal;font-size:15.05717564px;font-family:'DejaVu Sans';-inkscape-font-specification:DejaVuSans;writing-mode:lr-tb;fill:#000000;fill-opacity:1;fill-rule:nonzero;stroke:none"
       transform="scale(1.0009965,-0.99900446)"
       x="334.90292"
       y="-3.8375676"><tspan
         id="tspan222"
         x="344.47931 392.28583 440.13754 492.71719 545.34204 593.14856" /></text>
<g
       id="g3386"
       transform="matrix(0.54285444,0,0,-0.59385387,-137.77517,485.71725)"
       style="fill:#a21e1e;fill-opacity:1"><g
         word-spacing="normal"
         letter-spacing="normal"
         font-size-adjust="none"
         font-stretch="normal"
         font-weight="normal"
         font-variant="normal"
         font-style="normal"
         stroke-miterlimit="10.433"
         xml:space="preserve"
         transform="matrix(1.0030187,0,0,-1.0030187,-175.52827,632.88044)"
         id="g3388"
         style="font-style:normal;font-variant:normal;font-weight:normal;font-stretch:normal;letter-spacing:normal;word-spacing:normal;text-anchor:start;fill:#a21e1e;fill-opacity:1;fill-rule:evenodd;stroke:#000000;stroke-width:1.76123989;stroke-linecap:butt;stroke-linejoin:miter;stroke-miterlimit:10.43299961;stroke-dasharray:none;stroke-dashoffset:0;stroke-opacity:1"><path
           id="path3390"
           d="m 475,424.84 -0.13,-0.01 -0.12,-0.01 -0.13,-0.02 -0.12,-0.03 -0.12,-0.03 -0.12,-0.04 -0.11,-0.04 -0.11,-0.04 -0.11,-0.05 -0.1,-0.06 -0.1,-0.06 -0.1,-0.06 -0.09,-0.07 -0.09,-0.07 -0.09,-0.07 -0.08,-0.08 -0.08,-0.08 -0.07,-0.08 -0.07,-0.09 -0.06,-0.08 -0.06,-0.09 -0.06,-0.1 -0.05,-0.09 -0.04,-0.1 -0.04,-0.09 -0.04,-0.1 -0.03,-0.1 -0.02,-0.1 -0.02,-0.1 -0.02,-0.11 0,-0.1 -0.01,-0.1 c 0,-0.7 0.44,-1.44 1.55,-1.44 1.09,0 2.28,0.85 2.28,2.78 0,2.25 -2.14,4.28 -5.92,4.28 -6.58,0 -8.42,-5.07 -8.42,-7.26 0,-3.89 3.69,-4.64 5.12,-4.94 2.6,-0.5 5.19,-1.05 5.19,-3.78 0,-1.3 -1.14,-5.48 -7.12,-5.48 -0.71,0 -4.54,0 -5.69,2.64 1.9,-0.25 3.14,1.25 3.14,2.64 0,1.14 -0.8,1.75 -1.85,1.75 -1.29,0 -2.78,-1.05 -2.78,-3.3 0,-2.84 2.85,-4.83 7.13,-4.83 8.06,0 10.01,6.03 10.01,8.27 0,1.79 -0.95,3.04 -1.54,3.64 -1.35,1.39 -2.8,1.64 -4.99,2.09 -1.79,0.39 -3.78,0.75 -3.78,2.99 0,1.45 1.19,4.48 5.58,4.48 1.23,0 3.73,-0.34 4.48,-2.28 z"
           inkscape:connector-curvature="0"
           style="fill:#a21e1e;fill-opacity:1;stroke-width:0" /><path
           id="path3392"
           d="m 502.28,419.79 -0.01,0.48 -0.03,0.47 -0.05,0.46 -0.07,0.44 -0.09,0.44 -0.1,0.42 -0.13,0.4 -0.14,0.4 -0.15,0.38 -0.18,0.36 -0.19,0.36 -0.2,0.34 -0.22,0.32 -0.24,0.31 -0.24,0.3 -0.27,0.28 -0.27,0.26 -0.29,0.25 -0.3,0.24 -0.31,0.22 -0.32,0.2 -0.34,0.19 -0.34,0.17 -0.35,0.15 -0.37,0.13 -0.37,0.12 -0.38,0.1 -0.39,0.09 -0.4,0.06 -0.4,0.05 -0.41,0.03 -0.42,0 c -6.67,0 -13.35,-7.06 -13.35,-14.14 0,-4.93 3.33,-8.42 7.97,-8.42 l 0.05,1.1 c -2.14,0 -4.33,1.54 -4.33,5.43 0,2.44 1.3,7.82 2.89,10.36 2.49,3.83 5.33,4.58 6.72,4.58 2.89,0 4.39,-2.39 4.39,-5.37 0,-1.96 -1,-7.18 -2.89,-10.43 -1.75,-2.89 -4.48,-4.57 -6.78,-4.57 l 0,0 -0.05,-1.1 c 6.63,0 13.35,6.88 13.35,14.14 z"
           inkscape:connector-curvature="0"
           style="fill:#a21e1e;fill-opacity:1;stroke-width:0" /><path
           id="path3394"
           d="m 520.47,409 0.06,-0.19 0.06,-0.19 0.07,-0.18 0.07,-0.18 0.08,-0.17 0.09,-0.16 0.1,-0.16 0.1,-0.16 0.1,-0.15 0.11,-0.15 0.12,-0.14 0.12,-0.13 0.13,-0.13 0.13,-0.12 0.14,-0.12 0.14,-0.11 0.15,-0.11 0.15,-0.1 0.16,-0.09 0.16,-0.09 0.16,-0.08 0.17,-0.07 0.18,-0.07 0.17,-0.06 0.18,-0.06 0.18,-0.04 0.19,-0.05 0.19,-0.03 0.19,-0.02 0.19,-0.02 0.2,-0.01 0.2,-0.01 c 1.74,0 2.89,1.14 3.69,2.74 0.84,1.79 1.48,4.84 1.48,4.93 0,0.5 -0.43,0.5 -0.59,0.5 -0.5,0 -0.55,-0.2 -0.71,-0.9 -0.68,-2.78 -1.63,-6.17 -3.73,-6.17 -1.05,0 -1.53,0.65 -1.53,2.29 0,1.1 0.59,3.44 0.98,5.17 l 1.41,5.4 c 0.14,0.75 0.64,2.64 0.84,3.39 0.25,1.14 0.75,3.03 0.75,3.32 0,0.91 -0.7,1.35 -1.45,1.35 -0.25,0 -1.55,-0.05 -1.94,-1.74 -0.95,-3.64 -3.14,-12.36 -3.73,-15 -0.06,-0.2 -2.05,-4.18 -5.69,-4.18 -2.59,0 -3.09,2.25 -3.09,4.09 0,2.78 1.4,6.72 2.7,10.16 0.6,1.5 0.85,2.18 0.85,3.14 0,2.23 -1.6,4.07 -4.1,4.07 -4.73,0 -6.58,-7.21 -6.58,-7.67 0,-0.5 0.5,-0.5 0.61,-0.5 0.5,0 0.55,0.11 0.8,0.91 1.23,4.33 3.14,6.17 5.03,6.17 0.44,0 1.25,-0.05 1.25,-1.64 0,-1.2 -0.56,-2.64 -0.86,-3.39 -1.84,-4.94 -2.89,-8.02 -2.89,-10.45 0,-4.74 3.44,-5.99 6.14,-5.99 3.28,0 5.08,2.24 5.92,3.35 z"
           inkscape:connector-curvature="0"
           style="fill:#a21e1e;fill-opacity:1;stroke-width:0" /><path
           id="path3396"
           d="m 535.98,409.14 -0.01,-0.07 -0.02,-0.08 -0.01,-0.07 -0.02,-0.08 -0.04,-0.16 -0.03,-0.16 -0.04,-0.16 -0.04,-0.16 -0.04,-0.16 -0.03,-0.16 -0.02,-0.08 -0.02,-0.07 -0.01,-0.07 -0.02,-0.07 -0.01,-0.07 -0.02,-0.07 -0.01,-0.06 -0.01,-0.06 -0.01,-0.06 -0.01,-0.05 -0.01,-0.05 -0.01,-0.04 0,-0.04 -0.01,-0.04 0,-0.03 0,-0.02 c 0,-0.89 0.7,-1.35 1.44,-1.35 0.61,0 1.5,0.39 1.84,1.39 0.11,0.21 1.8,6.99 2,7.88 0.39,1.64 1.3,5.12 1.6,6.48 0.2,0.64 1.59,2.99 2.78,4.08 0.4,0.34 1.84,1.64 4,1.64 1.28,0 2.03,-0.59 2.08,-0.59 -1.49,-0.25 -2.58,-1.46 -2.58,-2.74 0,-0.79 0.54,-1.75 1.89,-1.75 1.34,0 2.73,1.14 2.73,2.94 0,1.75 -1.59,3.23 -4.12,3.23 -3.25,0 -5.44,-2.43 -6.39,-3.82 -0.39,2.23 -2.19,3.82 -4.53,3.82 -2.29,0 -3.24,-1.93 -3.69,-2.82 -0.89,-1.71 -1.55,-4.69 -1.55,-4.85 0,-0.5 0.5,-0.5 0.61,-0.5 0.5,0 0.55,0.07 0.84,1.16 0.85,3.53 1.85,5.92 3.64,5.92 0.85,0 1.55,-0.39 1.55,-2.28 0,-1.05 -0.15,-1.61 -0.79,-4.19 z"
           inkscape:connector-curvature="0"
           style="fill:#a21e1e;fill-opacity:1;stroke-width:0" /><path
           id="path3398"
           d="m 575.21,425.14 -0.15,0 -0.15,0 -0.14,-0.01 -0.14,0 -0.15,-0.01 -0.13,-0.02 -0.07,-0.01 -0.07,-0.01 -0.07,-0.02 -0.07,-0.01 -0.07,-0.02 -0.07,-0.02 -0.06,-0.02 -0.07,-0.02 -0.07,-0.03 -0.06,-0.03 -0.07,-0.03 -0.07,-0.04 -0.06,-0.04 -0.07,-0.04 -0.07,-0.05 -0.06,-0.04 -0.07,-0.06 -0.06,-0.05 -0.07,-0.06 -0.07,-0.07 c -0.79,-0.75 -0.89,-1.59 -0.89,-1.93 0,-1.21 0.89,-1.75 1.85,-1.75 1.44,0 2.79,1.2 2.79,3.18 0,2.44 -2.34,4.28 -5.89,4.28 -6.71,0 -13.34,-7.12 -13.34,-14.14 0,-4.48 2.89,-8.42 8.06,-8.42 7.13,0 11.32,5.28 11.32,5.88 0,0.29 -0.3,0.65 -0.6,0.65 -0.25,0 -0.34,-0.11 -0.65,-0.5 -3.94,-4.93 -9.37,-4.93 -9.96,-4.93 -3.14,0 -4.48,2.43 -4.48,5.43 0,2.03 0.98,6.88 2.69,9.96 1.54,2.84 4.28,4.98 7.01,4.98 1.7,0 3.59,-0.64 4.3,-1.98 z"
           inkscape:connector-curvature="0"
           style="fill:#a21e1e;fill-opacity:1;stroke-width:0" /><path
           id="path3400"
           d="m 586.38,417.71 0.15,0.01 0.15,0 0.17,0 0.18,0 0.18,0.01 0.2,0 0.21,0.01 0.22,0.01 0.22,0.01 0.23,0.01 0.24,0.01 0.25,0.02 0.25,0.02 0.26,0.02 0.52,0.05 0.53,0.07 0.55,0.07 0.54,0.1 0.54,0.11 0.54,0.12 0.26,0.07 0.26,0.08 0.25,0.08 0.25,0.08 0.24,0.09 0.24,0.1 c 3.48,1.5 3.73,4.43 3.73,5.12 0,2.2 -1.89,4.23 -5.33,4.23 l 0,-1.09 c 2.35,0 3.69,-1.44 3.69,-3.14 0,-5.17 -7.97,-5.17 -10.01,-5.17 l -2.05,0 c 1.95,7.56 7.08,8.31 8.37,8.31 l 0,1.09 c -5.53,0 -13.04,-4.82 -13.04,-13.54 0,-5.08 2.93,-9.02 7.81,-9.02 7.12,0 11.31,5.28 11.31,5.88 0,0.29 -0.29,0.65 -0.59,0.65 -0.25,0 -0.35,-0.11 -0.66,-0.5 -3.94,-4.93 -9.36,-4.93 -9.95,-4.93 -3.89,0 -4.34,4.18 -4.34,5.78 0,0.59 0.04,2.14 0.79,5.18 z"
           inkscape:connector-curvature="0"
           style="fill:#a21e1e;fill-opacity:1;stroke-width:0" /></g></g><path
       id="path4190-6"
       d="m 638.60188,211.10239 0.10432,0.13641 0.0962,0.13641 0.0963,0.12839 0.0882,0.12036 0.0963,0.12036 0.0963,0.12037 0.0962,0.11233 0.0963,0.10431 0.0962,0.10432 0.0883,0.0963 0.0962,0.0963 0.10432,0.0883 0.0963,0.0802 0.0963,0.0802 0.0962,0.0802 0.10432,0.0722 0.10432,0.0722 0.10432,0.0642 0.10432,0.0562 0.10432,0.0562 0.11232,0.0562 0.11232,0.0482 0.11232,0.0482 0.1124,0.0402 0.12032,0.0402 0.1204,0.0321 0.1284,0.0321 0.12832,0.0241 0.1284,0.0241 0.1364,0.0161 0.13648,0.0161 0.1364,0.0161 c 0.33696,0.0241 0.64192,0.0482 0.64192,0.60984 0,0.0883 -0.048,0.39319 -0.3932,0.39319 -0.674,0 -1.54064,-0.11235 -2.23872,-0.11235 -0.89072,0 -2.07024,0.11235 -2.89672,0.11235 -0.2648,0 -0.56976,-0.0883 -0.56976,-0.61787 0,-0.36109 0.3932,-0.38516 0.50552,-0.38516 0.89072,-0.0642 1.13944,-0.39318 1.13944,-0.81846 0,-0.38516 -0.18456,-0.666 -0.49744,-1.11535 l -9.1716,-13.52872 -2.54368,14.28299 c -0.048,0.24874 -0.048,0.31293 -0.048,0.42528 0,0.75426 1.55664,0.75426 1.75728,0.75426 0.47344,0 0.83448,0 0.83448,0.60984 0,0.0241 -0.024,0.39319 -0.47344,0.39319 -0.8104,0 -2.7924,-0.11235 -3.6108,-0.11235 -0.69008,0 -2.3912,0.11235 -3.09736,0.11235 -0.24872,0 -0.56168,-0.0883 -0.56168,-0.61787 0,-0.38516 0.38512,-0.38516 0.69808,-0.38516 1.57272,0 1.5968,-0.17653 1.7332,-0.90673 l 3.0492,-16.98712 c 0.11232,-0.58576 0.1364,-0.76229 0.67408,-0.76229 0.52952,0 0.666,0.2006 0.9548,0.60983 z"
       inkscape:connector-curvature="0"
       style="font-style:normal;font-variant:normal;font-weight:normal;font-stretch:normal;letter-spacing:normal;word-spacing:normal;text-anchor:start;fill:#000000;fill-opacity:1;fill-rule:evenodd;stroke:#000000;stroke-width:0;stroke-linecap:butt;stroke-linejoin:miter;stroke-miterlimit:10.43299961;stroke-dasharray:none;stroke-dashoffset:0;stroke-opacity:1" /></g></svg>