<?xml version="1.0" encoding="UTF-8" standalone="no"?>
<svg
   xmlns:dc="http://purl.org/dc/elements/1.1/"
   xmlns:cc="http://creativecommons.org/ns#"
   xmlns:rdf="http://www.w3.org/1999/02/22-rdf-syntax-ns#"
   xmlns:svg="http://www.w3.org/2000/svg"
   xmlns="http://www.w3.org/2000/svg"
   xmlns:sodipodi="http://sodipodi.sourceforge.net/DTD/sodipodi-0.dtd"
   xmlns:inkscape="http://www.inkscape.org/namespaces/inkscape"
   viewBox="0 0 843.84058 702.1131"
   height="702.1131"
   width="843.84058"
   xml:space="preserve"
   version="1.1"
   id="svg2"
   inkscape:version="0.91 r13725"
   sodipodi:docname="mc_5.svg"><sodipodi:namedview
     pagecolor="#ffffff"
     bordercolor="#666666"
     borderopacity="1"
     objecttolerance="10"
     gridtolerance="10"
     guidetolerance="10"
     inkscape:pageopacity="0"
     inkscape:pageshadow="2"
     inkscape:window-width="1280"
     inkscape:window-height="1024"
     id="namedview35"
     showgrid="false"
     inkscape:zoom="18.555842"
     inkscape:cx="42.373195"
     inkscape:cy="346.16119"
     inkscape:window-x="0"
     inkscape:window-y="0"
     inkscape:window-maximized="0"
     inkscape:current-layer="svg2" /><metadata
     id="metadata8"><rdf:RDF><cc:Work
         rdf:about=""><dc:format>image/svg+xml</dc:format><dc:type
           rdf:resource="http://purl.org/dc/dcmitype/StillImage" /><dc:title /></cc:Work></rdf:RDF></metadata><defs
     id="defs6"><marker
       inkscape:stockid="Arrow1Mend"
       orient="auto"
       refY="0.0"
       refX="0.0"
       id="Arrow1Mend"
       style="overflow:visible;"
       inkscape:isstock="true"><path
         id="path5173"
         d="M 0.0,0.0 L 5.0,-5.0 L -12.5,0.0 L 5.0,5.0 L 0.0,0.0 z "
         style="fill-rule:evenodd;stroke:#a21e1e;stroke-width:1pt;stroke-opacity:1;fill:#a21e1e;fill-opacity:1"
         transform="scale(0.4) rotate(180) translate(10,0)" /></marker><marker
       inkscape:stockid="Arrow1Mend"
       orient="auto"
       refY="0"
       refX="0"
       id="Arrow1Mend-3"
       style="overflow:visible"
       inkscape:isstock="true"><path
         inkscape:connector-curvature="0"
         id="path5173-6"
         d="M 0,0 5,-5 -12.5,0 5,5 0,0 Z"
         style="fill:#a21e1e;fill-opacity:1;fill-rule:evenodd;stroke:#a21e1e;stroke-width:1pt;stroke-opacity:1"
         transform="matrix(-0.4,0,0,-0.4,-4,0)" /></marker></defs><rect
     style="opacity:1;fill:#ffffff;fill-opacity:1;stroke:#ffffff;stroke-width:1.39999998;stroke-linecap:butt;stroke-linejoin:miter;stroke-miterlimit:4;stroke-dasharray:none;stroke-dashoffset:0;stroke-opacity:1"
     id="rect4436"
     width="847.49884"
     height="702.38751"
     x="3.0485566"
     y="-1.493842" /><path
     sodipodi:nodetypes="cc"
     inkscape:connector-curvature="0"
     id="path6053-3"
     d="M 240.21015,202.01712 364.22816,348.63829"
     style="fill:none;fill-rule:evenodd;stroke:#000000;stroke-width:1.39999998;stroke-linecap:butt;stroke-linejoin:miter;stroke-miterlimit:4;stroke-dasharray:none;stroke-opacity:1" /><g
     style="fill:#c6f6a3;fill-opacity:1"
     transform="matrix(1.25,0,0,-1.25,-596.49862,962.43047)"
     id="g4255"><path
       sodipodi:nodetypes="csssssc"
       inkscape:connector-curvature="0"
       id="path4138"
       d="m 1032.3197,626.11278 c 0,0 100.7158,19.7564 99.0996,-145.10049 -1.6163,-164.8569 -54.9523,-158.39192 -101.8234,-130.10765 -46.87113,28.28427 -67.28023,58.78085 -65.95513,80.49981 3.4182,56.0238 53.79113,39.94663 28.9241,121.89852 -0.9446,3.11313 -5.5718,24.37916 0.198,43.19899 4.0625,13.2512 10.30063,24.99175 39.56973,29.62506"
       style="fill:#c6f6a3;fill-opacity:1;fill-rule:evenodd;stroke:#000000;stroke-width:2.4000001;stroke-linecap:butt;stroke-linejoin:miter;stroke-miterlimit:4;stroke-dasharray:none;stroke-opacity:1" /></g><path
     style="fill:#ff7f7f;fill-opacity:1;fill-rule:evenodd;stroke:#000000;stroke-width:3;stroke-linecap:butt;stroke-linejoin:miter;stroke-miterlimit:4;stroke-dasharray:none;stroke-opacity:1"
     d="m 60.956802,283.91205 c 0,0 67.815048,30.93556 41.740548,73.1372 C 76.622852,399.2509 5.51059,473.38891 7.8810025,365.03335 10.251402,256.67779 60.956802,283.91205 60.956802,283.91205 Z"
     id="path4159"
     inkscape:connector-curvature="0"
     sodipodi:nodetypes="cssc" /><g
     style="fill:#ff7f7f;fill-opacity:1;stroke:#000000;stroke-width:0.98141336;stroke-opacity:1"
     transform="matrix(1.3002049,0,0,1.247683,-335.58659,91.117225)"
     id="g4444"><g
       style="font-style:normal;font-variant:normal;font-weight:normal;font-stretch:normal;letter-spacing:normal;word-spacing:normal;text-anchor:start;fill:none;fill-opacity:1;fill-rule:evenodd;stroke:#000000;stroke-width:0.98141336;stroke-linecap:butt;stroke-linejoin:miter;stroke-miterlimit:10.43299961;stroke-dasharray:none;stroke-dashoffset:0;stroke-opacity:1"
       id="g4500"
       transform="matrix(1.0030187,0,0,-1.0030187,-175.52827,632.88044)"
       xml:space="preserve"
       stroke-miterlimit="10.433"
       font-style="normal"
       font-variant="normal"
       font-weight="normal"
       font-stretch="normal"
       font-size-adjust="none"
       letter-spacing="normal"
       word-spacing="normal"><path
         style="fill:#000000;stroke-width:0"
         inkscape:connector-curvature="0"
         d="m 488.13,440.62 0,0.02 0,0.01 0,0.02 -0.01,0.02 0,0.01 0,0.02 -0.01,0.02 0,0.02 -0.01,0.02 -0.01,0.02 -0.01,0.02 -0.01,0.02 -0.01,0.02 -0.01,0.02 -0.01,0.02 -0.02,0.02 -0.01,0.02 -0.02,0.02 -0.02,0.02 -0.02,0.02 -0.02,0.02 -0.02,0.01 -0.03,0.02 -0.02,0.01 -0.03,0.01 -0.02,0.01 -0.01,0 -0.02,0.01 -0.01,0 -0.02,0.01 -0.02,0 -0.01,0.01 -0.02,0 -0.02,0 -0.02,0 -0.02,0 -0.02,0.01 -0.02,0 -0.02,0 c -0.25,0 -0.3,-0.05 -0.9,-0.75 l -2.39,-2.84 c -1.29,2.34 -3.88,3.59 -7.12,3.59 -6.33,0 -12.3,-5.73 -12.3,-11.76 0,-4.03 2.64,-6.32 5.18,-7.07 l 5.33,-1.4 c 1.84,-0.44 4.58,-1.19 4.58,-5.28 0,-4.48 -4.08,-9.16 -8.97,-9.16 -3.19,0 -8.71,1.09 -8.71,7.27 0,1.2 0.25,2.39 0.29,2.69 0.05,0.2 0.11,0.25 0.11,0.35 0,0.5 -0.35,0.55 -0.6,0.55 -0.25,0 -0.35,-0.05 -0.5,-0.2 -0.2,-0.2 -2.99,-11.56 -2.99,-11.71 0,-0.3 0.25,-0.5 0.55,-0.5 0.25,0 0.3,0.05 0.9,0.75 l 2.44,2.84 c 2.14,-2.89 5.52,-3.59 8.41,-3.59 6.78,0 12.66,6.63 12.66,12.81 0,3.43 -1.7,5.13 -2.44,5.83 -1.15,1.14 -1.9,1.34 -6.33,2.48 -1.1,0.3 -2.89,0.8 -3.34,0.9 -1.34,0.45 -3.04,1.89 -3.04,4.53 0,4.04 3.99,8.27 8.72,8.27 4.13,0 7.17,-2.14 7.17,-7.72 0,-1.59 -0.2,-2.49 -0.2,-2.79 0,-0.05 0,-0.5 0.6,-0.5 0.5,0 0.55,0.15 0.75,1 z"
         id="path4447" /></g></g><text
     id="text220"
     style="font-variant:normal;font-weight:normal;font-size:18.82146835px;font-family:'DejaVu Sans';-inkscape-font-specification:DejaVuSans;writing-mode:lr-tb;fill:#000000;fill-opacity:1;fill-rule:nonzero;stroke:none"
     transform="scale(1.0009965,0.9990045)"
     x="418.62866"
     y="698.01581"><tspan
       id="tspan222"
       x="430.59912 490.35727 550.17194 615.89648 681.67755 741.43567" /></text>
<g
     id="g6180" /><path
     d="m 243.7254,202.88519 a 3.2074821,3.3004589 0 0 1 -3.05064,3.45031 3.2074821,3.3004589 0 0 1 -3.35698,-3.13468 3.2074821,3.3004589 0 0 1 3.04211,-3.45827 3.2074821,3.3004589 0 0 1 3.36471,3.12589"
     sodipodi:open="true"
     sodipodi:end="6.231541"
     sodipodi:start="6.2366199"
     sodipodi:ry="3.3004589"
     sodipodi:rx="3.2074821"
     sodipodi:cy="203.03882"
     sodipodi:cx="240.52139"
     sodipodi:type="arc"
     id="path6055"
     style="opacity:1;fill:#1d0d73;fill-opacity:1;stroke:#1d0d73;stroke-width:1.4000001;stroke-linecap:butt;stroke-linejoin:miter;stroke-miterlimit:4;stroke-dasharray:none;stroke-dashoffset:0;stroke-opacity:1" /><path
     d="m 367.1864,348.21642 a 3.2074821,3.3004589 0 0 1 -3.05064,3.45032 3.2074821,3.3004589 0 0 1 -3.35698,-3.13468 3.2074821,3.3004589 0 0 1 3.0421,-3.45828 3.2074821,3.3004589 0 0 1 3.36472,3.1259"
     sodipodi:open="true"
     sodipodi:end="6.231541"
     sodipodi:start="6.2366199"
     sodipodi:ry="3.3004589"
     sodipodi:rx="3.2074821"
     sodipodi:cy="348.37006"
     sodipodi:cx="363.98239"
     sodipodi:type="arc"
     id="path6055-5"
     style="opacity:1;fill:#1d0d73;fill-opacity:1;stroke:#1d0d73;stroke-width:1.4000001;stroke-linecap:butt;stroke-linejoin:miter;stroke-miterlimit:4;stroke-dasharray:none;stroke-dashoffset:0;stroke-opacity:1" /><path
     sodipodi:nodetypes="cc"
     inkscape:connector-curvature="0"
     id="path6053"
     d="M 90.36731,322.04976 240.79356,202.67566"
     style="fill:none;fill-rule:evenodd;stroke:#000000;stroke-width:1.39999998;stroke-linecap:butt;stroke-linejoin:miter;stroke-miterlimit:4;stroke-dasharray:none;stroke-opacity:1" /><path
     id="path4190-6"
     d="m 798.25976,438.29352 0.1304,-0.17051 0.1203,-0.17052 0.1204,-0.16048 0.1103,-0.15045 0.1204,-0.15045 0.1204,-0.15046 0.1203,-0.14042 0.1204,-0.13039 0.1203,-0.13039 0.1104,-0.12037 0.1203,-0.12036 0.1304,-0.11033 0.1204,-0.1003 0.1204,-0.1003 0.1203,-0.10031 0.1304,-0.0903 0.1304,-0.0903 0.1304,-0.0802 0.1304,-0.0702 0.1304,-0.0702 0.1404,-0.0702 0.1404,-0.0602 0.1404,-0.0602 0.1405,-0.0502 0.1504,-0.0502 0.1505,-0.0401 0.1605,-0.0401 0.1604,-0.0301 0.1605,-0.0301 0.1705,-0.0201 0.1706,-0.0201 0.1705,-0.0201 c 0.4212,-0.0301 0.8024,-0.0602 0.8024,-0.7623 0,-0.11033 -0.06,-0.49148 -0.4915,-0.49148 -0.8425,0 -1.9258,0.14043 -2.7984,0.14043 -1.1134,0 -2.5878,-0.14043 -3.6209,-0.14043 -0.331,0 -0.7122,0.11034 -0.7122,0.77233 0,0.45136 0.4915,0.48145 0.6319,0.48145 1.1134,0.0802 1.4243,0.49148 1.4243,1.02308 0,0.48145 -0.2307,0.8325 -0.6218,1.39419 l -11.4645,16.9109 -3.1796,-17.85374 c -0.06,-0.31093 -0.06,-0.39117 -0.06,-0.5316 0,-0.94283 1.9458,-0.94283 2.1966,-0.94283 0.5918,0 1.0431,0 1.0431,-0.7623 0,-0.0301 -0.03,-0.49148 -0.5918,-0.49148 -1.013,0 -3.4905,0.14043 -4.5135,0.14043 -0.8626,0 -2.989,-0.14043 -3.8717,-0.14043 -0.3109,0 -0.7021,0.11034 -0.7021,0.77233 0,0.48145 0.4814,0.48145 0.8726,0.48145 1.9659,0 1.996,0.22066 2.1665,1.13341 l 3.8115,21.2339 c 0.1404,0.73221 0.1705,0.95287 0.8426,0.95287 0.6619,0 0.8325,-0.25075 1.1935,-0.76229 z"
     inkscape:connector-curvature="0"
     style="font-style:normal;font-variant:normal;font-weight:normal;font-stretch:normal;letter-spacing:normal;word-spacing:normal;text-anchor:start;fill:#000000;fill-opacity:1;fill-rule:evenodd;stroke:#000000;stroke-width:0;stroke-linecap:butt;stroke-linejoin:miter;stroke-miterlimit:10.43299961;stroke-dasharray:none;stroke-dashoffset:0;stroke-opacity:1" /></svg>