<?xml version="1.0" encoding="UTF-8" standalone="no"?>
<!-- Created with Inkscape (http://www.inkscape.org/) -->

<svg
   xmlns:dc="http://purl.org/dc/elements/1.1/"
   xmlns:cc="http://creativecommons.org/ns#"
   xmlns:rdf="http://www.w3.org/1999/02/22-rdf-syntax-ns#"
   xmlns:svg="http://www.w3.org/2000/svg"
   xmlns="http://www.w3.org/2000/svg"
   xmlns:sodipodi="http://sodipodi.sourceforge.net/DTD/sodipodi-0.dtd"
   xmlns:inkscape="http://www.inkscape.org/namespaces/inkscape"
   width="297mm"
   height="210mm"
   viewBox="0 0 1052.3622 744.09448"
   id="svg2"
   version="1.1"
   inkscape:version="0.91 r13725"
   sodipodi:docname="schemecoupling.svg">
  <sodipodi:namedview
     id="base"
     pagecolor="#ffffff"
     bordercolor="#666666"
     borderopacity="1.0"
     inkscape:pageopacity="0.0"
     inkscape:pageshadow="2"
     inkscape:zoom="0.7"
     inkscape:cx="414.38427"
     inkscape:cy="456.228"
     inkscape:document-units="px"
     inkscape:current-layer="layer1"
     showgrid="false"
     showguides="true"
     inkscape:window-width="1280"
     inkscape:window-height="1024"
     inkscape:window-x="0"
     inkscape:window-y="0"
     inkscape:window-maximized="0" />
  <defs
     id="defs4" />
  <metadata
     id="metadata7">
    <rdf:RDF>
      <cc:Work
         rdf:about="">
        <dc:format>image/svg+xml</dc:format>
        <dc:type
           rdf:resource="http://purl.org/dc/dcmitype/StillImage" />
        <dc:title></dc:title>
      </cc:Work>
    </rdf:RDF>
  </metadata>
  <g
     transform="translate(0,-308.26772)"
     id="layer1"
     inkscape:groupmode="layer"
     inkscape:label="Calque 1">
    <rect
       ry="62.85714"
       y="414.95596"
       x="84.253868"
       height="534.37067"
       width="696.59406"
       id="rect3336"
       style="opacity:1;fill:#ffffff;fill-opacity:0;stroke:#000000;stroke-width:3;stroke-linecap:butt;stroke-linejoin:miter;stroke-miterlimit:10.43299961;stroke-dasharray:none;stroke-dashoffset:0;stroke-opacity:1" />
    <rect
       rx="0"
       ry="13.380447"
       y="441.58347"
       x="411.2709"
       height="52.495911"
       width="175.93184"
       id="rect3336-3-5-6-2-9"
       style="opacity:1;fill:#ffffff;fill-opacity:0;stroke:#000000;stroke-width:3;stroke-linecap:butt;stroke-linejoin:miter;stroke-miterlimit:10.43299961;stroke-dasharray:none;stroke-dashoffset:0;stroke-opacity:1" />
    <rect
       rx="0"
       ry="9.0034018"
       y="746.93622"
       x="372.90863"
       height="35.323318"
       width="144.0464"
       id="rect3336-3-5-6-2-9-1"
       style="opacity:1;fill:#ffffff;fill-opacity:0;stroke:#000000;stroke-width:3;stroke-linecap:butt;stroke-linejoin:miter;stroke-miterlimit:10.43299961;stroke-dasharray:none;stroke-dashoffset:0;stroke-opacity:1" />
    <rect
       rx="0"
       ry="16.429827"
       y="822.60846"
       x="342.99271"
       height="108.05431"
       width="221.82816"
       id="rect3336-3-5-6-2-9-2"
       style="opacity:1;fill:#ffffff;fill-opacity:0;stroke:#000000;stroke-width:3;stroke-linecap:butt;stroke-linejoin:miter;stroke-miterlimit:10.43299961;stroke-dasharray:none;stroke-dashoffset:0;stroke-opacity:1" />
    <g
       id="g4271"
       transform="matrix(0.51566129,0,0,0.53784913,267.82239,283.76736)">
      <g
         word-spacing="normal"
         letter-spacing="normal"
         font-size-adjust="none"
         font-stretch="normal"
         font-weight="normal"
         font-variant="normal"
         font-style="normal"
         stroke-miterlimit="10.433"
         xml:space="preserve"
         transform="matrix(1.0629921,0,0,-1.0629921,-186.02362,789.27165)"
         id="content"
         style="font-style:normal;font-variant:normal;font-weight:normal;font-stretch:normal;letter-spacing:normal;word-spacing:normal;text-anchor:start;fill:none;fill-opacity:1;fill-rule:evenodd;stroke:#000000;stroke-width:1.89883614;stroke-linecap:butt;stroke-linejoin:miter;stroke-miterlimit:10.43299961;stroke-dasharray:none;stroke-dashoffset:0;stroke-opacity:1"><path
           id="path4274"
           d="m 489.18,439.72 -30.44,0 -0.95,-11.2 1.25,0 c 0.69,8.02 1.44,9.66 8.96,9.66 0.9,0 2.2,0 2.7,-0.1 1.04,-0.2 1.04,-0.75 1.04,-1.89 l 0,-26.26 c 0,-1.69 0,-2.39 -5.23,-2.39 l -1.99,0 0,-1.54 18.88,0 0,1.54 -1.99,0 c -5.23,0 -5.23,0.7 -5.23,2.39 l 0,26.26 c 0,0.99 0,1.69 0.89,1.89 0.55,0.1 1.89,0.1 2.84,0.1 7.52,0 8.27,-1.64 8.97,-9.66 l 1.24,0 z"
           inkscape:connector-curvature="0"
           style="fill:#000000;stroke-width:0" /><path
           id="path4276"
           d="m 513.67,422.94 0.45,0.12 0.44,0.12 0.44,0.14 0.43,0.15 0.42,0.16 0.42,0.17 0.4,0.18 0.4,0.18 0.39,0.2 0.37,0.21 0.37,0.21 0.35,0.23 0.34,0.23 0.33,0.24 0.32,0.25 0.3,0.26 0.29,0.26 0.27,0.28 0.26,0.28 0.24,0.29 0.23,0.29 0.21,0.3 0.19,0.31 0.17,0.32 0.16,0.32 0.14,0.33 0.11,0.33 0.1,0.34 0.08,0.35 0.05,0.35 0.04,0.35 0.01,0.36 c 0,4.79 -5.68,8.97 -13,8.97 l -15.65,0 0,-1.54 1.2,0 c 3.83,0 3.94,-0.55 3.94,-2.34 l 0,-26.25 c 0,-1.8 -0.11,-2.35 -3.94,-2.35 l -1.2,0 0,-1.54 14.55,0 0,1.54 -1.2,0 c -3.83,0 -3.93,0.55 -3.93,2.35 l 0,12.6 0,1.1 0,12.89 c 0,1.15 0,1.75 1.09,1.9 0.5,0.1 1.95,0.1 2.94,0.1 4.49,0 10.06,-0.2 10.06,-7.43 0,-3.43 -1.19,-7.46 -8.56,-7.46 l -5.53,0 0,-1.1 5.73,0 c 0.79,0 2.89,0 4.63,-1.7 1.89,-1.79 1.89,-3.33 1.89,-6.67 0,-3.24 0,-5.23 2.04,-7.12 2.05,-1.8 4.79,-2.1 6.28,-2.1 3.89,0 4.74,4.09 4.74,5.48 0,0.3 0,0.85 -0.65,0.85 -0.55,0 -0.55,-0.45 -0.6,-0.8 -0.3,-3.53 -2.04,-4.43 -3.29,-4.43 -2.44,0 -2.84,2.54 -3.53,7.17 l -0.65,3.99 c -0.9,3.19 -3.34,4.83 -6.08,5.78 z"
           inkscape:connector-curvature="0"
           style="fill:#000000;stroke-width:0" /><path
           id="path4278"
           d="m 539.21,436.14 0,0.16 0,0.16 0,0.15 0.01,0.14 0.01,0.14 0.02,0.13 0.02,0.12 0.02,0.12 0.03,0.11 0.04,0.1 0.05,0.1 0.05,0.1 0.06,0.08 0.08,0.08 0.08,0.08 0.09,0.07 0.11,0.06 0.12,0.06 0.06,0.03 0.07,0.03 0.07,0.02 0.07,0.03 0.08,0.02 0.08,0.02 0.08,0.03 0.09,0.02 0.09,0.01 0.1,0.02 0.1,0.02 0.1,0.01 0.11,0.02 0.11,0.01 0.12,0.01 0.12,0.01 0.13,0.01 0.13,0.01 0.14,0.01 0.14,0.01 0.14,0.01 0.15,0 0.16,0.01 0.16,0 0.16,0 0.17,0.01 0.18,0 0.18,0 1.3,0 0,1.54 -15.19,0 0,-1.54 1.29,0 c 3.93,0 4.08,-0.55 4.08,-2.34 l 0,-26.25 c 0,-1.8 -0.15,-2.35 -4.08,-2.35 l -1.29,0 0,-1.54 15.19,0 0,1.54 -1.3,0 c -3.94,0 -4.08,0.55 -4.08,2.35 z"
           inkscape:connector-curvature="0"
           style="fill:#000000;stroke-width:0" /><path
           id="path4280"
           d="m 557.31,421.74 -0.15,1.3 0,13.44 c 0,1.65 0.1,2 2.44,2 l 4.43,0 c 7.92,0 7.92,-5.28 7.92,-7.72 0,-2.35 0,-7.72 -7.92,-7.72 l -6.87,0 0.15,-1.3 8.42,0 c 5.97,0 11.35,4.04 11.35,9.02 0,4.88 -4.93,9.26 -11.75,9.26 l -17.59,0 0,-1.54 1.2,0 c 3.83,0 3.94,-0.55 3.94,-2.34 l 0,-26.25 c 0,-1.8 -0.11,-2.35 -3.94,-2.35 l -1.2,0 0,-1.54 14.7,0 0,1.54 -1.2,0 c -3.83,0 -3.93,0.55 -3.93,2.35 z"
           inkscape:connector-curvature="0"
           style="fill:#000000;stroke-width:0" /><path
           id="path4282"
           d="m 615.91,422.89 -0.02,0.94 -0.06,0.94 -0.11,0.91 -0.15,0.91 -0.18,0.88 -0.23,0.87 -0.26,0.85 -0.3,0.83 -0.34,0.81 -0.37,0.79 -0.4,0.76 -0.43,0.74 -0.47,0.71 -0.49,0.69 -0.53,0.66 -0.55,0.63 -0.58,0.6 -0.6,0.57 -0.63,0.54 -0.65,0.51 -0.67,0.47 -0.7,0.44 -0.71,0.39 -0.74,0.37 -0.75,0.32 -0.76,0.29 -0.79,0.24 -0.8,0.2 -0.81,0.16 -0.82,0.11 -0.84,0.07 -0.84,0.03 0,-1.25 c 4.33,0 11.45,-3.53 11.45,-16.28 0,-13.21 -6.82,-17.39 -11.4,-17.39 l 0,0 c -4.79,0 -11.46,4.38 -11.46,17.39 0,12.89 7.27,16.28 11.41,16.28 l 0,1.25 c -8.92,0 -16.54,-7.97 -16.54,-18.23 0,-10.21 7.67,-17.99 16.54,-17.99 9.07,0 16.58,7.92 16.58,17.99 z"
           inkscape:connector-curvature="0"
           style="fill:#000000;stroke-width:0" /><path
           id="path4284"
           d="m 647.99,418.85 -1.24,0 c -0.55,-5.08 -1.25,-11.31 -10.02,-11.31 l -4.08,0 c -2.34,0 -2.44,0.35 -2.44,2 l 0,26.55 c 0,1.69 0,2.39 4.73,2.39 l 1.65,0 0,1.54 -15.94,0 0,-1.54 1.19,0 c 3.84,0 3.93,-0.55 3.93,-2.34 l 0,-26.25 c 0,-1.8 -0.09,-2.35 -3.93,-2.35 l -1.19,0 0,-1.54 25.95,0 z"
           inkscape:connector-curvature="0"
           style="fill:#000000;stroke-width:0" /><path
           id="path4286"
           d="m 661.21,436.14 0,0.16 0,0.16 0,0.15 0.01,0.14 0.01,0.14 0.02,0.13 0.02,0.12 0.02,0.12 0.03,0.11 0.04,0.1 0.05,0.1 0.05,0.1 0.06,0.08 0.08,0.08 0.08,0.08 0.09,0.07 0.11,0.06 0.12,0.06 0.06,0.03 0.07,0.03 0.07,0.02 0.07,0.03 0.08,0.02 0.08,0.02 0.08,0.03 0.09,0.02 0.09,0.01 0.1,0.02 0.1,0.02 0.1,0.01 0.11,0.02 0.11,0.01 0.12,0.01 0.12,0.01 0.13,0.01 0.13,0.01 0.14,0.01 0.14,0.01 0.14,0.01 0.15,0 0.16,0.01 0.16,0 0.16,0 0.17,0.01 0.18,0 0.18,0 1.3,0 0,1.54 -15.19,0 0,-1.54 1.29,0 c 3.93,0 4.08,-0.55 4.08,-2.34 l 0,-26.25 c 0,-1.8 -0.15,-2.35 -4.08,-2.35 l -1.29,0 0,-1.54 15.19,0 0,1.54 -1.3,0 c -3.94,0 -4.08,0.55 -4.08,2.35 z"
           inkscape:connector-curvature="0"
           style="fill:#000000;stroke-width:0" /><polygon
           id="polygon4288"
           points="668.55,415.32 681.75,415.32 681.75,418.2 668.55,418.2 "
           style="fill:#000000;stroke-width:0" /><path
           id="path4290"
           d="m 699.65,414.22 0,-4.33 c 0,-1.8 -0.1,-2.35 -3.79,-2.35 l -1.05,0 0,-1.54 13.5,0 0,1.54 -1.04,0 c -3.69,0 -3.79,0.55 -3.79,2.35 l 0,4.33 4.98,0 0,1.54 -4.98,0 0,22.67 c 0,1 0,1.29 -0.8,1.29 -0.45,0 -0.59,0 -0.99,-0.6 l -15.29,-23.36 1.39,0 12.16,18.58 0,-18.58 -12.16,0 -1.39,0 0,-1.54 z"
           inkscape:connector-curvature="0"
           style="fill:#000000;stroke-width:0" /><path
           id="path4292"
           d="m 725.6317,441.85987 0.15642,0.0321 0.1512,0.0366 0.1512,0.0412 0.15121,0.0458 0.1512,0.0458 0.1512,0.0503 0.14599,0.0504 0.14599,0.0595 0.14078,0.0595 0.14077,0.0641 0.13556,0.0641 0.13556,0.0687 0.13035,0.0732 0.12513,0.0778 0.11992,0.0778 0.11992,0.0778 0.10949,0.087 0.1095,0.0824 0.10427,0.0915 0.0939,0.0915 0.0938,0.0961 0.0834,0.0961 0.0782,0.1007 0.0678,0.1007 0.0626,0.10528 0.0574,0.10528 0.0469,0.10986 0.0417,0.10985 0.0313,0.11444 0.0209,0.11443 0.0156,0.11901 0.005,0.11901 c 0,1.59749 -2.39839,2.89288 -5.21911,2.89288 l -6.12632,0 0,-0.57675 0.43797,0 c 1.39732,0 1.43382,-0.1602 1.43382,-0.71864 l 0,-8.31702 c 0,-0.54013 -0.0365,-0.71864 -1.43382,-0.71864 l -0.43797,0 0,-0.57217 5.40159,0 0,0.57217 -0.43797,0 c -1.40253,0 -1.43903,0.16478 -1.43903,0.71864 l 0,3.94566 0,0.44401 0,4.02348 c 0,0.44857 0.0208,0.55843 0.49532,0.60878 0.14599,0.0137 0.76123,0.0137 1.14705,0.0137 1.74144,0 4.23368,0 4.23368,-2.31613 0,-1.78516 -1.5798,-2.32986 -3.50894,-2.32986 l 0,0 -2.36711,0 0,-0.44401 2.42446,0 c 0.32326,0 1.27219,0 2.06991,-0.65455 0.6361,-0.49436 0.6361,-0.89716 0.6361,-1.96368 0,-1.03906 0,-1.69362 0.83422,-2.29782 0.78208,-0.55844 1.85615,-0.64083 2.36711,-0.64083 1.54331,0 1.94478,1.29538 1.94478,1.77143 0,0.11443 0,0.30668 -0.30762,0.30668 -0.27634,0 -0.29198,-0.14648 -0.31284,-0.30668 -0.0886,-0.92462 -0.68823,-1.32285 -1.25133,-1.32285 -1.03756,0 -1.18355,0.94293 -1.40254,2.39394 -0.19812,1.27708 -0.25548,1.53341 -0.78208,2.05981 -0.18249,0.17393 -0.68823,0.59047 -1.67366,0.86053 z"
           inkscape:connector-curvature="0"
           style="fill:#000000;stroke-width:0" /><path
           id="path4294"
           d="m 735.28783,441.20074 -1.03757,0 c 0,-5.42415 -4.75507,-9.71311 -10.49034,-9.71311 l 0,0 c -5.81871,0 -10.52164,4.33474 -10.52164,9.71311 0,5.42872 4.75507,9.71311 10.49035,9.71311 5.82392,0 10.52163,-4.33016 10.52163,-9.71311 l 1.03757,0 c 0,5.95054 -5.24518,10.62857 -11.52791,10.62857 -6.36617,0 -11.5592,-4.71923 -11.5592,-10.62857 0,-5.95054 5.24517,-10.624 11.52791,-10.624 6.36616,0 11.5592,4.71923 11.5592,10.624 z"
           inkscape:connector-curvature="0"
           style="fill:#000000;stroke-width:0" /></g>    </g>
    <g
       id="g4338"
       transform="matrix(0.51566129,0,0,0.53784913,276.62797,661.18097)">
      <g
         id="g4340"
         transform="matrix(1.0629921,0,0,-1.0629921,-191.90046,787.39352)"
         xml:space="preserve"
         stroke-miterlimit="10.433"
         font-style="normal"
         font-variant="normal"
         font-weight="normal"
         font-stretch="normal"
         font-size-adjust="none"
         letter-spacing="normal"
         word-spacing="normal"
         style="font-style:normal;font-variant:normal;font-weight:normal;font-stretch:normal;letter-spacing:normal;word-spacing:normal;text-anchor:start;fill:none;fill-opacity:1;fill-rule:evenodd;stroke:#000000;stroke-width:1.89883614;stroke-linecap:butt;stroke-linejoin:miter;stroke-miterlimit:10.43299961;stroke-dasharray:none;stroke-dashoffset:0;stroke-opacity:1"><path
           d="m 467.21,436.14 0,0.16 0,0.16 0,0.15 0.01,0.14 0.01,0.14 0.02,0.13 0.02,0.12 0.02,0.12 0.03,0.11 0.04,0.1 0.05,0.1 0.05,0.1 0.06,0.08 0.08,0.08 0.08,0.08 0.09,0.07 0.11,0.06 0.12,0.06 0.06,0.03 0.07,0.03 0.07,0.02 0.07,0.03 0.08,0.02 0.08,0.02 0.08,0.03 0.09,0.02 0.09,0.01 0.1,0.02 0.1,0.02 0.1,0.01 0.11,0.02 0.11,0.01 0.12,0.01 0.12,0.01 0.13,0.01 0.13,0.01 0.14,0.01 0.14,0.01 0.14,0.01 0.15,0 0.16,0.01 0.16,0 0.16,0 0.17,0.01 0.18,0 0.18,0 1.3,0 0,1.54 -15.2,0 0,-1.54 1.3,0 c 3.93,0 4.08,-0.55 4.08,-2.34 l 0,-26.25 c 0,-1.8 -0.15,-2.35 -4.08,-2.35 l -1.3,0 0,-1.54 15.2,0 0,1.54 -1.3,0 c -3.93,0 -4.08,0.55 -4.08,2.35 z"
           id="path4342"
           inkscape:connector-curvature="0"
           style="fill:#000000;stroke-width:0" /><path
           d="m 475.74,440.02 0,-1.54 1.2,0 c 3.83,0 3.94,-0.55 3.94,-2.34 l 0,-26.25 c 0,-1.8 -0.11,-2.35 -3.94,-2.35 l -1.2,0 0,-1.54 18.24,0 -1.35,1.54 -5.03,0 c -2.34,0 -2.44,0.35 -2.44,2 l 0,26.94 c 0,1.65 0.1,2 2.44,2 l 4.98,0 c 3.09,0 6.53,-1.1 9.06,-4.64 2.15,-2.93 2.6,-7.22 2.6,-11.1 0,-5.53 -0.95,-8.52 -2.74,-10.96 -1,-1.35 -3.84,-4.24 -8.87,-4.24 l 1.35,-1.54 c 8.36,0 15.24,7.37 15.24,16.74 0,9.46 -6.73,17.28 -15.24,17.28 z"
           id="path4344"
           inkscape:connector-curvature="0"
           style="fill:#000000;stroke-width:0" /><path
           d="m 545.18,439.72 -30.44,0 -0.95,-11.2 1.25,0 c 0.69,8.02 1.44,9.66 8.96,9.66 0.9,0 2.2,0 2.7,-0.1 1.04,-0.2 1.04,-0.75 1.04,-1.89 l 0,-26.26 c 0,-1.69 0,-2.39 -5.23,-2.39 l -1.99,0 0,-1.54 18.88,0 0,1.54 -1.99,0 c -5.23,0 -5.23,0.7 -5.23,2.39 l 0,26.26 c 0,0.99 0,1.69 0.89,1.89 0.55,0.1 1.9,0.1 2.84,0.1 7.52,0 8.27,-1.64 8.97,-9.66 l 1.24,0 z"
           id="path4346"
           inkscape:connector-curvature="0"
           style="fill:#000000;stroke-width:0" /></g>    </g>
    <g
       id="g4400"
       transform="matrix(0.51566129,0,0,0.53784913,111.12495,291.7312)">
      <g
         word-spacing="normal"
         letter-spacing="normal"
         font-size-adjust="none"
         font-stretch="normal"
         font-weight="normal"
         font-variant="normal"
         font-style="normal"
         stroke-miterlimit="10.433"
         xml:space="preserve"
         transform="matrix(1.0629921,0,0,-1.0629921,52.967774,1328.296)"
         id="g4402"
         style="font-style:normal;font-variant:normal;font-weight:normal;font-stretch:normal;letter-spacing:normal;word-spacing:normal;text-anchor:start;fill:none;fill-opacity:1;fill-rule:evenodd;stroke:#000000;stroke-width:1.89883614;stroke-linecap:butt;stroke-linejoin:miter;stroke-miterlimit:10.43299961;stroke-dasharray:none;stroke-dashoffset:0;stroke-opacity:1"><path
           id="path4404"
           d="m 467.21,436.14 0,0.16 0,0.16 0,0.15 0.01,0.14 0.01,0.14 0.02,0.13 0.02,0.12 0.02,0.12 0.03,0.11 0.04,0.1 0.05,0.1 0.05,0.1 0.06,0.08 0.08,0.08 0.08,0.08 0.09,0.07 0.11,0.06 0.12,0.06 0.06,0.03 0.07,0.03 0.07,0.02 0.07,0.03 0.08,0.02 0.08,0.02 0.08,0.03 0.09,0.02 0.09,0.01 0.1,0.02 0.1,0.02 0.1,0.01 0.11,0.02 0.11,0.01 0.12,0.01 0.12,0.01 0.13,0.01 0.13,0.01 0.14,0.01 0.14,0.01 0.14,0.01 0.15,0 0.16,0.01 0.16,0 0.16,0 0.17,0.01 0.18,0 0.18,0 1.3,0 0,1.54 -15.2,0 0,-1.54 1.3,0 c 3.93,0 4.08,-0.55 4.08,-2.34 l 0,-26.25 c 0,-1.8 -0.15,-2.35 -4.08,-2.35 l -1.3,0 0,-1.54 15.2,0 0,1.54 -1.3,0 c -3.93,0 -4.08,0.55 -4.08,2.35 z"
           inkscape:connector-curvature="0"
           style="fill:#000000;stroke-width:0" /><path
           id="path4406"
           d="m 485.56,439.38 -0.04,0.05 -0.04,0.05 -0.04,0.05 -0.03,0.04 -0.04,0.05 -0.03,0.04 -0.03,0.03 -0.03,0.04 -0.03,0.03 -0.04,0.03 -0.03,0.03 -0.03,0.02 -0.03,0.03 -0.03,0.02 -0.03,0.02 -0.04,0.01 -0.03,0.02 -0.04,0.01 -0.04,0.01 -0.04,0.02 -0.05,0.01 -0.04,0 -0.05,0.01 -0.06,0.01 -0.05,0 -0.06,0 -0.06,0.01 -0.07,0 -0.07,0 -0.04,0 -0.04,0 -0.04,0 -0.04,0 -0.04,0 -0.05,0 -8.47,0 0,-1.54 1.45,0 c 0.75,0 1.74,-0.05 2.49,-0.1 1.15,-0.15 1.19,-0.2 1.19,-1.15 l 0,-26 c 0,-1.34 0,-3.69 -5.13,-3.69 l 0,-1.54 11.66,0 0,1.54 c -5.13,0 -5.13,2.35 -5.13,3.69 l 0,25.9 c 0.25,-0.25 0.3,-0.29 0.5,-0.59 l 20.32,-29.89 c 0.45,-0.6 0.5,-0.65 0.85,-0.65 0.7,0 0.7,0.35 0.7,1.3 l 0,27.49 c 0,1.35 0,3.69 5.13,3.69 l 0,1.54 -11.66,0 0,-1.54 c 5.13,0 5.13,-2.34 5.13,-3.69 l 0,-21.27 z"
           inkscape:connector-curvature="0"
           style="fill:#000000;stroke-width:0" /><path
           id="path4408"
           d="m 522.21,436.14 0,0.16 0,0.16 0,0.15 0.01,0.14 0.01,0.14 0.02,0.13 0.02,0.12 0.02,0.12 0.03,0.11 0.04,0.1 0.05,0.1 0.05,0.1 0.06,0.08 0.08,0.08 0.08,0.08 0.09,0.07 0.11,0.06 0.12,0.06 0.06,0.03 0.07,0.03 0.07,0.02 0.07,0.03 0.08,0.02 0.08,0.02 0.08,0.03 0.09,0.02 0.09,0.01 0.1,0.02 0.1,0.02 0.1,0.01 0.11,0.02 0.11,0.01 0.12,0.01 0.12,0.01 0.13,0.01 0.13,0.01 0.14,0.01 0.14,0.01 0.14,0.01 0.15,0 0.16,0.01 0.16,0 0.16,0 0.17,0.01 0.18,0 0.18,0 1.3,0 0,1.54 -15.19,0 0,-1.54 1.29,0 c 3.93,0 4.08,-0.55 4.08,-2.34 l 0,-26.25 c 0,-1.8 -0.15,-2.35 -4.08,-2.35 l -1.29,0 0,-1.54 15.19,0 0,1.54 -1.3,0 c -3.94,0 -4.08,0.55 -4.08,2.35 z"
           inkscape:connector-curvature="0"
           style="fill:#000000;stroke-width:0" /><path
           id="path4410"
           d="m 540.31,421.74 -0.15,1.3 0,13.44 c 0,1.65 0.1,2 2.44,2 l 4.43,0 c 7.92,0 7.92,-5.28 7.92,-7.72 0,-2.35 0,-7.72 -7.92,-7.72 l -6.87,0 0.15,-1.3 8.42,0 c 5.97,0 11.35,4.04 11.35,9.02 0,4.88 -4.93,9.26 -11.75,9.26 l -17.59,0 0,-1.54 1.2,0 c 3.83,0 3.94,-0.55 3.94,-2.34 l 0,-26.25 c 0,-1.8 -0.11,-2.35 -3.94,-2.35 l -1.2,0 0,-1.54 14.7,0 0,1.54 -1.2,0 c -3.83,0 -3.93,0.55 -3.93,2.35 z"
           inkscape:connector-curvature="0"
           style="fill:#000000;stroke-width:0" /><path
           id="path4412"
           d="m 598.91,422.89 -0.02,0.94 -0.06,0.94 -0.11,0.91 -0.15,0.91 -0.18,0.88 -0.23,0.87 -0.26,0.85 -0.3,0.83 -0.34,0.81 -0.37,0.79 -0.4,0.76 -0.43,0.74 -0.47,0.71 -0.49,0.69 -0.53,0.66 -0.55,0.63 -0.58,0.6 -0.6,0.57 -0.63,0.54 -0.65,0.51 -0.67,0.47 -0.7,0.44 -0.71,0.39 -0.74,0.37 -0.75,0.32 -0.76,0.29 -0.79,0.24 -0.8,0.2 -0.81,0.16 -0.82,0.11 -0.84,0.07 -0.84,0.03 0,-1.25 c 4.33,0 11.45,-3.53 11.45,-16.28 0,-13.21 -6.82,-17.39 -11.4,-17.39 l 0,0 c -4.79,0 -11.46,4.38 -11.46,17.39 0,12.89 7.27,16.28 11.41,16.28 l 0,1.25 c -8.92,0 -16.54,-7.97 -16.54,-18.23 0,-10.21 7.67,-17.99 16.54,-17.99 9.07,0 16.58,7.92 16.58,17.99 z"
           inkscape:connector-curvature="0"
           style="fill:#000000;stroke-width:0" /><path
           id="path4414"
           d="m 613.56,439.38 -0.04,0.05 -0.04,0.05 -0.04,0.05 -0.03,0.04 -0.04,0.05 -0.03,0.04 -0.03,0.03 -0.03,0.04 -0.03,0.03 -0.04,0.03 -0.03,0.03 -0.03,0.02 -0.03,0.03 -0.03,0.02 -0.03,0.02 -0.04,0.01 -0.03,0.02 -0.04,0.01 -0.04,0.01 -0.04,0.02 -0.05,0.01 -0.04,0 -0.05,0.01 -0.06,0.01 -0.05,0 -0.06,0 -0.06,0.01 -0.07,0 -0.07,0 -0.04,0 -0.04,0 -0.04,0 -0.04,0 -0.04,0 -0.05,0 -8.46,0 0,-1.54 1.44,0 c 0.75,0 1.74,-0.05 2.49,-0.1 1.15,-0.15 1.19,-0.2 1.19,-1.15 l 0,-26 c 0,-1.34 0,-3.69 -5.12,-3.69 l 0,-1.54 11.65,0 0,1.54 c -5.13,0 -5.13,2.35 -5.13,3.69 l 0,25.9 c 0.25,-0.25 0.3,-0.29 0.5,-0.59 l 20.32,-29.89 c 0.45,-0.6 0.5,-0.65 0.85,-0.65 0.69,0 0.69,0.35 0.69,1.3 l 0,27.49 c 0,1.35 0,3.69 5.14,3.69 l 0,1.54 -11.66,0 0,-1.54 c 5.13,0 5.13,-2.34 5.13,-3.69 l 0,-21.27 z"
           inkscape:connector-curvature="0"
           style="fill:#000000;stroke-width:0" /><path
           id="path4416"
           d="m 640.74,440.02 0,-1.54 1.2,0 c 3.83,0 3.94,-0.55 3.94,-2.34 l 0,-26.25 c 0,-1.8 -0.11,-2.35 -3.94,-2.35 l -1.2,0 0,-1.54 18.24,0 -1.35,1.54 -5.03,0 c -2.34,0 -2.44,0.35 -2.44,2 l 0,26.94 c 0,1.65 0.1,2 2.44,2 l 4.98,0 c 3.09,0 6.52,-1.1 9.07,-4.64 2.14,-2.93 2.59,-7.22 2.59,-11.1 0,-5.53 -0.95,-8.52 -2.74,-10.96 -1,-1.35 -3.84,-4.24 -8.87,-4.24 l 1.35,-1.54 c 8.36,0 15.24,7.37 15.24,16.74 0,9.46 -6.73,17.28 -15.24,17.28 z"
           inkscape:connector-curvature="0"
           style="fill:#000000;stroke-width:0" /></g>    </g>
    <text
       xml:space="preserve"
       style="font-style:normal;font-weight:normal;font-size:40px;line-height:125%;font-family:sans-serif;letter-spacing:0px;word-spacing:0px;fill:#000000;fill-opacity:1;stroke:none;stroke-width:1px;stroke-linecap:butt;stroke-linejoin:miter;stroke-opacity:1"
       x="623.2641"
       y="703.85956"
       id="text4471"
       sodipodi:linespacing="125%"><tspan
         sodipodi:role="line"
         id="tspan4473"
         x="623.2641"
         y="703.85956"
         style="font-size:20px">calcul direct</tspan></text>
    <text
       xml:space="preserve"
       style="font-style:normal;font-weight:normal;font-size:40px;line-height:125%;font-family:sans-serif;letter-spacing:0px;word-spacing:0px;fill:#000000;fill-opacity:1;stroke:none;stroke-width:1px;stroke-linecap:butt;stroke-linejoin:miter;stroke-opacity:1"
       x="155.53539"
       y="854.52924"
       id="text4471-7"
       sodipodi:linespacing="125%"><tspan
         sodipodi:role="line"
         id="tspan4473-0"
         x="155.53539"
         y="854.52924"
         style="font-size:20px">sections efficaces</tspan></text>
    <text
       xml:space="preserve"
       style="font-style:normal;font-weight:normal;font-size:40px;line-height:125%;font-family:sans-serif;letter-spacing:0px;word-spacing:0px;fill:#000000;fill-opacity:1;stroke:none;stroke-width:1px;stroke-linecap:butt;stroke-linejoin:miter;stroke-opacity:1"
       x="247.57465"
       y="883.7265"
       id="text4471-7-9"
       sodipodi:linespacing="125%"><tspan
         sodipodi:role="line"
         id="tspan4473-0-3"
         x="247.57465"
         y="883.7265"
         style="font-size:20px">maillage</tspan></text>
    <text
       xml:space="preserve"
       style="font-style:normal;font-weight:normal;font-size:40px;line-height:125%;font-family:sans-serif;letter-spacing:0px;word-spacing:0px;fill:#000000;fill-opacity:1;stroke:none;stroke-width:1px;stroke-linecap:butt;stroke-linejoin:miter;stroke-opacity:1"
       x="367.34818"
       y="889.65497"
       id="text4471-7-9-6"
       sodipodi:linespacing="125%"><tspan
         sodipodi:role="line"
         id="tspan4473-0-3-0"
         x="367.34818"
         y="889.65497"
         style="font-size:20px">géométrie</tspan></text>
    <text
       xml:space="preserve"
       style="font-style:normal;font-weight:normal;font-size:40px;line-height:125%;font-family:sans-serif;letter-spacing:0px;word-spacing:0px;fill:#000000;fill-opacity:1;stroke:none;stroke-width:1px;stroke-linecap:butt;stroke-linejoin:miter;stroke-opacity:1"
       x="276.75641"
       y="909.21661"
       id="text4471-7-9-62"
       sodipodi:linespacing="125%"><tspan
         sodipodi:role="line"
         id="tspan4473-0-3-6"
         x="276.75641"
         y="909.21661"
         style="font-size:20px">score</tspan></text>
    <text
       xml:space="preserve"
       style="font-style:normal;font-weight:normal;font-size:40px;line-height:125%;font-family:sans-serif;letter-spacing:0px;word-spacing:0px;fill:#000000;fill-opacity:1;stroke:none;stroke-width:1px;stroke-linecap:butt;stroke-linejoin:miter;stroke-opacity:1"
       x="368.50903"
       y="918.31067"
       id="text4471-7-9-62-1"
       sodipodi:linespacing="125%"><tspan
         sodipodi:role="line"
         id="tspan4473-0-3-6-8"
         x="368.50903"
         y="918.31067"
         style="font-size:20px">source adjointe</tspan></text>
  </g>
</svg>
