<?xml version="1.0" encoding="UTF-8" standalone="no"?>
<svg
   xmlns:dc="http://purl.org/dc/elements/1.1/"
   xmlns:cc="http://creativecommons.org/ns#"
   xmlns:rdf="http://www.w3.org/1999/02/22-rdf-syntax-ns#"
   xmlns:svg="http://www.w3.org/2000/svg"
   xmlns="http://www.w3.org/2000/svg"
   viewBox="0 0 789.02759 347.04501"
   height="347.04501"
   width="789.02759"
   xml:space="preserve"
   version="1.1"
   id="svg2"><metadata
     id="metadata8"><rdf:RDF><cc:Work
         rdf:about=""><dc:format>image/svg+xml</dc:format><dc:type
           rdf:resource="http://purl.org/dc/dcmitype/StillImage" /></cc:Work></rdf:RDF></metadata><defs
     id="defs6" /><g
     transform="matrix(1.25,0,0,-1.25,0,347.04502)"
     id="g10"><g
       id="g12"><text
         id="text14"
         style="font-variant:normal;font-weight:bold;font-size:16px;font-family:'DejaVu Sans';-inkscape-font-specification:DejaVuSans-Bold;writing-mode:lr-tb;fill:#8a2be2;fill-opacity:1;fill-rule:nonzero;stroke:none"
         transform="matrix(1,0,0,-1,212.47032,199.90861)"><tspan
           id="tspan16"
           y="0"
           x="0 10.928 21.247999 32.688 38.16 49.152 57.040001 67.823997 75.472 80.944 91.935997">Exploration</tspan></text>
<g
         transform="matrix(1,0,0,-1,0,277.63602)"
         id="g18"><path
           id="path20"
           style="fill:none;stroke:#000000;stroke-width:1.51999998;stroke-linecap:butt;stroke-linejoin:miter;stroke-miterlimit:4;stroke-dasharray:none;stroke-opacity:1"
           d="m 604.809,98.777 c 24.941,3.121 25.886,37.227 25.625,70.672 -0.153,19.235 -2.579,41.918 -24.887,61.524 -39.258,34.5 -120.313,28.765 -211.297,30.324 -87.367,1.492 -152.793,-11.367 -174.676,-36.406 -22.773,-26.059 -22.34,-46.411 -20.679,-63.293 2.347,-23.891 16.113,-24.758 18.605,-25.692" /></g><g
         transform="matrix(-1,-0.37379,-0.37379,1,0,277.63602)"
         id="g22"><path
           id="path24"
           style="fill:#000000;fill-opacity:1;fill-rule:evenodd;stroke:#000000;stroke-width:0.71189302;stroke-linecap:butt;stroke-linejoin:miter;stroke-miterlimit:4;stroke-dasharray:none;stroke-opacity:1"
           d="m -140.568,-190.578 2.85,-2.849 -9.967,2.849 9.967,2.846 -2.85,-2.846 z" /></g><g
         transform="matrix(1,0,0,-1,0,277.63602)"
         id="g26"><path
           id="path28"
           style="fill:none;stroke:#000000;stroke-width:1.51999998;stroke-linecap:butt;stroke-linejoin:miter;stroke-miterlimit:4;stroke-dasharray:none;stroke-opacity:1"
           d="m 373.223,81.258 c 0.972,-14.223 -0.817,-69.488 -19.032,-69.512 -112.98,-0.137 -4.257,-0.144 -142.558,-0.023 -5.914,0.004 -17.238,-1.422 -24.871,5.738 -5.992,5.625 -7.637,11.82 -7.824,26.027 -0.422,11.907 -1.969,22.012 9.167,31.942 13.833,12.328 4.594,4.574 12.313,9.429" /></g><g
         transform="matrix(-1,0.629127,0.629127,1,0,277.63602)"
         id="g30"><path
           id="path32"
           style="fill:#000000;fill-opacity:1;fill-rule:evenodd;stroke:#000000;stroke-width:0.64328301;stroke-linecap:butt;stroke-linejoin:miter;stroke-miterlimit:4;stroke-dasharray:none;stroke-opacity:1"
           d="m -176.69,29.539 2.572,-2.575 -9.005,2.576 9.005,2.572 -2.572,-2.573 z" /></g><path
         id="path34"
         style="fill:#ffffff;fill-opacity:1;fill-rule:nonzero;stroke:none"
         d="m 199.816,276.921 143.012,0 c 6.731,0 12.152,-1.129 12.152,-2.531 l 0,-22.031 c 0,-1.403 -5.421,-2.535 -12.152,-2.535 l -143.012,0 c -6.734,0 -12.152,1.132 -12.152,2.535 l 0,22.031 c 0,1.402 5.418,2.531 12.152,2.531 z" /><g
         transform="matrix(1,0,0,-1,0,277.63602)"
         id="g36"><path
           id="path38"
           style="fill:none;stroke:#000000;stroke-width:1.43040001;stroke-linecap:square;stroke-linejoin:miter;stroke-miterlimit:4;stroke-dasharray:none;stroke-opacity:0.89411801"
           d="m 199.816,0.715 143.012,0 c 6.731,0 12.152,1.129 12.152,2.531 l 0,22.031 c 0,1.403 -5.421,2.535 -12.152,2.535 l -143.012,0 c -6.734,0 -12.152,-1.132 -12.152,-2.535 l 0,-22.031 c 0,-1.402 5.418,-2.531 12.152,-2.531 z" /></g><text
         id="text40"
         style="font-variant:normal;font-weight:bold;font-size:14px;font-family:'DejaVu Sans';-inkscape-font-specification:DejaVuSans-Bold;writing-mode:lr-tb;fill:#0000ff;fill-opacity:1;fill-rule:nonzero;stroke:none"
         transform="matrix(1,0,0,-1,196.33304,258.37692)"><tspan
           id="tspan42"
           y="0"
           x="0 11.368 21.378 31.388 40.866001 47.557999 57.049999 61.922001 66.709999 81.283997 91.335999 100.954 107.856 114.548 124.026 133.98 142.26801 151.75999">Update importance </tspan></text>
<path
         id="path44"
         style="fill:#0000ff;fill-opacity:0.58163297;fill-rule:nonzero;stroke:none"
         d="m 155.109,179.218 c 0,-6.695 -5.609,-12.121 -12.527,-12.121 -6.918,0 -12.523,5.426 -12.523,12.121 0,6.695 5.605,12.121 12.523,12.121 6.918,0 12.527,-5.426 12.527,-12.121 z" /><path
         id="path46"
         style="fill:none;stroke:#000000;stroke-width:3.91039991;stroke-linecap:round;stroke-linejoin:bevel;stroke-miterlimit:4;stroke-dasharray:none;stroke-opacity:1"
         d="m 155.109,179.218 c 0,-6.695 -5.609,-12.121 -12.527,-12.121 -6.918,0 -12.523,5.426 -12.523,12.121 0,6.695 5.605,12.121 12.523,12.121 6.918,0 12.527,-5.426 12.527,-12.121 z" /><text
         id="text48"
         style="font-variant:normal;font-weight:bold;font-size:13px;font-family:'DejaVu Sans';-inkscape-font-specification:DejaVuSans-Bold;writing-mode:lr-tb;fill:#0000ff;fill-opacity:0.58039198;fill-rule:nonzero;stroke:none"
         transform="matrix(1,0,0,-1,123.22479,150.62404)"><tspan
           id="tspan50"
           y="0"
           x="0">i</tspan></text>
<text
         id="text52"
         style="font-variant:normal;font-weight:bold;font-size:13px;font-family:'DejaVu Sans';-inkscape-font-specification:DejaVuSans-Bold;writing-mode:lr-tb;fill:#0000ff;fill-opacity:0.58039198;fill-rule:nonzero;stroke:none"
         transform="matrix(1,0,0,-1,127.69352,150.62404)"><tspan
           id="tspan54"
           y="0"
           x="0">n</tspan></text>
<text
         id="text56"
         style="font-variant:normal;font-weight:bold;font-size:13px;font-family:'DejaVu Sans';-inkscape-font-specification:DejaVuSans-Bold;writing-mode:lr-tb;fill:#0000ff;fill-opacity:0.58039198;fill-rule:nonzero;stroke:none"
         transform="matrix(1,0,0,-1,136.96112,150.62404)"><tspan
           id="tspan58"
           y="0"
           x="0">i</tspan></text>
<text
         id="text60"
         style="font-variant:normal;font-weight:bold;font-size:13px;font-family:'DejaVu Sans';-inkscape-font-specification:DejaVuSans-Bold;writing-mode:lr-tb;fill:#0000ff;fill-opacity:0.58039198;fill-rule:nonzero;stroke:none"
         transform="matrix(1,0,0,-1,141.42985,150.62404)"><tspan
           id="tspan62"
           y="0"
           x="0">t</tspan></text>
<text
         id="text64"
         style="font-variant:normal;font-weight:bold;font-size:13px;font-family:'DejaVu Sans';-inkscape-font-specification:DejaVuSans-Bold;writing-mode:lr-tb;fill:#0000ff;fill-opacity:0.58039198;fill-rule:nonzero;stroke:none"
         transform="matrix(1,0,0,-1,147.65055,150.62404)"><tspan
           id="tspan66"
           y="0"
           x="0">i</tspan></text>
<text
         id="text68"
         style="font-variant:normal;font-weight:bold;font-size:13px;font-family:'DejaVu Sans';-inkscape-font-specification:DejaVuSans-Bold;writing-mode:lr-tb;fill:#0000ff;fill-opacity:0.58039198;fill-rule:nonzero;stroke:none"
         transform="matrix(1,0,0,-1,152.1193,150.62404)"><tspan
           id="tspan70"
           y="0"
           x="0">a</tspan></text>
<text
         id="text72"
         style="font-variant:normal;font-weight:bold;font-size:13px;font-family:'DejaVu Sans';-inkscape-font-specification:DejaVuSans-Bold;writing-mode:lr-tb;fill:#0000ff;fill-opacity:0.58039198;fill-rule:nonzero;stroke:none"
         transform="matrix(1,0,0,-1,160.90448,150.62404)"><tspan
           id="tspan74"
           y="0"
           x="0">l</tspan></text>
<text
         id="text76"
         style="font-variant:normal;font-weight:bold;font-size:13px;font-family:'DejaVu Sans';-inkscape-font-specification:DejaVuSans-Bold;writing-mode:lr-tb;fill:#0000ff;fill-opacity:0.58039198;fill-rule:nonzero;stroke:none"
         transform="matrix(1,0,0,-1,102.54412,134.37404)"><tspan
           id="tspan78"
           y="0"
           x="0">i</tspan></text>
<text
         id="text80"
         style="font-variant:normal;font-weight:bold;font-size:13px;font-family:'DejaVu Sans';-inkscape-font-specification:DejaVuSans-Bold;writing-mode:lr-tb;fill:#0000ff;fill-opacity:0.58039198;fill-rule:nonzero;stroke:none"
         transform="matrix(1,0,0,-1,107.01287,134.37404)"><tspan
           id="tspan82"
           y="0"
           x="0">m</tspan></text>
<text
         id="text84"
         style="font-variant:normal;font-weight:bold;font-size:13px;font-family:'DejaVu Sans';-inkscape-font-specification:DejaVuSans-Bold;writing-mode:lr-tb;fill:#0000ff;fill-opacity:0.58039198;fill-rule:nonzero;stroke:none"
         transform="matrix(1,0,0,-1,120.57145,134.37404)"><tspan
           id="tspan86"
           y="0"
           x="0">p</tspan></text>
<text
         id="text88"
         style="font-variant:normal;font-weight:bold;font-size:13px;font-family:'DejaVu Sans';-inkscape-font-specification:DejaVuSans-Bold;writing-mode:lr-tb;fill:#0000ff;fill-opacity:0.58039198;fill-rule:nonzero;stroke:none"
         transform="matrix(1,0,0,-1,129.88983,134.37404)"><tspan
           id="tspan90"
           y="0"
           x="0">o</tspan></text>
<text
         id="text92"
         style="font-variant:normal;font-weight:bold;font-size:13px;font-family:'DejaVu Sans';-inkscape-font-specification:DejaVuSans-Bold;writing-mode:lr-tb;fill:#0000ff;fill-opacity:0.58039198;fill-rule:nonzero;stroke:none"
         transform="matrix(1,0,0,-1,138.82731,134.37404)"><tspan
           id="tspan94"
           y="0"
           x="0">r</tspan></text>
<text
         id="text96"
         style="font-variant:normal;font-weight:bold;font-size:13px;font-family:'DejaVu Sans';-inkscape-font-specification:DejaVuSans-Bold;writing-mode:lr-tb;fill:#0000ff;fill-opacity:0.58039198;fill-rule:nonzero;stroke:none"
         transform="matrix(1,0,0,-1,145.25116,134.37404)"><tspan
           id="tspan98"
           y="0"
           x="0">t</tspan></text>
<text
         id="text100"
         style="font-variant:normal;font-weight:bold;font-size:13px;font-family:'DejaVu Sans';-inkscape-font-specification:DejaVuSans-Bold;writing-mode:lr-tb;fill:#0000ff;fill-opacity:0.58039198;fill-rule:nonzero;stroke:none"
         transform="matrix(1,0,0,-1,151.47184,134.37404)"><tspan
           id="tspan102"
           y="0"
           x="0">a</tspan></text>
<text
         id="text104"
         style="font-variant:normal;font-weight:bold;font-size:13px;font-family:'DejaVu Sans';-inkscape-font-specification:DejaVuSans-Bold;writing-mode:lr-tb;fill:#0000ff;fill-opacity:0.58039198;fill-rule:nonzero;stroke:none"
         transform="matrix(1,0,0,-1,160.25702,134.37404)"><tspan
           id="tspan106"
           y="0"
           x="0">n</tspan></text>
<text
         id="text108"
         style="font-variant:normal;font-weight:bold;font-size:13px;font-family:'DejaVu Sans';-inkscape-font-specification:DejaVuSans-Bold;writing-mode:lr-tb;fill:#0000ff;fill-opacity:0.58039198;fill-rule:nonzero;stroke:none"
         transform="matrix(1,0,0,-1,169.5246,134.37404)"><tspan
           id="tspan110"
           y="0"
           x="0">c</tspan></text>
<text
         id="text112"
         style="font-variant:normal;font-weight:bold;font-size:13px;font-family:'DejaVu Sans';-inkscape-font-specification:DejaVuSans-Bold;writing-mode:lr-tb;fill:#0000ff;fill-opacity:0.58039198;fill-rule:nonzero;stroke:none"
         transform="matrix(1,0,0,-1,177.24335,134.37404)"><tspan
           id="tspan114"
           y="0"
           x="0">e</tspan></text>
<text
         id="text116"
         style="font-variant:normal;font-weight:bold;font-size:13px;font-family:'DejaVu Sans';-inkscape-font-specification:DejaVuSans-Bold;writing-mode:lr-tb;fill:#0000ff;fill-opacity:0.58039198;fill-rule:nonzero;stroke:none"
         transform="matrix(1,0,0,-1,128.46796,118.12404)"><tspan
           id="tspan118"
           y="0"
           x="0">m</tspan></text>
<text
         id="text120"
         style="font-variant:normal;font-weight:bold;font-size:13px;font-family:'DejaVu Sans';-inkscape-font-specification:DejaVuSans-Bold;writing-mode:lr-tb;fill:#0000ff;fill-opacity:0.58039198;fill-rule:nonzero;stroke:none"
         transform="matrix(1,0,0,-1,142.02653,118.12404)"><tspan
           id="tspan122"
           y="0"
           x="0">a</tspan></text>
<text
         id="text124"
         style="font-variant:normal;font-weight:bold;font-size:13px;font-family:'DejaVu Sans';-inkscape-font-specification:DejaVuSans-Bold;writing-mode:lr-tb;fill:#0000ff;fill-opacity:0.58039198;fill-rule:nonzero;stroke:none"
         transform="matrix(1,0,0,-1,150.81171,118.12404)"><tspan
           id="tspan126"
           y="0"
           x="0">p</tspan></text>
<path
         id="path128"
         style="fill:#9cc4ed;fill-opacity:0.39795903;fill-rule:nonzero;stroke:none"
         d="m 59.457,164.882 27.047,0 c 2.074,0 3.742,-3.773 3.742,-8.461 l 0,-1.262 c 0,-4.687 -1.668,-8.46 -3.742,-8.46 l -27.047,0 c -2.07,0 -3.738,3.773 -3.738,8.46 l 0,1.262 c 0,4.688 1.668,8.461 3.738,8.461 z" /><path
         id="path130"
         style="fill:none;stroke:#000000;stroke-width:1.44000006;stroke-linecap:square;stroke-linejoin:miter;stroke-miterlimit:4;stroke-dasharray:none;stroke-opacity:1"
         d="m 59.457,164.882 27.047,0 c 2.074,0 3.742,-3.773 3.742,-8.461 l 0,-1.262 c 0,-4.687 -1.668,-8.46 -3.742,-8.46 l -27.047,0 c -2.07,0 -3.738,3.773 -3.738,8.46 l 0,1.262 c 0,4.688 1.668,8.461 3.738,8.461 z" /><text
         id="text132"
         style="font-variant:normal;font-weight:bold;font-size:13px;font-family:'DejaVu Sans';-inkscape-font-specification:DejaVuSans-Bold;writing-mode:lr-tb;fill:#000000;fill-opacity:1;fill-rule:nonzero;stroke:none"
         transform="matrix(1,0,0,-1,61.451368,151.13927)"><tspan
           id="tspan134"
           y="0"
           x="0 4.836 15.626">IDT</tspan></text>
<path
         id="path136"
         style="fill:#9cc4ed;fill-opacity:0.39795903;fill-rule:nonzero;stroke:none"
         d="m 11.004,217.156 74.383,0 c 5.699,0 10.289,-3.774 10.289,-8.461 l 0,-1.262 c 0,-4.688 -4.59,-8.461 -10.289,-8.461 l -74.383,0 c -5.695,0 -10.285,3.773 -10.285,8.461 l 0,1.262 c 0,4.687 4.59,8.461 10.285,8.461 z" /><path
         id="path138"
         style="fill:none;stroke:#000000;stroke-width:1.44000006;stroke-linecap:square;stroke-linejoin:miter;stroke-miterlimit:4;stroke-dasharray:none;stroke-opacity:1"
         d="m 11.004,217.156 74.383,0 c 5.699,0 10.289,-3.774 10.289,-8.461 l 0,-1.262 c 0,-4.688 -4.59,-8.461 -10.289,-8.461 l -74.383,0 c -5.695,0 -10.285,3.773 -10.285,8.461 l 0,1.262 c 0,4.687 4.59,8.461 10.285,8.461 z" /><text
         id="text140"
         style="font-variant:normal;font-weight:bold;font-size:13px;font-family:'DejaVu Sans';-inkscape-font-specification:DejaVuSans-Bold;writing-mode:lr-tb;fill:#000000;fill-opacity:1;fill-rule:nonzero;stroke:none"
         transform="matrix(1,0,0,-1,3.258094,203.88195)"><tspan
           id="tspan142"
           y="0"
           x="0 10.66 19.474001 28.405001 41.938 50.751999 56.966 63.375 67.781998 75.477997 84.239998">Geometrical</tspan></text>
<path
         id="path144"
         style="fill:#9cc4ed;fill-opacity:0.39795903;fill-rule:nonzero;stroke:none"
         d="m 21.223,189.882 57.375,0 c 4.394,0 7.933,-3.773 7.933,-8.461 l 0,-1.262 c 0,-4.687 -3.539,-8.46 -7.933,-8.46 l -57.375,0 c -4.395,0 -7.934,3.773 -7.934,8.46 l 0,1.262 c 0,4.688 3.539,8.461 7.934,8.461 z" /><path
         id="path146"
         style="fill:none;stroke:#000000;stroke-width:1.44000006;stroke-linecap:square;stroke-linejoin:miter;stroke-miterlimit:4;stroke-dasharray:none;stroke-opacity:1"
         d="m 21.223,189.882 57.375,0 c 4.394,0 7.933,-3.773 7.933,-8.461 l 0,-1.262 c 0,-4.687 -3.539,-8.46 -7.933,-8.46 l -57.375,0 c -4.395,0 -7.934,3.773 -7.934,8.46 l 0,1.262 c 0,4.688 3.539,8.461 7.934,8.461 z" /><text
         id="text148"
         style="font-variant:normal;font-weight:bold;font-size:13px;font-family:'DejaVu Sans';-inkscape-font-specification:DejaVuSans-Bold;writing-mode:lr-tb;fill:#000000;fill-opacity:1;fill-rule:nonzero;stroke:none"
         transform="matrix(1,0,0,-1,19.220484,176.07018)"><tspan
           id="tspan150"
           y="0"
           x="0 4.836 15.704 20.540001 30.056 41.105999 51.973999">INIPOND</tspan></text>
<path
         id="path152"
         style="fill:none;stroke:#000000;stroke-width:1.44000006;stroke-linecap:butt;stroke-linejoin:miter;stroke-miterlimit:4;stroke-dasharray:none;stroke-opacity:1"
         d="m 99.379,202.499 24.668,-10.636" /><g
         transform="matrix(-1,0.431211,0.431211,1,0,277.63602)"
         id="g154"><path
           id="path156"
           style="fill:#000000;fill-opacity:1;fill-rule:evenodd;stroke:#000000;stroke-width:0.66115099;stroke-linecap:butt;stroke-linejoin:miter;stroke-miterlimit:4;stroke-dasharray:none;stroke-opacity:1"
           d="m -130.497,-27.224 2.645,-2.645 -9.257,2.648 9.256,2.642 -2.644,-2.645 z" /></g><path
         id="path158"
         style="fill:none;stroke:#000000;stroke-width:1.44000006;stroke-linecap:butt;stroke-linejoin:miter;stroke-miterlimit:4;stroke-dasharray:none;stroke-opacity:1"
         d="m 93.59,180.234 27.609,0.25" /><g
         transform="matrix(-1,-0.00909326,-0.00909326,1,0,277.63602)"
         id="g160"><path
           id="path162"
           style="fill:#000000;fill-opacity:1;fill-rule:evenodd;stroke:#000000;stroke-width:0.71996999;stroke-linecap:butt;stroke-linejoin:miter;stroke-miterlimit:4;stroke-dasharray:none;stroke-opacity:1"
           d="m -114.544,-98.245 2.878,-2.88 -10.077,2.881 10.079,2.881 -2.88,-2.882 z" /></g><path
         id="path164"
         style="fill:none;stroke:#000000;stroke-width:1.44000006;stroke-linecap:butt;stroke-linejoin:miter;stroke-miterlimit:4;stroke-dasharray:none;stroke-opacity:1"
         d="m 96.387,156.663 27.254,12.364" /><g
         transform="matrix(-1,-0.453541,-0.453541,1,0,277.63602)"
         id="g166"><path
           id="path168"
           style="fill:#000000;fill-opacity:1;fill-rule:evenodd;stroke:#000000;stroke-width:0.65571201;stroke-linecap:butt;stroke-linejoin:miter;stroke-miterlimit:4;stroke-dasharray:none;stroke-opacity:1"
           d="m -56.449,-136.59 2.623,-2.623 -9.178,2.623 9.178,2.623 -2.623,-2.623 z" /></g><text
         id="text170"
         style="font-variant:normal;font-weight:bold;font-size:13px;font-family:'DejaVu Sans';-inkscape-font-specification:DejaVuSans-Bold;writing-mode:lr-tb;fill:#0000ff;fill-opacity:1;fill-rule:nonzero;stroke:none"
         transform="matrix(1,0,0,-1,347.70502,150.26686)"><tspan
           id="tspan172"
           y="0"
           x="0 10.049 19.344 23.750999 32.681999 37.167 46.41">Adjoint</tspan><tspan
           id="tspan174"
           y="16.25"
           x="6.5507779 14.285778 21.981777 30.912779 37.321777">score</tspan></text>
<path
         id="path176"
         style="fill:none;stroke:#000000;stroke-width:1.44000006;stroke-linecap:butt;stroke-linejoin:miter;stroke-miterlimit:4;stroke-dasharray:none;stroke-opacity:1"
         d="m 162.902,178.89 c 5.969,-0.57 36.211,0.234 36.211,0.234" /><g
         transform="matrix(-1,-0.0267217,-0.0267217,1,0,277.63602)"
         id="g178"><path
           id="path180"
           style="fill:#000000;fill-opacity:1;fill-rule:evenodd;stroke:#000000;stroke-width:0.71974301;stroke-linecap:butt;stroke-linejoin:miter;stroke-miterlimit:4;stroke-dasharray:none;stroke-opacity:1"
           d="m -190.583,-103.757 2.882,-2.88 -10.077,2.879 10.075,2.879 -2.88,-2.878 z" /></g><path
         id="path182"
         style="fill:none;stroke:#000000;stroke-width:1.44000006;stroke-linecap:butt;stroke-linejoin:miter;stroke-miterlimit:4;stroke-dasharray:none;stroke-opacity:1"
         d="M 323.164,178.222 C 328.246,177.652 354,178.46 354,178.46" /><g
         transform="matrix(-1,-0.0313802,-0.0313802,1,0,277.63602)"
         id="g184"><path
           id="path186"
           style="fill:#000000;fill-opacity:1;fill-rule:evenodd;stroke:#000000;stroke-width:0.71964598;stroke-linecap:butt;stroke-linejoin:miter;stroke-miterlimit:4;stroke-dasharray:none;stroke-opacity:1"
           d="m -344.785,-110.175 2.88,-2.878 -10.075,2.879 10.074,2.875 -2.879,-2.876 z" /></g><path
         id="path188"
         style="fill:none;stroke:#8a2be2;stroke-width:3.5999999;stroke-linecap:butt;stroke-linejoin:miter;stroke-miterlimit:4;stroke-dasharray:none;stroke-opacity:1"
         d="m 207.672,193.968 c 0.562,-58.687 37.933,-75.543 55.277,-75.746 17.336,-0.203 55.723,7.109 55.723,69.453 0.43,16.965 1.371,22.461 -5.637,30.172 -11.281,12.406 -33.105,15.191 -51.254,15.269 -15.609,0.067 -30.758,-4.078 -41.093,-10.179 -15.184,-8.957 -12.856,-18.215 -13.016,-28.969 z" /><path
         id="path190"
         style="fill:#0000ff;fill-opacity:1;fill-rule:nonzero;stroke:#000000;stroke-width:3.91039991;stroke-linecap:round;stroke-linejoin:bevel;stroke-miterlimit:4;stroke-dasharray:none;stroke-opacity:1"
         d="m 386.008,178.933 c 0,-6.695 -5.61,-12.121 -12.528,-12.121 -6.918,0 -12.523,5.426 -12.523,12.121 0,6.695 5.605,12.121 12.523,12.121 6.918,0 12.528,-5.426 12.528,-12.121 z" /><path
         id="path192"
         style="fill:none;stroke:#000000;stroke-width:1.44000006;stroke-linecap:butt;stroke-linejoin:miter;stroke-miterlimit:4;stroke-dasharray:none;stroke-opacity:1"
         d="m 402.328,179.21 c 5.082,-0.57 30.836,0.235 30.836,0.235" /><g
         transform="matrix(-1,-0.0313802,-0.0313802,1,0,277.63602)"
         id="g194"><path
           id="path196"
           style="fill:#000000;fill-opacity:1;fill-rule:evenodd;stroke:#000000;stroke-width:0.71964598;stroke-linecap:butt;stroke-linejoin:miter;stroke-miterlimit:4;stroke-dasharray:none;stroke-opacity:1"
           d="m -423.902,-111.673 2.879,-2.879 -10.074,2.88 10.073,2.878 -2.878,-2.879 z" /></g><path
         id="path198"
         style="fill:none;stroke:#000000;stroke-width:1.44000006;stroke-linecap:butt;stroke-linejoin:miter;stroke-miterlimit:4;stroke-dasharray:none;stroke-opacity:1"
         d="m 263.777,88.933 c -0.132,3.273 0.059,20.082 0.059,20.082" /><g
         transform="matrix(-0.0112295,-1,-1,0.0112295,0,277.63602)"
         id="g200"><path
           id="path202"
           style="fill:#000000;fill-opacity:1;fill-rule:evenodd;stroke:#000000;stroke-width:0.71995503;stroke-linecap:butt;stroke-linejoin:miter;stroke-miterlimit:4;stroke-dasharray:none;stroke-opacity:1"
           d="m 171.399,-265.694 2.878,-2.88 -10.077,2.879 10.079,2.882 -2.88,-2.881 z" /></g><text
         id="text204"
         style="font-variant:normal;font-weight:bold;font-size:13px;font-family:'DejaVu Sans';-inkscape-font-specification:DejaVuSans-Bold;writing-mode:lr-tb;fill:#030000;fill-opacity:1;fill-rule:nonzero;stroke:none"
         transform="matrix(1,0,0,-1,247.75514,65.322181)"><tspan
           id="tspan206"
           y="0"
           x="0 10.049 22.983999">AMS</tspan></text>
<path
         id="path208"
         style="fill:none;stroke:#000000;stroke-width:1.91999996;stroke-linecap:butt;stroke-linejoin:miter;stroke-miterlimit:4;stroke-dasharray:none;stroke-opacity:1"
         d="m 235.949,72.456 c 0.113,-7.941 4.246,-10.582 8.375,-12.84 6.063,-3.316 13.403,-3.937 18.516,-3.976 5.734,-0.047 14.433,-0.434 20.851,3.973 3.196,2.191 7.27,3.82 7.27,10.738 0.211,5.668 0.68,7.504 -2.793,10.078 -5.59,4.148 -14.496,3.074 -23.492,3.098 -7.735,0.023 -17.153,0.644 -22.278,-1.395 -7.523,-2.992 -6.371,-6.086 -6.449,-9.676 z" /><text
         id="text210"
         style="font-variant:normal;font-weight:bold;font-size:13px;font-family:'DejaVu Sans';-inkscape-font-specification:DejaVuSans-Bold;writing-mode:lr-tb;fill:#030000;fill-opacity:1;fill-rule:nonzero;stroke:none"
         transform="matrix(1,0,0,-1,476.79569,68.279603)"><tspan
           id="tspan212"
           y="0"
           x="0 8.8789997">ET</tspan></text>
<path
         id="path214"
         style="fill:none;stroke:#000000;stroke-width:1.91999996;stroke-linecap:butt;stroke-linejoin:miter;stroke-miterlimit:4;stroke-dasharray:none;stroke-opacity:1"
         d="m 458.105,74.843 c 0.114,-7.941 4.247,-10.582 8.375,-12.84 6.063,-3.316 13.403,-3.937 18.516,-3.98 5.738,-0.043 14.434,-0.43 20.852,3.976 3.195,2.192 7.269,3.821 7.269,10.739 0.215,5.668 0.68,7.503 -2.793,10.078 -5.59,4.144 -14.496,3.07 -23.488,3.097 -7.738,0.024 -17.156,0.641 -22.281,-1.394 -7.524,-2.992 -6.371,-6.086 -6.45,-9.676 z" /><text
         id="text216"
         style="font-variant:normal;font-weight:bold;font-size:13px;font-family:'DejaVu Sans';-inkscape-font-specification:DejaVuSans-Bold;writing-mode:lr-tb;fill:#030000;fill-opacity:1;fill-rule:nonzero;stroke:none"
         transform="matrix(1,0,0,-1,547.11303,67.284339)"><tspan
           id="tspan218"
           y="0"
           x="0 10.049 22.983999">AMS</tspan></text>
<path
         id="path220"
         style="fill:none;stroke:#000000;stroke-width:1.91999996;stroke-linecap:butt;stroke-linejoin:miter;stroke-miterlimit:4;stroke-dasharray:none;stroke-opacity:1"
         d="m 535.309,74.417 c 0.113,-7.941 4.246,-10.578 8.375,-12.836 6.062,-3.316 13.398,-3.941 18.511,-3.98 5.739,-0.047 14.434,-0.434 20.856,3.973 3.191,2.191 7.269,3.824 7.269,10.742 0.211,5.664 0.676,7.504 -2.797,10.078 -5.589,4.144 -14.496,3.07 -23.488,3.094 -7.734,0.023 -17.156,0.644 -22.277,-1.395 -7.528,-2.992 -6.371,-6.086 -6.449,-9.676 z" /><path
         id="path222"
         style="fill:none;stroke:#000000;stroke-width:1.44000006;stroke-linecap:butt;stroke-linejoin:miter;stroke-miterlimit:4;stroke-dasharray:none;stroke-opacity:1"
         d="m 487.461,96.077 c -0.133,3.274 0.059,20.082 0.059,20.082" /><g
         transform="matrix(-0.0112295,-1,-1,0.0112295,0,277.63602)"
         id="g224"><path
           id="path226"
           style="fill:#000000;fill-opacity:1;fill-rule:evenodd;stroke:#000000;stroke-width:0.71995503;stroke-linecap:butt;stroke-linejoin:miter;stroke-miterlimit:4;stroke-dasharray:none;stroke-opacity:1"
           d="m 161.744,-489.269 2.878,-2.88 -10.081,2.878 10.083,2.879 -2.88,-2.877 z" /></g><path
         id="path228"
         style="fill:none;stroke:#000000;stroke-width:1.44000006;stroke-linecap:butt;stroke-linejoin:miter;stroke-miterlimit:4;stroke-dasharray:none;stroke-opacity:1"
         d="m 563.855,96.886 c -0.128,3.273 0.059,20.082 0.059,20.082" /><g
         transform="matrix(-0.0112295,-1,-1,0.0112295,0,277.63602)"
         id="g230"><path
           id="path232"
           style="fill:#000000;fill-opacity:1;fill-rule:evenodd;stroke:#000000;stroke-width:0.71995503;stroke-linecap:butt;stroke-linejoin:miter;stroke-miterlimit:4;stroke-dasharray:none;stroke-opacity:1"
           d="m 160.078,-565.649 2.878,-2.876 -10.077,2.879 10.079,2.879 -2.88,-2.882 z" /></g><g
         transform="matrix(1,0,0,-1,0,277.63602)"
         id="g234"><path
           id="path236"
           style="fill:none;stroke:#009707;stroke-width:1.51999998;stroke-linecap:butt;stroke-linejoin:miter;stroke-miterlimit:4;stroke-dasharray:none;stroke-opacity:1"
           d="m 237.074,111.418 c 45.832,-0.594 42.793,-0.383 51.711,-0.535" /></g><g
         transform="matrix(-1,-0.0171153,-0.0171153,1,0,277.63602)"
         id="g238"><path
           id="path240"
           style="fill:#009707;fill-opacity:1;fill-rule:evenodd;stroke:#009707;stroke-width:0.75988901;stroke-linecap:butt;stroke-linejoin:miter;stroke-miterlimit:4;stroke-dasharray:none;stroke-opacity:1"
           d="m -280.725,-115.789 3.04,-3.042 -10.638,3.041 10.64,3.037 -3.042,-3.036 z" /></g><text
         id="text242"
         style="font-variant:normal;font-weight:bold;font-size:9px;font-family:'DejaVu Sans';-inkscape-font-specification:DejaVuSans-Bold;writing-mode:lr-tb;fill:#009707;fill-opacity:1;fill-rule:nonzero;stroke:none"
         transform="matrix(1,0,0,-1,241.09098,172.62443)"><tspan
           id="tspan244"
           y="0"
           x="0 5.7779999 11.961 16.398001 24.705 30.798 35.235001">Forward</tspan></text>
<text
         id="text246"
         style="font-variant:normal;font-weight:bold;font-size:9px;font-family:'DejaVu Sans';-inkscape-font-specification:DejaVuSans-Bold;writing-mode:lr-tb;fill:#ff0025;fill-opacity:1;fill-rule:nonzero;stroke:none"
         transform="matrix(1,0,0,-1,239.45197,147.24855)"><tspan
           id="tspan248"
           y="0"
           x="0 6.8579998 12.924 18.252001 24.237 32.543999 38.637001 43.074001">Backward</tspan></text>
<g
         transform="matrix(1,0,0,-1,0,277.63602)"
         id="g250"><path
           id="path252"
           style="fill:none;stroke:#ff0025;stroke-width:1.51999998;stroke-linecap:butt;stroke-linejoin:miter;stroke-miterlimit:4;stroke-dasharray:none;stroke-opacity:1"
           d="m 289.754,137.562 c -45.832,0.684 -42.793,0.465 -51.711,0.633" /></g><g
         transform="matrix(1,0.0189264,0.0189264,-1,0,277.63602)"
         id="g254"><path
           id="path256"
           style="fill:#ff0025;fill-opacity:1;fill-rule:evenodd;stroke:#ff0025;stroke-width:0.75986397;stroke-linecap:butt;stroke-linejoin:miter;stroke-miterlimit:4;stroke-dasharray:none;stroke-opacity:1"
           d="m 241.425,142.651 3.038,-3.04 -10.639,3.037 10.637,3.041 -3.036,-3.038 z" /></g><g
         transform="matrix(1,0,0,-1,0,277.63602)"
         id="g258"><path
           id="path260"
           style="fill:none;stroke:#32cd32;stroke-width:3.5999999;stroke-linecap:square;stroke-linejoin:miter;stroke-miterlimit:4;stroke-dasharray:none;stroke-opacity:1"
           d="m 461.094,59.484 121.031,0 c 5.699,0 10.285,3.368 10.285,7.551 l 0,65.707 c 0,4.184 -4.586,7.551 -10.285,7.551 l -121.031,0 c -5.699,0 -10.285,-3.367 -10.285,-7.551 l 0,-65.707 c 0,-4.183 4.586,-7.551 10.285,-7.551 z" /></g><text
         id="text262"
         style="font-variant:normal;font-weight:bold;font-size:16px;font-family:'DejaVu Sans';-inkscape-font-specification:DejaVuSans-Bold;writing-mode:lr-tb;fill:#32cd32;fill-opacity:1;fill-rule:nonzero;stroke:none"
         transform="matrix(1,0,0,-1,470.99569,186.89981)"><tspan
           id="tspan264"
           y="0"
           x="0 10.928 21.247999 32.688 38.16 49.152 54.672001 62.32 73.103996 80.751999 86.272003 97.264">Exploitation</tspan></text>
<g
         transform="matrix(1,0,0,-1,0,277.63602)"
         id="g266"><path
           id="path268"
           style="fill:none;stroke:#009707;stroke-width:1.51999998;stroke-linecap:butt;stroke-linejoin:miter;stroke-miterlimit:4;stroke-dasharray:none;stroke-opacity:1"
           d="m 496.305,120.906 c 45.836,-0.597 42.797,-0.383 51.715,-0.539" /></g><g
         transform="matrix(-1,-0.0171153,-0.0171153,1,0,277.63602)"
         id="g270"><path
           id="path272"
           style="fill:#009707;fill-opacity:1;fill-rule:evenodd;stroke:#009707;stroke-width:0.75988901;stroke-linecap:butt;stroke-linejoin:miter;stroke-miterlimit:4;stroke-dasharray:none;stroke-opacity:1"
           d="m -539.717,-129.71 3.036,-3.042 -10.638,3.041 10.639,3.041 -3.037,-3.04 z" /></g><text
         id="text274"
         style="font-variant:normal;font-weight:bold;font-size:9px;font-family:'DejaVu Sans';-inkscape-font-specification:DejaVuSans-Bold;writing-mode:lr-tb;fill:#009707;fill-opacity:1;fill-rule:nonzero;stroke:none"
         transform="matrix(1,0,0,-1,500.32474,163.13736)"><tspan
           id="tspan276"
           y="0"
           x="0 5.7779999 11.961 16.398001 24.705 30.798 35.235001">Forward</tspan></text>
<path
         id="path278"
         style="fill:#ffffff;fill-opacity:1;fill-rule:nonzero;stroke:none"
         d="m 353.25,29.831 97.891,0 c 4.609,0 8.32,-1.215 8.32,-2.722 l 0,-23.672 c 0,-1.508 -3.711,-2.723 -8.32,-2.723 l -97.891,0 c -4.609,0 -8.32,1.215 -8.32,2.723 l 0,23.672 c 0,1.507 3.711,2.722 8.32,2.722 z" /><g
         transform="matrix(1,0,0,-1,0,277.63602)"
         id="g280"><path
           id="path282"
           style="fill:none;stroke:#000000;stroke-width:1.43040001;stroke-linecap:square;stroke-linejoin:miter;stroke-miterlimit:4;stroke-dasharray:none;stroke-opacity:0.89411801"
           d="m 353.25,247.805 97.891,0 c 4.609,0 8.32,1.215 8.32,2.722 l 0,23.672 c 0,1.508 -3.711,2.723 -8.32,2.723 l -97.891,0 c -4.609,0 -8.32,-1.215 -8.32,-2.723 l 0,-23.672 c 0,-1.507 3.711,-2.722 8.32,-2.722 z" /></g><text
         id="text284"
         style="font-variant:normal;font-weight:bold;font-size:14px;font-family:'DejaVu Sans';-inkscape-font-specification:DejaVuSans-Bold;writing-mode:lr-tb;fill:#000000;fill-opacity:1;fill-rule:nonzero;stroke:none"
         transform="matrix(1,0,0,-1,348.6535,10.12389)"><tspan
           id="tspan286"
           y="0"
           x="0 4.7880001 13.118 17.99 27.552 39.452 53.382 58.254002 68.264 77.924004 87.542 97.552002">is FOM good?</tspan></text>
</g></g></svg>