<?xml version="1.0" encoding="UTF-8" standalone="no"?>
<svg
   xmlns:dc="http://purl.org/dc/elements/1.1/"
   xmlns:cc="http://creativecommons.org/ns#"
   xmlns:rdf="http://www.w3.org/1999/02/22-rdf-syntax-ns#"
   xmlns:svg="http://www.w3.org/2000/svg"
   xmlns="http://www.w3.org/2000/svg"
   viewBox="0 0 167.71862 167.71863"
   height="167.71863"
   width="167.71863"
   xml:space="preserve"
   version="1.1"
   id="svg2"><metadata
     id="metadata8"><rdf:RDF><cc:Work
         rdf:about=""><dc:format>image/svg+xml</dc:format><dc:type
           rdf:resource="http://purl.org/dc/dcmitype/StillImage" /><dc:title></dc:title></cc:Work></rdf:RDF></metadata><defs
     id="defs6" /><g
     transform="matrix(1.25,0,0,-1.25,-307.09685,620.82351)"
     id="g10"><g
       transform="translate(295.11552,759.86699)"
       id="g20"><g
         transform="translate(17.910908,-327.34104)"
         id="g22"><rect
           transform="scale(1,-1)"
           y="-63.932861"
           x="-67.148949"
           height="133.7749"
           width="133.7749"
           id="rect7213"
           style="opacity:1;fill:#ffffff;fill-opacity:1;stroke:#000000;stroke-width:0.40000001;stroke-linecap:butt;stroke-linejoin:miter;stroke-miterlimit:10.43299961;stroke-dasharray:none;stroke-dashoffset:0;stroke-opacity:1" /><g
           id="g24" /><g
           id="g26"><g
             id="g28"><path
               id="path30"
               style="fill:#ff3333;fill-opacity:1;fill-rule:nonzero;stroke:#000000;stroke-width:0.3985;stroke-linecap:butt;stroke-linejoin:miter;stroke-miterlimit:10;stroke-dasharray:none;stroke-opacity:1"
               d="M 1.99255,0 C 1.99255,1.10046 1.10046,1.99255 0,1.99255 -1.10046,1.99255 -1.99255,1.10046 -1.99255,0 c 0,-1.10046 0.89209,-1.99255 1.99255,-1.99255 1.10046,0 1.99255,0.89209 1.99255,1.99255 z" /></g><g
             id="g32"><g
               id="g34" /><g
               transform="translate(-11.464,-9.832)"
               id="g36"><g
                 id="g38"><g
                   transform="translate(-286.174,-690.126)"
                   id="g40"><text
                     id="text42"
                     style="font-variant:normal;font-weight:normal;font-size:5.9776001px;font-family:SFBX0600;-inkscape-font-specification:SFBX0600;writing-mode:lr-tb;fill:#ff0000;fill-opacity:1;fill-rule:nonzero;stroke:none"
                     transform="matrix(1,0,0,-1,286.174,690.126)"><tspan
                       id="tspan44"
                       y="0"
                       x="0 3.2930598 7.4373298 12.02992 15.442532 19.13908">source</tspan></text>
<g
                     transform="translate(286.174,690.126)"
                     id="g46" /></g></g><g
                 transform="translate(11.464,9.832)"
                 id="g48" /></g></g><g
             id="g50"><path
               id="path52"
               style="fill:none;stroke:#a6a6a6;stroke-width:5.66934013;stroke-linecap:butt;stroke-linejoin:miter;stroke-miterlimit:10;stroke-dasharray:none;stroke-opacity:1"
               d="M 28.3468,0 C 28.3468,15.6557 15.6557,28.3468 0,28.3468 -15.6557,28.3468 -28.3468,15.6557 -28.3468,0 c 0,-15.6557 12.6911,-28.3468 28.3468,-28.3468 15.6557,0 28.3468,12.6911 28.3468,28.3468 z" /></g><g
             id="g54"><g
               id="g56" /><g
               transform="translate(-14.961,-38.913)"
               id="g58"><g
                 id="g60"><g
                   transform="translate(-282.677,-661.045)"
                   id="g62"><text
                     id="text64"
                     style="font-variant:normal;font-weight:normal;font-size:5.9776001px;font-family:SFBX0600;-inkscape-font-specification:SFBX0600;writing-mode:lr-tb;fill:#a6a6a6;fill-opacity:1;fill-rule:nonzero;stroke:none"
                     transform="matrix(1,0,0,-1,282.677,661.045)"><tspan
                       id="tspan66"
                       y="0"
                       x="0 4.5925899 8.3817911 11.630018 15.419219 19.115767 22.363995 26.508265">detector</tspan></text>
<g
                     transform="translate(282.677,661.045)"
                     id="g68" /></g></g><g
                 transform="translate(14.961,38.913)"
                 id="g70" /></g></g><g
             id="g72"><path
               id="path74"
               style="fill:none;stroke:#000000;stroke-width:0.3985;stroke-linecap:butt;stroke-linejoin:miter;stroke-miterlimit:10;stroke-dasharray:none;stroke-opacity:1"
               d="M 56.69363,0 C 56.69363,31.31142 31.31142,56.69363 0,56.69363 -31.31142,56.69363 -56.69363,31.31142 -56.69363,0 c 0,-31.31142 25.38221,-56.69363 56.69363,-56.69363 31.31142,0 56.69363,25.38221 56.69363,56.69363 z" /></g><g
             id="g76"><g
               id="g78" /><g
               transform="translate(-5.978,-64.936)"
               id="g80"><g
                 id="g82"><g
                   transform="translate(-291.66,-635.022)"
                   id="g84"><text
                     id="text86"
                     style="font-variant:normal;font-weight:normal;font-size:11.9552002px;font-family:CMSY10;-inkscape-font-specification:CMSY10;writing-mode:lr-tb;fill:#000000;fill-opacity:1;fill-rule:nonzero;stroke:none"
                     transform="matrix(1,0,0,-1,291.66,635.022)"><tspan
                       id="tspan88"
                       y="0"
                       x="0">∞</tspan></text>
<g
                     transform="translate(291.66,635.022)"
                     id="g90" /></g></g><g
                 transform="translate(5.978,64.936)"
                 id="g92" /></g></g></g></g></g></g></svg>